<svg width="95" height="76" viewBox="0 0 95 76" fill="none" xmlns="http://www.w3.org/2000/svg">
<path d="M13.4957 23.0857C13.4957 23.0857 9.56132 23.3716 9.87074 18.0517L13.3047 17.4851C13.3047 17.4851 14.9875 16.3942 15.567 15.0781C16.1466 13.762 18.3636 12.4414 19.3698 12.3266C19.3698 12.3266 19.7903 8.11652 18.7929 7.19756C18.7929 7.19756 16.214 5.08436 18.3719 4.70578C18.3719 4.70578 21.3135 4.39981 23.5704 11.1524C23.6854 11.4968 24.5601 14.5068 26.2034 16.1104C26.7038 16.5977 27.2043 17.085 27.6602 17.6366C29.5889 19.9646 34.1737 25.7468 36.2964 30.4081C36.2964 30.4081 41.1013 39.8287 50.5864 40.9237C51.0726 40.9819 51.5576 41.0904 52.0389 41.2103C53.3969 41.542 56.2852 41.8538 56.9478 38.7285C56.9478 38.7285 56.1536 29.8659 52.1386 23.6506C52.1386 23.6506 50.4894 21.1259 52.1753 20.3588C53.0182 19.9752 53.9431 20.9379 54.4394 21.9113C56.2669 25.4913 61.1038 35.8928 60.3838 44.4727C60.3838 44.4727 60.7406 46.3096 61.8692 47.7563C62.3034 48.3148 62.717 48.8971 63.0599 49.5508C63.9379 51.2314 65.3983 54.3323 65.5854 56.6268C65.5854 56.6268 66.021 59.3467 68.0147 57.9957C68.0147 57.9957 69.5188 55.4977 71.586 59.3639C71.586 59.3639 75.855 65.1217 78.1546 66.1247C78.1546 66.1247 80.3576 69.6917 76.1579 68.2577C76.1579 68.2577 72.2695 66.0163 70.9602 63.4084C70.9602 63.4084 70.2337 61.813 66.1321 62.7351C66.1321 62.7351 66.0508 62.7794 65.9089 62.8444C62.537 64.4457 58.6439 63.0982 56.2892 59.5129C54.3269 56.5225 50.8718 52.1366 47.3405 51.8046L35.8944 52.2261C33.139 52.3302 30.3659 51.5363 27.9428 49.7818C26.6711 48.8636 25.4226 47.6871 24.5732 46.2449C24.5732 46.2449 24.1627 47.1592 19.8202 45.4998C19.8202 45.4998 15.9031 43.4333 13.0253 43.6291L10.5023 44.1819C10.022 44.2853 9.52416 44.1832 9.08504 43.893L8.02633 43.1902C8.02633 43.1902 4.84521 43.9025 3.77936 43.0885C3.77936 43.0885 0.535276 41.1632 3.55529 39.5956C3.55529 39.5956 6.58057 38.9379 9.99059 38.9649C14.1848 39.0031 18.9815 39.7397 19.7666 39.8346C19.7666 39.8346 19.5201 33.8522 21.1203 32.1635C21.4063 31.8603 21.6674 31.514 21.8258 31.085C22.3844 29.5804 22.9782 26.3477 18.6806 24.8362C18.3862 24.7323 18.0866 24.6845 17.7868 24.7037L14.1721 24.9356C14.1721 24.9356 12.1417 24.8871 11.7663 22.9676" fill="white"/>
<path d="M26.0897 21.4532C18.678 24.722 15.1205 19.6894 14.2682 16.7645L15.0137 16.2977L15.6878 14.7181L17.1431 13.2281L19.4063 12.2449L19.4663 9.72702L19.1119 7.65474L17.5527 5.7994L17.4992 4.96483L18.5846 4.61587L19.9531 5.22643L21.7239 6.92851L23.4079 10.7312L25.238 15.0832L29.0806 19.725C28.7561 20.1928 26.9514 21.0721 26.0897 21.4532Z" fill="#FFD4C0"/>
<path d="M36.0745 44.1366C31.927 40.2684 34.334 33.1213 36.0559 30.0313L36.3211 30.7126L38.9891 34.3125L42.6411 37.7096L46.8926 40.0906L52.1759 41.288L53.9589 41.453L55.7062 41.0616C57.2669 51.5762 41.2588 48.9717 36.0745 44.1366Z" fill="#FFD4C0"/>
<mask id="path-4-outside-1_854_18187" maskUnits="userSpaceOnUse" x="0.0200671" y="1.36929" width="81.3231" height="74.7856" fill="black">
<rect fill="white" x="0.0200671" y="1.36929" width="81.3231" height="74.7856"/>
<path d="M79.1707 70.3812C78.7255 70.4097 78.1295 70.2971 77.3738 70.0385C77.1855 69.9333 73.3921 67.7248 72.0678 65.0899C72.0576 65.0683 71.2985 63.6537 67.4364 64.5158C67.432 64.5161 67.3552 64.5601 67.235 64.6181C63.777 66.2584 59.8296 64.892 57.4116 61.2159C55.6356 58.5095 52.1233 53.9206 48.5875 53.5889L37.1638 54.0146C34.2847 54.1211 31.5032 53.2663 29.1175 51.5428C27.6741 50.5017 26.5601 49.35 25.7992 48.1143C25.4112 48.3459 24.28 48.5134 21.0357 47.275C20.9806 47.245 17.1244 45.2305 14.3208 45.4103L14.3032 45.4115L11.8019 45.9573C11.2867 46.0685 10.744 45.9581 10.2726 45.6477L9.26492 44.9807C8.80193 45.0774 5.99576 45.6316 4.95743 44.8326C4.90715 44.8079 3.35999 43.8739 3.35822 42.6733C3.35949 42.003 3.8267 41.4201 4.74771 40.9422C4.81276 40.9213 7.86484 40.2675 11.2528 40.2959C14.9023 40.3299 18.9971 40.8882 20.5375 41.0966C20.658 41.1112 20.7608 41.1269 20.8456 41.1382C20.8185 39.956 20.7946 35.0987 22.2661 33.541C22.5892 33.1964 22.7992 32.8813 22.9276 32.538C23.237 31.7028 23.5108 30.4509 23.0624 29.2566C22.6195 28.0787 21.553 27.1865 19.8957 26.6059C19.6149 26.5066 19.3336 26.4688 19.0603 26.4863L15.4456 26.7182C15.3435 26.7136 13.2584 26.6407 12.8557 24.5722L13.0994 24.5063C12.6884 24.3093 12.257 24.0019 11.8906 23.5339C11.172 22.6138 10.8568 21.2881 10.9555 19.5839L10.9665 19.4101L14.5055 18.8256C14.7177 18.6836 16.1628 17.6805 16.6726 16.5197C17.2562 15.1977 19.3413 13.8912 20.4697 13.6791C20.576 12.4381 20.6629 9.58421 19.9527 8.93166C19.7099 8.735 18.473 7.66945 18.6079 6.8063C18.6748 6.3999 18.9996 6.15009 19.6081 6.04404C19.7403 6.03555 22.713 5.80019 24.9969 12.6292L25.0301 12.7332C25.8954 15.4589 26.8905 16.8248 27.5706 17.4905L27.6461 17.5638C28.1139 18.0253 28.6001 18.4968 29.0416 19.0325C30.937 21.3236 35.5691 27.1531 37.7079 31.858C37.7485 31.9391 42.5732 41.1854 51.853 42.2544C52.3256 42.3078 52.7835 42.4069 53.3231 42.5399C54.8115 42.9023 57.3952 43.0885 58.0235 40.2557C57.9586 39.5897 57.0536 31.209 53.2554 25.3372C53.2162 25.2783 52.3017 23.8569 52.5309 22.7364C52.6287 22.261 52.9074 21.9136 53.3633 21.7057C54.2794 21.2895 55.2693 22.2313 55.8413 23.3506C57.8713 27.3253 62.5157 37.4879 61.8193 46.0215C61.8758 46.2804 62.2577 47.8867 63.247 49.1636C63.609 49.6319 64.0787 50.2608 64.4622 50.9957C65.3355 52.671 66.8259 55.8258 67.0165 58.176C67.0165 58.176 67.1989 59.2254 67.7976 59.5891C68.1616 59.8115 68.6175 59.7431 69.1523 59.3849C69.2691 59.2043 69.7946 58.4948 70.608 58.5487C71.4079 58.598 72.2091 59.3564 72.9843 60.8146C73.0081 60.841 77.2317 66.5123 79.4586 67.4865L79.5089 67.5112L79.5433 67.5648C79.6374 67.7207 80.4602 69.0921 80.0425 69.8952C79.8891 70.1954 79.5987 70.3593 79.1623 70.3873L79.1707 70.3812ZM69.1443 63.8142C71.7804 63.6451 72.3417 64.8043 72.372 64.8638C73.6349 67.3686 77.447 69.5926 77.4884 69.6178C79.167 70.1859 79.6297 69.877 79.7517 69.6402C79.9803 69.2011 79.5208 68.2476 79.3066 67.876C76.9806 66.8077 72.8922 61.3119 72.7178 61.0774C71.9891 59.7223 71.2852 59.0303 70.6054 58.9901C69.8767 58.9475 69.4198 59.6917 69.4158 59.6975L69.3621 59.7568C68.7089 60.2008 68.1339 60.2768 67.6548 59.9836C66.8898 59.5133 66.682 58.2756 66.6744 58.2258C66.4932 55.9532 65.0295 52.8693 64.1764 51.2318C63.8126 50.5291 63.362 49.9214 63.0098 49.4692C61.8619 47.9959 61.4918 46.1598 61.478 46.0825L61.4755 46.0436L61.473 46.0047C62.1735 37.6048 57.57 27.5289 55.5555 23.5868C55.0794 22.6511 54.2325 21.8007 53.5054 22.1266C53.1569 22.283 52.9555 22.5249 52.8843 22.8645C52.699 23.77 53.5296 25.0571 53.5391 25.0677C57.5439 31.2613 58.3814 40.1769 58.3915 40.2656L58.3943 40.3101L58.388 40.3496C57.6769 43.6847 54.5761 43.3028 53.2764 42.9841C52.7459 42.8561 52.2968 42.7565 51.8419 42.7019C42.3792 41.6111 37.4626 32.1753 37.4169 32.0833C35.2986 27.4217 30.6907 21.6242 28.8096 19.349C28.3827 18.8346 27.9057 18.3682 27.4427 17.912L27.3672 17.8386C26.6493 17.1363 25.6063 15.7121 24.708 12.8879L24.6752 12.7895C22.5023 6.31075 19.7027 6.48475 19.6543 6.48786C19.2383 6.55922 18.9868 6.7094 18.9552 6.90689C18.889 7.32442 19.6133 8.12686 20.1506 8.56711C21.2095 9.54914 20.8546 13.4702 20.8079 13.9144L20.7925 14.0885L20.6558 14.0972C19.6631 14.2168 17.5215 15.5381 16.988 16.7452C16.3934 18.1014 14.7241 19.197 14.6561 19.2404L14.5998 19.2608L11.3059 19.8016C11.2458 21.2799 11.5279 22.4346 12.145 23.2216C13.1479 24.5032 14.7179 24.4136 14.7488 24.4117L14.7773 24.8566C14.7465 24.8586 14.0235 24.905 13.222 24.5543C13.602 26.1998 15.4211 26.2674 15.4387 26.2663L19.0402 26.0352C19.3532 26.0152 19.6749 26.0615 19.992 26.1752C21.758 26.7936 22.9007 27.7702 23.3915 29.0735C23.8987 30.4261 23.5979 31.8081 23.2589 32.7346C23.112 33.1349 22.87 33.5023 22.5097 33.8884C20.9926 35.4937 21.2115 41.3214 21.2154 41.3826L21.2315 41.6329L21.0262 41.6069C20.9237 41.5968 20.7493 41.5689 20.5172 41.5391C18.9812 41.3304 14.8996 40.7713 11.2681 40.7417C7.91543 40.7111 4.89385 41.3573 4.86335 41.3648C4.1269 41.7527 3.71831 42.2146 3.71743 42.6837C3.7171 43.4377 4.73161 44.2104 5.12272 44.4422C5.9652 45.0863 8.39415 44.7238 9.25806 44.5288L9.31906 44.5137L10.4332 45.252C10.8352 45.5167 11.2971 45.6099 11.7337 45.5149L14.2566 44.9621L14.2831 44.9604C17.1881 44.774 20.994 46.7639 21.1544 46.8485C25.1111 48.3595 25.6953 47.6686 25.6994 47.6628L25.8311 47.3695L25.9833 47.6725C26.7141 48.9213 27.8292 50.0896 29.2957 51.146C31.6212 52.8287 34.3395 53.6652 37.1522 53.5574L48.5983 53.1359C52.1029 53.464 55.4769 57.5535 57.6942 60.9297C60.0096 64.4561 63.7941 65.7659 67.1146 64.1902C67.2521 64.1255 67.3289 64.0815 67.3333 64.0812C68.0315 63.9247 68.6366 63.8356 69.1612 63.802L69.1443 63.8142Z"/>
</mask>
<path d="M79.1707 70.3812C78.7255 70.4097 78.1295 70.2971 77.3738 70.0385C77.1855 69.9333 73.3921 67.7248 72.0678 65.0899C72.0576 65.0683 71.2985 63.6537 67.4364 64.5158C67.432 64.5161 67.3552 64.5601 67.235 64.6181C63.777 66.2584 59.8296 64.892 57.4116 61.2159C55.6356 58.5095 52.1233 53.9206 48.5875 53.5889L37.1638 54.0146C34.2847 54.1211 31.5032 53.2663 29.1175 51.5428C27.6741 50.5017 26.5601 49.35 25.7992 48.1143C25.4112 48.3459 24.28 48.5134 21.0357 47.275C20.9806 47.245 17.1244 45.2305 14.3208 45.4103L14.3032 45.4115L11.8019 45.9573C11.2867 46.0685 10.744 45.9581 10.2726 45.6477L9.26492 44.9807C8.80193 45.0774 5.99576 45.6316 4.95743 44.8326C4.90715 44.8079 3.35999 43.8739 3.35822 42.6733C3.35949 42.003 3.8267 41.4201 4.74771 40.9422C4.81276 40.9213 7.86484 40.2675 11.2528 40.2959C14.9023 40.3299 18.9971 40.8882 20.5375 41.0966C20.658 41.1112 20.7608 41.1269 20.8456 41.1382C20.8185 39.956 20.7946 35.0987 22.2661 33.541C22.5892 33.1964 22.7992 32.8813 22.9276 32.538C23.237 31.7028 23.5108 30.4509 23.0624 29.2566C22.6195 28.0787 21.553 27.1865 19.8957 26.6059C19.6149 26.5066 19.3336 26.4688 19.0603 26.4863L15.4456 26.7182C15.3435 26.7136 13.2584 26.6407 12.8557 24.5722L13.0994 24.5063C12.6884 24.3093 12.257 24.0019 11.8906 23.5339C11.172 22.6138 10.8568 21.2881 10.9555 19.5839L10.9665 19.4101L14.5055 18.8256C14.7177 18.6836 16.1628 17.6805 16.6726 16.5197C17.2562 15.1977 19.3413 13.8912 20.4697 13.6791C20.576 12.4381 20.6629 9.58421 19.9527 8.93166C19.7099 8.735 18.473 7.66945 18.6079 6.8063C18.6748 6.3999 18.9996 6.15009 19.6081 6.04404C19.7403 6.03555 22.713 5.80019 24.9969 12.6292L25.0301 12.7332C25.8954 15.4589 26.8905 16.8248 27.5706 17.4905L27.6461 17.5638C28.1139 18.0253 28.6001 18.4968 29.0416 19.0325C30.937 21.3236 35.5691 27.1531 37.7079 31.858C37.7485 31.9391 42.5732 41.1854 51.853 42.2544C52.3256 42.3078 52.7835 42.4069 53.3231 42.5399C54.8115 42.9023 57.3952 43.0885 58.0235 40.2557C57.9586 39.5897 57.0536 31.209 53.2554 25.3372C53.2162 25.2783 52.3017 23.8569 52.5309 22.7364C52.6287 22.261 52.9074 21.9136 53.3633 21.7057C54.2794 21.2895 55.2693 22.2313 55.8413 23.3506C57.8713 27.3253 62.5157 37.4879 61.8193 46.0215C61.8758 46.2804 62.2577 47.8867 63.247 49.1636C63.609 49.6319 64.0787 50.2608 64.4622 50.9957C65.3355 52.671 66.8259 55.8258 67.0165 58.176C67.0165 58.176 67.1989 59.2254 67.7976 59.5891C68.1616 59.8115 68.6175 59.7431 69.1523 59.3849C69.2691 59.2043 69.7946 58.4948 70.608 58.5487C71.4079 58.598 72.2091 59.3564 72.9843 60.8146C73.0081 60.841 77.2317 66.5123 79.4586 67.4865L79.5089 67.5112L79.5433 67.5648C79.6374 67.7207 80.4602 69.0921 80.0425 69.8952C79.8891 70.1954 79.5987 70.3593 79.1623 70.3873L79.1707 70.3812ZM69.1443 63.8142C71.7804 63.6451 72.3417 64.8043 72.372 64.8638C73.6349 67.3686 77.447 69.5926 77.4884 69.6178C79.167 70.1859 79.6297 69.877 79.7517 69.6402C79.9803 69.2011 79.5208 68.2476 79.3066 67.876C76.9806 66.8077 72.8922 61.3119 72.7178 61.0774C71.9891 59.7223 71.2852 59.0303 70.6054 58.9901C69.8767 58.9475 69.4198 59.6917 69.4158 59.6975L69.3621 59.7568C68.7089 60.2008 68.1339 60.2768 67.6548 59.9836C66.8898 59.5133 66.682 58.2756 66.6744 58.2258C66.4932 55.9532 65.0295 52.8693 64.1764 51.2318C63.8126 50.5291 63.362 49.9214 63.0098 49.4692C61.8619 47.9959 61.4918 46.1598 61.478 46.0825L61.4755 46.0436L61.473 46.0047C62.1735 37.6048 57.57 27.5289 55.5555 23.5868C55.0794 22.6511 54.2325 21.8007 53.5054 22.1266C53.1569 22.283 52.9555 22.5249 52.8843 22.8645C52.699 23.77 53.5296 25.0571 53.5391 25.0677C57.5439 31.2613 58.3814 40.1769 58.3915 40.2656L58.3943 40.3101L58.388 40.3496C57.6769 43.6847 54.5761 43.3028 53.2764 42.9841C52.7459 42.8561 52.2968 42.7565 51.8419 42.7019C42.3792 41.6111 37.4626 32.1753 37.4169 32.0833C35.2986 27.4217 30.6907 21.6242 28.8096 19.349C28.3827 18.8346 27.9057 18.3682 27.4427 17.912L27.3672 17.8386C26.6493 17.1363 25.6063 15.7121 24.708 12.8879L24.6752 12.7895C22.5023 6.31075 19.7027 6.48475 19.6543 6.48786C19.2383 6.55922 18.9868 6.7094 18.9552 6.90689C18.889 7.32442 19.6133 8.12686 20.1506 8.56711C21.2095 9.54914 20.8546 13.4702 20.8079 13.9144L20.7925 14.0885L20.6558 14.0972C19.6631 14.2168 17.5215 15.5381 16.988 16.7452C16.3934 18.1014 14.7241 19.197 14.6561 19.2404L14.5998 19.2608L11.3059 19.8016C11.2458 21.2799 11.5279 22.4346 12.145 23.2216C13.1479 24.5032 14.7179 24.4136 14.7488 24.4117L14.7773 24.8566C14.7465 24.8586 14.0235 24.905 13.222 24.5543C13.602 26.1998 15.4211 26.2674 15.4387 26.2663L19.0402 26.0352C19.3532 26.0152 19.6749 26.0615 19.992 26.1752C21.758 26.7936 22.9007 27.7702 23.3915 29.0735C23.8987 30.4261 23.5979 31.8081 23.2589 32.7346C23.112 33.1349 22.87 33.5023 22.5097 33.8884C20.9926 35.4937 21.2115 41.3214 21.2154 41.3826L21.2315 41.6329L21.0262 41.6069C20.9237 41.5968 20.7493 41.5689 20.5172 41.5391C18.9812 41.3304 14.8996 40.7713 11.2681 40.7417C7.91543 40.7111 4.89385 41.3573 4.86335 41.3648C4.1269 41.7527 3.71831 42.2146 3.71743 42.6837C3.7171 43.4377 4.73161 44.2104 5.12272 44.4422C5.9652 45.0863 8.39415 44.7238 9.25806 44.5288L9.31906 44.5137L10.4332 45.252C10.8352 45.5167 11.2971 45.6099 11.7337 45.5149L14.2566 44.9621L14.2831 44.9604C17.1881 44.774 20.994 46.7639 21.1544 46.8485C25.1111 48.3595 25.6953 47.6686 25.6994 47.6628L25.8311 47.3695L25.9833 47.6725C26.7141 48.9213 27.8292 50.0896 29.2957 51.146C31.6212 52.8287 34.3395 53.6652 37.1522 53.5574L48.5983 53.1359C52.1029 53.464 55.4769 57.5535 57.6942 60.9297C60.0096 64.4561 63.7941 65.7659 67.1146 64.1902C67.2521 64.1255 67.3289 64.0815 67.3333 64.0812C68.0315 63.9247 68.6366 63.8356 69.1612 63.802L69.1443 63.8142Z" fill="#515151"/>
<path d="M79.1707 70.3812C78.7255 70.4097 78.1295 70.2971 77.3738 70.0385C77.1855 69.9333 73.3921 67.7248 72.0678 65.0899C72.0576 65.0683 71.2985 63.6537 67.4364 64.5158C67.432 64.5161 67.3552 64.5601 67.235 64.6181C63.777 66.2584 59.8296 64.892 57.4116 61.2159C55.6356 58.5095 52.1233 53.9206 48.5875 53.5889L37.1638 54.0146C34.2847 54.1211 31.5032 53.2663 29.1175 51.5428C27.6741 50.5017 26.5601 49.35 25.7992 48.1143C25.4112 48.3459 24.28 48.5134 21.0357 47.275C20.9806 47.245 17.1244 45.2305 14.3208 45.4103L14.3032 45.4115L11.8019 45.9573C11.2867 46.0685 10.744 45.9581 10.2726 45.6477L9.26492 44.9807C8.80193 45.0774 5.99576 45.6316 4.95743 44.8326C4.90715 44.8079 3.35999 43.8739 3.35822 42.6733C3.35949 42.003 3.8267 41.4201 4.74771 40.9422C4.81276 40.9213 7.86484 40.2675 11.2528 40.2959C14.9023 40.3299 18.9971 40.8882 20.5375 41.0966C20.658 41.1112 20.7608 41.1269 20.8456 41.1382C20.8185 39.956 20.7946 35.0987 22.2661 33.541C22.5892 33.1964 22.7992 32.8813 22.9276 32.538C23.237 31.7028 23.5108 30.4509 23.0624 29.2566C22.6195 28.0787 21.553 27.1865 19.8957 26.6059C19.6149 26.5066 19.3336 26.4688 19.0603 26.4863L15.4456 26.7182C15.3435 26.7136 13.2584 26.6407 12.8557 24.5722L13.0994 24.5063C12.6884 24.3093 12.257 24.0019 11.8906 23.5339C11.172 22.6138 10.8568 21.2881 10.9555 19.5839L10.9665 19.4101L14.5055 18.8256C14.7177 18.6836 16.1628 17.6805 16.6726 16.5197C17.2562 15.1977 19.3413 13.8912 20.4697 13.6791C20.576 12.4381 20.6629 9.58421 19.9527 8.93166C19.7099 8.735 18.473 7.66945 18.6079 6.8063C18.6748 6.3999 18.9996 6.15009 19.6081 6.04404C19.7403 6.03555 22.713 5.80019 24.9969 12.6292L25.0301 12.7332C25.8954 15.4589 26.8905 16.8248 27.5706 17.4905L27.6461 17.5638C28.1139 18.0253 28.6001 18.4968 29.0416 19.0325C30.937 21.3236 35.5691 27.1531 37.7079 31.858C37.7485 31.9391 42.5732 41.1854 51.853 42.2544C52.3256 42.3078 52.7835 42.4069 53.3231 42.5399C54.8115 42.9023 57.3952 43.0885 58.0235 40.2557C57.9586 39.5897 57.0536 31.209 53.2554 25.3372C53.2162 25.2783 52.3017 23.8569 52.5309 22.7364C52.6287 22.261 52.9074 21.9136 53.3633 21.7057C54.2794 21.2895 55.2693 22.2313 55.8413 23.3506C57.8713 27.3253 62.5157 37.4879 61.8193 46.0215C61.8758 46.2804 62.2577 47.8867 63.247 49.1636C63.609 49.6319 64.0787 50.2608 64.4622 50.9957C65.3355 52.671 66.8259 55.8258 67.0165 58.176C67.0165 58.176 67.1989 59.2254 67.7976 59.5891C68.1616 59.8115 68.6175 59.7431 69.1523 59.3849C69.2691 59.2043 69.7946 58.4948 70.608 58.5487C71.4079 58.598 72.2091 59.3564 72.9843 60.8146C73.0081 60.841 77.2317 66.5123 79.4586 67.4865L79.5089 67.5112L79.5433 67.5648C79.6374 67.7207 80.4602 69.0921 80.0425 69.8952C79.8891 70.1954 79.5987 70.3593 79.1623 70.3873L79.1707 70.3812ZM69.1443 63.8142C71.7804 63.6451 72.3417 64.8043 72.372 64.8638C73.6349 67.3686 77.447 69.5926 77.4884 69.6178C79.167 70.1859 79.6297 69.877 79.7517 69.6402C79.9803 69.2011 79.5208 68.2476 79.3066 67.876C76.9806 66.8077 72.8922 61.3119 72.7178 61.0774C71.9891 59.7223 71.2852 59.0303 70.6054 58.9901C69.8767 58.9475 69.4198 59.6917 69.4158 59.6975L69.3621 59.7568C68.7089 60.2008 68.1339 60.2768 67.6548 59.9836C66.8898 59.5133 66.682 58.2756 66.6744 58.2258C66.4932 55.9532 65.0295 52.8693 64.1764 51.2318C63.8126 50.5291 63.362 49.9214 63.0098 49.4692C61.8619 47.9959 61.4918 46.1598 61.478 46.0825L61.4755 46.0436L61.473 46.0047C62.1735 37.6048 57.57 27.5289 55.5555 23.5868C55.0794 22.6511 54.2325 21.8007 53.5054 22.1266C53.1569 22.283 52.9555 22.5249 52.8843 22.8645C52.699 23.77 53.5296 25.0571 53.5391 25.0677C57.5439 31.2613 58.3814 40.1769 58.3915 40.2656L58.3943 40.3101L58.388 40.3496C57.6769 43.6847 54.5761 43.3028 53.2764 42.9841C52.7459 42.8561 52.2968 42.7565 51.8419 42.7019C42.3792 41.6111 37.4626 32.1753 37.4169 32.0833C35.2986 27.4217 30.6907 21.6242 28.8096 19.349C28.3827 18.8346 27.9057 18.3682 27.4427 17.912L27.3672 17.8386C26.6493 17.1363 25.6063 15.7121 24.708 12.8879L24.6752 12.7895C22.5023 6.31075 19.7027 6.48475 19.6543 6.48786C19.2383 6.55922 18.9868 6.7094 18.9552 6.90689C18.889 7.32442 19.6133 8.12686 20.1506 8.56711C21.2095 9.54914 20.8546 13.4702 20.8079 13.9144L20.7925 14.0885L20.6558 14.0972C19.6631 14.2168 17.5215 15.5381 16.988 16.7452C16.3934 18.1014 14.7241 19.197 14.6561 19.2404L14.5998 19.2608L11.3059 19.8016C11.2458 21.2799 11.5279 22.4346 12.145 23.2216C13.1479 24.5032 14.7179 24.4136 14.7488 24.4117L14.7773 24.8566C14.7465 24.8586 14.0235 24.905 13.222 24.5543C13.602 26.1998 15.4211 26.2674 15.4387 26.2663L19.0402 26.0352C19.3532 26.0152 19.6749 26.0615 19.992 26.1752C21.758 26.7936 22.9007 27.7702 23.3915 29.0735C23.8987 30.4261 23.5979 31.8081 23.2589 32.7346C23.112 33.1349 22.87 33.5023 22.5097 33.8884C20.9926 35.4937 21.2115 41.3214 21.2154 41.3826L21.2315 41.6329L21.0262 41.6069C20.9237 41.5968 20.7493 41.5689 20.5172 41.5391C18.9812 41.3304 14.8996 40.7713 11.2681 40.7417C7.91543 40.7111 4.89385 41.3573 4.86335 41.3648C4.1269 41.7527 3.71831 42.2146 3.71743 42.6837C3.7171 43.4377 4.73161 44.2104 5.12272 44.4422C5.9652 45.0863 8.39415 44.7238 9.25806 44.5288L9.31906 44.5137L10.4332 45.252C10.8352 45.5167 11.2971 45.6099 11.7337 45.5149L14.2566 44.9621L14.2831 44.9604C17.1881 44.774 20.994 46.7639 21.1544 46.8485C25.1111 48.3595 25.6953 47.6686 25.6994 47.6628L25.8311 47.3695L25.9833 47.6725C26.7141 48.9213 27.8292 50.0896 29.2957 51.146C31.6212 52.8287 34.3395 53.6652 37.1522 53.5574L48.5983 53.1359C52.1029 53.464 55.4769 57.5535 57.6942 60.9297C60.0096 64.4561 63.7941 65.7659 67.1146 64.1902C67.2521 64.1255 67.3289 64.0815 67.3333 64.0812C68.0315 63.9247 68.6366 63.8356 69.1612 63.802L69.1443 63.8142Z" stroke="#515151" stroke-width="0.4" mask="url(#path-4-outside-1_854_18187)"/>
<path fill-rule="evenodd" clip-rule="evenodd" d="M91.0314 53.7425C81.5569 49.5987 75.1112 54.0399 73.0436 56.8539L73.4648 57.3488C75.3857 54.7346 81.6006 50.3679 90.8602 54.4177L91.0314 53.7425ZM94.5705 63.9665C86.5071 56.342 79.2223 57.9849 76.5413 59.8186L76.8231 60.45C79.314 58.7462 86.3589 57.083 94.2393 64.5344L94.5705 63.9665Z" fill="#515151"/>
</svg>
