<svg width="1920" height="133" viewBox="0 0 1920 133" fill="none" xmlns="http://www.w3.org/2000/svg">
<path fill-rule="evenodd" clip-rule="evenodd" d="M1923 0H0V60.375V94.4196C1.15894 94.473 2.32586 94.5 3.5 94.5C11.6477 94.5 19.448 93.1983 26.644 90.8195C41.104 97.9622 61.0165 102.375 83 102.375C104.983 102.375 124.896 97.9622 139.356 90.8195C146.552 93.1983 154.352 94.5 162.5 94.5C170.874 94.5 178.88 93.1251 186.241 90.6192C200.733 97.8796 220.812 102.375 243 102.375C265.188 102.375 285.267 97.8796 299.759 90.6192C307.12 93.1251 315.126 94.5 323.5 94.5C331.648 94.5 339.448 93.1983 346.644 90.8195C361.104 97.9622 381.017 102.375 403 102.375C425.396 102.375 445.643 97.7949 460.165 90.4142C467.688 93.05 475.901 94.5 484.5 94.5C492.421 94.5 500.014 93.2696 507.043 91.0153C521.469 98.0428 541.218 102.375 563 102.375C585.608 102.375 606.025 97.708 620.575 90.2044C628.258 92.973 636.675 94.5 645.5 94.5C653.195 94.5 660.579 93.339 667.438 91.2064C681.829 98.1212 701.416 102.375 723 102.375C745.823 102.375 766.413 97.619 780.988 89.9899C788.828 92.894 797.45 94.5 806.5 94.5C813.967 94.5 821.143 93.4066 827.829 91.3929C842.182 98.1976 861.611 102.375 883 102.375C906.04 102.375 926.806 97.5277 941.404 89.7706C949.399 92.813 958.225 94.5 967.5 94.5C974.739 94.5 981.704 93.4724 988.215 91.5747C1002.53 98.272 1021.8 102.375 1043 102.375C1066.26 102.375 1087.2 97.4343 1101.82 89.5464C1109.97 92.73 1119 94.5 1128.5 94.5C1135.51 94.5 1142.26 93.5363 1148.6 91.752C1162.87 98.3443 1181.99 102.375 1203 102.375C1226.49 102.375 1247.61 97.3385 1262.24 89.3173C1270.54 92.645 1279.77 94.5 1289.5 94.5C1296.28 94.5 1302.82 93.5984 1308.97 91.9247C1323.21 98.4146 1342.17 102.375 1363 102.375C1386.71 102.375 1408.02 97.2404 1422.67 89.0833C1431.11 92.5579 1440.55 94.5 1450.5 94.5C1457.05 94.5 1463.38 93.6587 1469.34 92.0928C1483.54 98.483 1502.35 102.375 1523 102.375C1546.94 102.375 1568.43 97.1399 1583.09 88.8441C1591.69 92.4687 1601.32 94.5 1611.5 94.5C1617.82 94.5 1623.93 93.7172 1629.71 92.2563C1643.86 98.5493 1662.53 102.375 1683 102.375C1707.18 102.375 1728.85 97.037 1743.52 88.5999C1752.26 92.3773 1762.1 94.5 1772.5 94.5C1778.59 94.5 1784.48 93.7738 1790.07 92.4151C1804.17 98.6136 1822.7 102.375 1843 102.375C1870.26 102.375 1894.33 95.5915 1908.77 85.2318C1913.18 87.7442 1917.95 89.8056 1923 91.341V60.375V0Z" fill="#F7ECE3"/>
</svg>
