<svg width="332" height="317" viewBox="0 0 332 317" fill="none" xmlns="http://www.w3.org/2000/svg">
<path d="M191.505 308.729L191.653 309.207L191.505 308.729C170.568 315.22 147.232 317.38 125.444 316.171C107.084 315.15 88.5845 311.129 72.4956 302.038L72.2496 302.474L72.4955 302.038C53.3436 291.222 40.8432 272.282 31.74 252.627C21.7469 231.049 13.8519 207.956 8.39209 184.829C4.6022 168.771 2.01923 152.422 0.895782 135.959C-2.46777 86.5516 15.3233 35.2918 64.7545 17.0015C104.887 2.15469 150.274 -2.35394 192.692 2.19196C209.698 4.01385 226.519 7.66272 242.626 13.4349L242.65 13.4434L242.674 13.4494L242.795 12.9642C242.674 13.4494 242.674 13.4494 242.674 13.4495L242.677 13.4503L242.69 13.4536L242.744 13.4675C242.793 13.48 242.866 13.4992 242.962 13.5254C243.155 13.5777 243.443 13.6579 243.818 13.7685C244.569 13.9897 245.671 14.3326 247.069 14.8177C249.865 15.788 253.843 17.3269 258.563 19.5988C268.005 24.143 280.407 31.6164 292.248 43.3315C315.912 66.743 337.394 107.149 328.424 175.153L328.475 175.159L328.423 175.156L328.63 175.18L328.631 175.18C328.423 175.156 328.423 175.157 328.423 175.157L328.423 175.159L328.421 175.171L328.415 175.22C328.41 175.264 328.402 175.331 328.39 175.419C328.366 175.596 328.329 175.861 328.275 176.21C328.167 176.906 327.991 177.936 327.723 179.262C327.187 181.915 326.279 185.753 324.794 190.483C321.826 199.945 316.551 212.975 307.332 227.229C288.899 255.729 254.677 289.153 191.505 308.729Z" fill="white" stroke="#5F231B"/>
<path d="M142.976 225.152H157.648V236.38H154.456V228.204H146.028V236.492H142.976V225.152ZM155.436 210.228L158.012 212.86C153.896 214.428 148.212 215.296 143.256 215.744C143.116 214.932 142.668 213.616 142.304 212.86C147.064 212.384 152.328 211.46 155.436 210.228ZM148.716 213.364H151.908V226.916H148.716V213.364ZM141.212 218.376H159.076V221.596H141.212V218.376ZM145.16 232.32H155.772V235.344H145.16V232.32ZM134.324 213L136.2 210.592C137.768 211.376 140.204 212.608 141.408 213.392L139.42 216.108C138.3 215.268 135.92 213.924 134.324 213ZM132.952 220.756L134.772 218.264C136.368 219.02 138.86 220.224 140.092 221.008L138.216 223.78C137.068 222.996 134.632 221.652 132.952 220.756ZM133.372 233.916C134.884 231.816 137.04 228.316 138.72 225.096L141.184 227.308C139.7 230.276 137.908 233.468 136.228 236.184L133.372 233.916ZM161.624 228.344H174.7V230.724H161.624V228.344ZM160.98 215.016H174.98V217.452H160.98V215.016ZM166.552 213.028H169.576V233.104H166.552V213.028ZM160.84 232.796C164.312 232.544 169.66 232.152 174.7 231.704L174.728 234.252C169.968 234.756 164.872 235.26 161.232 235.596L160.84 232.796ZM164.396 223.864V225.152H171.788V223.864H164.396ZM164.396 220.644V221.904H171.788V220.644H164.396ZM161.708 218.544H174.56V227.252H161.708V218.544ZM173.188 210.368L174.672 212.888C171.088 213.616 165.992 214.036 161.792 214.12C161.68 213.448 161.372 212.384 161.064 211.74C165.236 211.544 170.108 211.04 173.188 210.368ZM174.98 216.556H184.668V219.636H174.98V216.556ZM183.324 216.556H186.544C186.544 216.556 186.516 217.648 186.516 218.04C186.264 229.576 186.04 233.664 185.116 234.924C184.5 235.876 183.856 236.184 182.932 236.352C182.064 236.52 180.748 236.52 179.432 236.464C179.348 235.54 178.984 234.168 178.452 233.272C179.656 233.384 180.72 233.384 181.28 233.384C181.7 233.384 181.98 233.3 182.232 232.908C182.876 232.068 183.1 228.12 183.324 217.284V216.556ZM177.668 210.704H180.888C180.86 222.66 180.832 231.648 174.364 236.744C173.888 235.932 172.796 234.784 172.04 234.224C177.948 229.716 177.64 221.876 177.668 210.704Z" fill="#515151"/>
<path d="M217.532 153.145C211.399 155.026 196.901 153.772 190.209 155.026C176.269 152.519 168.755 156.978 161.771 150.464C151.625 140.999 146.549 125.187 142.255 115.533L140.582 104.249C149.058 106.757 172.366 113.026 192.44 104.249L217.532 153.145Z" fill="#FFD4C0"/>
<path d="M165.598 155.888C166.279 157.213 166.805 158.222 167.315 159.246C168.293 161.202 168.057 162.807 166.678 163.623C165.353 164.407 164.056 163.816 163.094 161.923C157.606 151.155 152.125 140.381 146.641 129.608C143.228 122.906 139.819 116.203 136.239 109.171C126.603 128.112 117.09 146.809 107.495 165.674H124.038C124.038 164.015 124.01 162.351 124.042 160.688C124.095 157.939 123.908 155.135 124.324 152.448C125.384 145.615 131.101 140.895 137.213 141.495C143.501 142.112 148.3 147.733 148.439 154.743C148.508 158.335 148.451 161.928 148.451 165.755H150.16C155.045 165.755 159.926 165.75 164.811 165.755C166.825 165.755 168.008 166.796 167.983 168.504C167.959 170.168 166.833 171.132 164.896 171.15C164.591 171.15 164.285 171.15 163.979 171.15C158.03 171.15 152.076 171.15 146.127 171.15C132.243 171.15 118.354 171.065 104.47 171.218C101.432 171.254 100.029 169.207 101.738 165.899C112.05 145.885 122.228 125.781 132.451 105.709C132.72 105.182 132.968 104.636 133.246 104.073C132.744 103.433 132.218 102.887 131.835 102.238C131.129 101.048 131.26 99.8492 132.181 98.871C133.107 97.8884 134.493 97.6269 135.199 98.6637C137.474 102.022 140.916 101.99 144.056 102.748C153.907 105.128 163.82 106.998 173.973 106.322C178.773 106.002 183.434 104.956 187.911 102.977C189.668 102.202 191.295 101.278 192.608 99.6734C194.015 97.947 195.438 97.8118 196.564 99.0378C197.693 100.264 197.522 101.742 196.062 103.437C195.887 103.64 195.715 103.843 195.467 104.136C195.793 104.812 196.107 105.502 196.449 106.169C205.339 123.654 214.236 141.134 223.129 158.619C224.422 161.161 224.353 162.681 222.909 163.618C221.441 164.569 220.202 163.861 218.917 161.328C218.42 160.35 217.8 159.417 217.453 158.376C216.883 156.672 215.888 156.428 214.379 156.609C198.982 158.488 183.605 157.641 168.24 156.05C167.486 155.973 166.727 155.946 165.61 155.874L165.598 155.888ZM213.922 151.393C206.321 136.446 198.888 121.833 191.45 107.21C190.989 107.404 190.7 107.508 190.423 107.638C184.975 110.158 179.287 111.443 173.398 111.758C165.476 112.186 157.671 111.15 149.907 109.55C147.045 108.959 144.19 108.319 141.279 107.692C141.315 107.913 141.311 107.976 141.336 108.026C148.317 121.792 155.29 135.558 162.307 149.302C162.527 149.735 163.155 150.109 163.624 150.163C176.428 151.583 189.256 152.583 202.138 152.16C205.983 152.034 209.824 151.668 213.922 151.393ZM143.583 165.678C143.583 161.937 143.632 158.353 143.57 154.774C143.497 150.578 140.516 147.143 136.81 146.854C133.062 146.561 129.482 149.401 129.115 153.58C128.764 157.56 129.038 161.603 129.038 165.678H143.583Z" fill="#5F231B"/>
<path d="M202.199 171.141C196.653 171.141 191.112 171.15 185.566 171.137C183.894 171.137 182.867 170.262 182.687 168.784C182.483 167.107 183.637 165.773 185.407 165.755C188.918 165.723 192.425 165.746 195.936 165.746C203.463 165.746 210.99 165.728 218.518 165.773C219.288 165.777 220.328 165.904 220.756 166.445C221.299 167.134 221.645 168.351 221.523 169.253C221.335 170.623 220.238 171.15 218.987 171.146C214.407 171.137 209.832 171.146 205.253 171.146C204.238 171.146 203.218 171.146 202.203 171.146L202.199 171.141Z" fill="#5F231B"/>
<path d="M180.24 163.208C180.053 163.875 179.841 164.677 179.604 165.471C178.952 167.648 178.336 169.843 177.61 171.989C177.092 173.517 175.791 174.148 174.552 173.643C173.267 173.124 172.615 171.781 173.039 170.258C173.789 167.585 174.589 164.93 175.433 162.293C175.893 160.85 176.897 160.134 178.287 160.413C179.559 160.67 180.126 161.68 180.236 163.208H180.24Z" fill="#5F231B"/>
<path d="M231 163.208C230.812 163.875 230.6 164.677 230.364 165.471C229.711 167.648 229.096 169.843 228.37 171.989C227.852 173.517 226.551 174.148 225.312 173.643C224.027 173.124 223.375 171.781 223.799 170.258C224.549 167.585 225.348 164.93 226.192 162.293C226.653 160.85 227.656 160.134 229.047 160.413C230.319 160.67 230.886 161.68 230.996 163.208H231Z" fill="#5F231B"/>
</svg>
