<svg width="332" height="316" viewBox="0 0 332 316" fill="none" xmlns="http://www.w3.org/2000/svg">
<path d="M139.505 8.23717L139.357 7.75944L139.505 8.23715C160.441 1.76657 183.778 -0.386065 205.566 0.819037C223.926 1.83653 242.426 5.84487 258.515 14.9068L258.76 14.4711L258.515 14.9068C277.667 25.6895 290.167 44.5696 299.27 64.1618C309.263 85.6714 317.158 108.692 322.618 131.746C326.408 147.753 328.991 164.05 330.114 180.461C333.477 229.711 315.687 280.809 266.256 299.041C226.123 313.841 180.736 318.336 138.318 313.804C121.311 311.988 104.49 308.351 88.3831 302.597L88.3597 302.588L88.3355 302.582L88.2919 302.758C88.3354 302.582 88.3353 302.582 88.3349 302.582L88.3319 302.581L88.319 302.578L88.265 302.564C88.2471 302.56 88.2258 302.554 88.2012 302.547C88.1594 302.536 88.108 302.523 88.0473 302.506C87.8542 302.454 87.5665 302.374 87.1911 302.264C86.4401 302.043 85.3381 301.702 83.9403 301.218C81.1445 300.251 77.166 298.717 72.4458 296.452C63.0044 291.922 50.6024 284.472 38.7611 272.794C15.0974 249.457 -6.38431 209.179 2.58561 141.391L2.53391 141.384L2.58676 141.387L2.37738 141.364L2.37666 141.363C2.58676 141.387 2.58678 141.387 2.58681 141.387L2.58711 141.384L2.58848 141.373L2.5944 141.324C2.59981 141.28 2.60823 141.213 2.62004 141.125C2.64367 140.949 2.68091 140.685 2.73496 140.337C2.84305 139.643 3.01838 138.617 3.28658 137.295C3.823 134.651 4.73085 130.825 6.2152 126.109C9.18395 116.678 14.4581 103.689 23.6772 89.4802C42.1101 61.0704 76.332 27.7521 139.505 8.23717Z" fill="white" stroke="#5F231B"/>
<path d="M160.567 209.252C159.055 211.66 156.311 214.572 153.371 216.364C153.035 215.552 152.307 214.348 151.747 213.62C154.687 211.968 157.571 208.776 158.943 206.256H161.967C163.871 209.084 166.727 211.884 169.527 213.256C168.911 214.04 168.211 215.244 167.735 216.168C165.075 214.544 162.163 211.632 160.567 209.252ZM153.595 218.156H167.147V220.844H156.395V232.352H153.595V218.156ZM165.019 218.156H167.903V229.608C167.903 230.784 167.735 231.484 167.035 231.932C166.335 232.38 165.495 232.408 164.347 232.408C164.263 231.68 163.899 230.56 163.563 229.86C164.067 229.888 164.543 229.888 164.739 229.888C164.963 229.888 165.019 229.804 165.019 229.552V218.156ZM157.739 218.884H159.923V232.184H157.739V218.884ZM161.323 218.884H163.535V232.184H161.323V218.884ZM155.751 213.732H165.523V216.476H155.751V213.732ZM154.911 223.896H166.867V226.556H154.911V223.896ZM144.075 214.824H151.887V217.344H144.075V214.824ZM144.243 207.096H151.803V209.644H144.243V207.096ZM144.075 218.632H151.887V221.18H144.075V218.632ZM142.815 210.876H152.811V213.536H142.815V210.876ZM145.615 222.524H151.943V230.98H145.615V228.348H149.199V225.156H145.615V222.524ZM143.991 222.524H146.735V232.156H143.991V222.524ZM186.523 206.228H189.855V209.784H186.523V206.228ZM179.355 208.188H196.939V210.596H179.355V208.188ZM178.095 229.272H197.163V231.764H178.095V229.272ZM186.747 215.524V216.448H189.491V215.524H186.747ZM184.619 214.096H191.759V217.876H184.619V214.096ZM183.499 213.312V218.632H192.935V213.312H183.499ZM180.783 211.408H195.791V220.564H180.783V211.408ZM184.843 225.744V226.696H191.451V225.744H184.843ZM184.843 223.112V224.064H191.451V223.112H184.843ZM181.791 221.348H194.643V228.46H181.791V221.348ZM171.235 212.92H179.075V216.084H171.235V212.92ZM173.811 206.648H176.863V225.268H173.811V206.648ZM170.647 224.932C172.831 224.204 176.163 222.916 179.299 221.628L180.055 224.736C177.255 225.996 174.203 227.312 171.739 228.348L170.647 224.932Z" fill="#515151"/>
<path d="M181.48 100.585H120.765L117.789 103.572L118.98 137.628L123.146 141.811H160.051L173.741 157.345V141.811H180.289L184.456 139.421V105.365L181.48 100.585Z" fill="#FFD4C0"/>
<path d="M176.057 144.943C177.669 144.843 179.036 144.889 180.358 144.652C184.329 143.938 187.177 140.757 187.208 136.717C187.29 126.161 187.303 115.605 187.199 105.049C187.159 100.762 183.876 97.5046 179.62 97.0814C179.059 97.0268 178.493 97.004 177.932 97.004C160.37 97.004 142.803 96.9949 125.241 97.004C120.587 97.004 117.413 99.1699 116.345 103.092C116.082 104.061 116.028 105.108 116.023 106.118C116.001 115.991 115.996 125.87 116.014 135.743C116.028 141.449 119.419 144.834 125.096 144.839C136.053 144.848 147.009 144.857 157.966 144.816C159.134 144.816 159.917 145.107 160.682 146.058C164.05 150.253 167.514 154.371 170.937 158.521C171.838 159.617 172.788 160.582 174.382 159.954C175.935 159.344 176.08 158.02 176.071 156.583C176.044 152.733 176.062 148.888 176.062 144.939L176.057 144.943ZM170.973 149.93C170.851 149.989 170.733 150.053 170.611 150.112C168.424 147.469 166.138 144.898 164.087 142.15C162.733 140.339 161.212 139.656 158.934 139.679C147.643 139.797 136.356 139.738 125.065 139.729C122.267 139.729 121.108 138.596 121.103 135.834C121.085 125.847 121.085 115.864 121.103 105.877C121.108 103.347 122.226 102.164 124.68 102.159C142.631 102.137 160.582 102.137 178.534 102.159C180.897 102.159 182.133 103.379 182.142 105.713C182.169 115.869 182.169 126.024 182.142 136.18C182.133 138.391 180.847 139.643 178.651 139.72C177.071 139.775 175.491 139.72 173.911 139.738C171.906 139.766 171.005 140.63 170.982 142.623C170.95 145.057 170.973 147.492 170.973 149.926V149.93Z" fill="#5F231B"/>
<path d="M160.99 177.622C160.99 175.433 160.994 173.249 160.99 171.061C160.981 168.081 160.261 167.366 157.282 167.362C156.096 167.362 154.909 167.371 153.723 167.362C150.975 167.339 149.83 166.206 149.803 163.412C149.771 160.232 149.798 157.056 149.793 153.875C149.793 153.366 149.812 152.852 149.757 152.346C149.603 150.9 148.793 150.044 147.344 149.994C145.886 149.944 144.958 150.768 144.8 152.192C144.646 153.539 144.714 154.908 144.705 156.273C144.696 158.598 144.691 160.928 144.705 163.253C144.736 169.095 148.073 172.458 153.846 172.476C154.452 172.476 155.063 172.476 155.896 172.476C155.896 175.615 155.896 178.605 155.896 181.59C155.896 182.668 155.896 183.746 155.896 184.825C155.896 186.126 156.327 187.2 157.626 187.659C158.925 188.114 159.903 187.532 160.732 186.527C164.222 182.281 167.754 178.077 171.204 173.8C171.987 172.826 172.784 172.435 174.052 172.444C185.008 172.499 195.964 172.48 206.925 172.476C212.558 172.476 215.976 169.045 215.989 163.349C216.007 153.529 216.007 143.71 215.989 133.887C215.98 128.127 212.662 124.746 206.984 124.705C203.145 124.678 199.301 124.687 195.462 124.705C193.429 124.719 192.342 125.642 192.356 127.257C192.365 128.855 193.488 129.805 195.494 129.819C199.279 129.846 203.063 129.819 206.848 129.828C209.778 129.837 210.896 130.902 210.9 133.796C210.919 143.674 210.919 153.548 210.9 163.426C210.896 166.197 209.71 167.357 206.962 167.362C195.385 167.371 183.804 167.389 172.227 167.339C170.597 167.33 169.461 167.867 168.456 169.127C166.142 172.035 163.738 174.869 161.37 177.736C161.243 177.699 161.121 177.663 160.994 177.627L160.99 177.622Z" fill="#5F231B"/>
</svg>
