<svg width="332" height="316" viewBox="0 0 332 316" fill="none" xmlns="http://www.w3.org/2000/svg">
<path d="M139.503 307.754L139.355 308.231L139.503 307.754C160.439 314.224 183.776 316.377 205.564 315.172C223.924 314.154 242.424 310.146 258.513 301.084L258.758 301.52L258.513 301.084C277.665 290.301 290.165 271.421 299.268 251.829C309.261 230.319 317.156 207.299 322.616 184.245C326.406 168.238 328.989 151.941 330.112 135.53C333.475 86.2796 315.685 35.1821 266.254 16.9495C226.121 2.14944 180.734 -2.345 138.316 2.18655C121.309 4.00275 104.488 7.64014 88.3812 13.3942L88.3577 13.4026L88.3335 13.4086L88.213 12.9233C88.3335 13.4086 88.3334 13.4086 88.3329 13.4087L88.33 13.4095L88.317 13.4127L88.263 13.4266C88.2451 13.4312 88.2238 13.4368 88.1992 13.4432C88.1574 13.4543 88.1061 13.4679 88.0453 13.4843C87.8523 13.5365 87.5646 13.6165 87.1891 13.7267C86.4381 13.9472 85.3361 14.289 83.9383 14.7726C81.1425 15.7398 77.164 17.2739 72.4438 19.5386C63.0025 24.0685 50.6004 31.5184 38.7592 43.1964C15.0955 66.5339 -6.38626 106.812 2.58366 174.6L2.53196 174.606L2.58481 174.603L2.37542 174.627L2.37471 174.627C2.58481 174.603 2.58482 174.604 2.58486 174.604L2.58516 174.607L2.58653 174.618L2.59245 174.667C2.59786 174.711 2.60627 174.777 2.61809 174.866C2.64172 175.042 2.67896 175.306 2.733 175.653C2.8411 176.348 3.01642 177.374 3.28463 178.696C3.82104 181.34 4.7289 185.166 6.21325 189.882C9.182 199.313 14.4561 212.301 23.6752 226.511C42.1082 254.92 76.33 288.239 139.503 307.754Z" fill="white" stroke="#5F231B"/>
<path d="M143.709 212.356H168.321V215.38H143.709V212.356ZM154.125 210.228H157.597V214.148H154.125V210.228ZM144.633 217.592H166.165V220.476H147.825V236.464H144.633V217.592ZM164.429 217.592H167.677V232.88C167.677 234.504 167.341 235.456 166.249 235.96C165.129 236.464 163.561 236.548 161.349 236.548C161.209 235.652 160.705 234.168 160.257 233.328C161.713 233.412 163.337 233.412 163.813 233.384C164.289 233.384 164.429 233.244 164.429 232.852V217.592ZM151.689 220.112H154.657C154.433 223.472 153.481 225.376 149.029 226.384C148.777 225.684 148.077 224.592 147.489 224.06C150.961 223.444 151.549 222.352 151.689 220.112ZM156.869 220.112H159.781V222.24C159.781 222.856 159.837 222.912 160.341 222.912C160.593 222.912 161.517 222.912 161.797 222.912C162.245 222.912 162.357 222.716 162.441 221.344C162.973 221.736 164.149 222.128 164.905 222.296C164.625 224.676 163.897 225.32 162.161 225.32C161.657 225.32 160.369 225.32 159.893 225.32C157.401 225.32 156.869 224.592 156.869 222.296V220.112ZM150.569 226.384H153.537V235.204H150.569V226.384ZM152.417 226.384H161.629V233.692H152.417V231.228H158.605V228.848H152.417V226.384ZM148.721 215.324L152.053 214.764C152.557 215.66 153.089 216.864 153.313 217.676L149.841 218.376C149.673 217.564 149.169 216.276 148.721 215.324ZM159.669 214.736L163.393 215.296C162.721 216.528 162.133 217.536 161.629 218.292L158.297 217.732C158.773 216.864 159.361 215.604 159.669 214.736ZM171.233 216.92H178.989V220H171.233V216.92ZM173.697 210.62H176.805V229.38H173.697V210.62ZM170.785 229.8C172.857 229.184 175.965 228.064 178.961 226.972L179.577 229.968C176.945 231.088 174.145 232.208 171.821 233.132L170.785 229.8ZM181.201 214.12H196.853V217.172H181.201V214.12ZM181.705 220.196H186.325V222.912H181.705V220.196ZM179.829 214.12H182.909V223.472C182.909 227.588 182.433 233.216 179.297 236.632C178.821 236.044 177.561 234.952 176.861 234.56C179.577 231.508 179.829 227.028 179.829 223.444V214.12ZM185.121 220.196H187.893C187.893 220.196 187.893 220.952 187.865 221.288C187.781 227.588 187.669 230.08 187.109 230.892C186.661 231.48 186.213 231.732 185.541 231.844C184.981 231.956 184.085 231.984 183.161 231.956C183.077 231.116 182.825 229.94 182.433 229.212C183.133 229.296 183.693 229.296 184.001 229.296C184.309 229.296 184.505 229.212 184.701 228.96C184.981 228.512 185.065 226.524 185.121 220.672V220.196ZM188.257 210.2H191.421C191.197 221.568 192.681 233.076 194.417 233.076C194.809 233.076 195.061 231.76 195.145 228.876C195.761 229.604 196.741 230.304 197.497 230.64C197.077 235.008 196.209 236.212 193.997 236.212C189.293 236.212 188.341 222.716 188.257 210.2ZM191.449 211.432L193.745 210.088C194.781 211.068 195.985 212.44 196.489 213.392L194.025 214.848C193.577 213.924 192.457 212.468 191.449 211.432ZM193.745 219.944L196.769 220.504C195.061 227.756 191.785 233.244 186.801 236.576C186.325 235.988 185.149 234.812 184.477 234.308C189.377 231.452 192.345 226.468 193.745 219.944Z" fill="#515151"/>
<path d="M104.356 114.865C108.743 108.62 116.985 97.2828 120.047 94.4821C120.412 94.1484 120.945 93.9978 121.497 93.9915L207.286 93.0168C208.196 93.0064 209.041 93.3994 209.486 94.0406L225.294 116.813C225.748 117.467 225.702 118.273 225.19 118.882C225.066 119.029 224.934 119.179 224.831 119.341C215.903 133.465 201.611 127.08 197.166 121.401C196.105 120.045 194.558 121.478 193.229 122.671C182.437 132.354 171.847 126.667 166.419 121.49C165.069 120.202 162.41 122.003 161.25 123.405C151.312 135.413 133.953 119.188 133.681 118.055C133.65 119.022 132.864 127.041 120.646 127.041C110.387 127.041 105.53 120.269 104.122 116.266C103.955 115.794 104.055 115.292 104.356 114.865Z" fill="#FFD4C0"/>
<path d="M103.891 115.818C105.919 113.032 107.947 110.228 109.974 107.424C112.744 103.568 115.513 99.7298 118.195 95.8391C119.547 93.8763 121.531 93 124.3 93C152.079 93.0175 179.836 93.0175 207.615 93C210.449 93 212.412 93.9113 213.807 95.9092C218.212 102.218 222.66 108.51 227.217 114.749C228.285 116.221 228.067 117.606 227.697 119.061C226.824 122.513 224.535 125.265 221.046 127.385C220.676 127.613 220.327 128.086 220.327 128.454C220.283 142.492 220.305 156.513 220.305 170.551C220.305 170.708 220.327 170.866 220.349 171.164C221.003 171.164 221.635 171.164 222.267 171.164C223.401 171.199 224.164 171.777 224.186 172.584C224.186 173.39 223.445 173.986 222.333 174.073C221.962 174.091 221.613 174.073 221.242 174.073C184.415 174.073 147.609 174.073 110.781 174.073C110.345 174.073 109.887 174.091 109.451 174.038C108.426 173.916 107.707 173.25 107.838 172.496C107.968 171.69 108.557 171.199 109.604 171.164C110.236 171.129 110.89 171.164 111.719 171.164V170.183C111.719 156.337 111.719 142.51 111.719 128.665C111.719 128.016 111.457 127.631 110.803 127.245C107.14 125.054 104.916 122.128 104.153 118.5C104.109 118.307 104 118.132 103.935 117.956C103.935 117.238 103.935 116.519 103.935 115.818C103.935 115.818 101.863 118.605 103.891 115.818ZM133.72 117.816C133.196 117.816 132.76 117.816 132.324 117.816C128.683 117.816 125.041 117.816 121.422 117.816C120.266 117.816 119.503 117.238 119.438 116.449C119.394 115.626 120.179 114.995 121.356 114.907C121.509 114.907 121.683 114.907 121.836 114.907C151.25 114.907 180.664 114.907 210.079 114.907C211.583 114.907 212.455 115.45 212.477 116.362C212.477 117.273 211.627 117.816 210.122 117.834C206.568 117.834 203.014 117.834 199.46 117.834C199.046 117.834 198.609 117.834 198.173 117.834C198.348 121.672 203.319 127.262 211.605 127C218.081 126.807 224.317 122.268 224.077 117.834C223.641 117.834 223.205 117.834 222.791 117.834C221.286 117.834 219.782 117.921 218.321 117.764C217.732 117.694 216.903 117.133 216.773 116.677C216.642 116.221 217.165 115.555 217.623 115.152C217.885 114.907 218.604 114.942 219.106 114.924C220.37 114.889 221.613 114.924 223.03 114.924C222.747 114.486 222.573 114.223 222.398 113.978C218.452 108.423 214.483 102.884 210.58 97.3288C209.904 96.3649 209.032 95.9618 207.658 95.9618C179.858 95.9793 152.057 95.9793 124.256 95.9618C122.883 95.9618 122.011 96.3474 121.335 97.3113C117.432 102.884 113.463 108.423 109.517 113.961C109.32 114.223 109.168 114.521 108.906 114.924C110.389 114.924 111.719 114.924 113.027 114.924C114.444 114.924 115.273 115.485 115.251 116.397C115.251 117.308 114.444 117.834 113.005 117.834C111.283 117.834 109.538 117.834 107.816 117.834C107.511 122.215 113.812 126.789 120.266 127C126.982 127.21 133.589 122.776 133.676 117.834L133.72 117.816ZM115.382 129.313V171.076H183.608C183.608 170.603 183.608 170.218 183.608 169.832C183.608 158.493 183.608 147.172 183.608 135.833C183.608 134.01 184.044 133.659 186.29 133.659C193.442 133.659 200.594 133.659 207.746 133.659C210.122 133.659 210.558 134.027 210.558 135.938C210.558 147.277 210.558 158.598 210.558 169.937C210.558 170.323 210.558 170.691 210.558 171.076H216.555V129.295C207.68 131.03 200.899 128.822 196.08 122.618C192.657 127.262 187.751 129.891 181.013 129.891C174.298 129.891 169.392 127.227 165.99 122.636C159.274 132.415 142.18 132.222 135.835 122.671C129.511 129.383 125.608 130.645 115.404 129.295L115.382 129.313ZM187.315 163.26H206.83V136.639H187.315V163.26ZM168.018 117.851C168.607 123.249 174.995 127.315 182.169 126.947C188.187 126.649 194.205 122.022 193.987 117.851H168.018ZM137.884 117.851C138.342 123.074 144.774 127.262 151.686 126.965C157.944 126.702 164.049 122.145 163.831 117.851H137.884ZM187.293 171.076H206.852V166.327H187.293V171.076Z" fill="#5F231B"/>
<path d="M149.44 133.659C157.879 133.659 166.339 133.659 174.777 133.659C177.088 133.659 177.546 134.027 177.546 135.885C177.546 145.261 177.546 154.655 177.546 164.031C177.546 165.854 177.045 166.257 174.755 166.257C157.857 166.257 140.98 166.257 124.082 166.257C121.901 166.257 121.378 165.836 121.378 164.066C121.378 154.655 121.378 145.226 121.378 135.815C121.378 134.062 121.88 133.659 124.104 133.659C132.542 133.659 141.002 133.659 149.44 133.659ZM173.883 163.278C173.883 162.857 173.883 162.506 173.883 162.156C173.883 154.042 173.861 145.927 173.905 137.795C173.905 136.796 173.578 136.569 172.357 136.569C157.094 136.604 141.809 136.586 126.546 136.586C126.066 136.586 125.608 136.586 125.063 136.586V163.278H173.883Z" fill="#5F231B"/>
<path d="M133.681 118.055C133.65 119.022 132.864 127.041 120.646 127.041C110.387 127.041 105.53 120.269 104.122 116.266C103.955 115.794 104.055 115.292 104.356 114.865C108.743 108.62 116.985 97.2828 120.047 94.4821C120.412 94.1484 120.945 93.9978 121.497 93.9915L207.286 93.0168C208.196 93.0064 209.041 93.3994 209.486 94.0406L225.294 116.813C225.748 117.467 225.702 118.273 225.19 118.882C225.066 119.029 224.934 119.179 224.831 119.341C215.903 133.465 201.611 127.08 197.166 121.401C196.105 120.045 194.558 121.478 193.229 122.671C182.437 132.354 171.847 126.667 166.419 121.49C165.069 120.202 162.41 122.003 161.25 123.405C151.312 135.413 133.953 119.188 133.681 118.055ZM133.681 118.055C133.684 117.942 133.677 117.925 133.677 118.03C133.677 118.038 133.679 118.046 133.681 118.055ZM103.891 115.818C105.919 113.032 107.947 110.228 109.974 107.424C112.744 103.568 115.513 99.7298 118.195 95.8391C119.547 93.8763 121.531 93 124.3 93C152.079 93.0175 179.836 93.0175 207.615 93C210.449 93 212.412 93.9113 213.807 95.9092C218.212 102.218 222.66 108.51 227.217 114.749C228.285 116.221 228.067 117.606 227.697 119.061C226.824 122.513 224.535 125.265 221.046 127.385C220.676 127.613 220.327 128.086 220.327 128.454C220.283 142.492 220.305 156.513 220.305 170.551C220.305 170.708 220.327 170.866 220.349 171.164C221.003 171.164 221.635 171.164 222.267 171.164C223.401 171.199 224.164 171.777 224.186 172.584C224.186 173.39 223.445 173.986 222.333 174.073C221.962 174.091 221.613 174.073 221.242 174.073C184.415 174.073 147.609 174.073 110.781 174.073C110.345 174.073 109.887 174.091 109.451 174.038C108.426 173.916 107.707 173.25 107.838 172.496C107.968 171.69 108.557 171.199 109.604 171.164C110.236 171.129 110.89 171.164 111.719 171.164V170.183C111.719 156.337 111.719 142.51 111.719 128.665C111.719 128.016 111.457 127.631 110.803 127.245C107.14 125.054 104.916 122.128 104.153 118.5C104.109 118.307 104 118.132 103.935 117.956C103.935 117.238 103.935 116.519 103.935 115.818C103.935 115.818 101.863 118.605 103.891 115.818ZM133.72 117.816C133.196 117.816 132.76 117.816 132.324 117.816C128.683 117.816 125.041 117.816 121.422 117.816C120.266 117.816 119.503 117.238 119.438 116.449C119.394 115.626 120.179 114.995 121.356 114.907C121.509 114.907 121.683 114.907 121.836 114.907C151.25 114.907 180.664 114.907 210.079 114.907C211.583 114.907 212.455 115.45 212.477 116.362C212.477 117.273 211.627 117.816 210.122 117.834C206.568 117.834 203.014 117.834 199.46 117.834C199.046 117.834 198.609 117.834 198.173 117.834C198.348 121.672 203.319 127.262 211.605 127C218.081 126.807 224.317 122.268 224.077 117.834C223.641 117.834 223.205 117.834 222.791 117.834C221.286 117.834 219.782 117.921 218.321 117.764C217.732 117.694 216.903 117.133 216.773 116.677C216.642 116.221 217.165 115.555 217.623 115.152C217.885 114.907 218.604 114.942 219.106 114.924C220.37 114.889 221.613 114.924 223.03 114.924C222.747 114.486 222.573 114.223 222.398 113.978C218.452 108.423 214.483 102.884 210.58 97.3288C209.904 96.3649 209.032 95.9618 207.658 95.9618C179.858 95.9793 152.057 95.9793 124.256 95.9618C122.883 95.9618 122.011 96.3474 121.335 97.3113C117.432 102.884 113.463 108.423 109.517 113.961C109.32 114.223 109.168 114.521 108.906 114.924C110.389 114.924 111.719 114.924 113.027 114.924C114.444 114.924 115.273 115.485 115.251 116.397C115.251 117.308 114.444 117.834 113.005 117.834C111.283 117.834 109.538 117.834 107.816 117.834C107.511 122.215 113.812 126.789 120.266 127C126.982 127.21 133.589 122.776 133.676 117.834L133.72 117.816ZM115.382 129.313V171.076H183.608C183.608 170.603 183.608 170.218 183.608 169.832C183.608 158.493 183.608 147.172 183.608 135.833C183.608 134.01 184.044 133.659 186.29 133.659C193.442 133.659 200.594 133.659 207.746 133.659C210.122 133.659 210.558 134.027 210.558 135.938C210.558 147.277 210.558 158.598 210.558 169.937C210.558 170.323 210.558 170.691 210.558 171.076H216.555V129.295C207.68 131.03 200.899 128.822 196.08 122.618C192.657 127.262 187.751 129.891 181.013 129.891C174.298 129.891 169.392 127.227 165.99 122.636C159.274 132.415 142.18 132.222 135.835 122.671C129.511 129.383 125.608 130.645 115.404 129.295L115.382 129.313ZM187.315 163.26H206.83V136.639H187.315V163.26ZM168.018 117.851C168.607 123.249 174.995 127.315 182.169 126.947C188.187 126.649 194.205 122.022 193.987 117.851H168.018ZM137.884 117.851C138.342 123.074 144.774 127.262 151.686 126.965C157.944 126.702 164.049 122.145 163.831 117.851H137.884ZM187.293 171.076H206.852V166.327H187.293V171.076ZM149.44 133.659C157.879 133.659 166.339 133.659 174.777 133.659C177.088 133.659 177.546 134.027 177.546 135.885C177.546 145.261 177.546 154.655 177.546 164.031C177.546 165.854 177.045 166.257 174.755 166.257C157.857 166.257 140.98 166.257 124.082 166.257C121.901 166.257 121.378 165.836 121.378 164.066C121.378 154.655 121.378 145.226 121.378 135.815C121.378 134.062 121.88 133.659 124.104 133.659C132.542 133.659 141.002 133.659 149.44 133.659ZM173.883 163.278C173.883 162.857 173.883 162.506 173.883 162.156C173.883 154.042 173.861 145.927 173.905 137.795C173.905 136.796 173.578 136.569 172.357 136.569C157.094 136.604 141.809 136.586 126.546 136.586C126.066 136.586 125.608 136.586 125.063 136.586V163.278H173.883Z" stroke="#5F231B" stroke-width="0.5"/>
</svg>
