<svg width="100" height="101" viewBox="0 0 100 101" fill="none" xmlns="http://www.w3.org/2000/svg">
<path d="M97.124 59.209C98.2654 54.1589 99.043 49.0189 99.3812 43.8444C100.393 28.318 95.0331 12.3464 80.3093 6.65747C68.2436 1.99645 54.5901 0.578705 41.8257 2.00713L41.7701 1.51023L41.8256 2.00713C36.7141 2.57895 31.6612 3.72387 26.8248 5.53365L26.8006 5.54273L26.7758 5.54918L26.7755 5.54925L26.7754 5.5493L26.7723 5.5501L26.7578 5.554C26.7444 5.55763 26.7237 5.56335 26.6957 5.57126C26.6399 5.58706 26.5555 5.6116 26.4447 5.64569C26.2231 5.71387 25.8957 5.82021 25.4792 5.97115C24.646 6.27308 23.457 6.7532 22.0448 7.46296C19.2197 8.88285 15.5071 11.2189 11.9624 14.8808C4.88995 22.1872 -1.57142 34.8302 1.12656 56.1883L1.02623 56.201L1.12386 56.1958C1.12758 56.1953 1.12758 56.1953 1.12758 56.1953L1.12761 56.1956L1.12763 56.1957L1.12795 56.1986L1.12955 56.2125C1.13106 56.2253 1.13347 56.2452 1.1369 56.272C1.14376 56.3257 1.15469 56.407 1.17068 56.5145C1.20265 56.7296 1.2548 57.0496 1.33486 57.463C1.49498 58.2897 1.76665 59.4895 2.21154 60.9701C3.10143 63.9315 4.6836 68.0138 7.45055 72.4811C12.9794 81.4074 23.2536 91.8959 42.254 98.0443L42.2541 98.0443C48.5304 100.076 55.5355 100.754 62.0817 100.375C67.5907 100.055 73.1202 98.7965 77.9187 95.9654L77.9188 95.9653C83.6107 92.6084 87.3504 86.7136 90.0911 80.5346C93.1008 73.7484 95.4792 66.4842 97.124 59.209Z" fill="white" stroke="#5F231B"/>
<path d="M31.076 26.5616C32.4014 24.5854 34.8914 20.9976 35.8166 20.1113C35.9268 20.0056 36.0879 19.958 36.2545 19.956L62.172 19.6475C62.4472 19.6443 62.7024 19.7686 62.8369 19.9715L67.6126 27.1782C67.7118 27.3279 67.7319 27.5029 67.6769 27.6612C67.6143 27.8412 67.4706 27.9858 67.3683 28.1466C64.6655 32.3964 60.4404 30.4042 59.1148 28.6301C58.7942 28.201 58.327 28.6546 57.9255 29.032C54.6651 32.0964 51.4657 30.2966 49.826 28.6583C49.4181 28.2508 48.6149 28.8206 48.2642 29.2645C45.2619 33.0645 40.0176 27.9298 39.9354 27.5712C39.9262 27.8772 39.6887 30.4151 35.9974 30.4151C32.8982 30.4151 31.4309 28.2719 31.0053 27.0051C30.955 26.8556 30.9853 26.6968 31.076 26.5616Z" fill="#FFD4C0"/>
<path d="M30.9356 26.8634C31.5483 25.9816 32.1609 25.0942 32.7735 24.2068C33.6101 22.9866 34.4467 21.772 35.2569 20.5407C35.6653 19.9195 36.2648 19.6422 37.1014 19.6422C45.4936 19.6478 53.8792 19.6478 62.2715 19.6422C63.1278 19.6422 63.7207 19.9306 64.1423 20.5629C65.4729 22.5595 66.8167 24.5506 68.1935 26.5251C68.5162 26.991 68.4504 27.4291 68.3384 27.8895C68.0749 28.9821 67.3832 29.8528 66.3292 30.5239C66.2173 30.596 66.1119 30.7458 66.1119 30.8622C66.0987 35.3048 66.1053 39.7417 66.1053 44.1843C66.1053 44.2342 66.1119 44.2841 66.1185 44.3784C66.3161 44.3784 66.5071 44.3784 66.6981 44.3784C67.0407 44.3895 67.2712 44.5725 67.2778 44.8276C67.2778 45.0828 67.0539 45.2713 66.7179 45.2991C66.6059 45.3046 66.5005 45.2991 66.3885 45.2991C55.2626 45.2991 44.1432 45.2991 33.0172 45.2991C32.8855 45.2991 32.7472 45.3046 32.6154 45.288C32.3058 45.2492 32.0884 45.0384 32.128 44.7999C32.1675 44.5448 32.3453 44.3895 32.6615 44.3784C32.8526 44.3673 33.0502 44.3784 33.3005 44.3784V44.0678C33.3005 39.6863 33.3005 35.3103 33.3005 30.9288C33.3005 30.7236 33.2214 30.6016 33.0238 30.4795C31.9172 29.7863 31.2453 28.86 31.0147 27.712C31.0015 27.651 30.9686 27.5955 30.9488 27.54C30.9488 27.3126 30.9488 27.0853 30.9488 26.8634C30.9488 26.8634 30.323 27.7453 30.9356 26.8634ZM39.9471 27.4957C39.789 27.4957 39.6572 27.4957 39.5255 27.4957C38.4254 27.4957 37.3253 27.4957 36.2318 27.4957C35.8827 27.4957 35.6522 27.3126 35.6324 27.0631C35.6192 26.8024 35.8564 26.6027 36.2121 26.575C36.2582 26.575 36.3109 26.575 36.357 26.575C45.2433 26.575 54.1296 26.575 63.0158 26.575C63.4704 26.575 63.7338 26.7469 63.7404 27.0353C63.7404 27.3237 63.4835 27.4957 63.029 27.5012C61.9553 27.5012 60.8815 27.5012 59.8078 27.5012C59.6827 27.5012 59.5509 27.5012 59.4192 27.5012C59.4719 28.7158 60.9738 30.4851 63.4769 30.4019C65.4334 30.3409 67.3173 28.9044 67.2449 27.5012C67.1131 27.5012 66.9814 27.5012 66.8562 27.5012C66.4017 27.5012 65.9472 27.529 65.5058 27.479C65.328 27.4568 65.0777 27.2794 65.0381 27.1352C64.9986 26.991 65.1567 26.7802 65.295 26.6526C65.3741 26.575 65.5915 26.5861 65.743 26.5805C66.125 26.5695 66.5005 26.5805 66.9287 26.5805C66.8431 26.4419 66.7904 26.3587 66.7377 26.281C65.5454 24.5229 64.3465 22.7703 63.1673 21.0121C62.9631 20.7071 62.6996 20.5795 62.2846 20.5795C53.8858 20.5851 45.487 20.5851 37.0882 20.5795C36.6732 20.5795 36.4097 20.7015 36.2055 21.0066C35.0264 22.7703 33.8275 24.5229 32.6352 26.2755C32.5759 26.3587 32.5298 26.453 32.4507 26.5805C32.8987 26.5805 33.3005 26.5805 33.6957 26.5805C34.1239 26.5805 34.3742 26.758 34.3676 27.0464C34.3676 27.3348 34.1239 27.5012 33.6891 27.5012C33.1687 27.5012 32.6418 27.5012 32.1214 27.5012C32.0291 28.8878 33.9329 30.3353 35.8827 30.4019C37.9116 30.4685 39.9076 29.0653 39.9339 27.5012L39.9471 27.4957ZM34.4072 31.134V44.3507H55.0188C55.0188 44.2009 55.0188 44.0789 55.0188 43.9569C55.0188 40.3685 55.0188 36.7856 55.0188 33.1972C55.0188 32.6204 55.1506 32.5095 55.8291 32.5095C57.9897 32.5095 60.1504 32.5095 62.311 32.5095C63.029 32.5095 63.1608 32.6259 63.1608 33.2305C63.1608 36.8189 63.1608 40.4018 63.1608 43.9902C63.1608 44.1122 63.1608 44.2286 63.1608 44.3507H64.9723V31.1285C62.2912 31.6775 60.2426 30.9787 58.7868 29.0153C57.7526 30.4851 56.2704 31.317 54.235 31.317C52.2061 31.317 50.7239 30.474 49.6963 29.0209C47.6674 32.1157 42.503 32.0547 40.5861 29.032C38.6757 31.1562 37.4966 31.5555 34.4137 31.1285L34.4072 31.134ZM56.1387 41.877H62.0343V33.4523H56.1387V41.877ZM50.3089 27.5068C50.4868 29.215 52.4169 30.5017 54.5841 30.3853C56.4022 30.291 58.2203 28.8268 58.1544 27.5068H50.3089ZM41.2053 27.5068C41.3436 29.1595 43.2868 30.4851 45.375 30.3908C47.2656 30.3076 49.11 28.8656 49.0442 27.5068H41.2053ZM56.1321 44.3507H62.0409V42.8476H56.1321V44.3507Z" fill="#5F231B"/>
<path d="M44.6965 32.5095C47.2458 32.5095 49.8017 32.5095 52.351 32.5095C53.0492 32.5095 53.1876 32.6259 53.1876 33.2138C53.1876 36.1811 53.1876 39.1538 53.1876 42.1211C53.1876 42.6979 53.0361 42.8254 52.3444 42.8254C47.2392 42.8254 42.1406 42.8254 37.0355 42.8254C36.3768 42.8254 36.2187 42.6923 36.2187 42.1322C36.2187 39.1538 36.2187 36.17 36.2187 33.1916C36.2187 32.637 36.3702 32.5095 37.0421 32.5095C39.5914 32.5095 42.1472 32.5095 44.6965 32.5095ZM52.0809 41.8826C52.0809 41.7495 52.0809 41.6386 52.0809 41.5276C52.0809 38.9597 52.0743 36.3918 52.0875 33.8184C52.0875 33.5022 51.9887 33.4301 51.6198 33.4301C47.0087 33.4412 42.391 33.4357 37.7798 33.4357C37.6349 33.4357 37.4966 33.4357 37.3319 33.4357V41.8826H52.0809Z" fill="#5F231B"/>
<path d="M39.9354 27.5712C39.9262 27.8772 39.6887 30.4151 35.9974 30.4151C32.8982 30.4151 31.4309 28.2719 31.0053 27.0051C30.955 26.8556 30.9853 26.6968 31.076 26.5616C32.4014 24.5854 34.8914 20.9976 35.8166 20.1113C35.9268 20.0056 36.0879 19.958 36.2545 19.956L62.172 19.6475C62.4472 19.6443 62.7024 19.7686 62.8369 19.9715L67.6126 27.1782C67.7118 27.3279 67.7319 27.5029 67.6769 27.6612C67.6143 27.8412 67.4706 27.9858 67.3683 28.1466C64.6655 32.3964 60.4404 30.4042 59.1148 28.6302C58.7942 28.201 58.327 28.6546 57.9255 29.032C54.6651 32.0964 51.4657 30.2966 49.826 28.6583C49.4181 28.2508 48.6149 28.8206 48.2642 29.2645C45.2619 33.0645 40.0176 27.9298 39.9354 27.5712ZM39.9354 27.5712C39.9364 27.5353 39.9344 27.5302 39.9344 27.5635C39.9344 27.5658 39.9347 27.5684 39.9354 27.5712ZM30.9356 26.8634C31.5483 25.9816 32.1609 25.0942 32.7735 24.2068C33.6101 22.9866 34.4467 21.772 35.2569 20.5407C35.6653 19.9195 36.2648 19.6422 37.1014 19.6422C45.4936 19.6478 53.8792 19.6478 62.2715 19.6422C63.1278 19.6422 63.7207 19.9306 64.1423 20.5629C65.4729 22.5595 66.8167 24.5506 68.1935 26.5251C68.5162 26.991 68.4504 27.4291 68.3384 27.8895C68.0749 28.9821 67.3832 29.8528 66.3292 30.5239C66.2173 30.596 66.1119 30.7458 66.1119 30.8622C66.0987 35.3048 66.1053 39.7417 66.1053 44.1843C66.1053 44.2342 66.1119 44.2841 66.1185 44.3784C66.3161 44.3784 66.5071 44.3784 66.6981 44.3784C67.0407 44.3895 67.2712 44.5725 67.2778 44.8276C67.2778 45.0828 67.0539 45.2713 66.7179 45.2991C66.6059 45.3046 66.5005 45.2991 66.3885 45.2991C55.2626 45.2991 44.1432 45.2991 33.0172 45.2991C32.8855 45.2991 32.7472 45.3046 32.6154 45.288C32.3058 45.2492 32.0884 45.0384 32.128 44.7999C32.1675 44.5448 32.3453 44.3895 32.6615 44.3784C32.8526 44.3673 33.0502 44.3784 33.3005 44.3784V44.0678C33.3005 39.6863 33.3005 35.3103 33.3005 30.9288C33.3005 30.7236 33.2214 30.6016 33.0238 30.4795C31.9172 29.7863 31.2453 28.86 31.0147 27.712C31.0015 27.651 30.9686 27.5955 30.9488 27.54C30.9488 27.3126 30.9488 27.0853 30.9488 26.8634C30.9488 26.8634 30.323 27.7453 30.9356 26.8634ZM39.9471 27.4957C39.789 27.4957 39.6572 27.4957 39.5255 27.4957C38.4254 27.4957 37.3253 27.4957 36.2318 27.4957C35.8827 27.4957 35.6522 27.3126 35.6324 27.0631C35.6192 26.8024 35.8564 26.6027 36.2121 26.575C36.2582 26.575 36.3109 26.575 36.357 26.575C45.2433 26.575 54.1296 26.575 63.0158 26.575C63.4704 26.575 63.7338 26.7469 63.7404 27.0353C63.7404 27.3237 63.4835 27.4957 63.029 27.5012C61.9553 27.5012 60.8815 27.5012 59.8078 27.5012C59.6827 27.5012 59.5509 27.5012 59.4192 27.5012C59.4719 28.7158 60.9738 30.4851 63.4769 30.4019C65.4334 30.3409 67.3173 28.9044 67.2449 27.5012C67.1131 27.5012 66.9814 27.5012 66.8562 27.5012C66.4017 27.5012 65.9472 27.529 65.5058 27.479C65.328 27.4568 65.0777 27.2794 65.0381 27.1352C64.9986 26.991 65.1567 26.7802 65.295 26.6526C65.3741 26.575 65.5915 26.5861 65.743 26.5805C66.125 26.5695 66.5005 26.5805 66.9287 26.5805C66.8431 26.4419 66.7904 26.3587 66.7377 26.281C65.5454 24.5229 64.3465 22.7703 63.1673 21.0121C62.9631 20.7071 62.6996 20.5795 62.2846 20.5795C53.8858 20.5851 45.487 20.5851 37.0882 20.5795C36.6732 20.5795 36.4097 20.7015 36.2055 21.0066C35.0264 22.7703 33.8275 24.5229 32.6352 26.2755C32.5759 26.3587 32.5298 26.453 32.4507 26.5805C32.8987 26.5805 33.3005 26.5805 33.6957 26.5805C34.1239 26.5805 34.3742 26.758 34.3676 27.0464C34.3676 27.3348 34.1239 27.5012 33.6891 27.5012C33.1687 27.5012 32.6418 27.5012 32.1214 27.5012C32.0291 28.8878 33.9329 30.3353 35.8827 30.4019C37.9116 30.4685 39.9076 29.0653 39.9339 27.5012L39.9471 27.4957ZM34.4072 31.134V44.3507H55.0188C55.0188 44.2009 55.0188 44.0789 55.0188 43.9569C55.0188 40.3685 55.0188 36.7856 55.0188 33.1972C55.0188 32.6204 55.1506 32.5095 55.8291 32.5095C57.9897 32.5095 60.1504 32.5095 62.311 32.5095C63.029 32.5095 63.1608 32.6259 63.1608 33.2305C63.1608 36.8189 63.1608 40.4018 63.1608 43.9902C63.1608 44.1122 63.1608 44.2286 63.1608 44.3507H64.9723V31.1285C62.2912 31.6775 60.2426 30.9787 58.7868 29.0153C57.7526 30.4851 56.2704 31.317 54.235 31.317C52.2061 31.317 50.7239 30.474 49.6963 29.0209C47.6674 32.1157 42.503 32.0547 40.5861 29.032C38.6757 31.1562 37.4966 31.5555 34.4137 31.1285L34.4072 31.134ZM56.1387 41.877H62.0343V33.4523H56.1387V41.877ZM50.3089 27.5068C50.4868 29.215 52.4169 30.5017 54.5841 30.3853C56.4022 30.291 58.2203 28.8268 58.1544 27.5068H50.3089ZM41.2053 27.5068C41.3436 29.1595 43.2868 30.4851 45.375 30.3908C47.2656 30.3076 49.11 28.8656 49.0442 27.5068H41.2053ZM56.1321 44.3507H62.0409V42.8476H56.1321V44.3507ZM44.6965 32.5095C47.2458 32.5095 49.8017 32.5095 52.351 32.5095C53.0492 32.5095 53.1876 32.6259 53.1876 33.2138C53.1876 36.1811 53.1876 39.1538 53.1876 42.1211C53.1876 42.6979 53.0361 42.8254 52.3444 42.8254C47.2392 42.8254 42.1406 42.8254 37.0355 42.8254C36.3768 42.8254 36.2187 42.6923 36.2187 42.1322C36.2187 39.1538 36.2187 36.17 36.2187 33.1916C36.2187 32.637 36.3702 32.5095 37.0421 32.5095C39.5914 32.5095 42.1472 32.5095 44.6965 32.5095ZM52.0809 41.8826C52.0809 41.7495 52.0809 41.6386 52.0809 41.5276C52.0809 38.9597 52.0743 36.3918 52.0875 33.8184C52.0875 33.5022 51.9887 33.4301 51.6198 33.4301C47.0087 33.4412 42.391 33.4357 37.7798 33.4357C37.6349 33.4357 37.4966 33.4357 37.3319 33.4357V41.8826H52.0809Z" stroke="#5F231B" stroke-width="0.5"/>
<path d="M33.224 57.5656H48.794V58.8076H33.224V57.5656ZM40.244 55.8736H41.63V58.2856H40.244V55.8736ZM33.998 60.7156H47.588V61.9216H35.276V72.3976H33.998V60.7156ZM46.868 60.7156H48.164V70.7596C48.164 71.5516 47.984 71.9836 47.408 72.1996C46.814 72.3976 45.824 72.4336 44.33 72.4336C44.276 72.0736 44.06 71.4616 43.88 71.1016C45.05 71.1556 46.13 71.1376 46.454 71.1196C46.778 71.1196 46.868 71.0296 46.868 70.7596V60.7156ZM38.534 61.5976H39.758C39.578 63.9556 38.822 65.1796 36.05 65.8456C35.924 65.5576 35.618 65.0896 35.384 64.8736C37.814 64.3876 38.39 63.4876 38.534 61.5976ZM41.882 61.5976H43.07V63.7036C43.07 64.0456 43.142 64.0816 43.592 64.0816C43.826 64.0816 44.888 64.0816 45.176 64.0816C45.554 64.0816 45.626 63.9736 45.68 62.8936C45.914 63.0736 46.4 63.2356 46.724 63.3076C46.616 64.7656 46.292 65.1256 45.338 65.1256C45.068 65.1256 43.718 65.1256 43.466 65.1256C42.17 65.1256 41.882 64.8376 41.882 63.7216V61.5976ZM37.652 66.0616H38.858V71.5876H37.652V66.0616ZM38.372 66.0616H44.492V70.4896H38.372V69.4276H43.268V67.1236H38.372V66.0616ZM36.68 58.8076L37.994 58.5376C38.408 59.2216 38.822 60.1396 39.002 60.7336L37.634 61.0576C37.472 60.4456 37.076 59.5096 36.68 58.8076ZM43.934 58.4836L45.41 58.7536C44.978 59.6176 44.528 60.4636 44.15 61.0576L42.836 60.7876C43.214 60.1576 43.682 59.1496 43.934 58.4836ZM50.954 60.2656H55.832V61.5076H50.954V60.2656ZM52.844 56.0716H54.122V68.1316H52.844V56.0716ZM50.738 68.6536C52.034 68.2396 53.978 67.5196 55.868 66.7996L56.102 68.0236C54.392 68.7256 52.592 69.4276 51.17 70.0036L50.738 68.6536ZM57.092 58.6276H67.136V59.8696H57.092V58.6276ZM57.326 62.2996H60.656V63.4516H57.326V62.2996ZM56.588 58.6276H57.848V64.2436C57.848 66.7996 57.542 70.2376 55.598 72.4696C55.4 72.2176 54.896 71.8036 54.608 71.6416C56.408 69.5356 56.588 66.5656 56.588 64.2256V58.6276ZM60.134 62.2996H61.304C61.304 62.2996 61.304 62.6776 61.286 62.8396C61.232 66.9796 61.16 68.4556 60.818 68.9056C60.584 69.2296 60.332 69.3556 59.9 69.3916C59.54 69.4276 58.892 69.4456 58.262 69.4096C58.226 69.0496 58.118 68.5636 57.938 68.2576C58.568 68.3116 59.126 68.3116 59.342 68.3116C59.576 68.3116 59.702 68.2756 59.81 68.1316C60.008 67.8436 60.08 66.4936 60.134 62.5156V62.2996ZM62.006 55.8556H63.302C63.23 64.3156 64.292 70.9576 65.84 70.9576C66.2 70.9576 66.38 70.0756 66.452 67.9876C66.704 68.2756 67.136 68.5636 67.46 68.6896C67.262 71.3896 66.866 72.2356 65.678 72.2356C62.888 72.2356 62.078 64.5676 62.006 55.8556ZM63.644 56.5576L64.562 55.9636C65.354 56.5576 66.29 57.4036 66.722 57.9976L65.75 58.6636C65.336 58.0696 64.436 57.1876 63.644 56.5576ZM65.588 61.8676L66.83 62.1016C65.66 66.7276 63.536 70.1656 60.332 72.3616C60.134 72.1096 59.648 71.6236 59.378 71.4256C62.564 69.4636 64.562 66.1696 65.588 61.8676Z" fill="#515151"/>
</svg>
