<svg width="100" height="101" viewBox="0 0 100 101" fill="none" xmlns="http://www.w3.org/2000/svg">
<path d="M2.87598 59.209C1.73458 54.1589 0.956993 49.0189 0.61882 43.8444C-0.393417 28.318 4.96689 12.3464 19.6907 6.65747C31.7564 1.99645 45.4099 0.578712 58.1743 2.00713L58.2299 1.51024L58.1744 2.00714C63.2859 2.57896 68.3388 3.72387 73.1752 5.53365L73.1994 5.54273L73.2242 5.54918L73.2245 5.54925L73.2246 5.5493L73.2277 5.5501L73.2422 5.554C73.2556 5.55763 73.2763 5.56335 73.3042 5.57126C73.3601 5.58706 73.4444 5.6116 73.5553 5.64569C73.7769 5.71387 74.1043 5.82021 74.5208 5.97115C75.354 6.27308 76.543 6.7532 77.9552 7.46296C80.7803 8.88285 84.4929 11.2189 88.0376 14.8808C95.1101 22.1872 101.571 34.8302 98.8734 56.1883L98.9738 56.201L98.8761 56.1958C98.8724 56.1953 98.8724 56.1953 98.8724 56.1953L98.8724 56.1956L98.8724 56.1957L98.872 56.1986L98.8704 56.2125C98.8689 56.2253 98.8665 56.2452 98.8631 56.272C98.8562 56.3257 98.8453 56.407 98.8293 56.5145C98.7973 56.7296 98.7452 57.0496 98.6651 57.463C98.505 58.2897 98.2334 59.4895 97.7885 60.9701C96.8986 63.9315 95.3164 68.0138 92.5494 72.4811C87.0206 81.4074 76.7464 91.8959 57.746 98.0443L57.7459 98.0443C51.4696 100.076 44.4645 100.754 37.9183 100.375C32.4093 100.055 26.8798 98.7965 22.0813 95.9654L22.0812 95.9653C16.3893 92.6084 12.6496 86.7136 9.90887 80.5346C6.89916 73.7484 4.52079 66.4842 2.87598 59.209Z" fill="white" stroke="#5F231B"/>
<path d="M37.056 65.4136H46.038V72.3256H44.742V66.6556H38.298V72.4156H37.056V65.4136ZM45.372 55.9276L46.434 56.9896C43.968 57.8356 40.206 58.3936 36.984 58.6996C36.93 58.3756 36.75 57.8536 36.588 57.5476C39.72 57.2056 43.374 56.6476 45.372 55.9276ZM40.944 57.4936H42.24V66.1336H40.944V57.4936ZM35.742 61.1476H47.208V62.4436H35.742V61.1476ZM37.902 70.3996H45.336V71.6416H37.902V70.3996ZM31.62 57.0436L32.376 56.0896C33.474 56.6296 35.004 57.4396 35.778 57.9616L34.986 59.0596C34.23 58.5196 32.736 57.6376 31.62 57.0436ZM30.738 62.0116L31.494 61.0216C32.556 61.5436 34.068 62.3356 34.824 62.8576L34.068 63.9556C33.33 63.4516 31.836 62.5876 30.738 62.0116ZM31.17 71.2636C32.142 69.8956 33.564 67.5196 34.608 65.4676L35.58 66.3496C34.626 68.2576 33.366 70.5076 32.304 72.1816L31.17 71.2636ZM49.242 67.6276H57.45V68.6536H49.242V67.6276ZM48.756 58.9516H57.738V59.9956H48.756V58.9516ZM52.662 57.3136H53.904V70.5616H52.662V57.3136ZM48.738 70.5976C50.934 70.3996 54.3 70.0756 57.522 69.7336L57.54 70.7956C54.48 71.1556 51.222 71.5336 48.936 71.7676L48.738 70.5976ZM50.412 64.2616V65.5936H56.244V64.2616H50.412ZM50.412 62.0656V63.3616H56.244V62.0656H50.412ZM49.278 61.1296H57.396V66.5296H49.278V61.1296ZM56.748 56.0356L57.432 57.0796C55.308 57.5476 51.96 57.8536 49.26 57.9436C49.206 57.6556 49.08 57.2056 48.936 56.9356C51.618 56.7916 54.894 56.4676 56.748 56.0356ZM57.612 60.0676H64.11V61.3276H57.612V60.0676ZM63.588 60.0676H64.884C64.884 60.0676 64.866 60.5716 64.866 60.7516C64.668 68.3476 64.488 70.8676 63.894 71.6416C63.57 72.1096 63.21 72.2716 62.67 72.3256C62.166 72.3796 61.302 72.3796 60.474 72.3256C60.438 71.9476 60.294 71.3896 60.078 71.0296C60.96 71.1016 61.752 71.1196 62.112 71.1196C62.4 71.1196 62.58 71.0656 62.742 70.8316C63.192 70.2736 63.39 67.6816 63.588 60.3916V60.0676ZM59.79 56.0896H61.086C61.068 63.2536 61.05 69.3016 56.748 72.5236C56.532 72.1996 56.064 71.7676 55.74 71.5516C59.862 68.5996 59.772 62.8936 59.79 56.0896Z" fill="#515151"/>
<path d="M65.8721 38.3721C64.0191 38.9654 59.6391 38.5699 57.6176 38.9654C53.4061 38.1744 51.1359 39.5811 49.0262 37.5262C45.9609 34.5405 44.4273 29.5522 43.1301 26.5067L42.6248 22.947C45.1853 23.7381 52.2269 25.7156 58.2914 22.947L65.8721 38.3721Z" fill="#FFD4C0"/>
<path d="M50.1823 39.2372C50.388 39.6552 50.547 39.9738 50.7009 40.2966C50.9966 40.9137 50.9252 41.4199 50.5088 41.6773C50.1084 41.9248 49.7167 41.7385 49.4259 41.1412C47.7678 37.7441 46.1121 34.3455 44.4552 30.947C43.4241 28.8324 42.3943 26.7179 41.3127 24.4996C38.4017 30.4749 35.5277 36.3733 32.629 42.3243H37.6268C37.6268 41.801 37.6182 41.2763 37.6281 40.7516C37.6441 39.8842 37.5874 38.9997 37.7131 38.1522C38.0334 35.9965 39.7605 34.5076 41.6071 34.6968C43.5067 34.8916 44.9566 36.6648 44.9985 38.876C45.0194 40.0093 45.0022 41.1427 45.0022 42.3499H45.5184C46.9942 42.3499 48.4688 42.3485 49.9446 42.3499C50.5531 42.3499 50.9104 42.6784 50.903 43.2173C50.8956 43.7421 50.5556 44.0464 49.9704 44.0521C49.878 44.0521 49.7856 44.0521 49.6933 44.0521C47.8959 44.0521 46.0974 44.0521 44.3 44.0521C40.1054 44.0521 35.9096 44.025 31.715 44.0734C30.7972 44.0848 30.3734 43.4392 30.8896 42.3954C34.0051 36.0818 37.0799 29.7397 40.1682 23.4075C40.2495 23.2412 40.3247 23.0691 40.4085 22.8914C40.2569 22.6894 40.098 22.5174 39.9822 22.3126C39.7691 21.9372 39.8085 21.5589 40.0869 21.2504C40.3666 20.9404 40.7854 20.8579 40.9985 21.185C41.6859 22.2443 42.7257 22.2344 43.6742 22.4733C46.6505 23.2241 49.6452 23.8142 52.7126 23.6009C54.1626 23.5 55.5706 23.1701 56.9233 22.5458C57.4542 22.3012 57.9457 22.0097 58.3424 21.5035C58.7674 20.9589 59.1973 20.9162 59.5373 21.303C59.8786 21.6898 59.8268 22.1562 59.3858 22.6909C59.3328 22.7548 59.2811 22.8188 59.206 22.9113C59.3045 23.1246 59.3994 23.3421 59.5028 23.5526C62.1884 29.0685 64.8764 34.583 67.5631 40.0989C67.9536 40.9009 67.9327 41.3801 67.4966 41.6759C67.0531 41.9759 66.6786 41.7527 66.2906 40.9535C66.1403 40.645 65.953 40.3506 65.8483 40.0221C65.6759 39.4846 65.3753 39.4078 64.9195 39.4647C60.2678 40.0577 55.6224 39.7903 50.9806 39.2884C50.7527 39.2642 50.5236 39.2557 50.186 39.2329L50.1823 39.2372ZM64.7815 37.8195C62.4853 33.1041 60.2395 28.494 57.9925 23.8811C57.8533 23.9422 57.7659 23.9749 57.6821 24.0161C56.0363 24.811 54.3178 25.2163 52.5389 25.3159C50.1454 25.4509 47.7875 25.1239 45.442 24.6191C44.5772 24.4328 43.7149 24.2309 42.8353 24.0332C42.8464 24.1029 42.8452 24.1228 42.8525 24.1384C44.9615 28.4812 47.0681 32.824 49.1882 37.1596C49.2547 37.2962 49.4444 37.4142 49.5861 37.4312C53.4542 37.8792 57.3298 38.1949 61.2213 38.0612C62.383 38.0214 63.5435 37.9062 64.7815 37.8195ZM43.5313 42.3258C43.5313 41.1455 43.5461 40.015 43.5276 38.886C43.5054 37.5621 42.6049 36.4785 41.4851 36.3875C40.353 36.2951 39.2714 37.1909 39.1606 38.5091C39.0546 39.7647 39.1371 41.0403 39.1371 42.3258H43.5313Z" fill="#5F231B"/>
<path d="M61.2398 44.0493C59.5644 44.0493 57.8903 44.0522 56.2149 44.0479C55.7098 44.0479 55.3994 43.772 55.3452 43.3056C55.2836 42.7766 55.6322 42.3557 56.1668 42.35C57.2275 42.3401 58.2869 42.3472 59.3476 42.3472C61.6217 42.3472 63.8958 42.3415 66.1698 42.3557C66.4027 42.3571 66.7168 42.397 66.8461 42.5676C67.01 42.7852 67.1147 43.1691 67.0777 43.4535C67.0211 43.8858 66.6897 44.0522 66.3115 44.0507C64.9281 44.0479 63.5459 44.0507 62.1625 44.0507C61.8557 44.0507 61.5478 44.0507 61.241 44.0507L61.2398 44.0493Z" fill="#5F231B"/>
<path d="M54.6061 41.5464C54.5494 41.7569 54.4853 42.01 54.4139 42.2603C54.2168 42.9471 54.0308 43.6396 53.8115 44.3165C53.6551 44.7985 53.2621 44.9976 52.8876 44.8383C52.4995 44.6748 52.3024 44.2511 52.4305 43.7704C52.6572 42.9272 52.8987 42.0896 53.1537 41.2578C53.2929 40.8027 53.5959 40.5766 54.016 40.6648C54.4003 40.7458 54.5716 41.0644 54.6048 41.5464H54.6061Z" fill="#5F231B"/>
<path d="M69.941 41.5464C69.8844 41.7569 69.8203 42.01 69.7489 42.2603C69.5518 42.9471 69.3657 43.6396 69.1465 44.3165C68.99 44.7985 68.597 44.9976 68.2225 44.8383C67.8345 44.6748 67.6374 44.2511 67.7655 43.7704C67.9922 42.9272 68.2336 42.0896 68.4886 41.2578C68.6278 40.8027 68.9309 40.5766 69.351 40.6648C69.7353 40.7458 69.9065 41.0644 69.9398 41.5464H69.941Z" fill="#5F231B"/>
</svg>
