<svg width="100" height="101" viewBox="0 0 100 101" fill="none" xmlns="http://www.w3.org/2000/svg">
<path d="M2.87598 42.742C1.73459 47.792 0.957001 52.932 0.618835 58.1065C-0.393402 73.6329 4.9669 89.6046 19.6907 95.2935C31.7564 99.9545 45.41 101.372 58.1743 99.9438L58.2299 100.441L58.1744 99.9438C63.286 99.372 68.3388 98.2271 73.1752 96.4173L73.1994 96.4082L73.2242 96.4017L73.2245 96.4017L73.2246 96.4016L73.2277 96.4008L73.2422 96.3969C73.2556 96.3933 73.2763 96.3876 73.3043 96.3797C73.3601 96.3639 73.4445 96.3393 73.5553 96.3052C73.7769 96.2371 74.1043 96.1307 74.5208 95.9798C75.354 95.6778 76.543 95.1977 77.9552 94.488C80.7803 93.0681 84.4929 90.7321 88.0376 87.0701C95.1101 79.7637 101.571 67.1208 98.8734 45.7626L98.9738 45.7499L98.8761 45.7552C98.8724 45.7556 98.8724 45.7556 98.8724 45.7556L98.8724 45.7554L98.8724 45.7552L98.872 45.7523L98.8704 45.7384C98.8689 45.7256 98.8665 45.7057 98.8631 45.6789C98.8562 45.6253 98.8453 45.544 98.8293 45.4364C98.7973 45.2213 98.7452 44.9013 98.6651 44.4879C98.505 43.6612 98.2334 42.4614 97.7885 40.9809C96.8986 38.0194 95.3164 33.9371 92.5494 29.4699C87.0206 20.5435 76.7464 10.0551 57.746 3.90665L57.7459 3.90663C51.4696 1.87471 44.4645 1.19643 37.9183 1.57571C32.4093 1.89552 26.8798 3.15446 22.0813 5.98558L22.0812 5.98562C16.3893 9.3425 12.6496 15.2373 9.90888 21.4163C6.89917 28.2025 4.5208 35.4667 2.87598 42.742Z" fill="white" stroke="#5F231B"/>
<path d="M36.77 62.8553H37.922V65.8253H36.77V62.8553ZM37.238 63.6473H41V64.5473H37.238V63.6473ZM35.798 65.4293H39.92V66.3293H35.06L35.798 65.4293ZM39.596 65.4293H39.83L40.046 65.3933L40.766 65.7893C39.416 68.4893 36.32 70.0913 33.332 70.8653C33.188 70.5773 32.918 70.1813 32.702 69.9473C35.474 69.3353 38.48 67.8413 39.596 65.6273V65.4293ZM34.304 67.1933L35.006 66.5813C35.924 66.9773 37.076 67.6073 37.67 68.1113L36.95 68.7773C36.392 68.3093 35.24 67.6253 34.304 67.1933ZM35.402 65.1593L36.428 65.4653C35.672 66.4733 34.43 67.4453 33.296 68.0573C33.116 67.8773 32.702 67.5173 32.45 67.3553C33.602 66.8153 34.754 66.0233 35.402 65.1593ZM41.738 63.6473H47.336V64.6373H41.738V63.6473ZM47.012 63.6473H47.264L47.462 63.5933L48.236 63.9353C47.21 66.6713 44.798 68.4533 42.332 69.3173C42.188 69.0293 41.882 68.5793 41.648 68.3453C43.916 67.6613 46.166 66.0233 47.012 63.8273V63.6473ZM41.684 66.0593L42.458 65.3033C44.69 66.3113 47.444 67.9493 48.83 69.1553L48.002 70.0373C46.67 68.8133 43.934 67.1213 41.684 66.0593ZM40.91 69.2633C39.29 70.7033 36.284 72.1973 33.296 73.0793C33.17 72.7913 32.918 72.3773 32.702 72.1253C35.744 71.3153 38.75 69.8573 40.298 68.3633H41.396C43.448 70.0373 46.598 71.3333 49.352 71.9093C49.1 72.1973 48.83 72.6473 48.686 72.9353C46.04 72.2693 42.8 70.8293 40.91 69.2633ZM36.86 72.1253H45.986V76.2653H36.86V75.4373H44.708V72.9533H36.86V72.1253ZM36.158 72.1253H37.436V78.4073L36.158 78.5153V72.1253ZM46.67 75.4553L47.66 76.0853C46.526 76.8053 45.086 77.5613 43.952 78.0293L43.214 77.4893C44.33 76.9853 45.824 76.1033 46.67 75.4553ZM41.144 75.7613C42.476 77.3813 45.518 78.1913 49.046 78.4253C48.794 78.6593 48.506 79.1093 48.362 79.4333C44.708 79.0913 41.648 78.0653 40.136 76.0673L41.144 75.7613ZM36.86 73.7813H45.14V74.5373H36.86V73.7813ZM38.624 70.6673H43.322V71.4953H38.624V70.6673ZM34.124 78.1373C36.032 77.9753 38.984 77.7053 41.846 77.3993V78.4253C39.146 78.7133 36.284 79.0193 34.286 79.2173L34.124 78.1373ZM53.69 66.3293H59.558V67.2653H53.69V66.3293ZM54.95 68.2733H58.244V69.0473H54.95V68.2733ZM54.95 70.1093H58.244V70.9013H54.95V70.1093ZM53.564 73.9973H57.092V74.8613H53.564V73.9973ZM53.618 75.8513H57.038V76.7153H53.618V75.8513ZM59.684 66.8873H66.884V67.8773H59.684V66.8873ZM59.378 73.2233H67.226V74.1953H59.378V73.2233ZM62.6 65.8073H63.752V69.4613H62.6V65.8073ZM54.536 66.7973H55.562V72.5033H54.536V66.7973ZM54.86 74.3573H55.778V78.2273H54.86V74.3573ZM57.596 66.7973H58.658V79.4513H57.596V66.7973ZM64.652 69.7493V71.4953H65.84V69.7493H64.652ZM62.654 69.7493V71.4953H63.824V69.7493H62.654ZM60.746 69.7493V71.4953H61.844V69.7493H60.746ZM59.828 68.8853H66.758V72.3593H59.828V68.8853ZM53.42 72.2153C54.716 72.1613 56.498 72.0353 58.352 71.9093L58.334 72.8273C56.606 72.9893 54.896 73.1333 53.528 73.2233L53.42 72.2153ZM53.15 78.0473C54.212 77.9573 55.616 77.7953 57.128 77.6333L57.146 78.4973C55.76 78.6773 54.428 78.8573 53.276 78.9833L53.15 78.0473ZM61.502 75.5453H62.528V78.0473C62.528 78.3533 62.582 78.3893 62.924 78.3893C63.068 78.3893 63.842 78.3893 64.058 78.3893C64.382 78.3893 64.436 78.2813 64.472 77.1833C64.688 77.3453 65.084 77.4893 65.39 77.5613C65.282 78.9833 64.994 79.3253 64.202 79.3253C63.986 79.3253 62.996 79.3253 62.798 79.3253C61.754 79.3253 61.502 79.0913 61.502 78.0473V75.5453ZM59.9 75.6533L60.8 75.9233C60.692 76.9493 60.458 78.1193 59.954 78.8213L59.072 78.3713C59.522 77.7233 59.792 76.6253 59.9 75.6533ZM64.994 75.8513L65.93 75.5093C66.596 76.4093 67.208 77.5973 67.388 78.4253L66.416 78.8033C66.254 77.9933 65.66 76.7693 64.994 75.8513ZM61.808 74.6273L62.456 73.9793C63.266 74.3573 64.202 74.9513 64.67 75.4193L63.968 76.1393C63.536 75.6713 62.6 75.0233 61.808 74.6273ZM58.82 62.8733H60.206V64.8893H58.82V62.8733ZM52.772 64.1873H67.064V65.2853H52.772V64.1873ZM51.89 64.1873H53.114V69.8573C53.114 72.6473 52.916 76.7333 51.62 79.4693C51.404 79.2353 50.864 78.8573 50.576 78.7313C51.8 76.1393 51.89 72.4853 51.89 69.8753V64.1873Z" fill="#515151"/>
<rect x="36.5002" y="23.4753" width="27" height="26" rx="13" stroke="#FFD4C0" stroke-width="3"/>
<path d="M50.9983 20.9753C51.738 21.0837 52.4946 21.1311 53.2134 21.3166C54.258 21.5861 55.2789 21.9449 56.3025 22.2902C56.6717 22.4148 56.7919 22.7019 56.6577 22.9754C56.5207 23.2571 56.2522 23.3316 55.8844 23.1718C53.9224 22.3173 51.8653 21.8759 49.7173 21.9625C44.167 22.1846 39.9661 24.6519 37.3343 29.367C34.055 35.2399 35.6534 42.421 41.0121 46.6324C41.1044 46.7042 41.1995 46.7732 41.3408 46.8788C41.4219 46.3074 41.4988 45.7969 41.5673 45.285C41.668 44.5429 41.7743 43.8022 41.854 43.0574C41.8694 42.918 41.8176 42.7338 41.7267 42.6268C38.1817 38.4913 38.2964 32.7442 42.0092 28.7292C42.0987 28.6331 42.1644 28.4922 42.1868 28.3636C42.2679 27.8829 42.3252 27.3967 42.3924 26.9133C42.4693 26.3649 42.8608 26.0642 43.4216 26.1292C43.9656 26.1929 44.5082 26.2755 45.0536 26.3351C45.1892 26.35 45.3472 26.3378 45.4703 26.285C47.8588 25.245 50.3186 25.0527 52.8498 25.6945C52.8903 25.7054 52.9337 25.7081 52.9882 25.7149C53.0092 25.5984 53.0246 25.4928 53.0484 25.3885C53.2413 24.5354 53.9462 23.9924 54.8034 24.0371C55.662 24.0818 56.35 24.729 56.4423 25.574C56.5053 26.1455 56.5584 26.7183 56.6437 27.287C56.6661 27.4387 56.7598 27.6147 56.8787 27.7122C58.842 29.3142 60.1286 31.3116 60.6194 33.7558C61.2487 36.8906 60.5439 39.7398 58.5428 42.2775C58.3694 42.4968 58.3232 42.6932 58.3568 42.9599C58.4952 44.0798 58.6085 45.2024 58.733 46.3236C58.7483 46.4591 58.7721 46.5945 58.7931 46.7461C64.2959 42.7324 65.9474 35.1275 62.5982 29.2438C62.5632 29.3061 62.5311 29.3535 62.5087 29.4036C62.387 29.673 62.1689 29.8112 61.8738 29.7976C61.5774 29.7841 61.4012 29.6121 61.2753 29.348C61.0474 28.8687 60.8208 28.3812 60.5285 27.9384C60.2237 27.4753 59.7706 27.1421 59.2364 26.9349C58.9329 26.8158 58.7064 26.6438 58.7022 26.3012C58.698 25.941 58.9287 25.7582 59.2518 25.6458C59.3455 25.6133 59.4308 25.5591 59.5762 25.4874C59.1665 25.1718 58.7861 24.8766 58.4015 24.5855C58.2869 24.4988 58.1624 24.4257 58.0449 24.3418C57.7499 24.1319 57.6744 23.857 57.8422 23.6173C58.0114 23.3749 58.3148 23.3289 58.6071 23.536C59.0854 23.8746 59.551 24.2321 60.0195 24.5855C60.1244 24.664 60.2223 24.7534 60.4027 24.9037C60.6656 24.4393 60.9131 24.0127 61.148 23.5807C61.2208 23.448 61.2487 23.2936 61.3158 23.1569C61.4305 22.9213 61.6221 22.7899 61.899 22.7885C62.1885 22.7872 62.3898 22.9172 62.5045 23.1718C62.6527 23.4981 62.7758 23.838 62.9478 24.1522C63.3254 24.8428 63.8694 25.375 64.6315 25.6729C64.928 25.7893 65.121 25.983 65.114 26.3066C65.107 26.6154 64.9182 26.7968 64.6329 26.9079C64.0903 27.1205 63.6554 27.4671 63.2904 27.9086C63.1576 28.0697 63.1506 28.1889 63.2583 28.369C64.7168 30.8119 65.4188 33.4457 65.3251 36.2691C65.2035 39.951 63.8596 43.1631 61.2851 45.8714C60.6362 46.5539 59.8741 47.1361 59.1469 47.7469C58.9861 47.8823 58.9092 47.9974 58.9343 48.2073C59.0882 49.5113 59.2196 50.8167 59.3804 52.1194C59.5091 53.1689 59.1245 53.896 58.2589 54.198C57.2255 54.5596 55.9067 53.9231 55.8144 52.7653C55.7403 51.8364 55.6117 50.9101 55.5068 49.9839C55.4984 49.9108 55.4844 49.839 55.4676 49.7293C51.8513 50.9927 48.2448 51.0036 44.6005 49.7496C44.5138 50.378 44.4285 50.9873 44.3432 51.5953C44.2788 52.0571 44.2299 52.5229 44.1418 52.9806C43.981 53.8134 43.1475 54.3754 42.2148 54.3023C41.3142 54.2319 40.5772 53.5358 40.5898 52.6895C40.5982 52.1397 40.6975 51.5886 40.7926 51.0456C40.8387 50.7788 41.0625 50.6502 41.3464 50.6867C41.6246 50.7219 41.8008 50.9657 41.7659 51.2595C41.7197 51.636 41.6624 52.0111 41.6065 52.3875C41.5295 52.9102 41.7743 53.2461 42.2875 53.3205C42.7825 53.3923 43.1224 53.1161 43.1937 52.5906C43.7488 48.5174 44.3068 44.4427 44.862 40.3695C44.9459 39.7587 45.0228 39.1467 45.1081 38.5007C44.5795 38.4303 44.0761 38.364 43.5377 38.2935C43.4468 38.9462 43.3559 39.5773 43.2692 40.2083C42.8944 42.9491 42.521 45.6899 42.1463 48.4307C42.1211 48.6135 42.1043 48.7977 42.0651 48.9778C42.0008 49.2676 41.7883 49.4179 41.5142 49.3854C41.2303 49.3515 41.0597 49.1321 41.082 48.8261C41.089 48.7286 41.0862 48.6257 41.1198 48.5363C41.2764 48.1098 41.0485 47.8945 40.7143 47.6439C37.5133 45.243 35.5037 42.1204 34.8689 38.238C33.8312 31.8979 36.8448 25.9383 42.6273 22.8021C44.5278 21.7702 46.5793 21.1907 48.7552 21.0309C48.8545 21.0241 48.951 20.9943 49.0489 20.9753C49.6991 20.9753 50.3494 20.9753 50.9983 20.9753ZM47.6001 26.5598C47.6001 26.5937 47.6001 26.6276 47.6001 26.6601C47.8602 26.6966 48.1189 26.7372 48.379 26.7684C49.0419 26.8456 49.3383 27.18 49.2544 27.826C49.0097 29.7082 48.765 31.5905 48.4881 33.4687C48.3553 34.3692 47.863 35.0829 47.0016 35.4715C46.6044 35.6502 46.473 35.8832 46.4226 36.2732C46.0884 38.8325 45.7388 41.3905 45.3808 43.9471C45.3514 44.1557 45.3906 44.2572 45.5878 44.3479C48.537 45.7048 51.4779 45.7021 54.4286 44.3439C54.7936 44.176 54.8565 43.9742 54.8146 43.6181C54.5405 41.2916 54.2762 38.9625 54.0385 36.632C53.9895 36.1499 53.8217 35.7843 53.4134 35.5108C52.798 35.0964 52.5617 34.5222 52.6023 33.7978C52.7281 31.5553 52.826 29.3115 52.9477 27.069C52.9617 26.8158 52.8861 26.7088 52.6358 26.6438C51.5437 26.3621 50.4333 26.2457 49.3076 26.3283C48.7356 26.3703 48.1679 26.48 47.5987 26.5598H47.6001ZM45.2088 45.2688C45.0494 46.436 44.8928 47.5803 44.7333 48.7476C48.3035 50.0462 51.8303 50.0313 55.3684 48.7056C55.2355 47.5139 55.1054 46.3575 54.974 45.1767C51.7087 46.692 48.4797 46.7136 45.2088 45.2674V45.2688ZM47.333 27.6134C47.3162 27.6906 47.3064 27.7325 47.3008 27.7732C47.1009 29.2235 46.9065 30.6738 46.6939 32.1227C46.6702 32.2893 46.5807 32.5005 46.4492 32.5831C46.3219 32.663 46.0786 32.6562 45.9276 32.5939C45.6773 32.491 45.6675 32.2419 45.701 32.0022C45.8493 30.95 45.9961 29.8978 46.1402 28.8443C46.2017 28.3974 46.2534 27.9506 46.3122 27.4888C45.9598 27.4455 45.6549 27.4075 45.3333 27.3669C45.3137 27.482 45.2969 27.566 45.2843 27.6499C45.0871 29.0786 44.8942 30.5072 44.6914 31.9358C44.6438 32.2703 44.4201 32.4545 44.139 32.4247C43.8383 32.3922 43.6538 32.1376 43.6985 31.8058C43.8383 30.7848 43.9824 29.7651 44.1208 28.7441C44.1893 28.2444 44.2495 27.7447 44.3152 27.2315C43.9852 27.1922 43.6999 27.1584 43.4076 27.1232C43.3825 27.2112 43.3559 27.2708 43.3475 27.3344C43.114 29.0542 42.8944 30.774 42.6469 32.491C42.535 33.2602 42.749 33.8736 43.3936 34.3503C43.823 34.6671 43.974 35.0991 43.8971 35.6164C43.8132 36.1797 43.746 36.7458 43.6705 37.328C44.2145 37.3957 44.7207 37.458 45.2438 37.523C45.3249 36.9448 45.413 36.4113 45.4731 35.8737C45.5374 35.3022 45.8199 34.9082 46.3751 34.6888C47.0463 34.4234 47.4113 33.9224 47.5064 33.2331C47.6812 31.9764 47.856 30.7198 48.028 29.4631C48.1049 28.8971 48.1763 28.3297 48.2532 27.7407C47.9357 27.696 47.6504 27.6554 47.3316 27.6107L47.333 27.6134ZM56.7164 37.305C56.7052 37.1642 56.6983 37.0491 56.6857 36.934C56.5165 35.4038 56.3472 33.8736 56.178 32.3448C55.9305 30.1145 55.6858 27.8842 55.4369 25.6539C55.3949 25.2761 55.0887 25.0161 54.7153 25.0161C54.3461 25.0161 54.0454 25.2897 54.0259 25.6769C53.886 28.4381 53.7532 31.1992 53.6133 33.9603C53.5979 34.2555 53.6972 34.4884 53.935 34.6712C54.0748 34.7795 54.2077 34.896 54.3447 35.007C54.7125 35.3049 54.9376 35.6773 54.9894 36.1445C55.0369 36.5738 55.0901 37.0017 55.146 37.4675C55.6774 37.4133 56.1836 37.3605 56.7178 37.3064L56.7164 37.305ZM55.2495 38.4452C55.3684 39.5367 55.4844 40.6024 55.6019 41.6667C55.8382 43.8009 56.0746 45.9364 56.3109 48.0705C56.4759 49.5695 56.6339 51.0686 56.8073 52.5663C56.8814 53.2136 57.3345 53.483 57.9401 53.2704C58.3064 53.1418 58.4463 52.8845 58.3903 52.3631C58.2086 50.6705 58.0184 48.9778 57.831 47.2851C57.5709 44.9343 57.3108 42.5848 57.0507 40.234C56.9793 39.5908 56.9052 38.9476 56.8297 38.2759C56.2885 38.3328 55.7809 38.387 55.2509 38.4439L55.2495 38.4452ZM58.1568 41.0912C60.7761 37.5542 60.2936 32.0794 56.8255 29.0352C57.2702 33.0652 57.7093 37.0464 58.1568 41.0912ZM41.8917 30.5478C40.436 32.5709 39.913 34.8012 40.264 37.2143C40.4975 38.8217 41.4848 41.0086 42.0945 41.3742C42.3644 39.4053 42.6399 37.4418 42.8916 35.4756C42.9084 35.3429 42.7895 35.1465 42.6721 35.0504C41.8526 34.3801 41.503 33.5405 41.6344 32.5113C41.7183 31.8559 41.8064 31.2019 41.8931 30.5478H41.8917ZM61.9074 28.2376C62.3339 27.4116 62.8835 26.7711 63.654 26.289C62.8583 25.8083 62.3353 25.1515 61.9004 24.3553C61.4809 25.1705 60.9327 25.8083 60.1635 26.2944C60.9467 26.7901 61.4823 27.4306 61.9074 28.2376Z" fill="#5F231B" stroke="#5F231B" stroke-width="0.5"/>
</svg>
