<svg width="100" height="101" viewBox="0 0 100 101" fill="none" xmlns="http://www.w3.org/2000/svg">
<path d="M97.124 42.742C98.2654 47.792 99.043 52.932 99.3812 58.1065C100.393 73.6329 95.0331 89.6046 80.3093 95.2935C68.2436 99.9545 54.5901 101.372 41.8257 99.9438L41.7701 100.441L41.8256 99.9438C36.7141 99.372 31.6612 98.2271 26.8248 96.4173L26.8006 96.4082L26.7758 96.4017L26.7755 96.4017L26.7754 96.4016L26.7723 96.4008L26.7578 96.3969C26.7444 96.3933 26.7237 96.3876 26.6957 96.3797C26.6399 96.3639 26.5555 96.3393 26.4447 96.3052C26.2231 96.2371 25.8957 96.1307 25.4792 95.9798C24.646 95.6778 23.457 95.1977 22.0448 94.488C19.2197 93.0681 15.5071 90.7321 11.9624 87.0701C4.88995 79.7637 -1.57142 67.1208 1.12656 45.7626L1.02623 45.7499L1.12386 45.7552C1.12758 45.7556 1.12758 45.7556 1.12758 45.7556L1.12761 45.7554L1.12763 45.7552L1.12795 45.7523L1.12955 45.7384C1.13106 45.7256 1.13347 45.7057 1.1369 45.6789C1.14376 45.6253 1.15469 45.544 1.17068 45.4364C1.20265 45.2213 1.2548 44.9013 1.33486 44.4879C1.49498 43.6612 1.76665 42.4614 2.21154 40.9809C3.10143 38.0194 4.6836 33.9371 7.45055 29.4699C12.9794 20.5435 23.2536 10.0551 42.254 3.90665L42.2541 3.90663C48.5304 1.87471 55.5355 1.19643 62.0817 1.57571C67.5907 1.89552 73.1202 3.15446 77.9187 5.98558L77.9188 5.98562C83.6107 9.3425 87.3504 15.2373 90.0911 21.4163C93.1008 28.2025 95.4792 35.4667 97.124 42.742Z" fill="white" stroke="#5F231B"/>
<path d="M53.6786 27.9227H37.2857L36.4822 28.7122L36.8036 37.7122L37.9286 38.8175H47.8929L51.5893 42.9227V38.8175H53.3572L54.4822 38.1859V29.1859L53.6786 27.9227Z" fill="#FFD4C0"/>
<path d="M52.2145 39.6453C52.6497 39.6189 53.0189 39.6309 53.3758 39.5684C54.4479 39.3796 55.2168 38.5391 55.2253 37.4713C55.2473 34.6817 55.251 31.892 55.2229 29.1023C55.2119 27.9696 54.3256 27.1087 53.1766 26.9969C53.025 26.9824 52.8722 26.9764 52.7206 26.9764C47.9789 26.9764 43.2359 26.974 38.4942 26.9764C37.2375 26.9764 36.3806 27.5488 36.0921 28.5853C36.0212 28.8414 36.0066 29.118 36.0054 29.3849C35.9992 31.9942 35.998 34.6047 36.0029 37.214C36.0066 38.7219 36.9222 39.6165 38.4551 39.6177C41.4133 39.6201 44.3715 39.6225 47.3298 39.6117C47.6452 39.6117 47.8566 39.6886 48.0632 39.9399C48.9727 41.0486 49.9079 42.1368 50.832 43.2334C51.0753 43.5232 51.332 43.7781 51.7623 43.6122C52.1815 43.4511 52.2207 43.1012 52.2182 42.7212C52.2109 41.7039 52.2158 40.6879 52.2158 39.6441L52.2145 39.6453ZM50.8418 40.9632C50.8088 40.9789 50.777 40.9957 50.744 41.0113C50.1536 40.3127 49.5362 39.6333 48.9825 38.907C48.617 38.4285 48.2063 38.2481 47.5914 38.2541C44.5427 38.2854 41.4952 38.2698 38.4465 38.2673C37.6911 38.2673 37.3781 37.9679 37.3769 37.2381C37.372 34.5987 37.372 31.9605 37.3769 29.3212C37.3781 28.6526 37.6801 28.34 38.3426 28.3388C43.1895 28.3328 48.0363 28.3328 52.8832 28.3388C53.5213 28.3388 53.855 28.661 53.8575 29.2779C53.8648 31.9617 53.8648 34.6456 53.8575 37.3294C53.855 37.9138 53.5079 38.2445 52.915 38.2649C52.4884 38.2794 52.0617 38.2649 51.6351 38.2698C51.0936 38.277 50.8503 38.5054 50.8442 39.0321C50.8357 39.6754 50.8418 40.3187 50.8418 40.962V40.9632Z" fill="#5F231B"/>
<path d="M48.1465 48.2813C48.1465 47.7029 48.1477 47.1258 48.1465 46.5474C48.144 45.7598 47.9497 45.571 47.1453 45.5698C46.825 45.5698 46.5048 45.5722 46.1845 45.5698C45.4425 45.5638 45.1332 45.2644 45.1259 44.5261C45.1173 43.6856 45.1247 42.8463 45.1234 42.0058C45.1234 41.8711 45.1283 41.7352 45.1137 41.6018C45.0721 41.2194 44.8533 40.9933 44.4621 40.9801C44.0685 40.9669 43.8179 41.1845 43.7751 41.5609C43.7336 41.9168 43.7519 42.2787 43.7495 42.6395C43.747 43.2539 43.7458 43.8696 43.7495 44.484C43.758 46.0279 44.6589 46.9165 46.2175 46.9214C46.3813 46.9214 46.5463 46.9214 46.7713 46.9214C46.7713 47.751 46.7713 48.541 46.7713 49.3299C46.7713 49.6148 46.7713 49.8998 46.7713 50.1848C46.7713 50.5287 46.8874 50.8125 47.2382 50.9339C47.5891 51.0542 47.8531 50.9002 48.0768 50.6345C49.0193 49.5126 49.9728 48.4016 50.9042 47.2713C51.1157 47.0139 51.3309 46.9105 51.6731 46.9129C54.6314 46.9274 57.5896 46.9226 60.5491 46.9214C62.0697 46.9214 62.9927 46.0147 62.9963 44.5093C63.0012 41.9144 63.0012 39.3195 62.9963 36.7234C62.9939 35.2011 62.0979 34.3077 60.565 34.2969C59.5283 34.2897 58.4905 34.2921 57.4539 34.2969C56.9051 34.3005 56.6117 34.5446 56.6153 34.9715C56.6178 35.3935 56.9209 35.6449 57.4625 35.6485C58.4844 35.6557 59.5063 35.6485 60.5283 35.6509C61.3192 35.6533 61.6211 35.9346 61.6223 36.6994C61.6272 39.3099 61.6272 41.9192 61.6223 44.5297C61.6211 45.262 61.3008 45.5686 60.5588 45.5698C57.4331 45.5722 54.3062 45.577 51.1805 45.5638C50.7404 45.5614 50.4336 45.7033 50.1622 46.0364C49.5376 46.8047 48.8885 47.5538 48.2492 48.3114C48.2149 48.3018 48.1819 48.2921 48.1477 48.2825L48.1465 48.2813Z" fill="#5F231B"/>
<path d="M43.88 55.1513C42.89 56.8073 41.054 58.8053 39.074 60.0833C38.93 59.7593 38.624 59.2733 38.372 58.9853C40.352 57.7793 42.278 55.6733 43.196 53.9093H44.456C45.698 55.7993 47.678 57.7073 49.496 58.7513C49.244 59.0753 48.938 59.5613 48.74 59.9213C46.958 58.7513 44.978 56.8073 43.88 55.1513ZM39.542 61.5233H48.092V62.6573H40.694V70.3793H39.542V61.5233ZM47.282 61.5233H48.47V69.1193C48.47 69.6773 48.38 70.0013 48.002 70.1813C47.642 70.3793 47.102 70.3973 46.328 70.3973C46.292 70.0913 46.13 69.6233 45.968 69.3173C46.49 69.3353 46.922 69.3353 47.084 69.3173C47.246 69.3173 47.282 69.2633 47.282 69.1013V61.5233ZM42.206 61.8473H43.16V70.1633H42.206V61.8473ZM44.708 61.8473H45.68V70.1633H44.708V61.8473ZM40.874 58.8233H47.066V59.9573H40.874V58.8233ZM40.082 65.2133H47.984V66.3293H40.082V65.2133ZM33.458 59.3093H38.318V60.3893H33.458V59.3093ZM33.548 54.5033H38.246V55.5833H33.548V54.5033ZM33.458 61.7213H38.318V62.8013H33.458V61.7213ZM32.684 56.8613H38.84V57.9773H32.684V56.8613ZM34.088 64.1513H38.318V69.3893H34.088V68.2733H37.184V65.2673H34.088V64.1513ZM33.422 64.1513H34.574V70.2353H33.422V64.1513ZM60.854 53.8733H62.186V56.0153H60.854V53.8733ZM55.904 55.3673H67.118V56.4113H55.904V55.3673ZM55.166 68.8493H67.298V69.9113H55.166V68.8493ZM60.188 59.5433V60.4253H62.834V59.5433H60.188ZM59.252 58.8053H63.824V61.1453H59.252V58.8053ZM58.136 58.0673V61.8833H64.958V58.0673H58.136ZM57.002 57.1853H66.146V62.7653H57.002V57.1853ZM58.784 66.1673V67.1933H64.256V66.1673H58.784ZM58.784 64.3673V65.3753H64.256V64.3673H58.784ZM57.542 63.5393H65.552V68.0213H57.542V63.5393ZM50.936 58.2653H55.85V59.5433H50.936V58.2653ZM52.862 54.0893H54.104V65.8613H52.862V54.0893ZM50.612 66.1493C51.962 65.6633 53.996 64.8713 55.976 64.0613L56.264 65.3213C54.464 66.0773 52.556 66.8873 51.062 67.4993L50.612 66.1493Z" fill="#515151"/>
</svg>
