<svg width="235" height="203" viewBox="0 0 235 203" fill="none" xmlns="http://www.w3.org/2000/svg">
<rect width="40.8902" height="11.8118" rx="3" transform="matrix(-0.0863038 0.998823 0.993395 0.0890837 12.5195 99.4785)" fill="#5F231B" fill-opacity="0.5"/>
<rect width="40.8605" height="11.8206" rx="3" transform="matrix(0.0047523 1.0034 0.996482 -0.00489818 40.1211 100.605)" fill="#5F231B" fill-opacity="0.5"/>
<rect width="40.8271" height="11.8305" rx="3" transform="matrix(0.086266 1.00038 0.99184 -0.0887668 67.708 100.407)" fill="#5F231B" fill-opacity="0.5"/>
<rect width="40.7585" height="11.8507" rx="3" transform="matrix(0.222654 0.980017 0.968361 -0.228333 94.0146 95.1873)" fill="#5F231B" fill-opacity="0.5"/>
<rect width="40.7043" height="11.8667" rx="3" transform="matrix(0.315505 0.954606 0.940729 -0.322688 120.955 89.9941)" fill="#5F231B" fill-opacity="0.5"/>
<rect width="40.638" height="11.8861" rx="3" transform="matrix(0.419148 0.914091 0.897864 -0.427291 146.885 80.7529)" fill="#5F231B" fill-opacity="0.5"/>
<rect width="40.4924" height="11.9286" rx="3" transform="matrix(0.630475 0.782743 0.763364 -0.638139 171.183 74.0688)" fill="#5F231B" fill-opacity="0.5"/>
<rect width="40.3888" height="11.9586" rx="3" transform="matrix(0.786369 0.623466 0.604953 -0.791901 191.698 62.2788)" fill="#5F231B" fill-opacity="0.5"/>
</svg>
