<?xml version="1.0" encoding="UTF-8"?>
<svg id="_圖層_1" data-name="圖層 1" xmlns="http://www.w3.org/2000/svg" viewBox="0 0 117.71 105.15">
  <defs>
    <style>
      .cls-1 {
        stroke: #ac8d88;
        stroke-miterlimit: 10;
      }

      .cls-1, .cls-2 {
        fill: #ac8d88;
      }
    </style>
  </defs>
  <line class="cls-1" x1="21.12" y1="104.65" x2=".01" y2="104.11"/>
  <line class="cls-1" x1="117.21" y1="16.68" x2="116.95" y2="0"/>
  <g>
    <path class="cls-2" d="m25.03,87.93c-.09.97-.43,2.71-1.15,4.28-1,2.18-2.26,3.5-3.81,4.11-1.54.62-3.36.51-5.11-.3-3.95-1.83-4.88-5.75-3.1-9.64.7-1.54,1.54-2.59,2.09-3.05l1.9,1.55c-.59.53-1.17,1.23-1.78,2.54-1.03,2.24-.55,4.53,2.04,5.71,2.46,1.13,4.61.23,5.62-1.97.28-.61.43-1.13.44-1.39l-2.5-1.15-.84,1.84-2.1-.96,2.03-4.44,6.27,2.87Z"/>
    <path class="cls-2" d="m26.77,72.72c3.71,2.16,4.65,5.71,2.72,9.02-1.96,3.35-5.64,3.85-8.87,1.97-3.38-1.97-4.65-5.62-2.71-8.96,2.02-3.47,5.73-3.85,8.86-2.03Zm-4.62,8.25c2.22,1.29,4.39,1.16,5.38-.55,1.01-1.73-.05-3.67-2.25-4.95-2.04-1.19-4.34-1.24-5.37.52-1.01,1.73.04,3.7,2.24,4.98Z"/>
    <path class="cls-2" d="m38.72,67.33l-12.1-5.89,2.01-2.46,4.81,2.65c1.38.77,2.87,1.64,4.03,2.31l.03-.03c-.97-1.06-1.98-2.3-3.03-3.59l-3.44-4.26,1.99-2.44,4.94,2.69c1.36.75,2.58,1.47,3.83,2.24l.03-.03c-1-1.08-2-2.26-3.04-3.48l-3.48-4.21,1.91-2.33,8,10.91-2.03,2.48-5.07-2.71c-1.18-.63-2.27-1.25-3.52-2.06l-.03.03c1,1.11,1.83,2.06,2.66,3.14l3.57,4.54-2.06,2.51Z"/>
    <path class="cls-2" d="m40.99,44.8l9.46,9.05-2.05,2.14-9.46-9.05,2.05-2.14Z"/>
    <path class="cls-2" d="m46.69,42.65l-2.58,2.42-1.7-1.81,7.35-6.9,1.7,1.81-2.61,2.45,7.26,7.74-2.16,2.03-7.26-7.74Z"/>
    <path class="cls-2" d="m53.85,32.95l3.15,3.93,3.81-3.05-3.15-3.93,2.31-1.85,8.18,10.23-2.31,1.85-3.43-4.28-3.81,3.05,3.42,4.28-2.31,1.85-8.18-10.23,2.31-1.85Z"/>
    <path class="cls-2" d="m83.32,22.59c-.86-1.34-1.87-2.93-2.84-4.59l-.05.03c.49,1.66.96,3.54,1.33,5.12l1.21,5.21-1.98,1.17-3.79-3.64c-1.15-1.11-2.47-2.5-3.62-3.82l-.04.02c.85,1.57,1.81,3.35,2.58,4.79l2.32,4.41-2.36,1.39-5.94-11.71,3.4-2.01,3.33,3.12c1.12,1.08,2.3,2.3,3.34,3.47l.05-.03c-.46-1.49-.96-3.2-1.32-4.68l-1.02-4.46,3.34-1.97,7.26,10.92-2.48,1.46-2.72-4.21Z"/>
    <path class="cls-2" d="m94.91,16.1l-4.33,2.12,1.37,2.8,4.84-2.37,1.07,2.18-7.5,3.68-5.77-11.76,7.25-3.55,1.07,2.18-4.59,2.25,1.2,2.45,4.33-2.12,1.06,2.16Z"/>
    <path class="cls-2" d="m101.71,14.51l-3.76-7.98,2.84-1.17,2.97,8.31-2.05.85Zm.46,2.77c-.4-.97-.01-1.91.93-2.3.96-.39,1.87.01,2.28.97.38.93.04,1.89-.93,2.29-.95.39-1.89-.03-2.28-.96Z"/>
  </g>
</svg>