<svg width="333" height="316" viewBox="0 0 333 316" fill="none" xmlns="http://www.w3.org/2000/svg">
<path d="M192.087 8.23729L192.234 7.75944L192.087 8.23727C171.086 1.76659 147.679 -0.386077 125.825 0.819041C107.409 1.83655 88.8527 5.84498 72.7146 14.9071L72.4698 14.4711L72.7146 14.9071C53.5044 25.6901 40.9664 44.5703 31.836 64.1623C21.8127 85.6719 13.894 108.692 8.41776 131.746C4.61646 147.753 2.02573 164.05 0.898926 180.461C-2.47467 229.71 15.3689 280.808 64.9507 299.041C105.205 313.841 150.729 318.336 193.276 313.804C210.335 311.988 227.206 308.35 243.363 302.596L243.386 302.588L243.41 302.582L243.43 302.663C243.41 302.582 243.41 302.582 243.411 302.582L243.414 302.581L243.427 302.578L243.481 302.564C243.509 302.557 243.544 302.548 243.588 302.536C243.621 302.527 243.658 302.517 243.699 302.506C243.893 302.454 244.181 302.374 244.558 302.264C245.311 302.043 246.417 301.702 247.819 301.218C250.623 300.251 254.614 298.717 259.348 296.452C268.818 291.922 281.258 284.472 293.135 272.794C316.87 249.456 338.417 209.178 329.42 141.391L329.472 141.384L329.419 141.387L329.629 141.364L329.629 141.364C329.419 141.387 329.419 141.387 329.419 141.387L329.418 141.384L329.417 141.373L329.411 141.324C329.406 141.28 329.397 141.214 329.385 141.125C329.362 140.949 329.324 140.685 329.27 140.338C329.162 139.643 328.986 138.617 328.717 137.295C328.179 134.651 327.268 130.825 325.779 126.11C322.802 116.678 317.512 103.69 308.265 89.4808C289.776 61.071 255.451 27.7524 192.087 8.23729Z" fill="white" stroke="#5F231B"/>
<path d="M148.61 211.228H151.354V216.1H148.61V211.228ZM149.73 212.32H155.89V214.308H149.73V212.32ZM147.826 215.148H153.874V217.136H146.23L147.826 215.148ZM153.23 215.148H153.734L154.21 215.064L155.974 215.988C153.79 220.048 149.086 222.344 144.27 223.52C143.962 222.904 143.318 221.952 142.842 221.42C147.154 220.58 151.578 218.536 153.23 215.54V215.148ZM145.138 218.508L146.734 217.164C147.938 217.64 149.506 218.452 150.29 219.096L148.61 220.552C147.882 219.936 146.342 219.04 145.138 218.508ZM146.902 214.588L149.254 215.288C148.05 216.912 146.118 218.48 144.326 219.432C143.906 218.984 142.982 218.172 142.422 217.78C144.186 216.996 145.922 215.848 146.902 214.588ZM156.758 212.208H165.41V214.476H156.758V212.208ZM164.682 212.208H165.242L165.718 212.096L167.594 212.88C165.998 217.248 162.414 219.992 158.298 221.42C157.962 220.748 157.234 219.656 156.674 219.096C160.286 218.088 163.506 215.708 164.682 212.6V212.208ZM156.506 216.632L158.382 214.812C161.714 216.24 166.054 218.62 168.266 220.44L166.222 222.54C164.178 220.72 159.922 218.2 156.506 216.632ZM155.862 221.868C153.342 224.024 148.694 226.152 144.214 227.328C143.934 226.656 143.318 225.62 142.842 225.004C147.434 223.996 151.998 221.98 154.406 219.768H157.066C160.286 222.316 164.906 223.996 169.19 224.724C168.602 225.396 167.986 226.432 167.622 227.16C163.702 226.264 158.662 224.164 155.862 221.868ZM149.87 225.788H164.01V232.48H149.87V230.716H160.846V227.524H149.87V225.788ZM148.19 225.816H151.354V235.56L148.19 235.784V225.816ZM164.626 230.688L166.95 232.144C165.242 233.348 163.282 234.608 161.742 235.392L160.006 234.16C161.518 233.292 163.478 231.78 164.626 230.688ZM156.674 231.472C158.634 233.852 163.058 234.944 168.574 235.196C168.014 235.756 167.342 236.848 167.006 237.576C161.07 237.072 156.702 235.476 154.266 232.144L156.674 231.472ZM149.87 228.336H161.798V229.848H149.87V228.336ZM152.194 223.352H159.502V225.116H152.194V223.352ZM144.914 234.664C148.022 234.44 152.698 234.076 157.178 233.684V236.092C152.95 236.484 148.442 236.904 145.222 237.184L144.914 234.664ZM176.134 216.884H185.094V218.956H176.134V216.884ZM177.982 219.936H183.134V221.56H177.982V219.936ZM177.982 222.624H183.134V224.276H177.982V222.624ZM175.854 228.588H180.978V230.464H175.854V228.588ZM175.882 231.556H180.95V233.376H175.882V231.556ZM185.29 217.472H196.434V219.74H185.29V217.472ZM184.87 227.356H197.022V229.568H184.87V227.356ZM189.294 216.212H192.094V222.148H189.294V216.212ZM177.114 218.032H179.466V226.376H177.114V218.032ZM177.394 229.428H179.466V235.392H177.394V229.428ZM181.538 218.004H184.03V237.52H181.538V218.004ZM193.074 222.708V224.556H194.222V222.708H193.074ZM190.218 222.708V224.556H191.338V222.708H190.218ZM187.446 222.708V224.556H188.482V222.708H187.446ZM185.43 220.832H196.266V226.432H185.43V220.832ZM175.77 225.564C177.786 225.508 180.614 225.368 183.498 225.228L183.47 227.328C180.782 227.552 178.122 227.72 175.938 227.86L175.77 225.564ZM175.098 234.804C176.694 234.692 178.766 234.524 181.006 234.356L181.062 236.288C179.018 236.512 177.086 236.708 175.322 236.876L175.098 234.804ZM187.95 231.332H190.302V234.664C190.302 235.196 190.358 235.252 190.694 235.252C190.834 235.252 191.422 235.252 191.618 235.252C192.01 235.252 192.094 235.084 192.15 233.46C192.598 233.824 193.55 234.16 194.194 234.3C193.97 236.736 193.354 237.352 191.954 237.352C191.562 237.352 190.694 237.352 190.302 237.352C188.37 237.352 187.95 236.736 187.95 234.664V231.332ZM185.29 231.304L187.39 231.92C187.222 233.628 186.886 235.504 186.102 236.652L184.058 235.7C184.73 234.608 185.122 232.9 185.29 231.304ZM193.186 231.808L195.314 231.024C196.266 232.508 197.134 234.44 197.358 235.756L195.118 236.596C194.922 235.308 194.11 233.32 193.186 231.808ZM188.37 230.24L189.882 228.756C191.086 229.288 192.598 230.184 193.326 230.884L191.702 232.536C191.03 231.808 189.574 230.856 188.37 230.24ZM183.134 211.228H186.634V214.784H183.134V211.228ZM174.65 213.104H196.77V215.68H174.65V213.104ZM172.55 213.104H175.546V221.756C175.546 226.292 175.21 233.208 173.11 237.576C172.578 237.016 171.234 236.064 170.562 235.756C172.41 231.752 172.55 225.9 172.55 221.784V213.104Z" fill="#515151"/>
<path fill-rule="evenodd" clip-rule="evenodd" d="M186.472 171.359C180.242 174.842 173.061 176.827 165.416 176.827C159.226 176.827 153.339 175.525 148.015 173.18L152.212 132.413L158.214 127.012L161.215 107.206L144.409 104.805L142.009 126.412L145.61 131.213L140.398 168.852C129.386 161.02 122.203 148.156 122.203 133.614C122.203 109.748 141.55 90.4008 165.416 90.4008C189.282 90.4008 208.629 109.748 208.629 133.614C208.629 148.599 201.002 161.802 189.418 169.553C189.248 167.482 184.578 122.994 182.221 100.604L178.019 98.2032L176.219 101.804L173.818 127.612L178.019 134.214L181.02 173.826C182.475 173.203 184.684 172.223 186.472 171.359Z" fill="#FFD4C0"/>
<circle cx="165.002" cy="133" r="30" fill="white"/>
<path d="M168.931 88C171.102 88.3277 173.323 88.471 175.432 89.0321C178.498 89.8472 181.494 90.9326 184.498 91.977C185.582 92.3538 185.935 93.2221 185.541 94.0495C185.138 94.9014 184.35 95.1267 183.271 94.6434C177.513 92.0589 171.476 90.7237 165.172 90.9858C148.883 91.6575 136.554 99.1201 128.831 113.382C119.207 131.145 123.897 152.865 139.624 165.603C139.895 165.82 140.174 166.029 140.589 166.348C140.827 164.62 141.052 163.076 141.254 161.528C141.549 159.283 141.861 157.043 142.095 154.79C142.14 154.368 141.988 153.811 141.721 153.488C131.318 140.979 131.654 123.597 142.55 111.453C142.813 111.162 143.006 110.736 143.072 110.347C143.31 108.893 143.478 107.422 143.675 105.96C143.901 104.301 145.05 103.392 146.696 103.589C148.292 103.781 149.884 104.031 151.485 104.211C151.883 104.256 152.347 104.219 152.708 104.06C159.718 100.914 166.937 100.332 174.365 102.274C174.484 102.307 174.611 102.315 174.772 102.335C174.833 101.983 174.878 101.664 174.948 101.348C175.514 98.7678 177.583 97.1254 180.099 97.2606C182.619 97.3958 184.638 99.3535 184.909 101.909C185.093 103.638 185.249 105.37 185.5 107.091C185.565 107.549 185.84 108.082 186.189 108.377C191.951 113.222 195.727 119.263 197.167 126.656C199.014 136.138 196.946 144.755 191.073 152.431C190.564 153.094 190.429 153.688 190.527 154.495C190.933 157.882 191.266 161.278 191.631 164.669C191.676 165.079 191.746 165.488 191.808 165.947C207.957 153.807 212.804 130.805 202.975 113.009C202.872 113.197 202.778 113.341 202.712 113.492C202.355 114.307 201.715 114.725 200.849 114.684C199.979 114.643 199.462 114.123 199.092 113.324C198.423 111.874 197.758 110.4 196.901 109.061C196.006 107.66 194.676 106.652 193.109 106.026C192.218 105.665 191.553 105.145 191.541 104.109C191.528 103.019 192.206 102.466 193.154 102.126C193.429 102.028 193.679 101.864 194.106 101.647C192.903 100.693 191.787 99.8 190.658 98.9194C190.322 98.6573 189.957 98.4361 189.612 98.1822C188.746 97.5473 188.524 96.7159 189.017 95.9909C189.513 95.2578 190.404 95.1185 191.262 95.7452C192.665 96.7691 194.032 97.8504 195.407 98.9194C195.715 99.1569 196.002 99.4273 196.531 99.8819C197.303 98.477 198.029 97.1869 198.719 95.8803C198.932 95.4789 199.014 95.012 199.211 94.5983C199.548 93.8857 200.11 93.4884 200.923 93.4843C201.772 93.4802 202.363 93.8734 202.7 94.6434C203.135 95.6305 203.496 96.6585 204.001 97.6087C205.109 99.6976 206.705 101.307 208.942 102.208C209.812 102.561 210.378 103.146 210.358 104.125C210.337 105.059 209.783 105.608 208.946 105.944C207.354 106.587 206.077 107.635 205.006 108.97C204.616 109.458 204.596 109.818 204.912 110.363C209.192 117.752 211.253 125.718 210.978 134.258C210.621 145.394 206.677 155.11 199.121 163.301C197.217 165.366 194.98 167.127 192.846 168.974C192.374 169.383 192.148 169.732 192.222 170.366C192.673 174.311 193.059 178.259 193.531 182.199C193.909 185.373 192.78 187.573 190.24 188.486C187.207 189.58 183.337 187.655 183.066 184.153C182.848 181.343 182.471 178.542 182.163 175.74C182.138 175.519 182.097 175.302 182.048 174.97C171.435 178.792 160.851 178.824 150.155 175.032C149.901 176.932 149.651 178.775 149.4 180.614C149.211 182.011 149.068 183.42 148.809 184.804C148.337 187.323 145.891 189.023 143.154 188.802C140.511 188.589 138.348 186.483 138.385 183.924C138.409 182.261 138.701 180.594 138.98 178.951C139.115 178.144 139.772 177.755 140.605 177.866C141.422 177.972 141.939 178.71 141.836 179.598C141.701 180.737 141.533 181.872 141.368 183.01C141.143 184.591 141.861 185.607 143.367 185.832C144.82 186.049 145.817 185.214 146.027 183.625C147.656 171.304 149.293 158.98 150.923 146.66C151.169 144.813 151.395 142.961 151.645 141.008C150.094 140.795 148.616 140.594 147.036 140.381C146.769 142.355 146.503 144.264 146.248 146.173C145.148 154.462 144.053 162.752 142.953 171.042C142.879 171.595 142.83 172.152 142.715 172.697C142.526 173.573 141.902 174.028 141.098 173.93C140.265 173.827 139.764 173.164 139.829 172.238C139.85 171.943 139.842 171.632 139.94 171.362C140.4 170.072 139.731 169.42 138.75 168.663C129.356 161.401 123.458 151.956 121.595 140.213C118.55 121.037 127.394 103.011 144.364 93.5252C149.942 90.4042 155.963 88.6512 162.349 88.1679C162.64 88.1474 162.923 88.0573 163.21 88C165.119 88 167.027 88 168.931 88ZM158.959 104.891C158.959 104.993 158.959 105.096 158.959 105.194C159.722 105.305 160.481 105.428 161.245 105.522C163.19 105.755 164.06 106.767 163.814 108.721C163.095 114.414 162.377 120.107 161.565 125.788C161.175 128.512 159.73 130.67 157.202 131.846C156.036 132.386 155.651 133.091 155.503 134.27C154.522 142.011 153.496 149.748 152.445 157.481C152.359 158.112 152.474 158.419 153.053 158.693C161.708 162.797 170.339 162.789 178.999 158.681C180.07 158.173 180.255 157.563 180.131 156.486C179.327 149.449 178.551 142.404 177.854 135.356C177.71 133.897 177.218 132.792 176.019 131.964C174.213 130.711 173.52 128.974 173.639 126.783C174.008 120 174.295 113.214 174.653 106.431C174.694 105.665 174.472 105.342 173.737 105.145C170.532 104.293 167.273 103.941 163.97 104.191C162.291 104.318 160.625 104.649 158.954 104.891H158.959ZM151.941 161.479C151.473 165.009 151.013 168.47 150.545 172.001C161.023 175.929 171.373 175.884 181.757 171.874C181.367 168.269 180.985 164.772 180.599 161.2C171.016 165.783 161.54 165.849 151.941 161.474V161.479ZM158.175 108.078C158.125 108.311 158.097 108.438 158.08 108.561C157.493 112.947 156.923 117.334 156.299 121.717C156.229 122.22 155.967 122.859 155.581 123.109C155.207 123.351 154.493 123.33 154.05 123.142C153.315 122.831 153.287 122.077 153.385 121.352C153.82 118.17 154.251 114.987 154.674 111.801C154.854 110.449 155.006 109.097 155.179 107.701C154.144 107.57 153.25 107.455 152.306 107.332C152.248 107.68 152.199 107.934 152.162 108.188C151.584 112.509 151.017 116.83 150.422 121.151C150.283 122.163 149.626 122.72 148.801 122.63C147.919 122.532 147.377 121.762 147.508 120.758C147.919 117.67 148.341 114.586 148.748 111.498C148.949 109.986 149.125 108.475 149.318 106.923C148.35 106.804 147.512 106.701 146.655 106.595C146.581 106.861 146.503 107.041 146.478 107.234C145.793 112.436 145.148 117.637 144.422 122.831C144.094 125.157 144.722 127.012 146.613 128.454C147.873 129.413 148.317 130.719 148.091 132.284C147.845 133.988 147.648 135.7 147.426 137.461C149.023 137.666 150.508 137.854 152.043 138.051C152.281 136.302 152.54 134.688 152.716 133.062C152.905 131.334 153.734 130.142 155.363 129.478C157.333 128.675 158.404 127.16 158.684 125.075C159.197 121.274 159.71 117.473 160.214 113.672C160.44 111.96 160.649 110.244 160.875 108.463C159.944 108.327 159.106 108.205 158.171 108.069L158.175 108.078ZM185.713 137.391C185.68 136.965 185.66 136.617 185.623 136.269C185.126 131.641 184.63 127.012 184.133 122.388C183.407 115.643 182.688 108.897 181.958 102.151C181.835 101.008 180.936 100.222 179.84 100.222C178.757 100.222 177.874 101.049 177.817 102.221C177.406 110.572 177.016 118.923 176.606 127.275C176.561 128.167 176.852 128.872 177.55 129.425C177.96 129.753 178.35 130.105 178.752 130.441C179.832 131.342 180.493 132.468 180.644 133.881C180.784 135.179 180.94 136.474 181.104 137.883C182.664 137.719 184.149 137.559 185.717 137.395L185.713 137.391ZM181.408 140.84C181.757 144.141 182.097 147.364 182.442 150.584C183.136 157.039 183.829 163.498 184.523 169.953C185.007 174.487 185.471 179.021 185.98 183.551C186.197 185.509 187.527 186.324 189.304 185.681C190.379 185.292 190.79 184.513 190.626 182.936C190.092 177.817 189.534 172.697 188.984 167.577C188.221 160.467 187.457 153.361 186.694 146.25C186.485 144.305 186.267 142.359 186.045 140.328C184.457 140.5 182.967 140.664 181.412 140.836L181.408 140.84ZM189.94 148.843C197.627 138.145 196.211 121.586 186.033 112.378C187.338 124.567 188.627 136.609 189.94 148.843ZM142.206 116.953C137.933 123.072 136.398 129.818 137.429 137.117C138.114 141.979 141.011 148.593 142.801 149.699C143.593 143.744 144.401 137.805 145.14 131.858C145.189 131.456 144.841 130.863 144.496 130.572C142.091 128.544 141.065 126.005 141.451 122.892C141.697 120.91 141.955 118.931 142.21 116.953H142.206ZM200.947 109.966C202.199 107.467 203.812 105.53 206.073 104.072C203.738 102.618 202.203 100.631 200.927 98.2231C199.696 100.689 198.087 102.618 195.83 104.088C198.128 105.587 199.7 107.525 200.947 109.966Z" fill="#5F231B" stroke="#5F231B" stroke-width="0.5"/>
</svg>
