<svg width="63" height="50" viewBox="0 0 63 50" fill="none" xmlns="http://www.w3.org/2000/svg">
<path d="M61.3753 26.2429C57.8826 26.9385 53.87 30.4898 51.2083 35.652C48.5101 40.8911 49.7073 45.4162 52.1236 48.206C54.7743 46.6061 63.6159 40.1442 61.3753 26.2429Z" fill="#A28977"/>
<path d="M20.8463 20.473C21.8202 13.9232 20.4546 7.87502 17.6172 4.32373C9.13803 5.18776 5.74417 14.9593 5.74417 14.9593C4.16256 21.5786 6.78393 31.1342 6.78393 31.1415C12.4806 31.0719 19.4844 29.6441 20.8463 20.473Z" fill="#F0C376"/>
<path d="M58.1205 15.7245L52.7094 0.816406L52.3213 3.57323C51.417 7.80916 48.4771 9.85573 46.9541 10.6502C47.4154 11.441 47.9939 12.1988 48.6822 12.8945C51.4426 15.6916 55.1953 16.702 58.1205 15.7245Z" fill="#A28977"/>
<path d="M46.383 50C44.2595 50 42.5754 49.5058 41.3709 48.5282C40.4117 47.7484 39.7966 46.5695 39.6868 45.2955C39.5879 44.1349 39.9211 43.0475 40.6314 42.2311C41.2245 41.5501 41.9457 41.0083 42.6633 40.7081C43.3552 40.4189 44.0838 40.353 44.7867 40.2907C45.0284 40.2687 45.2737 40.2468 45.5153 40.2175C45.7057 40.1919 45.8814 40.3273 45.9034 40.5177C45.9253 40.7081 45.7935 40.8838 45.6032 40.9058C45.3542 40.9387 45.1016 40.9607 44.849 40.9827C44.168 41.0412 43.5273 41.0998 42.9342 41.3488C42.3155 41.6087 41.6858 42.081 41.1586 42.6851C40.5728 43.3587 40.2982 44.263 40.3824 45.2332C40.4739 46.3059 41.0121 47.3347 41.8139 47.9864C43.0221 48.9676 44.8014 49.4033 47.1225 49.2824C51.0985 49.0738 54.723 46.8771 57.3224 43.0951C60.449 38.5517 61.8988 32.6719 61.1996 27.3669C60.7566 23.9877 59.6985 20.9783 58.5782 17.7931C58.2853 16.9547 58.0071 16.1456 57.7288 15.3401C57.0478 13.3485 56.3998 11.4667 55.5321 9.22606C55.1477 8.23389 54.7926 7.22708 54.4375 6.22027C53.9103 4.73019 53.3721 3.2035 52.7314 1.72807C52.5849 3.28039 52.2774 4.90593 51.5305 6.53879C50.6702 8.43159 49.0446 10.0352 47.1884 10.8296C46.2768 11.2214 45.3286 11.3092 44.4499 11.0822C43.4175 10.8186 42.3484 10.0974 41.2684 8.93317C40.7632 8.38766 40.3348 7.80554 39.9797 7.30763C39.1742 6.16535 38.5884 5.02308 37.977 3.75267C38.2187 5.71504 38.2846 6.86097 38.2992 8.61831C38.3212 11.236 38.1638 13.8391 38.021 15.8124C37.9221 17.189 37.8196 18.5692 37.7134 19.9458C37.5707 21.824 37.4315 23.6985 37.3034 25.5766C37.2448 26.437 37.2155 27.301 37.1826 28.1651L37.1569 28.8607C37.0727 31.3722 36.9812 33.9716 36.1099 36.4063C35.5168 38.0574 34.1036 40.8948 31.3065 41.3231C30.8195 41.3964 30.3546 41.3451 29.9555 41.1767C29.3954 40.9424 28.9157 40.4481 28.6009 39.7855C28.1835 38.9068 27.9382 37.9476 27.7369 36.9884C27.6819 38.5919 27.5355 40.2065 27.1657 41.8064C26.4665 44.8488 25.2363 46.6354 23.4021 47.2615C19.1698 48.7113 14.2639 46.2693 11.6059 43.1025C9.70948 40.8472 8.22672 37.878 7.0698 34.0265C6.4108 31.8372 5.91289 29.4538 5.54678 26.7372L5.52115 26.5395C5.07083 23.2299 4.60953 19.8067 5.22826 16.4604C5.70787 13.872 6.79156 11.5545 8.53425 9.3725C8.84911 8.98076 9.19692 8.59268 9.57035 8.22291C11.2764 6.53147 14.0699 4.419 17.6761 3.96868C18.2033 3.90278 18.7378 3.86983 19.287 3.87715C21.6484 3.89912 25.1118 5.27936 26.8509 6.89026C28.513 8.43159 29.9226 10.5294 31.0429 13.1325C31.8337 14.9704 32.3865 16.746 32.6867 18.4155C32.7197 18.6059 32.5952 18.7853 32.4048 18.8182C32.2181 18.8548 32.035 18.7267 32.0021 18.5363C31.7128 16.9217 31.1747 15.1937 30.4058 13.4071C29.3258 10.8955 27.9712 8.87459 26.3786 7.40281C24.7494 5.89077 21.4983 4.59473 19.2797 4.57276C18.7744 4.5691 18.2582 4.59473 17.764 4.65697C14.3518 5.08166 11.6938 7.09894 10.0609 8.7135C9.70581 9.06497 9.37631 9.43108 9.07976 9.80451C7.41029 11.895 6.37419 14.1137 5.91289 16.5849C5.31246 19.8214 5.7701 23.1896 6.20944 26.4443L6.23507 26.642C6.59752 29.322 7.08811 31.6688 7.73613 33.8252C8.86376 37.5851 10.3062 40.4701 12.1368 42.6521C14.6447 45.636 19.243 47.9498 23.1751 46.5988C24.764 46.0533 25.8477 44.4351 26.4884 41.6453C27.1108 38.9471 27.0852 36.2854 27.0596 33.47V32.9355C27.0522 32.7927 27.1401 32.6609 27.2756 32.6097C27.4074 32.5584 27.5611 32.5914 27.66 32.7012C27.8064 32.8623 27.8321 33.1039 27.8357 33.1698C27.876 33.8618 27.9858 34.6599 28.1689 35.6008L28.2311 35.9157C28.4654 37.1348 28.7107 38.3979 29.2269 39.4889C29.4686 39.9942 29.82 40.3676 30.2228 40.536C30.5047 40.6568 30.8452 40.6898 31.2003 40.6349C33.6386 40.2614 34.9127 37.6803 35.4509 36.1719C36.2893 33.8398 36.3735 31.299 36.4577 28.8387L36.4833 28.1431C36.5126 27.2717 36.5455 26.4004 36.6041 25.5327C36.7323 23.6546 36.875 21.7764 37.0142 19.8982C37.1167 18.5217 37.2228 17.1451 37.3217 15.7685C37.4608 13.8061 37.6219 11.2214 37.5999 8.62929C37.5816 6.34475 37.4718 5.11095 36.9995 1.67315C36.9775 1.50474 37.0801 1.34365 37.2411 1.2924C37.4059 1.24114 37.578 1.31802 37.6549 1.47179C37.8635 1.9038 38.0576 2.31385 38.248 2.70925C38.9838 4.25791 39.6172 5.59422 40.5435 6.90856C40.884 7.38817 41.294 7.94832 41.7736 8.46454C42.7621 9.52627 43.7177 10.1816 44.6183 10.4123C45.3469 10.599 46.1413 10.5221 46.9102 10.1926C48.6126 9.46403 50.1027 7.99226 50.8935 6.25322C51.633 4.62768 51.9918 2.91061 52.1273 0.333181C52.1346 0.175752 52.2481 0.0402908 52.4055 0.0110018C52.5593 -0.0219484 52.7167 0.0585964 52.7863 0.20138C53.6979 2.07954 54.4045 4.07119 55.0855 5.99694C55.4369 6.99643 55.7921 7.99592 56.1728 8.98076C57.0478 11.236 57.6922 13.1252 58.3768 15.1241C58.6514 15.9259 58.9297 16.735 59.2225 17.5734C60.3538 20.7952 61.4229 23.8339 61.8769 27.2864C62.5981 32.7598 61.1044 38.8189 57.8826 43.5015C55.1953 47.4079 51.2816 49.773 47.1445 49.989C46.8809 50.0037 46.621 50.011 46.3683 50.011L46.383 50Z" fill="#515151"/>
<path d="M15.8901 22.4609C16.529 22.4538 17.0375 21.586 17.0258 20.5225C17.0141 19.459 16.4867 18.6026 15.8478 18.6096C15.2089 18.6166 14.7004 19.4845 14.7121 20.5479C14.7238 21.6114 15.2512 22.4679 15.8901 22.4609Z" fill="#515151"/>
<path d="M25.6128 20.0585C26.1971 20.0521 26.6621 19.2601 26.6514 18.2896C26.6408 17.3191 26.1584 16.5376 25.5741 16.544C24.9898 16.5505 24.5248 17.3424 24.5354 18.3129C24.5461 19.2834 25.0284 20.0649 25.6128 20.0585Z" fill="#515151"/>
<path d="M5.29376 23.0761C5.76605 24.9689 2.73097 24.8005 1.89624 24.5625C0.980955 24.3026 0.329275 23.4422 0.124252 22.4427C-1.08392 16.5739 6.78018 12.8396 6.78018 12.8396C6.78018 12.8396 4.53957 20.0593 5.29376 23.0761Z" fill="#515151"/>
<path d="M28.2969 9.0319C28.2969 9.0319 33.1479 8.27405 34.7405 13.6156C34.9601 14.3552 34.7917 15.1716 34.2572 15.7318C33.7227 16.2919 32.8257 16.5958 31.5882 15.1643" fill="#515151"/>
<path d="M48.3852 20.0666C48.9413 20.0666 49.392 19.6158 49.392 19.0598C49.392 18.5037 48.9413 18.053 48.3852 18.053C47.8292 18.053 47.3784 18.5037 47.3784 19.0598C47.3784 19.6158 47.8292 20.0666 48.3852 20.0666Z" fill="#515151"/>
<path d="M43.7031 20.0629C44.2551 20.0629 44.7026 19.6155 44.7026 19.0635C44.7026 18.5115 44.2551 18.064 43.7031 18.064C43.1511 18.064 42.7036 18.5115 42.7036 19.0635C42.7036 19.6155 43.1511 20.0629 43.7031 20.0629Z" fill="#515151"/>
<path d="M47.6532 25.0825C47.1626 25.0825 46.694 24.8958 46.3645 24.5553C46.3315 24.5187 46.1814 24.3649 46.0276 24.1489C45.7604 24.6395 45.332 24.9104 44.684 25.0276C44.2666 25.1044 43.6186 25.0752 43.1646 24.7457C42.9047 24.5589 42.7473 24.2953 42.7033 23.9878C42.6118 23.3325 42.8571 22.8053 43.3916 22.505C43.56 22.4099 43.7724 22.4684 43.8639 22.6368C43.9591 22.8053 43.9005 23.0176 43.7321 23.1091C43.6296 23.1677 43.3148 23.3434 43.3916 23.889C43.4063 24.0098 43.4649 24.1013 43.571 24.1745C43.82 24.3539 44.2557 24.3905 44.5559 24.3356C45.16 24.2258 45.4748 24.0134 45.6322 23.1165C45.6652 22.9371 45.819 22.8126 46.0093 22.8309C46.1887 22.8492 46.3279 23.003 46.3242 23.1824C46.3242 23.3508 46.5732 23.7645 46.866 24.0647C47.1736 24.3832 47.6166 24.4198 47.9278 24.3503C48.2353 24.2807 48.4696 24.1013 48.5465 23.867C48.6856 23.4569 48.6344 23.3654 48.3525 22.9444C48.2463 22.787 48.2866 22.5709 48.4477 22.4611C48.6051 22.3549 48.8211 22.3952 48.9309 22.5563C49.2677 23.0579 49.4471 23.3727 49.2055 24.0867C49.0481 24.5516 48.6307 24.9031 48.0815 25.0239C47.9388 25.0569 47.796 25.0715 47.6568 25.0715L47.6532 25.0825Z" fill="#515151"/>
<path d="M23.7791 30.1312C23.8048 30.0214 23.8524 29.9262 23.9402 29.8529C24.4784 29.3953 25.1923 29.0292 25.8367 28.7436C26.525 28.4397 27.2535 28.2311 28.0041 28.1578C28.0114 28.1578 28.0151 28.1578 28.0224 28.1578C28.3482 28.1286 29.4063 28.0077 29.6552 28.2604C29.8969 28.5056 29.7614 29.0328 29.7285 29.3294C29.604 30.4534 29.3733 31.6872 28.4434 32.4377C28.0004 32.7965 27.4366 32.9722 26.8691 32.9576C26.298 32.9429 25.7159 32.8221 25.207 32.5512C24.7237 32.2913 24.3429 31.8739 24.0977 31.3833C23.9475 31.0831 23.6913 30.5193 23.7791 30.1275V30.1312Z" fill="#515151"/>
<path d="M51.2999 21.0369C51.2266 21.0369 51.201 21.0222 51.1717 21.0076C51.0033 20.9197 50.9374 20.7074 51.0253 20.539C51.0875 20.4218 51.2083 20.3523 51.3328 20.3523C51.7099 20.3047 55.4992 19.5029 57.9887 18.9684C58.1755 18.9317 58.3622 19.0489 58.4024 19.2356C58.4427 19.4223 58.3219 19.6091 58.1352 19.6493C52.6838 20.8209 51.5928 21.0369 51.2962 21.0369H51.2999Z" fill="#515151"/>
<path d="M59.4567 24.5955C59.4567 24.5955 59.431 24.5955 59.4164 24.5919L51.4351 23.1604C51.2448 23.1274 51.1203 22.9444 51.1532 22.7576C51.1862 22.5673 51.3656 22.4428 51.556 22.4757L59.5372 23.9072C59.7276 23.9402 59.8521 24.1232 59.8191 24.31C59.7862 24.4857 59.6287 24.6065 59.453 24.5955H59.4567Z" fill="#515151"/>
<path d="M40.5323 20.9049C40.4811 20.9159 40.4262 20.9123 40.3712 20.894L35.5019 19.2574C35.3409 19.2025 35.2603 19.0304 35.3189 18.8694C35.3775 18.7083 35.5569 18.6204 35.7143 18.6753L40.5836 20.3118C40.7447 20.3668 40.8252 20.5388 40.7666 20.6999C40.7264 20.8061 40.6348 20.883 40.5287 20.9049H40.5323Z" fill="#515151"/>
<path d="M40.5691 22.8417C40.5691 22.8417 40.5435 22.8417 40.5325 22.8417L36.1245 22.6952C35.9524 22.6879 35.8206 22.5524 35.8279 22.3914C35.8352 22.2266 35.978 22.1021 36.1501 22.1058L40.5581 22.2522C40.7302 22.2596 40.862 22.395 40.8547 22.5561C40.8473 22.7062 40.7229 22.827 40.5691 22.8417Z" fill="#515151"/>
<path d="M40.0306 45.5408C40.0306 45.5408 40.0013 45.5408 39.9867 45.5408C39.8 45.5188 39.6645 45.3504 39.6828 45.1637C39.6901 45.0905 39.8952 43.4027 42.6776 43.6041C42.868 43.6187 43.0144 43.7835 42.9998 43.9738C42.9851 44.1642 42.8241 44.318 42.63 44.296C40.5615 44.1532 40.3821 45.1967 40.3748 45.2406C40.3491 45.4127 40.199 45.5445 40.0306 45.5445V45.5408Z" fill="#515151"/>
<path d="M41.5903 48.6234C41.4073 48.6234 41.2535 48.488 41.2279 48.3049C41.2242 48.2647 41.1144 47.3384 41.7954 46.5659C42.3738 45.9069 43.3257 45.5737 44.6217 45.5737C44.8304 45.5774 44.9915 45.7348 44.9915 45.9398C44.9915 46.1412 44.8268 46.306 44.6254 46.306H44.6217C43.5527 46.306 42.7912 46.5549 42.3518 47.0418C41.8869 47.5617 41.9528 48.1878 41.9564 48.2134C41.9784 48.4148 41.8356 48.5942 41.6379 48.6198C41.6233 48.6198 41.6086 48.6198 41.594 48.6198L41.5903 48.6234Z" fill="#515151"/>
</svg>
