<svg width="127" height="89" viewBox="0 0 127 89" fill="none" xmlns="http://www.w3.org/2000/svg">
<path d="M19.5471 37.013C19.5471 37.013 14.6663 37.9707 14.4897 32.635L18.7161 31.4843C18.7161 31.4843 20.7013 30.1128 21.2854 28.7066C21.8696 27.3004 24.4972 25.6093 25.7411 25.323C25.7411 25.323 25.8205 21.0703 24.4784 20.3286C24.4784 20.3286 21.0357 18.6719 23.6893 17.9264C23.6893 17.9264 27.3287 17.1187 30.8601 23.4376C31.0402 23.7599 32.4505 26.5991 34.6713 27.91C35.3476 28.3081 36.0238 28.7063 36.6512 29.176C39.305 31.1574 45.6397 36.114 48.7824 40.3792C48.7824 40.3792 55.7768 48.911 67.7322 48.3738C68.3453 48.3483 68.9622 48.373 69.5756 48.4096C71.3059 48.5065 74.9441 48.3214 75.4406 45.1044C75.4406 45.1044 73.5116 36.4398 67.8423 30.9556C67.8423 30.9556 65.5166 28.731 67.5399 27.6804C68.5515 27.1552 69.8078 27.9527 70.5302 28.8344C73.1902 32.0763 80.3282 41.5768 80.3372 50.22C80.3372 50.22 80.977 51.9829 82.5388 53.2262C83.1398 53.7065 83.7177 54.2138 84.2149 54.8043C85.4886 56.3228 87.6397 59.1519 88.1159 61.3983C88.1159 61.3983 88.9474 64.0246 91.2931 62.3415C91.2931 62.3415 92.9063 59.6034 95.8957 63.0885C95.8957 63.0885 101.834 68.075 104.81 68.6771C104.81 68.6771 107.937 71.8419 102.543 71.1372C102.543 71.1372 97.4526 69.5774 95.5424 67.2119C95.5424 67.2119 94.4668 65.7522 89.4446 67.3703C89.4446 67.3703 89.3479 67.4282 89.1776 67.517C85.138 69.6847 80.1359 69.0134 76.8175 65.8565C74.0516 63.223 69.2749 59.4595 64.8318 59.7346L50.589 62.1135C47.1606 62.6889 43.6151 62.3755 40.4049 61.0482C38.7203 60.3543 37.0375 59.3998 35.8246 58.1131C35.8246 58.1131 35.4089 59.0914 29.8129 58.1873C29.8129 58.1873 24.7049 56.8062 21.1333 57.4935L18.0426 58.4745C17.454 58.6594 16.8218 58.6433 16.2429 58.4304L14.8471 57.9138C14.8471 57.9138 10.9516 59.166 9.53507 58.5402C9.53507 58.5402 5.28199 57.1839 8.88584 55.11C8.88584 55.11 12.5925 53.9389 16.8519 53.3816C22.0913 52.7011 28.1567 52.6111 29.1467 52.5708C29.1467 52.5708 28.2061 46.6725 30.0249 44.7215C30.3498 44.3714 30.639 43.9829 30.7913 43.5297C31.3294 41.9399 31.7286 38.6282 26.2043 37.8633C25.8258 37.8105 25.4468 37.8143 25.0746 37.8847L20.5871 38.7341C20.5871 38.7341 18.0476 39.0337 17.3759 37.192" fill="white"/>
<path d="M35.0951 33.2331C26.1894 37.7485 21.2164 33.3603 19.8431 30.6018L20.7242 30.0106L21.3985 28.3266L23.0574 26.5977L25.7785 25.2338L25.587 22.7232L24.9253 20.7261L22.7829 19.1508L22.6278 18.3312L23.9456 17.7988L25.7184 18.1707L28.1089 19.5576L30.6133 23.0453L33.358 27.0534L38.6456 31.0047C38.2901 31.5248 36.1305 32.707 35.0951 33.2331Z" fill="#FFD4C0"/>
<path d="M49.9583 54.0485C44.372 50.9177 46.6203 43.4083 48.4427 40.045L48.8459 40.6761L52.5571 43.7939L57.475 46.5418L63.0337 48.1779L69.7552 48.4621L71.9983 48.3206L74.1379 47.6326C77.1985 57.8065 56.9411 57.9619 49.9583 54.0485Z" fill="#FFD4C0"/>
<mask id="path-4-outside-1_2367_59652" maskUnits="userSpaceOnUse" x="-0.529853" y="3.41877" width="107.343" height="86.6319" fill="black">
<rect fill="white" x="-0.529853" y="3.41877" width="107.343" height="86.6319"/>
<path d="M104.793 71.4016C104.24 71.5062 103.484 71.4965 102.514 71.369C102.267 71.2968 97.2987 69.7535 95.3669 67.3638C95.3518 67.3441 94.2546 66.0694 89.5251 67.5869C89.5196 67.588 89.4284 67.6448 89.2844 67.723C85.1416 69.9442 80.0697 69.2634 76.6626 66.0271C74.1594 63.6437 69.2897 59.6885 64.8411 59.9647L50.6267 62.3439C47.0442 62.9428 43.4818 62.5703 40.3215 61.2675C38.4097 60.4808 36.8973 59.5281 35.8167 58.4313C35.3569 58.7277 33.9626 59.0878 29.782 58.4137C29.7101 58.3933 24.6835 57.0534 21.2029 57.7121L21.181 57.7163L18.1166 58.6867C17.4853 58.8854 16.7962 58.8687 16.175 58.6411L14.8465 58.1514C14.2788 58.3268 10.8347 59.3577 9.4541 58.7421C9.38873 58.7261 7.3587 58.0637 7.22946 56.8718C7.16013 56.206 7.68166 55.5471 8.78073 54.9148C8.85971 54.8829 12.6003 53.711 16.8323 53.1589C21.3913 52.5676 26.5616 52.4207 28.5065 52.3637C28.6584 52.3576 28.7884 52.3556 28.8955 52.3523C28.7365 51.183 28.1928 46.3637 29.8647 44.565C30.2316 44.1674 30.4604 43.8186 30.5844 43.4556C30.8822 42.5732 31.0916 41.2832 30.4055 40.1741C29.7279 39.0802 28.3024 38.3769 26.1723 38.0842C25.8113 38.0337 25.4562 38.0444 25.1169 38.1086L20.6293 38.9579C20.5014 38.9708 17.8911 39.2556 17.1695 37.2705L17.4667 37.1633C16.9328 37.0381 16.3618 36.8067 15.855 36.4047C14.8607 35.6141 14.327 34.3517 14.2699 32.6425L14.2652 32.468L18.6209 31.2815C18.8708 31.1041 20.5684 29.8606 21.0819 28.6205C21.6705 27.2079 24.135 25.5533 25.5211 25.1495C25.5224 23.8989 25.329 21.0501 24.3734 20.5237C24.0496 20.37 22.3929 19.5238 22.4701 18.6435C22.5105 18.2285 22.8895 17.9248 23.6378 17.7153C23.802 17.6842 27.4877 16.9414 31.061 23.3315L31.1135 23.4291C32.482 25.9876 33.8686 27.1735 34.7879 27.718L34.8899 27.7779C35.5227 28.1561 36.1794 28.541 36.7873 28.9973C39.3956 30.9478 45.7943 35.9432 48.9617 40.2489C49.021 40.3226 56.0216 48.6779 67.7181 48.1501C68.3137 48.1222 68.8956 48.1422 69.5834 48.1817C71.4796 48.2868 74.7242 48.0291 75.2088 45.1085C75.0574 44.4583 73.0411 36.2911 67.6788 31.1109C67.6237 31.0591 66.3318 29.8043 66.4992 28.6524C66.5711 28.1635 66.8822 27.7708 67.4293 27.4862C68.5288 26.916 69.8641 27.6817 70.6965 28.6953C73.6508 32.2945 80.5234 41.5906 80.557 50.184C80.6548 50.4313 81.3014 51.961 82.6714 53.0596C83.1728 53.4625 83.8257 54.0066 84.3822 54.6707C85.6494 56.1847 87.8436 59.0622 88.3302 61.3633C88.3302 61.3633 88.6689 62.3742 89.4547 62.6328C89.9326 62.7913 90.4945 62.6453 91.1241 62.198C91.2507 61.9987 91.8316 61.2041 92.8527 61.1184C93.8564 61.0302 94.9366 61.6461 96.0585 62.9614C96.0911 62.9835 101.963 67.8919 104.846 68.4778L104.911 68.4937L104.96 68.5411C105.094 68.6798 106.266 69.9007 105.83 70.7697C105.67 71.0941 105.325 71.3066 104.783 71.4091L104.793 71.4016ZM91.5827 66.5978C94.8553 65.9784 95.6785 67.0333 95.7227 67.0872C97.564 69.3582 102.558 70.9137 102.612 70.9317C104.768 71.2083 105.312 70.8223 105.44 70.5663C105.678 70.0911 105.004 69.223 104.697 68.8906C101.681 68.2282 95.9963 63.471 95.7538 63.268C94.7008 62.0472 93.7489 61.4806 92.8961 61.5571C91.982 61.6396 91.4905 62.4568 91.486 62.4633L91.4252 62.5314C90.6569 63.0842 89.9472 63.2581 89.3181 63.049C88.3135 62.713 87.9232 61.5195 87.9085 61.4714C87.4419 59.2457 85.2885 56.4341 84.0504 54.9541C83.522 54.3187 82.8952 53.7923 82.4078 53.4036C80.8189 52.1372 80.1628 50.3774 80.1373 50.303L80.1301 50.2647L80.1229 50.2265C80.1086 41.7653 73.2964 32.5483 70.3647 28.9787C69.6714 28.1312 68.5243 27.4317 67.6511 27.8799C67.2327 28.0949 67.0069 28.3696 66.954 28.719C66.8184 29.6499 67.9914 30.7858 68.0044 30.7946C73.6586 36.2591 75.6472 44.969 75.6693 45.0553L75.6775 45.099L75.6738 45.1393C75.139 48.5729 71.228 48.7248 69.572 48.6308C68.8963 48.5947 68.3252 48.5726 67.7515 48.5963C55.8245 49.1338 48.6891 40.606 48.6223 40.5225C45.4851 36.2563 39.1199 31.2885 36.5312 29.3513C35.9439 28.9137 35.2991 28.5322 34.6729 28.1585L34.5708 28.0986C33.6005 27.5241 32.1478 26.2885 30.7278 23.6379L30.6764 23.5458C27.2787 17.4845 23.8026 18.1367 23.7424 18.1481C23.2308 18.2902 22.9327 18.4824 22.9142 18.684C22.8758 19.1099 23.8647 19.7827 24.5819 20.1278C26.0076 20.9216 25.9795 24.876 25.9681 25.3251L25.9673 25.5007L25.7977 25.5328C24.5712 25.8215 22.0377 27.5005 21.4996 28.7904C20.9008 30.239 18.933 31.6128 18.8527 31.6676L18.7847 31.6975L14.7303 32.7987C14.8117 34.2769 15.286 35.3752 16.1395 36.051C17.5269 37.1519 19.4772 36.7941 19.5155 36.7869L19.5982 37.2238C19.5599 37.2311 18.6624 37.4009 17.6248 37.19C18.2732 38.7589 20.5511 38.5145 20.573 38.5103L25.0441 37.6641C25.4326 37.5905 25.839 37.5815 26.2469 37.6401C28.5167 37.9517 30.0463 38.7258 30.7969 39.9359C31.5732 41.1921 31.3438 42.616 31.0188 43.5941C30.8777 44.0168 30.6145 44.423 30.2056 44.8682C28.4817 46.722 29.3715 52.4716 29.3829 52.5317L29.4294 52.7774L29.1705 52.7869C29.0415 52.7943 28.8208 52.7965 28.528 52.8066C26.5886 52.8625 21.4347 53.0063 16.8986 53.599C12.7103 54.1427 9.00706 55.3019 8.96978 55.3146C8.09156 55.826 7.63041 56.3546 7.67894 56.8206C7.75831 57.5694 9.1064 58.1629 9.61912 58.3261C10.7389 58.8214 13.7324 58.0455 14.7902 57.7038L14.8647 57.6784L16.3335 58.2208C16.8634 58.4147 17.4498 58.4281 17.9846 58.259L21.0754 57.278L21.1083 57.2718C24.7147 56.5892 29.6759 57.9133 29.885 57.9699C34.9838 58.7926 35.6399 58.0065 35.6444 58L35.7777 57.6862L35.9998 57.961C37.0441 59.0759 38.5597 60.0451 40.5019 60.843C43.5828 62.1156 47.0644 62.4807 50.5639 61.8919L64.8067 59.513C69.2159 59.2385 73.8602 62.7216 76.9851 65.6945C80.2484 68.7996 85.1108 69.4521 89.0889 67.3187C89.2537 67.2309 89.3449 67.1741 89.3504 67.173C90.2054 66.8981 90.9513 66.706 91.6025 66.5827L91.5827 66.5978Z"/>
</mask>
<path d="M104.793 71.4016C104.24 71.5062 103.484 71.4965 102.514 71.369C102.267 71.2968 97.2987 69.7535 95.3669 67.3638C95.3518 67.3441 94.2546 66.0694 89.5251 67.5869C89.5196 67.588 89.4284 67.6448 89.2844 67.723C85.1416 69.9442 80.0697 69.2634 76.6626 66.0271C74.1594 63.6437 69.2897 59.6885 64.8411 59.9647L50.6267 62.3439C47.0442 62.9428 43.4818 62.5703 40.3215 61.2675C38.4097 60.4808 36.8973 59.5281 35.8167 58.4313C35.3569 58.7277 33.9626 59.0878 29.782 58.4137C29.7101 58.3933 24.6835 57.0534 21.2029 57.7121L21.181 57.7163L18.1166 58.6867C17.4853 58.8854 16.7962 58.8687 16.175 58.6411L14.8465 58.1514C14.2788 58.3268 10.8347 59.3577 9.4541 58.7421C9.38873 58.7261 7.3587 58.0637 7.22946 56.8718C7.16013 56.206 7.68166 55.5471 8.78073 54.9148C8.85971 54.8829 12.6003 53.711 16.8323 53.1589C21.3913 52.5676 26.5616 52.4207 28.5065 52.3637C28.6584 52.3576 28.7884 52.3556 28.8955 52.3523C28.7365 51.183 28.1928 46.3637 29.8647 44.565C30.2316 44.1674 30.4604 43.8186 30.5844 43.4556C30.8822 42.5732 31.0916 41.2832 30.4055 40.1741C29.7279 39.0802 28.3024 38.3769 26.1723 38.0842C25.8113 38.0337 25.4562 38.0444 25.1169 38.1086L20.6293 38.9579C20.5014 38.9708 17.8911 39.2556 17.1695 37.2705L17.4667 37.1633C16.9328 37.0381 16.3618 36.8067 15.855 36.4047C14.8607 35.6141 14.327 34.3517 14.2699 32.6425L14.2652 32.468L18.6209 31.2815C18.8708 31.1041 20.5684 29.8606 21.0819 28.6205C21.6705 27.2079 24.135 25.5533 25.5211 25.1495C25.5224 23.8989 25.329 21.0501 24.3734 20.5237C24.0496 20.37 22.3929 19.5238 22.4701 18.6435C22.5105 18.2285 22.8895 17.9248 23.6378 17.7153C23.802 17.6842 27.4877 16.9414 31.061 23.3315L31.1135 23.4291C32.482 25.9876 33.8686 27.1735 34.7879 27.718L34.8899 27.7779C35.5227 28.1561 36.1794 28.541 36.7873 28.9973C39.3956 30.9478 45.7943 35.9432 48.9617 40.2489C49.021 40.3226 56.0216 48.6779 67.7181 48.1501C68.3137 48.1222 68.8956 48.1422 69.5834 48.1817C71.4796 48.2868 74.7242 48.0291 75.2088 45.1085C75.0574 44.4583 73.0411 36.2911 67.6788 31.1109C67.6237 31.0591 66.3318 29.8043 66.4992 28.6524C66.5711 28.1635 66.8822 27.7708 67.4293 27.4862C68.5288 26.916 69.8641 27.6817 70.6965 28.6953C73.6508 32.2945 80.5234 41.5906 80.557 50.184C80.6548 50.4313 81.3014 51.961 82.6714 53.0596C83.1728 53.4625 83.8257 54.0066 84.3822 54.6707C85.6494 56.1847 87.8436 59.0622 88.3302 61.3633C88.3302 61.3633 88.6689 62.3742 89.4547 62.6328C89.9326 62.7913 90.4945 62.6453 91.1241 62.198C91.2507 61.9987 91.8316 61.2041 92.8527 61.1184C93.8564 61.0302 94.9366 61.6461 96.0585 62.9614C96.0911 62.9835 101.963 67.8919 104.846 68.4778L104.911 68.4937L104.96 68.5411C105.094 68.6798 106.266 69.9007 105.83 70.7697C105.67 71.0941 105.325 71.3066 104.783 71.4091L104.793 71.4016ZM91.5827 66.5978C94.8553 65.9784 95.6785 67.0333 95.7227 67.0872C97.564 69.3582 102.558 70.9137 102.612 70.9317C104.768 71.2083 105.312 70.8223 105.44 70.5663C105.678 70.0911 105.004 69.223 104.697 68.8906C101.681 68.2282 95.9963 63.471 95.7538 63.268C94.7008 62.0472 93.7489 61.4806 92.8961 61.5571C91.982 61.6396 91.4905 62.4568 91.486 62.4633L91.4252 62.5314C90.6569 63.0842 89.9472 63.2581 89.3181 63.049C88.3135 62.713 87.9232 61.5195 87.9085 61.4714C87.4419 59.2457 85.2885 56.4341 84.0504 54.9541C83.522 54.3187 82.8952 53.7923 82.4078 53.4036C80.8189 52.1372 80.1628 50.3774 80.1373 50.303L80.1301 50.2647L80.1229 50.2265C80.1086 41.7653 73.2964 32.5483 70.3647 28.9787C69.6714 28.1312 68.5243 27.4317 67.6511 27.8799C67.2327 28.0949 67.0069 28.3696 66.954 28.719C66.8184 29.6499 67.9914 30.7858 68.0044 30.7946C73.6586 36.2591 75.6472 44.969 75.6693 45.0553L75.6775 45.099L75.6738 45.1393C75.139 48.5729 71.228 48.7248 69.572 48.6308C68.8963 48.5947 68.3252 48.5726 67.7515 48.5963C55.8245 49.1338 48.6891 40.606 48.6223 40.5225C45.4851 36.2563 39.1199 31.2885 36.5312 29.3513C35.9439 28.9137 35.2991 28.5322 34.6729 28.1585L34.5708 28.0986C33.6005 27.5241 32.1478 26.2885 30.7278 23.6379L30.6764 23.5458C27.2787 17.4845 23.8026 18.1367 23.7424 18.1481C23.2308 18.2902 22.9327 18.4824 22.9142 18.684C22.8758 19.1099 23.8647 19.7827 24.5819 20.1278C26.0076 20.9216 25.9795 24.876 25.9681 25.3251L25.9673 25.5007L25.7977 25.5328C24.5712 25.8215 22.0377 27.5005 21.4996 28.7904C20.9008 30.239 18.933 31.6128 18.8527 31.6676L18.7847 31.6975L14.7303 32.7987C14.8117 34.2769 15.286 35.3752 16.1395 36.051C17.5269 37.1519 19.4772 36.7941 19.5155 36.7869L19.5982 37.2238C19.5599 37.2311 18.6624 37.4009 17.6248 37.19C18.2732 38.7589 20.5511 38.5145 20.573 38.5103L25.0441 37.6641C25.4326 37.5905 25.839 37.5815 26.2469 37.6401C28.5167 37.9517 30.0463 38.7258 30.7969 39.9359C31.5732 41.1921 31.3438 42.616 31.0188 43.5941C30.8777 44.0168 30.6145 44.423 30.2056 44.8682C28.4817 46.722 29.3715 52.4716 29.3829 52.5317L29.4294 52.7774L29.1705 52.7869C29.0415 52.7943 28.8208 52.7965 28.528 52.8066C26.5886 52.8625 21.4347 53.0063 16.8986 53.599C12.7103 54.1427 9.00706 55.3019 8.96978 55.3146C8.09156 55.826 7.63041 56.3546 7.67894 56.8206C7.75831 57.5694 9.1064 58.1629 9.61912 58.3261C10.7389 58.8214 13.7324 58.0455 14.7902 57.7038L14.8647 57.6784L16.3335 58.2208C16.8634 58.4147 17.4498 58.4281 17.9846 58.259L21.0754 57.278L21.1083 57.2718C24.7147 56.5892 29.6759 57.9133 29.885 57.9699C34.9838 58.7926 35.6399 58.0065 35.6444 58L35.7777 57.6862L35.9998 57.961C37.0441 59.0759 38.5597 60.0451 40.5019 60.843C43.5828 62.1156 47.0644 62.4807 50.5639 61.8919L64.8067 59.513C69.2159 59.2385 73.8602 62.7216 76.9851 65.6945C80.2484 68.7996 85.1108 69.4521 89.0889 67.3187C89.2537 67.2309 89.3449 67.1741 89.3504 67.173C90.2054 66.8981 90.9513 66.706 91.6025 66.5827L91.5827 66.5978Z" fill="#515151"/>
<path d="M104.793 71.4016C104.24 71.5062 103.484 71.4965 102.514 71.369C102.267 71.2968 97.2987 69.7535 95.3669 67.3638C95.3518 67.3441 94.2546 66.0694 89.5251 67.5869C89.5196 67.588 89.4284 67.6448 89.2844 67.723C85.1416 69.9442 80.0697 69.2634 76.6626 66.0271C74.1594 63.6437 69.2897 59.6885 64.8411 59.9647L50.6267 62.3439C47.0442 62.9428 43.4818 62.5703 40.3215 61.2675C38.4097 60.4808 36.8973 59.5281 35.8167 58.4313C35.3569 58.7277 33.9626 59.0878 29.782 58.4137C29.7101 58.3933 24.6835 57.0534 21.2029 57.7121L21.181 57.7163L18.1166 58.6867C17.4853 58.8854 16.7962 58.8687 16.175 58.6411L14.8465 58.1514C14.2788 58.3268 10.8347 59.3577 9.4541 58.7421C9.38873 58.7261 7.3587 58.0637 7.22946 56.8718C7.16013 56.206 7.68166 55.5471 8.78073 54.9148C8.85971 54.8829 12.6003 53.711 16.8323 53.1589C21.3913 52.5676 26.5616 52.4207 28.5065 52.3637C28.6584 52.3576 28.7884 52.3556 28.8955 52.3523C28.7365 51.183 28.1928 46.3637 29.8647 44.565C30.2316 44.1674 30.4604 43.8186 30.5844 43.4556C30.8822 42.5732 31.0916 41.2832 30.4055 40.1741C29.7279 39.0802 28.3024 38.3769 26.1723 38.0842C25.8113 38.0337 25.4562 38.0444 25.1169 38.1086L20.6293 38.9579C20.5014 38.9708 17.8911 39.2556 17.1695 37.2705L17.4667 37.1633C16.9328 37.0381 16.3618 36.8067 15.855 36.4047C14.8607 35.6141 14.327 34.3517 14.2699 32.6425L14.2652 32.468L18.6209 31.2815C18.8708 31.1041 20.5684 29.8606 21.0819 28.6205C21.6705 27.2079 24.135 25.5533 25.5211 25.1495C25.5224 23.8989 25.329 21.0501 24.3734 20.5237C24.0496 20.37 22.3929 19.5238 22.4701 18.6435C22.5105 18.2285 22.8895 17.9248 23.6378 17.7153C23.802 17.6842 27.4877 16.9414 31.061 23.3315L31.1135 23.4291C32.482 25.9876 33.8686 27.1735 34.7879 27.718L34.8899 27.7779C35.5227 28.1561 36.1794 28.541 36.7873 28.9973C39.3956 30.9478 45.7943 35.9432 48.9617 40.2489C49.021 40.3226 56.0216 48.6779 67.7181 48.1501C68.3137 48.1222 68.8956 48.1422 69.5834 48.1817C71.4796 48.2868 74.7242 48.0291 75.2088 45.1085C75.0574 44.4583 73.0411 36.2911 67.6788 31.1109C67.6237 31.0591 66.3318 29.8043 66.4992 28.6524C66.5711 28.1635 66.8822 27.7708 67.4293 27.4862C68.5288 26.916 69.8641 27.6817 70.6965 28.6953C73.6508 32.2945 80.5234 41.5906 80.557 50.184C80.6548 50.4313 81.3014 51.961 82.6714 53.0596C83.1728 53.4625 83.8257 54.0066 84.3822 54.6707C85.6494 56.1847 87.8436 59.0622 88.3302 61.3633C88.3302 61.3633 88.6689 62.3742 89.4547 62.6328C89.9326 62.7913 90.4945 62.6453 91.1241 62.198C91.2507 61.9987 91.8316 61.2041 92.8527 61.1184C93.8564 61.0302 94.9366 61.6461 96.0585 62.9614C96.0911 62.9835 101.963 67.8919 104.846 68.4778L104.911 68.4937L104.96 68.5411C105.094 68.6798 106.266 69.9007 105.83 70.7697C105.67 71.0941 105.325 71.3066 104.783 71.4091L104.793 71.4016ZM91.5827 66.5978C94.8553 65.9784 95.6785 67.0333 95.7227 67.0872C97.564 69.3582 102.558 70.9137 102.612 70.9317C104.768 71.2083 105.312 70.8223 105.44 70.5663C105.678 70.0911 105.004 69.223 104.697 68.8906C101.681 68.2282 95.9963 63.471 95.7538 63.268C94.7008 62.0472 93.7489 61.4806 92.8961 61.5571C91.982 61.6396 91.4905 62.4568 91.486 62.4633L91.4252 62.5314C90.6569 63.0842 89.9472 63.2581 89.3181 63.049C88.3135 62.713 87.9232 61.5195 87.9085 61.4714C87.4419 59.2457 85.2885 56.4341 84.0504 54.9541C83.522 54.3187 82.8952 53.7923 82.4078 53.4036C80.8189 52.1372 80.1628 50.3774 80.1373 50.303L80.1301 50.2647L80.1229 50.2265C80.1086 41.7653 73.2964 32.5483 70.3647 28.9787C69.6714 28.1312 68.5243 27.4317 67.6511 27.8799C67.2327 28.0949 67.0069 28.3696 66.954 28.719C66.8184 29.6499 67.9914 30.7858 68.0044 30.7946C73.6586 36.2591 75.6472 44.969 75.6693 45.0553L75.6775 45.099L75.6738 45.1393C75.139 48.5729 71.228 48.7248 69.572 48.6308C68.8963 48.5947 68.3252 48.5726 67.7515 48.5963C55.8245 49.1338 48.6891 40.606 48.6223 40.5225C45.4851 36.2563 39.1199 31.2885 36.5312 29.3513C35.9439 28.9137 35.2991 28.5322 34.6729 28.1585L34.5708 28.0986C33.6005 27.5241 32.1478 26.2885 30.7278 23.6379L30.6764 23.5458C27.2787 17.4845 23.8026 18.1367 23.7424 18.1481C23.2308 18.2902 22.9327 18.4824 22.9142 18.684C22.8758 19.1099 23.8647 19.7827 24.5819 20.1278C26.0076 20.9216 25.9795 24.876 25.9681 25.3251L25.9673 25.5007L25.7977 25.5328C24.5712 25.8215 22.0377 27.5005 21.4996 28.7904C20.9008 30.239 18.933 31.6128 18.8527 31.6676L18.7847 31.6975L14.7303 32.7987C14.8117 34.2769 15.286 35.3752 16.1395 36.051C17.5269 37.1519 19.4772 36.7941 19.5155 36.7869L19.5982 37.2238C19.5599 37.2311 18.6624 37.4009 17.6248 37.19C18.2732 38.7589 20.5511 38.5145 20.573 38.5103L25.0441 37.6641C25.4326 37.5905 25.839 37.5815 26.2469 37.6401C28.5167 37.9517 30.0463 38.7258 30.7969 39.9359C31.5732 41.1921 31.3438 42.616 31.0188 43.5941C30.8777 44.0168 30.6145 44.423 30.2056 44.8682C28.4817 46.722 29.3715 52.4716 29.3829 52.5317L29.4294 52.7774L29.1705 52.7869C29.0415 52.7943 28.8208 52.7965 28.528 52.8066C26.5886 52.8625 21.4347 53.0063 16.8986 53.599C12.7103 54.1427 9.00706 55.3019 8.96978 55.3146C8.09156 55.826 7.63041 56.3546 7.67894 56.8206C7.75831 57.5694 9.1064 58.1629 9.61912 58.3261C10.7389 58.8214 13.7324 58.0455 14.7902 57.7038L14.8647 57.6784L16.3335 58.2208C16.8634 58.4147 17.4498 58.4281 17.9846 58.259L21.0754 57.278L21.1083 57.2718C24.7147 56.5892 29.6759 57.9133 29.885 57.9699C34.9838 58.7926 35.6399 58.0065 35.6444 58L35.7777 57.6862L35.9998 57.961C37.0441 59.0759 38.5597 60.0451 40.5019 60.843C43.5828 62.1156 47.0644 62.4807 50.5639 61.8919L64.8067 59.513C69.2159 59.2385 73.8602 62.7216 76.9851 65.6945C80.2484 68.7996 85.1108 69.4521 89.0889 67.3187C89.2537 67.2309 89.3449 67.1741 89.3504 67.173C90.2054 66.8981 90.9513 66.706 91.6025 66.5827L91.5827 66.5978Z" stroke="#515151" stroke-width="0.4" mask="url(#path-4-outside-1_2367_59652)"/>
<path fill-rule="evenodd" clip-rule="evenodd" d="M119.573 54.1751C107.308 51.683 99.7326 57.1971 97.4494 60.3456L98.0275 60.7648C100.149 57.8399 107.444 52.4393 119.431 54.8749L119.573 54.1751ZM125.073 63.7215C114.201 57.5313 105.282 60.4104 102.129 62.6905L102.548 63.2692C105.477 61.1507 114.094 58.2925 124.719 64.3421L125.073 63.7215Z" fill="#515151"/>
<path d="M25.209 30.5665C25.5233 30.507 25.73 30.2044 25.6706 29.8907C25.6112 29.577 25.3083 29.3709 24.994 29.4304C24.6796 29.4899 24.4729 29.7924 24.5323 30.1061C24.5917 30.4199 24.8946 30.626 25.209 30.5665Z" fill="#515151"/>
<path d="M25.2499 30.7848C24.8121 30.8677 24.3947 30.579 24.313 30.1475C24.2313 29.716 24.5188 29.2881 24.9511 29.2063C25.3835 29.1245 25.8064 29.4122 25.8891 29.8492C25.9718 30.2861 25.6822 30.703 25.2499 30.7848ZM25.0338 29.6433C24.8368 29.6806 24.7136 29.868 24.7498 30.0591C24.7859 30.2503 24.9746 30.3787 25.1662 30.3424C25.3577 30.3062 25.4864 30.1177 25.4502 29.9266C25.4141 29.7354 25.2254 29.607 25.0338 29.6433Z" fill="#515151"/>
</svg>
