<svg width="38" height="49" viewBox="0 0 38 49" fill="none" xmlns="http://www.w3.org/2000/svg">
<ellipse cx="19.1298" cy="18.9252" rx="13.0907" ry="13.0619" fill="#FFD4C0"/>
<path d="M25.5422 12.928C23.1913 13.2479 24.5627 15.4604 25.5422 16.5267L27.1453 15.727C27.5905 14.6607 27.8932 12.6081 25.5422 12.928Z" fill="#5F231B" stroke="black"/>
<path d="M19.093 11.2288C16.742 11.5487 18.1134 13.7612 19.093 14.8275L20.6961 14.0278C21.1413 12.9615 21.444 10.9089 19.093 11.2288Z" fill="#5F231B" stroke="black"/>
<path d="M12.1458 13.3616C9.79477 13.6815 11.1662 15.894 12.1458 16.9603L13.7488 16.1606C14.1941 15.0943 14.4968 13.0417 12.1458 13.3616Z" fill="#5F231B" stroke="black"/>
<path d="M18.3301 18.2587C12.8801 18.4719 12.6752 23.1458 13.2541 25.4561C13.0759 25.6337 13.0936 26.0955 14.5897 26.522C24.2074 27.9082 26.0775 25.2338 25.8104 23.7234C25.5878 21.8129 23.7801 18.0454 18.3301 18.2587Z" fill="#5F231B"/>
<path d="M24.8735 41.5836C21.1333 41.0505 19.6639 43.1386 19.3968 44.2493L16.0575 41.1836C13.2523 41.4946 6.81364 42.3032 3.50088 43.0496C0.188117 43.796 0.606665 45.0489 1.23003 45.582C3.45635 46.3817 9.80581 48.0344 17.3931 48.2477C26.8772 48.5143 34.4912 46.3817 36.6285 45.582C38.3383 44.9422 36.3613 43.6272 35.1591 43.0496L24.8735 41.5836Z" fill="#FFD4C0" stroke="#FFD4C0"/>
<path d="M22.9212 40.3071C26.2767 40.747 29.3651 41.0668 32.4187 41.5893C33.8427 41.8319 35.2693 42.3171 36.5676 42.9542C38.4538 43.8818 38.5019 45.6358 36.565 46.3956C34.2781 47.2939 31.8443 47.995 29.4105 48.3095C21.9675 49.2692 14.4977 49.2585 7.07074 48.0883C5.20865 47.7951 3.37058 47.182 1.61268 46.4862C0.96349 46.2276 0.1834 45.3 0.188743 44.6842C0.196757 44.0604 0.990194 43.1034 1.63404 42.8928C3.97969 42.1331 6.38946 41.5093 8.81526 41.0562C10.7709 40.691 12.7852 40.6403 15.0961 40.4217C14.5431 39.9099 14.1745 39.5341 13.7684 39.2009C10.9525 36.895 7.86152 34.8531 5.35825 32.2487C-4.73499 21.7485 0.135305 4.33883 14.0756 0.652172C26.1886 -2.552 37.8847 6.4474 37.9408 18.9522C37.9702 25.3232 35.2559 30.3294 30.5058 34.3466C28.5396 36.01 26.429 37.5001 24.3906 39.0756C23.9471 39.4168 23.5277 39.7953 22.9212 40.3071ZM19.002 43.0421C20.9629 39.6434 23.7841 37.6921 26.5679 35.6981C27.3614 35.1303 28.1281 34.5199 28.8815 33.8988C34.7777 29.0365 37.687 23.0014 36.1429 15.2602C34.2781 5.9036 24.9222 -0.142207 15.3126 1.7771C6.09561 3.6191 -0.123848 13.0797 1.70886 22.327C2.66528 27.1599 5.39831 30.7772 9.05571 33.8641C12.4272 36.7084 16.5308 38.7264 19.002 43.0421ZM36.5142 45.0467C36.4848 44.8841 36.4555 44.7188 36.4234 44.5562C36.2578 44.415 36.1135 44.2364 35.9238 44.1404C35.5284 43.9405 35.1277 43.6926 34.7029 43.6232C31.2993 43.0581 27.8797 42.573 24.4814 41.9758C22.2453 41.5813 20.621 42.1438 19.6859 44.351C19.3279 45.196 18.7268 45.1773 18.2112 44.3643C17.8078 43.7272 17.4071 43.0821 16.9288 42.5037C16.7018 42.2264 16.293 41.9172 15.9751 41.9252C11.4842 42.0425 7.00929 42.3144 2.72675 43.8392C2.27258 44.0018 1.88787 44.3536 1.1612 44.8175C2.12297 45.2467 2.72406 45.6598 3.38127 45.7878C6.11964 46.3129 8.85801 46.9287 11.6258 47.1899C18.7322 47.859 25.8306 47.7364 32.8515 46.2836C34.1071 46.0224 35.296 45.4652 36.5142 45.0467Z" fill="#5F231B"/>
<path d="M4.83011 18.9086C4.84347 10.9942 11.1404 4.74576 19.0803 4.76175C26.8894 4.77774 33.1729 11.1114 33.1569 18.9513C33.1409 26.8444 26.7558 33.1941 18.904 33.1221C11.0629 33.0502 4.81408 26.7404 4.83011 18.9086ZM18.9494 31.6906C26.0024 31.704 31.8157 25.9541 31.8371 18.9433C31.8585 11.9325 26.0638 6.19856 18.9681 6.20922C11.867 6.21989 6.11512 11.9565 6.14985 18.9913C6.18459 25.9407 11.9659 31.6773 18.9494 31.6906Z" fill="#5F231B"/>
<path d="M11.5509 23.6938C11.5749 19.3994 16.8646 15.9393 21.1579 17.4108C24.4412 18.5383 26.469 21.0148 26.4289 23.8591C26.3942 26.3248 24.4092 27.7803 21.938 27.4871C20.0251 27.2578 18.0401 27.2578 16.1299 27.5058C13.5438 27.839 11.5348 26.3142 11.5509 23.6938ZM13.0149 23.5472C12.9802 25.3572 14.0942 26.2022 15.9162 26.0796C17.976 25.941 20.0625 25.933 22.1223 26.0796C24.0004 26.2102 25.1652 25.2826 24.9969 23.4059C24.7592 20.7642 22.8757 19.5087 20.6796 18.7063C17.3535 17.4907 13.0763 20.2551 13.0149 23.5472Z" fill="#5F231B"/>
<path d="M9.59219 14.8193C9.67233 13.3665 10.8826 12.2202 12.2958 12.2629C13.7465 12.3055 14.9781 13.6091 14.9327 15.0512C14.8873 16.5067 13.5648 17.7409 12.1302 17.6662C10.6341 17.5916 9.50937 16.3254 9.59219 14.8193ZM11.9646 16.4054C12.1516 16.408 12.3386 16.408 12.5283 16.4107C12.8408 15.9202 13.4152 15.4164 13.3912 14.9419C13.3698 14.5207 12.6218 13.761 12.3119 13.8143C11.8123 13.8996 11.115 14.4941 11.0509 14.9499C10.9867 15.3817 11.6306 15.9149 11.9646 16.4054Z" fill="#5F231B"/>
<path d="M28.3989 14.9558C28.3909 16.4592 27.1833 17.6534 25.6899 17.6321C24.2847 17.6108 23.0771 16.4032 23.0531 14.9957C23.029 13.5429 24.2793 12.2581 25.722 12.2501C27.2207 12.2394 28.4069 13.439 28.3989 14.9558ZM26.0479 13.5269C25.8556 13.5243 25.6659 13.5189 25.4735 13.5163C25.153 13.9988 24.5679 14.4919 24.5892 14.9611C24.6079 15.3903 25.348 16.174 25.6472 16.1207C26.1548 16.03 26.8467 15.4542 26.9322 14.9851C27.0097 14.5666 26.3712 14.0174 26.0479 13.5269Z" fill="#5F231B"/>
<path d="M21.639 12.5461C21.647 14.0309 20.4181 15.2918 18.9754 15.2784C17.5167 15.2651 16.3279 14.0176 16.3439 12.5195C16.3599 11.0746 17.5087 9.8964 18.938 9.85642C20.3994 9.81643 21.631 11.0453 21.639 12.5461ZM18.9861 14.3348C19.5819 13.5244 20.2418 13.0179 20.1963 12.5808C20.1509 12.1276 19.4243 11.4238 18.9968 11.4212C18.564 11.4212 17.832 12.1169 17.7839 12.5674C17.7385 13.0073 18.393 13.5191 18.9861 14.3348Z" fill="#5F231B"/>
</svg>
