<svg width="130" height="123" viewBox="0 0 130 123" fill="none" xmlns="http://www.w3.org/2000/svg">
<path d="M0.819651 54.8939C0.819651 54.8939 5.01878 18.2009 54.7301 3.01382C62.9788 0.492642 72.1679 -0.344893 80.7439 0.124212C87.9742 0.520489 95.2718 2.08203 101.625 5.62068C109.2 9.83834 114.131 17.2155 117.713 24.839C121.643 33.2058 124.748 42.1595 126.895 51.1261C128.386 57.353 129.402 63.6934 129.844 70.0788C131.168 89.25 124.167 109.207 104.636 116.332C88.8431 122.092 70.9871 123.84 54.3011 122.077C47.608 121.37 40.9865 119.954 34.6445 117.713C34.6445 117.713 -6.24172 107.667 0.819651 54.8918V54.8939Z" fill="white"/>
<path d="M1.21896 54.9452L1.31332 54.9506C1.31639 54.951 1.31639 54.951 1.31639 54.951L1.31641 54.9508L1.31646 54.9504L1.3169 54.9466L1.31904 54.9292C1.32103 54.9132 1.3242 54.8885 1.32869 54.8553C1.33768 54.7889 1.35199 54.6885 1.37286 54.5559C1.41461 54.2907 1.48263 53.8967 1.58697 53.3881C1.79567 52.3708 2.14956 50.8953 2.72895 49.075C3.88779 45.4341 5.94801 40.4154 9.55119 34.9233C16.7521 23.9473 30.1345 11.0507 54.8762 3.492L54.8762 3.49198C63.0592 0.990898 72.1883 0.156968 80.7166 0.623466C87.8976 1.01704 95.1147 2.56684 101.381 6.05748L101.381 6.05752C108.821 10.1998 113.695 17.4643 117.26 25.0516C121.176 33.3866 124.269 42.308 126.409 51.2425C127.894 57.4448 128.905 63.7578 129.345 70.1133C130.661 89.173 123.698 108.846 104.465 115.862C88.7513 121.593 70.9728 123.335 54.3536 121.579L54.3011 122.077L54.3536 121.579C47.6954 120.876 41.1125 119.468 34.811 117.242L34.7878 117.234L34.7639 117.228L34.7638 117.228L34.7631 117.228L34.7588 117.227L34.739 117.222C34.721 117.217 34.6934 117.21 34.6565 117.2C34.5827 117.18 34.4718 117.15 34.3265 117.108C34.0358 117.023 33.6075 116.892 33.0633 116.706C31.9747 116.333 30.4229 115.741 28.5807 114.867C24.8952 113.119 20.0543 110.243 15.4332 105.735C6.2101 96.7399 -2.195 81.193 1.31524 54.9581L1.21896 54.9452Z" stroke="#5F231B" stroke-opacity="0.5"/>
<path d="M31.688 86.28C33.032 89.64 35.896 91.832 40.408 92.632C39.976 93.032 39.432 93.864 39.16 94.392C34.456 93.352 31.672 90.84 30.008 86.776L31.688 86.28ZM36.584 85.32H36.952L37.304 85.24L38.616 85.8C37.336 90.584 34.168 93.112 30.008 94.424C29.768 93.928 29.304 93.192 28.92 92.792C32.632 91.832 35.592 89.432 36.584 85.656V85.32ZM26.008 81.8H39.976V83.656H26.008V81.8ZM30.536 85.32H36.776V87.176H29.992L30.536 85.32ZM30.008 79.416H32.008C31.88 81.928 31.64 89.672 27.032 93.864C26.632 93.352 26.024 92.872 25.368 92.488C29.944 88.76 29.912 81.368 30.008 79.416ZM44.744 92.488H53.176V93.96H44.744V92.488ZM43.88 89.928H54.152V94.392H52.184V91.384H45.768V94.44H43.88V89.928ZM42.68 81.112H55.32V82.504H42.68V81.112ZM42.232 85.096H55.8V86.488H42.232V85.096ZM43.736 83.112H54.28V84.456H43.736V83.112ZM41.72 87.864H56.296V89.336H41.72V87.864ZM47.96 81.784H49.944V88.472H47.96V81.784ZM44.712 79.832L46.456 79.384C46.824 79.88 47.16 80.552 47.32 81.032L45.496 81.56C45.384 81.096 45.048 80.36 44.712 79.832ZM43.976 86.648L45.752 86.264C46.072 86.712 46.376 87.32 46.504 87.736L44.648 88.2C44.568 87.768 44.264 87.112 43.976 86.648ZM51.352 79.368L53.384 79.704C53 80.392 52.616 80.984 52.312 81.416L50.568 81.096C50.84 80.584 51.192 79.88 51.352 79.368ZM52.168 86.28L54.136 86.568C53.8 87.176 53.528 87.672 53.288 88.04L51.496 87.752C51.72 87.32 52.008 86.712 52.168 86.28ZM61.464 82.872V83.56H68.408V82.872H61.464ZM61.464 81.08V81.752H68.408V81.08H61.464ZM59.624 79.896H70.344V84.744H59.624V79.896ZM57.848 85.384H72.024V86.872H57.848V85.384ZM61.832 88.728V89.768H68.152V88.728H61.832ZM59.992 87.416H70.088V91.08H59.992V87.416ZM63.976 84.472H65.944V86.232H63.976V84.472ZM64.056 90.328H65.992V92.792C65.992 93.624 65.8 93.992 65.16 94.216C64.536 94.424 63.688 94.424 62.568 94.424C62.472 93.96 62.248 93.352 62.024 92.936C62.696 92.968 63.544 92.968 63.768 92.968C63.992 92.952 64.056 92.904 64.056 92.728V90.328ZM66.696 92.136L67.96 91.128C69.272 91.608 71.096 92.456 72.056 93.096L70.696 94.216C69.832 93.608 68.056 92.696 66.696 92.136ZM61.304 91.112L63.048 91.816C61.976 92.76 60.248 93.688 58.872 94.248C58.536 93.88 57.88 93.208 57.464 92.904C58.872 92.488 60.408 91.816 61.304 91.112ZM81.4 86.984H87.944V94.36H86.12V88.712H83.144V94.424H81.4V86.984ZM83.528 79.432H85.4V87.448H83.528V79.432ZM84.648 82.728H88.504V84.504H84.648V82.728ZM82.312 92.072H86.968V93.816H82.312V92.072ZM75.48 81.192V84.68H79.368V81.192H75.48ZM74.056 79.896H80.856V85.976H74.056V79.896ZM75.448 81.88L76.232 81.64C76.488 82.376 76.696 83.336 76.744 83.944L75.912 84.216C75.88 83.576 75.688 82.616 75.448 81.88ZM75.832 91.048L77 90.904C77.208 91.8 77.336 92.952 77.336 93.72L76.104 93.864C76.136 93.096 76.008 91.944 75.832 91.048ZM77.432 90.984L78.568 90.776C78.888 91.608 79.192 92.696 79.272 93.416L78.088 93.672C78.024 92.952 77.736 91.832 77.432 90.984ZM79 90.84L80.136 90.424C80.664 91.192 81.176 92.216 81.368 92.92L80.168 93.416C79.976 92.712 79.48 91.64 79 90.84ZM74.44 90.952L75.72 91.336C75.528 92.488 75.24 93.704 74.584 94.44L73.336 93.8C73.928 93.128 74.28 92.008 74.44 90.952ZM78.584 81.624L79.544 81.96C79.24 82.728 78.92 83.656 78.648 84.232L77.944 83.976C78.168 83.32 78.456 82.296 78.584 81.624ZM73.672 88.968C75.544 88.92 78.376 88.824 81.08 88.712L81.032 90.2C78.424 90.36 75.688 90.488 73.736 90.584L73.672 88.968ZM74.072 86.664H80.808V88.12H74.072V86.664ZM76.808 80.552H77.976V85.384H78.232V89.56H76.552V85.384H76.808V80.552ZM97.112 80.36H104.2V82.136H97.112V80.36ZM97.112 84.424H102.6V86.152H97.112V84.424ZM96.136 80.36H97.992V84.92C97.992 87.688 97.672 91.848 95.688 94.424C95.384 94.088 94.584 93.48 94.168 93.288C95.976 90.904 96.136 87.416 96.136 84.904V80.36ZM99.08 85.688C99.928 88.952 101.72 91.688 104.664 92.888C104.232 93.272 103.656 94.008 103.384 94.504C100.248 92.968 98.488 89.944 97.464 86.056L99.08 85.688ZM102.248 84.424H102.584L102.904 84.36L104.104 84.728C103.336 89.64 101.224 92.744 98.072 94.44C97.816 93.992 97.304 93.288 96.904 92.936C99.656 91.656 101.64 88.632 102.248 84.76V84.424ZM89.704 82.712H95.432V84.504H89.704V82.712ZM91.832 79.416H93.64V94.44H91.832V79.416ZM91.768 83.944L92.872 84.344C92.392 86.904 91.4 90.008 90.2 91.656C90.024 91.128 89.592 90.344 89.304 89.88C90.392 88.488 91.352 85.992 91.768 83.944ZM93.576 85.288C93.976 85.736 95.432 87.752 95.736 88.216L94.664 89.688C94.248 88.712 93.208 86.92 92.712 86.12L93.576 85.288Z" fill="#515151"/>
</svg>
