<svg width="45" height="40" viewBox="0 0 45 40" fill="none" xmlns="http://www.w3.org/2000/svg">
<path d="M43.5 19C43.5 19.5636 43.0749 20.2223 42.0002 20.9153C40.9479 21.5938 39.392 22.2237 37.4248 22.7603C33.4975 23.8313 28.0438 24.5 22 24.5C15.9562 24.5 10.5025 23.8313 6.57521 22.7603C4.60798 22.2237 3.05214 21.5938 1.99983 20.9153C0.925132 20.2223 0.5 19.5636 0.5 19C0.5 18.4364 0.925132 17.7777 1.99983 17.0847C3.05214 16.4062 4.60798 15.7763 6.57521 15.2397C10.5025 14.1687 15.9562 13.5 22 13.5C28.0438 13.5 33.4975 14.1687 37.4248 15.2397C39.392 15.7763 40.9479 16.4062 42.0002 17.0847C43.0749 17.7777 43.5 18.4364 43.5 19Z" fill="#FFD4C0" stroke="#5F231B"/>
<path d="M4.05968 20.934C3.24297 17.9895 11.0025 16.8446 15.495 16.5174C14.6782 15.3723 13.8615 13.7692 17.1288 16.5174C21.213 19.9526 40 20.4434 40 21.4249C38.7748 22.4064 30.1884 23.4665 24.0717 23.8765C16.7205 24.3692 8.96079 23.3877 4.05968 20.934Z" fill="white"/>
<path fill-rule="evenodd" clip-rule="evenodd" d="M15.3456 16.7092C14.6766 16.4475 14.0244 16.1804 13.3909 15.9092C11.3319 16.1646 9.47126 16.5304 7.89805 16.9824C6.29816 17.4422 4.96708 17.999 4.02452 18.6394C3.09886 19.2682 2.4375 20.0569 2.4375 21H3.4375C3.4375 20.5617 3.75036 20.0345 4.58647 19.4665C5.40568 18.91 6.62391 18.389 8.17422 17.9435C10.1397 17.3788 12.5933 16.9482 15.3456 16.7092Z" fill="#5F231B"/>
<path d="M43.3395 20.1804C43.3657 20.1599 43.3913 20.1397 43.4162 20.1198C43.4173 20.143 43.4185 20.1666 43.4197 20.1906C43.4551 20.9172 43.4922 21.9402 43.4989 23.1244C43.5124 25.4989 43.4036 28.4961 42.9233 31.0464C42.6775 32.3516 42.4408 33.4891 41.9438 34.493C41.4565 35.477 40.7097 36.3481 39.4101 37.082C36.7629 38.5768 31.835 39.5 22.2361 39.5C12.6465 39.5 7.46331 38.5027 4.6039 36.9626C3.19236 36.2023 2.35605 35.3139 1.82736 34.3462C1.29265 33.3675 1.0543 32.2755 0.891393 31.0718C0.565332 28.6627 0.491574 25.6561 0.500756 23.238C0.505336 22.0319 0.5305 20.9776 0.554514 20.2251C0.556082 20.176 0.557645 20.1282 0.559197 20.0817C0.606586 20.1174 0.656228 20.1541 0.708192 20.1916C1.39894 20.6905 2.49787 21.3394 4.16383 21.9826C7.49429 23.2684 13.0921 24.5323 22.2361 24.5323C31.3792 24.5323 36.8501 23.2687 40.0545 21.98C41.6578 21.3352 42.6947 20.6837 43.3395 20.1804Z" fill="#FFD4C0" stroke="#5F231B"/>
<path d="M42.7672 18.946C42.5938 19.5472 41.9817 20.0908 40.7778 20.4727C39.5915 20.8491 37.9464 21.0277 35.9412 20.9901C31.9378 20.9152 26.616 19.9815 20.9337 18.1951C15.2514 16.4088 10.3206 14.1194 6.9433 11.8741C5.25176 10.7495 3.97473 9.65231 3.18477 8.65469C2.38308 7.64225 2.16038 6.83624 2.33383 6.23501C2.50727 5.63379 3.11931 5.09019 4.32327 4.70826C5.5096 4.33192 7.15469 4.1533 9.15982 4.19085C13.1632 4.26581 18.4851 5.1995 24.1674 6.98583C29.8497 8.77216 34.7804 11.0616 38.1578 13.3069C39.8493 14.4314 41.1263 15.5287 41.9163 16.5263C42.718 17.5387 42.9407 18.3447 42.7672 18.946Z" fill="#FFD4C0" stroke="#5F231B"/>
<path d="M30.2447 33.4471C29.7894 33.1514 29.7894 32.4849 30.2447 32.1891L32.4997 30.7245C32.9986 30.4004 33.6582 30.7585 33.6582 31.3535V34.2828C33.6582 34.8777 32.9986 35.2358 32.4997 34.9117L30.2447 33.4471Z" fill="#5F231B" stroke="#5F231B" stroke-width="0.5"/>
<mask id="path-7-inside-1_2413_59447" fill="white">
<path fill-rule="evenodd" clip-rule="evenodd" d="M14.9203 30.8941L15.1857 31.1596C15.1887 31.164 15.1931 31.1706 15.1986 31.1798C15.221 31.2172 15.2632 31.2975 15.3096 31.4367C15.4027 31.716 15.5118 32.23 15.5118 33.1012C15.5118 33.9723 15.4027 34.4864 15.3096 34.7657C15.2632 34.9049 15.221 34.9852 15.1986 35.0226C15.1931 35.0317 15.1887 35.0384 15.1857 35.0428L14.9203 35.3082C12.5435 34.8107 11 34.0074 11 33.1011C11 32.1949 12.5434 31.3916 14.9203 30.8941ZM15.6178 35.4412C15.6178 35.4412 15.6178 35.4412 15.6178 35.4412C15.5986 35.4219 15.578 35.4014 15.5561 35.3795L15.6178 35.4412ZM16.0693 35.5146C17.4105 35.7192 18.9423 35.8351 20.5689 35.8351C25.8536 35.8351 30.1377 34.6111 30.1377 33.1011C30.1377 31.5912 25.8536 30.3672 20.5689 30.3672C18.9423 30.3672 17.4105 30.4831 16.0693 30.6877C16.129 30.791 16.1954 30.9318 16.2583 31.1204C16.393 31.5246 16.5118 32.1497 16.5118 33.1012C16.5118 34.0527 16.393 34.6778 16.2583 35.0819C16.1955 35.2705 16.129 35.4113 16.0693 35.5146ZM15.6179 30.7611C15.6179 30.7611 15.6179 30.7611 15.6179 30.7611L15.5561 30.8229"/>
</mask>
<path fill-rule="evenodd" clip-rule="evenodd" d="M14.9203 30.8941L15.1857 31.1596C15.1887 31.164 15.1931 31.1706 15.1986 31.1798C15.221 31.2172 15.2632 31.2975 15.3096 31.4367C15.4027 31.716 15.5118 32.23 15.5118 33.1012C15.5118 33.9723 15.4027 34.4864 15.3096 34.7657C15.2632 34.9049 15.221 34.9852 15.1986 35.0226C15.1931 35.0317 15.1887 35.0384 15.1857 35.0428L14.9203 35.3082C12.5435 34.8107 11 34.0074 11 33.1011C11 32.1949 12.5434 31.3916 14.9203 30.8941ZM15.6178 35.4412C15.6178 35.4412 15.6178 35.4412 15.6178 35.4412C15.5986 35.4219 15.578 35.4014 15.5561 35.3795L15.6178 35.4412ZM16.0693 35.5146C17.4105 35.7192 18.9423 35.8351 20.5689 35.8351C25.8536 35.8351 30.1377 34.6111 30.1377 33.1011C30.1377 31.5912 25.8536 30.3672 20.5689 30.3672C18.9423 30.3672 17.4105 30.4831 16.0693 30.6877C16.129 30.791 16.1954 30.9318 16.2583 31.1204C16.393 31.5246 16.5118 32.1497 16.5118 33.1012C16.5118 34.0527 16.393 34.6778 16.2583 35.0819C16.1955 35.2705 16.129 35.4113 16.0693 35.5146ZM15.6179 30.7611C15.6179 30.7611 15.6179 30.7611 15.6179 30.7611L15.5561 30.8229" fill="#5F231B"/>
<path d="M15.7329 30.9997L15.7947 30.9379L15.4412 30.5843L15.3794 30.6461L15.7329 30.9997ZM15.1857 31.1596L15.5988 30.8778L15.5724 30.8391L15.5393 30.806L15.1857 31.1596ZM14.9203 30.8941L15.2738 30.5406L15.0826 30.3493L14.8178 30.4047L14.9203 30.8941ZM15.1986 31.1798L14.7698 31.4371L14.7698 31.4371L15.1986 31.1798ZM15.3096 31.4367L15.784 31.2785L15.784 31.2785L15.3096 31.4367ZM15.3096 34.7657L15.784 34.9238V34.9238L15.3096 34.7657ZM15.1986 35.0226L14.7698 34.7653L14.7698 34.7653L15.1986 35.0226ZM15.1857 35.0428L15.5393 35.3963L15.5724 35.3632L15.5988 35.3245L15.1857 35.0428ZM14.9203 35.3082L14.8179 35.7976L15.0826 35.853L15.2739 35.6617L14.9203 35.3082ZM15.6178 35.4412V35.9412H16.8252L15.9713 35.0876L15.6178 35.4412ZM15.6178 35.4412L15.2643 35.7947L15.4107 35.9412H15.6178V35.4412ZM16.0693 35.5146L15.6364 35.2644L15.2699 35.8985L15.9939 36.0089L16.0693 35.5146ZM16.0693 30.6877L15.9939 30.1934L15.2698 30.3039L15.6364 30.938L16.0693 30.6877ZM16.2583 31.1204L16.7326 30.9623L16.7326 30.9623L16.2583 31.1204ZM16.2583 35.0819L16.7326 35.2401L16.7326 35.2401L16.2583 35.0819ZM15.6179 30.7611L15.5386 30.2674L15.3788 30.2931L15.2644 30.4076L15.6179 30.7611ZM15.5393 30.806L15.2738 30.5406L14.5667 31.2477L14.8322 31.5132L15.5393 30.806ZM15.6273 30.9226C15.6169 30.9052 15.6073 30.8904 15.5988 30.8778L14.7727 31.4414C14.7701 31.4376 14.7693 31.4361 14.7698 31.4371L15.6273 30.9226ZM15.784 31.2785C15.727 31.1077 15.67 30.9938 15.6273 30.9226L14.7698 31.4371C14.772 31.4407 14.7995 31.4873 14.8353 31.5948L15.784 31.2785ZM16.0118 33.1012C16.0118 32.1899 15.8979 31.6203 15.784 31.2785L14.8353 31.5948C14.9076 31.8117 15.0118 32.2702 15.0118 33.1012H16.0118ZM15.784 34.9238C15.8979 34.5821 16.0118 34.0125 16.0118 33.1012H15.0118C15.0118 33.9322 14.9076 34.3907 14.8353 34.6076L15.784 34.9238ZM15.6273 35.2798C15.67 35.2086 15.727 35.0947 15.784 34.9238L14.8353 34.6076C14.7995 34.715 14.772 34.7617 14.7698 34.7653L15.6273 35.2798ZM15.5988 35.3245C15.6073 35.312 15.6169 35.2972 15.6273 35.2798L14.7698 34.7653C14.7693 34.7663 14.7701 34.7648 14.7727 34.761L15.5988 35.3245ZM15.2739 35.6617L15.5393 35.3963L14.8322 34.6892L14.5668 34.9546L15.2739 35.6617ZM15.0228 34.8188C13.8582 34.5751 12.932 34.2627 12.3101 33.9201C11.6478 33.5552 11.5 33.2553 11.5 33.1011H10.5C10.5 33.8533 11.1239 34.4082 11.8276 34.7959C12.5716 35.2059 13.6056 35.5439 14.8179 35.7976L15.0228 34.8188ZM11.5 33.1011C11.5 32.947 11.6478 32.6471 12.3101 32.2822C12.932 31.9396 13.8582 31.6272 15.0227 31.3835L14.8178 30.4047C13.6055 30.6585 12.5716 30.9964 11.8275 31.4064C11.1239 31.7941 10.5 32.349 10.5 33.1011H11.5ZM15.6178 34.9412C15.6421 34.9412 15.6624 34.9429 15.6774 34.9447C15.6846 34.9456 15.6905 34.9465 15.6942 34.947C15.6976 34.9476 15.7005 34.948 15.7 34.948C15.7 34.948 15.7 34.948 15.7 34.948C15.7 34.948 15.7 34.948 15.7 34.948C15.7 34.948 15.7 34.948 15.7 34.948C15.7 34.948 15.7 34.948 15.6999 34.948C15.6999 34.9479 15.6998 34.9479 15.6997 34.9479C15.6994 34.9479 15.699 34.9478 15.6986 34.9477C15.6976 34.9476 15.6961 34.9473 15.6942 34.947C15.6905 34.9465 15.6846 34.9456 15.6774 34.9447C15.6624 34.9429 15.642 34.9412 15.6178 34.9412V35.9412C15.5936 35.9412 15.5732 35.9394 15.5582 35.9376C15.551 35.9367 15.5451 35.9359 15.5414 35.9353C15.538 35.9348 15.5352 35.9343 15.5356 35.9344C15.5356 35.9344 15.5356 35.9344 15.5356 35.9344C15.5356 35.9344 15.5356 35.9344 15.5356 35.9344C15.5356 35.9344 15.5356 35.9344 15.5356 35.9344C15.5357 35.9344 15.5357 35.9344 15.5357 35.9344C15.5358 35.9344 15.5359 35.9344 15.536 35.9344C15.5362 35.9345 15.5366 35.9345 15.5371 35.9346C15.538 35.9348 15.5395 35.935 15.5414 35.9353C15.5452 35.9359 15.551 35.9367 15.5583 35.9376C15.5732 35.9394 15.5936 35.9412 15.6178 35.9412V34.9412ZM15.9713 35.0876C15.9521 35.0683 15.9316 35.0478 15.9097 35.0259L15.2026 35.733C15.2245 35.7549 15.245 35.7755 15.2643 35.7948L15.9713 35.0876ZM15.2026 35.733L15.2643 35.7947L15.9714 35.0876L15.9097 35.0259L15.2026 35.733ZM20.5689 35.3351C18.9652 35.3351 17.4588 35.2207 16.1447 35.0203L15.9939 36.0089C17.3623 36.2176 18.9194 36.3351 20.5689 36.3351V35.3351ZM29.6377 33.1011C29.6377 33.2249 29.5459 33.4537 29.1059 33.751C28.6833 34.0365 28.0389 34.3132 27.1977 34.5536C25.5221 35.0323 23.1783 35.3351 20.5689 35.3351V36.3351C23.2441 36.3351 25.6847 36.0259 27.4724 35.5151C28.3629 35.2607 29.1198 34.9484 29.6656 34.5797C30.194 34.2227 30.6377 33.7324 30.6377 33.1011H29.6377ZM20.5689 30.8672C23.1783 30.8672 25.5221 31.17 27.1977 31.6487C28.0389 31.889 28.6833 32.1658 29.1059 32.4513C29.5459 32.7486 29.6377 32.9774 29.6377 33.1011H30.6377C30.6377 32.4699 30.194 31.9796 29.6656 31.6226C29.1198 31.2539 28.3629 30.9416 27.4724 30.6872C25.6847 30.1764 23.2441 29.8672 20.5689 29.8672V30.8672ZM16.1446 31.182C17.4587 30.9816 18.9652 30.8672 20.5689 30.8672V29.8672C18.9194 29.8672 17.3623 29.9847 15.9939 30.1934L16.1446 31.182ZM15.6364 30.938C15.6779 31.0098 15.7309 31.1195 15.784 31.2785L16.7326 30.9623C16.66 30.7442 16.58 30.5722 16.5021 30.4374L15.6364 30.938ZM15.784 31.2785C15.8979 31.6203 16.0118 32.1899 16.0118 33.1012H17.0118C17.0118 32.1095 16.8882 31.4289 16.7326 30.9623L15.784 31.2785ZM16.0118 33.1012C16.0118 34.0125 15.8979 34.5821 15.784 34.9238L16.7326 35.2401C16.8882 34.7734 17.0118 34.0929 17.0118 33.1012H16.0118ZM15.784 34.9238C15.731 35.0829 15.6779 35.1925 15.6364 35.2644L16.5022 35.7648C16.58 35.6301 16.66 35.4581 16.7326 35.2401L15.784 34.9238ZM15.6972 31.2548C15.6833 31.257 15.6717 31.2582 15.6723 31.2581C15.6723 31.2581 15.6723 31.2581 15.6723 31.2581C15.6723 31.2581 15.6723 31.2581 15.6723 31.2581C15.6723 31.2581 15.6723 31.2581 15.6723 31.2581C15.6723 31.2581 15.6723 31.2581 15.6723 31.2581C15.6723 31.2581 15.6724 31.2581 15.6724 31.2581C15.6725 31.2581 15.6726 31.2581 15.6727 31.2581C15.673 31.2581 15.6735 31.258 15.6741 31.2579C15.6753 31.2578 15.6771 31.2576 15.6793 31.2573C15.6839 31.2568 15.6901 31.2559 15.6973 31.2548L15.5386 30.2674C15.5525 30.2652 15.5641 30.264 15.5635 30.2641C15.5635 30.2641 15.5635 30.2641 15.5635 30.2641C15.5635 30.2641 15.5635 30.2641 15.5635 30.2641C15.5635 30.2641 15.5635 30.2641 15.5635 30.2641C15.5635 30.2641 15.5635 30.2641 15.5635 30.2641C15.5635 30.2641 15.5635 30.2641 15.5634 30.2641C15.5634 30.2641 15.5632 30.2641 15.5631 30.2641C15.5628 30.2642 15.5623 30.2642 15.5617 30.2643C15.5606 30.2644 15.5587 30.2646 15.5565 30.2649C15.5519 30.2655 15.5458 30.2663 15.5386 30.2674L15.6972 31.2548ZM15.2644 30.4076L15.2026 30.4693L15.9097 31.1764L15.9715 31.1147L15.2644 30.4076Z" fill="#5F231B" mask="url(#path-7-inside-1_2413_59447)"/>
<circle cx="13.9692" cy="32.8183" r="0.424235" fill="white"/>
<path d="M28.1049 12.3924C16.5382 6.99067 -2.20733 4.13571 17.585 13.5937" stroke="#5F231B" stroke-linecap="round"/>
</svg>
