<svg width="87" height="50" viewBox="0 0 87 50" fill="none" xmlns="http://www.w3.org/2000/svg">
<g clip-path="url(#clip0_1080_39159)">
<path d="M62.1646 26.2432C58.6774 26.9388 54.671 30.4901 52.0136 35.6523C49.3195 40.8913 50.5148 45.4165 52.9274 48.2063C55.5739 46.6063 64.4018 40.1445 62.1646 26.2432Z" fill="#A28977"/>
<path d="M21.6984 20.4734C22.6708 13.9237 21.3073 7.87551 18.4744 4.32422C10.0084 5.18824 6.61984 14.9598 6.61984 14.9598C5.0407 21.5791 7.65798 31.1346 7.65798 31.142C13.3458 31.0724 20.3386 29.6446 21.6984 20.4734Z" fill="#F0C376"/>
<path d="M58.9146 15.7245L53.5119 0.816406L53.1245 3.57323C52.2216 7.80916 49.2863 9.85573 47.7656 10.6502C48.2262 11.441 48.8038 12.1988 49.491 12.8945C52.2472 15.6916 55.994 16.702 58.9146 15.7245Z" fill="#A28977"/>
<path d="M47.1943 50.0003C45.0741 50.0003 43.3927 49.506 42.19 48.5285C41.2323 47.7487 40.6182 46.5698 40.5085 45.2957C40.4098 44.1351 40.7425 43.0478 41.4516 42.2313C42.0438 41.5504 42.7639 41.0085 43.4804 40.7083C44.1713 40.4191 44.8987 40.3532 45.6005 40.291C45.8418 40.269 46.0867 40.247 46.3279 40.2177C46.518 40.1921 46.6935 40.3276 46.7154 40.5179C46.7374 40.7083 46.6058 40.8841 46.4157 40.906C46.1671 40.939 45.9149 40.9609 45.6627 40.9829C44.9828 41.0415 44.3431 41.1001 43.7509 41.349C43.1331 41.609 42.5044 42.0812 41.978 42.6853C41.3931 43.359 41.119 44.2633 41.2031 45.2335C41.2944 46.3062 41.8318 47.335 42.6323 47.9866C43.8386 48.9678 45.6151 49.4035 47.9327 49.2827C51.9025 49.074 55.5213 46.8773 58.1167 43.0954C61.2384 38.5519 62.6859 32.6721 61.9877 27.3672C61.5454 23.988 60.489 20.9785 59.3705 17.7933C59.078 16.9549 58.8002 16.1458 58.5224 15.3404C57.8425 13.3487 57.1955 11.4669 56.3292 9.2263C55.9453 8.23413 55.5908 7.22732 55.2362 6.22052C54.7098 4.73044 54.1725 3.20375 53.5328 1.72831C53.3866 3.28063 53.0795 4.90617 52.3338 6.53903C51.4748 8.43184 49.8518 10.0354 47.9985 10.8299C47.0883 11.2216 46.1415 11.3095 45.2642 11.0825C44.2334 10.8189 43.166 10.0976 42.0877 8.93341C41.5832 8.3879 41.1555 7.80578 40.801 7.30787C39.9968 6.1656 39.4119 5.02333 38.8015 3.75292C39.0427 5.71528 39.1085 6.86121 39.1231 8.61855C39.1451 11.2363 38.9879 13.8393 38.8453 15.8127C38.7466 17.1892 38.6443 18.5695 38.5383 19.9461C38.3957 21.8242 38.2568 23.6987 38.1289 25.5769C38.0704 26.4373 38.0411 27.3013 38.0082 28.1653L37.9826 28.8609C37.8986 31.3725 37.8072 33.9719 36.9372 36.4065C36.345 38.0577 34.934 40.895 32.1413 41.3234C31.6551 41.3966 31.1909 41.3454 30.7924 41.1769C30.2332 40.9426 29.7543 40.4484 29.4399 39.7857C29.0232 38.907 28.7783 37.9478 28.5773 36.9886C28.5224 38.5922 28.3762 40.2067 28.007 41.8067C27.3088 44.8491 26.0806 46.6357 24.2492 47.2617C20.0236 48.7115 15.1253 46.2696 12.4715 43.1027C10.578 40.8474 9.09755 37.8783 7.94244 34.0268C7.28447 31.8374 6.78733 29.454 6.42179 26.7375L6.3962 26.5398C5.94658 23.2301 5.486 19.807 6.10377 16.4607C6.58263 13.8723 7.66463 11.5548 9.40461 9.37274C9.71897 8.981 10.0662 8.59293 10.4391 8.22315C12.1425 6.53171 14.9316 4.41924 18.5322 3.96892C19.0586 3.90302 19.5922 3.87007 20.1406 3.87739C22.4983 3.89936 25.9563 5.27961 27.6926 6.8905C29.3522 8.43184 30.7595 10.5297 31.8781 13.1327C32.6677 14.9706 33.2196 16.7463 33.5194 18.4157C33.5523 18.6061 33.428 18.7855 33.2379 18.8185C33.0515 18.8551 32.8687 18.7269 32.8358 18.5365C32.547 16.922 32.0097 15.1939 31.2421 13.4073C30.1637 10.8958 28.8112 8.87483 27.2211 7.40306C25.5944 5.89101 22.3484 4.59498 20.1332 4.57301C19.6288 4.56935 19.1134 4.59498 18.6199 4.65721C15.2131 5.08191 12.5592 7.09919 10.9289 8.71374C10.5743 9.06521 10.2454 9.43132 9.94926 9.80476C8.28239 11.8953 7.24791 14.1139 6.78733 16.5852C6.18784 19.8216 6.64477 23.1898 7.08342 26.4446L7.10901 26.6423C7.47089 29.3222 7.96072 31.669 8.60773 33.8254C9.73359 37.5854 11.1738 40.4703 13.0015 42.6524C15.5055 45.6362 20.0967 47.95 24.0226 46.5991C25.6091 46.0536 26.6911 44.4353 27.3308 41.6456C27.9522 38.9473 27.9266 36.2857 27.901 33.4703V32.9358C27.8937 32.793 27.9814 32.6612 28.1167 32.6099C28.2483 32.5587 28.4018 32.5916 28.5005 32.7014C28.6467 32.8625 28.6723 33.1042 28.676 33.1701C28.7162 33.862 28.8258 34.6601 29.0086 35.6011L29.0707 35.9159C29.3047 37.1351 29.5496 38.3982 30.065 39.4892C30.3063 39.9944 30.6572 40.3678 31.0593 40.5363C31.3408 40.6571 31.6807 40.69 32.0353 40.6351C34.4698 40.2617 35.7419 37.6806 36.2792 36.1722C37.1163 33.8401 37.2004 31.2992 37.2845 28.839L37.31 28.1433C37.3393 27.272 37.3722 26.4006 37.4307 25.533C37.5586 23.6548 37.7012 21.7766 37.8401 19.8985C37.9424 18.5219 38.0484 17.1453 38.1471 15.7687C38.286 13.8064 38.4469 11.2216 38.4249 8.62954C38.4067 6.34499 38.297 5.11119 37.8255 1.6734C37.8035 1.50499 37.9059 1.3439 38.0667 1.29264C38.2312 1.24138 38.403 1.31827 38.4798 1.47204C38.6881 1.90405 38.8819 2.31409 39.072 2.7095C39.8067 4.25815 40.4391 5.59446 41.3639 6.90881C41.7038 7.38841 42.1133 7.94857 42.5921 8.46479C43.5791 9.52651 44.5331 10.1819 45.4324 10.4125C46.1598 10.5992 46.953 10.5223 47.7207 10.1928C49.4204 9.46427 50.9082 7.9925 51.6978 6.25347C52.4361 4.62793 52.7944 2.91086 52.9296 0.333425C52.9369 0.175997 53.0503 0.0405349 53.2074 0.0112459C53.361 -0.0217042 53.5181 0.0588406 53.5876 0.201624C54.4978 2.07978 55.2033 4.07143 55.8832 5.99719C56.2341 6.99667 56.5887 7.99616 56.9689 8.981C57.8425 11.2363 58.4859 13.1254 59.1694 15.1244C59.4436 15.9262 59.7214 16.7353 60.0138 17.5737C61.1433 20.7955 62.2107 23.8342 62.664 27.2866C63.3841 32.76 61.8927 38.8192 58.6759 43.5018C55.9929 47.4082 52.0852 49.7733 47.9546 49.9893C47.6914 50.0039 47.4319 50.0112 47.1797 50.0112L47.1943 50.0003Z" fill="#515151"/>
<path d="M16.7501 22.4606C17.388 22.4536 17.8956 21.5858 17.884 20.5223C17.8723 19.4588 17.3457 18.6023 16.7078 18.6093C16.0699 18.6164 15.5622 19.4842 15.5739 20.5477C15.5856 21.6112 16.1121 22.4676 16.7501 22.4606Z" fill="#515151"/>
<path d="M26.4582 20.0585C27.0416 20.0521 27.5059 19.2601 27.4953 18.2896C27.4846 17.3191 27.003 16.5376 26.4196 16.544C25.8362 16.5505 25.3719 17.3424 25.3826 18.3129C25.3932 19.2834 25.8748 20.0649 26.4582 20.0585Z" fill="#515151"/>
<path d="M6.17027 23.0764C6.64181 24.9692 3.61148 24.8007 2.77804 24.5628C1.86419 24.3028 1.21352 23.4425 1.00882 22.443C-0.197466 16.5742 7.65436 12.8398 7.65436 12.8398C7.65436 12.8398 5.41725 20.0596 6.17027 23.0764Z" fill="#515151"/>
<path d="M29.1367 9.03214C29.1367 9.03214 33.9801 8.27429 35.5702 13.6159C35.7896 14.3554 35.6214 15.1719 35.0877 15.732C34.554 16.2922 33.6585 16.596 32.4229 15.1645" fill="#515151"/>
<path d="M49.1947 20.0664C49.7499 20.0664 50.1999 19.6156 50.1999 19.0595C50.1999 18.5035 49.7499 18.0527 49.1947 18.0527C48.6395 18.0527 48.1895 18.5035 48.1895 19.0595C48.1895 19.6156 48.6395 20.0664 49.1947 20.0664Z" fill="#515151"/>
<path d="M44.5194 20.0634C45.0706 20.0634 45.5173 19.6159 45.5173 19.0639C45.5173 18.5119 45.0706 18.0645 44.5194 18.0645C43.9683 18.0645 43.5215 18.5119 43.5215 19.0639C43.5215 19.6159 43.9683 20.0634 44.5194 20.0634Z" fill="#515151"/>
<path d="M48.4628 25.0827C47.973 25.0827 47.5051 24.896 47.1761 24.5555C47.1432 24.5189 46.9933 24.3651 46.8398 24.1491C46.573 24.6397 46.1453 24.9107 45.4983 25.0278C45.0816 25.1047 44.4346 25.0754 43.9813 24.7459C43.7217 24.5592 43.5646 24.2956 43.5207 23.988C43.4293 23.3327 43.6742 22.8055 44.2079 22.5053C44.3761 22.4101 44.5881 22.4687 44.6795 22.6371C44.7745 22.8055 44.716 23.0178 44.5479 23.1094C44.4455 23.168 44.1312 23.3437 44.2079 23.8892C44.2225 24.01 44.281 24.1015 44.387 24.1748C44.6356 24.3542 45.0706 24.3908 45.3703 24.3359C45.9735 24.226 46.2878 24.0137 46.445 23.1167C46.4779 22.9373 46.6315 22.8128 46.8215 22.8311C47.0007 22.8494 47.1396 23.0032 47.1359 23.1826C47.1359 23.351 47.3845 23.7647 47.6769 24.0649C47.984 24.3835 48.4263 24.4201 48.737 24.3505C49.044 24.2809 49.278 24.1015 49.3547 23.8672C49.4936 23.4572 49.4425 23.3657 49.161 22.9446C49.055 22.7872 49.0952 22.5712 49.256 22.4614C49.4132 22.3552 49.6289 22.3955 49.7386 22.5565C50.0749 23.0581 50.254 23.373 50.0127 24.0869C49.8555 24.5519 49.4388 24.9033 48.8905 25.0241C48.7479 25.0571 48.6054 25.0717 48.4665 25.0717L48.4628 25.0827Z" fill="#515151"/>
<path d="M24.6273 30.1314C24.6528 30.0216 24.7004 29.9264 24.7881 29.8532C25.3254 29.3955 26.0382 29.0294 26.6816 28.7439C27.3688 28.44 28.0962 28.2313 28.8456 28.1581C28.8529 28.1581 28.8566 28.1581 28.8639 28.1581C29.1892 28.1288 30.2456 28.008 30.4942 28.2606C30.7354 28.5059 30.6002 29.0331 30.5673 29.3296C30.443 30.4536 30.2127 31.6874 29.2843 32.4379C28.8419 32.7967 28.279 32.9725 27.7124 32.9578C27.1422 32.9432 26.561 32.8224 26.0529 32.5514C25.5703 32.2915 25.1902 31.8741 24.9453 31.3835C24.7954 31.0833 24.5395 30.5195 24.6273 30.1278V30.1314Z" fill="#515151"/>
<path d="M52.1041 21.0371C52.0309 21.0371 52.0054 21.0225 51.9761 21.0078C51.808 20.92 51.7422 20.7076 51.8299 20.5392C51.892 20.4221 52.0127 20.3525 52.137 20.3525C52.5135 20.3049 56.2968 19.5031 58.7825 18.9686C58.9689 18.932 59.1554 19.0491 59.1956 19.2359C59.2358 19.4226 59.1151 19.6093 58.9287 19.6496C53.4858 20.8211 52.3965 21.0371 52.1004 21.0371H52.1041Z" fill="#515151"/>
<path d="M60.2489 24.5958C60.2489 24.5958 60.2233 24.5958 60.2087 24.5921L52.2399 23.1606C52.0498 23.1277 51.9255 22.9446 51.9584 22.7579C51.9913 22.5675 52.1704 22.443 52.3605 22.476L60.3293 23.9075C60.5194 23.9404 60.6437 24.1235 60.6108 24.3102C60.5779 24.4859 60.4207 24.6068 60.2452 24.5958H60.2489Z" fill="#515151"/>
<path d="M41.3533 20.9052C41.3021 20.9162 41.2473 20.9125 41.1924 20.8942L36.3307 19.2577C36.1699 19.2028 36.0895 19.0307 36.148 18.8696C36.2064 18.7085 36.3856 18.6206 36.5427 18.6756L41.4044 20.3121C41.5653 20.367 41.6457 20.5391 41.5872 20.7002C41.547 20.8063 41.4556 20.8832 41.3496 20.9052H41.3533Z" fill="#515151"/>
<path d="M41.3903 22.8414C41.3903 22.8414 41.3647 22.8414 41.3537 22.8414L36.9526 22.695C36.7808 22.6877 36.6492 22.5522 36.6565 22.3911C36.6639 22.2264 36.8064 22.1019 36.9782 22.1055L41.3793 22.252C41.5511 22.2593 41.6827 22.3948 41.6754 22.5559C41.6681 22.706 41.5438 22.8268 41.3903 22.8414Z" fill="#515151"/>
<path d="M40.8528 45.5403C40.8528 45.5403 40.8236 45.5403 40.809 45.5403C40.6225 45.5184 40.4873 45.3499 40.5056 45.1632C40.5129 45.09 40.7176 43.4022 43.4957 43.6036C43.6858 43.6182 43.832 43.783 43.8174 43.9734C43.8027 44.1637 43.6419 44.3175 43.4482 44.2955C41.3829 44.1528 41.2037 45.1962 41.1964 45.2401C41.1708 45.4122 41.021 45.544 40.8528 45.544V45.5403Z" fill="#515151"/>
<path d="M42.4096 48.623C42.2268 48.623 42.0733 48.4875 42.0477 48.3044C42.044 48.2642 41.9344 47.3379 42.6143 46.5654C43.1918 45.9064 44.1422 45.5732 45.4363 45.5732C45.6446 45.5769 45.8055 45.7343 45.8055 45.9394C45.8055 46.1407 45.641 46.3055 45.4399 46.3055H45.4363C44.3689 46.3055 43.6086 46.5544 43.1699 47.0414C42.7057 47.5612 42.7715 48.1873 42.7751 48.2129C42.797 48.4143 42.6545 48.5937 42.4571 48.6193C42.4425 48.6193 42.4279 48.6193 42.4132 48.6193L42.4096 48.623Z" fill="#515151"/>
<path d="M85.01 4.20704C84.9954 4.12649 84.9259 3.98737 84.8053 3.95442C84.681 3.91781 84.5421 3.89584 84.4142 3.8995C83.6283 3.91049 82.846 3.92147 82.0601 3.93612L78.8433 3.98737C78.3901 3.99469 77.9331 4.00202 77.4799 4.00568L78.4924 2.14949C78.507 2.1202 78.5582 2.02867 78.5253 1.92616C78.4924 1.81999 78.3974 1.77239 78.3645 1.75775C78.083 1.61496 77.7979 1.46486 77.5237 1.30743C77.4689 1.27448 77.3848 1.23787 77.2898 1.26349C77.1984 1.28912 77.1472 1.36601 77.118 1.42092C77.0339 1.57469 76.9498 1.72846 76.8657 1.88222L74.1571 6.83573C74.0657 7.00048 73.978 7.16889 73.8866 7.33364L73.7257 7.63385C73.6965 7.68877 73.6526 7.76932 73.6855 7.8645C73.7184 7.95969 73.8098 7.99997 73.8391 8.01461C73.9122 8.04756 73.9816 8.08783 74.0511 8.12811C74.1132 8.16472 74.1754 8.20133 74.2412 8.23428C74.4203 8.32215 74.603 8.39903 74.7858 8.47591C74.8845 8.51618 74.9942 8.45395 75.038 8.39537L75.0856 8.32947C75.1587 8.22696 75.2354 8.12444 75.2939 8.01095C75.6083 7.43615 75.919 6.86136 76.2334 6.28656L76.5623 5.67881C76.5879 5.62756 76.6099 5.62023 76.6501 5.6239C76.7305 5.6239 76.8109 5.6239 76.895 5.62023C76.9425 5.62023 76.99 5.61657 77.0376 5.61657L83.2847 5.52505C83.2847 5.52505 83.3176 5.52505 83.3285 5.52505C83.3285 5.53603 83.3285 5.55067 83.3285 5.56898C83.3029 6.26459 83.2737 6.96021 83.2444 7.65582C83.1933 8.8823 83.1421 10.1088 83.0873 11.3389L82.9008 15.6627C82.9008 15.6883 82.9008 15.7066 82.8972 15.7213C82.8826 15.7213 82.8643 15.7213 82.8387 15.7213L82.5901 15.7323C82.3087 15.7432 82.0235 15.7542 81.7421 15.7652C81.6872 15.7652 81.6032 15.7762 81.5447 15.8421C81.4789 15.9153 81.4825 16.0105 81.4862 16.0435C81.4935 16.157 81.4935 16.2741 81.4935 16.3876C81.4935 16.4828 81.4935 16.5743 81.4972 16.6695C81.5008 16.7867 81.5154 16.9002 81.5337 17.0173C81.5593 17.1784 81.6617 17.2846 81.8079 17.2992H81.8517C81.9431 17.3139 82.0345 17.3212 82.1259 17.3212C82.1442 17.3212 82.1624 17.3212 82.1771 17.3212C82.5974 17.3029 83.0215 17.2846 83.4418 17.2663L84.2131 17.2297C84.469 17.2187 84.5385 17.1418 84.5312 16.8819L84.5238 16.7281C84.5165 16.5816 84.5129 16.4315 84.5165 16.2851C84.5494 15.3149 84.5896 14.3447 84.6298 13.3745C84.6445 12.9974 84.6664 12.624 84.6847 12.2469C84.703 11.9137 84.7176 11.5769 84.7322 11.2437C84.7432 10.9728 84.7541 10.7019 84.7651 10.431C84.7761 10.1198 84.787 9.80856 84.8017 9.50103C84.8272 8.96284 84.8528 8.42466 84.8821 7.88647C84.904 7.42517 84.9296 6.96021 84.9515 6.4989C84.9698 6.12181 84.9808 5.74471 84.9917 5.36762V5.28341C84.999 5.08205 85.0027 4.88435 85.0064 4.68299V4.44135C85.0137 4.37179 85.0173 4.29125 85.0027 4.2107L85.01 4.20704Z" fill="#515151"/>
<path d="M71.6314 6.23856C71.8215 6.1214 72.0079 6.00791 72.198 5.89075L73.0424 5.36355C73.0789 5.34158 73.1703 5.28666 73.1849 5.18049C73.2032 5.07432 73.1374 4.99377 73.1155 4.96815C73.0753 4.91689 73.0387 4.85831 73.0058 4.79973C72.9766 4.75214 72.951 4.70455 72.9181 4.66061C72.8194 4.51783 72.7171 4.37504 72.6074 4.23958C72.4758 4.07849 72.3369 4.05653 72.1578 4.1627C71.9421 4.2945 71.7301 4.4263 71.5144 4.5581L71.1123 4.80706C70.9625 4.89858 70.8089 4.99377 70.6591 5.0853C70.6591 5.0853 70.6554 5.0853 70.6517 5.08896L70.553 4.94618C70.4215 4.75214 70.2899 4.5581 70.1473 4.37138C69.7269 3.81855 69.27 3.39386 68.7509 3.08267C68.5645 2.96917 68.4512 2.9948 68.3342 3.18152L68.2099 3.37922C68.093 3.56593 67.976 3.74899 67.8554 3.93205C67.7932 4.02724 67.7384 4.11144 67.7603 4.21395C67.7822 4.31647 67.8773 4.37504 67.954 4.42264C68.5097 4.76678 68.8971 5.25371 69.3102 5.88343C68.7985 6.17632 68.283 6.46555 67.7713 6.75478L67.5483 6.87925C67.1974 7.07696 66.8465 7.27832 66.4919 7.47602C66.4663 7.49066 66.3822 7.53826 66.3566 7.63345C66.331 7.7323 66.3822 7.8165 66.4005 7.84579C66.5431 8.08743 66.682 8.32906 66.8209 8.57069L66.8684 8.65124C67.0036 8.88555 67.0914 8.91118 67.329 8.78304C67.7018 8.57802 68.0747 8.37299 68.4475 8.16431L69.2371 7.72497C69.5076 7.57487 69.7781 7.42842 70.0596 7.26733L70.1363 7.43574C70.4873 8.23753 70.7797 9.07959 71.0063 10.0388L70.787 10.1669C70.6664 10.2365 70.5421 10.3061 70.4215 10.3756L67.3107 12.1952C67.2815 12.2135 67.1901 12.2648 67.1645 12.3709C67.1389 12.4771 67.1974 12.565 67.2157 12.5943C67.3875 12.8652 67.552 13.1434 67.7128 13.4217C67.8042 13.5791 67.9431 13.6157 68.0966 13.5279C68.2538 13.4363 68.411 13.3485 68.5682 13.2569L71.3719 11.6314L71.4084 11.895C71.4523 12.2245 71.4998 12.554 71.5364 12.8835C71.6204 13.6084 71.6058 14.3296 71.5839 14.9374C71.5839 14.9777 71.5839 14.9813 71.5327 14.9886C71.3426 15.0216 71.1562 15.0509 70.9661 15.0838L69.6136 15.3181C69.5368 15.3328 69.4564 15.3548 69.4089 15.428C69.3504 15.5122 69.3724 15.611 69.3833 15.6733C69.4418 15.9625 69.4966 16.2554 69.5405 16.5483C69.5697 16.735 69.6282 16.8485 69.822 16.8485C69.8512 16.8485 69.8805 16.8485 69.917 16.8412C70.1107 16.8119 70.3045 16.7789 70.4982 16.746L72.2674 16.4421C72.4612 16.4092 72.6549 16.3762 72.845 16.3396C73.0351 16.3067 73.0789 16.1785 73.0972 16.0431C73.1045 15.9625 73.1082 15.8893 73.1082 15.8161C73.1082 15.7685 73.1082 15.7245 73.1118 15.6769C73.1265 15.439 73.1338 15.201 73.1411 14.9703C73.1484 14.736 73.1557 14.5127 73.1703 14.2967V14.2894L73.152 13.894C73.1411 13.6267 73.1301 13.3778 73.1118 13.1288C73.068 12.5833 73.0241 12.1659 72.9693 11.7742C72.9181 11.4081 72.845 11.042 72.7682 10.6722C72.6805 10.2438 72.6074 9.91799 72.527 9.61778C72.4283 9.24434 72.3296 8.90386 72.2199 8.57802C72.0847 8.16797 71.9348 7.76891 71.7593 7.29296C71.6387 6.97078 71.5108 6.65593 71.3682 6.38134C71.3682 6.38134 71.3792 6.37402 71.4011 6.35937L71.6168 6.22757L71.6314 6.23856Z" fill="#515151"/>
<path d="M80.8505 9.00344C80.5471 8.88995 80.2364 8.88995 79.9294 8.89361C79.626 8.89361 79.3262 8.90093 79.0228 8.90825C78.7669 8.91557 78.5111 8.91924 78.2552 8.9229C77.8385 8.9229 77.4254 8.9229 77.0087 8.91557H76.804C76.6724 8.91191 76.5444 8.90825 76.4128 8.90459C76.2447 8.90093 76.0766 8.89361 75.9084 8.89361C75.7403 8.88995 75.5758 8.90093 75.4113 8.90825L75.2139 8.91557C75.1225 8.93022 75.0165 8.98514 75.0238 9.16819C75.0238 9.19748 75.0275 9.22311 75.0348 9.26704C75.0457 9.34759 75.053 9.43179 75.0603 9.51234C75.0786 9.67343 75.0932 9.83818 75.1188 9.99927C75.1737 10.3471 75.2322 10.6912 75.2906 11.039C75.3601 11.4491 75.4295 11.8628 75.4953 12.2765C75.5392 12.5547 75.5758 12.833 75.616 13.1112C75.6525 13.3748 75.6891 13.6384 75.7293 13.902C75.7439 14.0009 75.817 14.1693 75.9486 14.2242C76.0363 14.2608 76.1423 14.2791 76.2703 14.2791C76.2995 14.2791 76.3288 14.2791 76.3617 14.2791C76.6322 14.2645 76.899 14.2389 77.1695 14.2132L79.838 13.9643C80.1341 13.9386 80.4302 13.9094 80.7262 13.8801C80.8176 13.8691 80.9346 13.7922 80.9638 13.6897C80.9894 13.5908 80.9894 13.492 80.9894 13.4005C80.9894 13.1478 80.9894 12.8952 80.9894 12.6426V10.0322L81.015 9.25606C81.015 9.16819 80.9529 9.05104 80.8542 9.01443L80.8505 9.00344ZM79.5126 10.424C79.5126 11.0976 79.5053 11.7713 79.5017 12.4412C79.5017 12.4595 79.5017 12.4705 79.5017 12.4815C79.4944 12.4815 79.4797 12.4815 79.4651 12.4852C79.0886 12.5218 78.7121 12.5547 78.3356 12.5913L77.7069 12.6463C77.5168 12.6646 77.3267 12.6792 77.1147 12.7012C77.0672 12.3644 77.0196 12.0275 76.9685 11.6907L76.8552 10.9036C76.8332 10.7425 76.8113 10.5777 76.7967 10.413C76.7967 10.413 76.8003 10.4093 76.804 10.4093L78.1674 10.391H79.4834C79.4834 10.391 79.5053 10.391 79.5163 10.391C79.5163 10.3983 79.5163 10.4093 79.5163 10.424H79.5126Z" fill="#515151"/>
<path d="M77.9072 24.9614C77.9072 25.3824 77.9072 25.8034 77.9072 26.2245C77.9072 26.3819 77.9547 26.4332 78.1009 26.3782C78.2691 26.3123 78.4263 26.2171 78.5761 26.1146C78.6639 26.0561 78.7224 26.0414 78.7882 26.1256C78.9234 26.2904 79.055 26.4588 79.1903 26.6235C79.2268 26.6711 79.2305 26.7114 79.1829 26.7517C78.7589 27.1251 78.2727 27.3448 77.6988 27.2862C77.5526 27.2716 77.3954 27.2203 77.2675 27.1434C77.0299 27.0006 76.9933 26.7553 77.0116 26.4991C77.0226 26.3709 77.0372 26.2391 77.0409 26.111C77.0518 25.3019 77.0591 24.4964 77.0665 23.6873C77.0665 23.4933 77.0555 23.4786 76.8618 23.4786C76.6205 23.4786 76.3792 23.4713 76.138 23.4713C76.0247 23.4713 75.9516 23.4274 75.9552 23.3029C75.9552 23.0979 75.9552 22.8892 75.9662 22.6842C75.9662 22.5963 76.0356 22.5853 76.1051 22.5853C76.3646 22.5926 76.6242 22.6 76.8837 22.6036C77.0701 22.6073 77.0884 22.5926 77.0884 22.4059C77.092 21.8055 77.0957 21.2051 77.0994 20.6046C77.0994 20.5717 77.0994 20.5351 77.0994 20.5021C77.1067 20.2788 77.1432 20.2495 77.3589 20.2568C77.527 20.2642 77.6952 20.2642 77.8633 20.2568C77.9767 20.2568 77.9913 20.3996 77.9949 20.4838C77.9986 20.6229 77.984 20.7657 77.984 20.9049C77.9767 21.3222 77.9693 21.7396 77.962 22.157C77.962 22.2521 77.962 22.3473 77.9584 22.4462C77.9584 22.6146 77.9657 22.6292 78.1375 22.6329C78.4738 22.6402 78.8101 22.6439 79.1464 22.6476C79.373 22.6476 79.4352 22.6732 79.4498 22.9587C79.4571 23.1089 79.4425 23.2553 79.4425 23.4054C79.4425 23.4933 79.4023 23.5262 79.3182 23.5262C78.9234 23.5189 78.5323 23.5152 78.1375 23.5116C77.9584 23.5116 77.9438 23.5189 77.9438 23.6946" fill="#515151"/>
<path d="M69.3621 25.8517C69.4863 25.6906 69.5814 25.5698 69.6728 25.449C69.819 25.2513 69.9579 25.0462 70.1078 24.8522C70.1553 24.7899 70.2284 24.735 70.3015 24.7057C70.3454 24.6874 70.4258 24.7131 70.4623 24.746C70.6744 24.951 70.8754 25.1634 71.0838 25.3721C71.2336 25.5258 71.3835 25.6759 71.537 25.826C71.6101 25.8956 71.6503 25.8883 71.6832 25.7894C71.7966 25.4453 71.9245 25.1011 72.0086 24.7497C72.1475 24.1602 72.2571 23.5598 72.2242 22.9484C72.2169 22.8349 72.2242 22.7178 72.2462 22.6043C72.2535 22.564 72.301 22.5017 72.3339 22.4981C72.4874 22.4834 72.6446 22.4798 72.7981 22.4908C72.9261 22.4981 72.9444 22.6152 72.9517 22.7141C72.959 22.8422 72.959 22.974 72.9444 23.1022C72.8932 23.644 72.8603 24.1859 72.7799 24.724C72.6848 25.3794 72.5715 26.0311 72.2608 26.6278C72.1804 26.7853 72.0671 26.9061 71.888 26.9647C71.7893 26.9976 71.7125 26.972 71.6284 26.9244C71.2556 26.712 70.996 26.3789 70.6963 26.086C70.5866 25.9798 70.477 25.8736 70.3673 25.7675C70.3052 25.7089 70.2503 25.7199 70.2065 25.7858C70.1151 25.9249 70.031 26.075 69.9323 26.2068C69.7568 26.4411 69.5777 26.6791 69.3803 26.8914C69.2561 27.0232 69.0111 27.0818 68.854 26.8402C68.5835 26.4155 68.3714 25.9652 68.185 25.4965C67.9401 24.8888 67.7391 24.2664 67.6075 23.6257C67.5599 23.3951 67.5526 23.1571 67.527 22.9191C67.5161 22.8276 67.5599 22.7873 67.655 22.791C67.8451 22.7983 68.0388 22.791 68.2289 22.802C68.2618 22.802 68.3056 22.8422 68.3166 22.8752C68.3385 22.9264 68.3349 22.9887 68.3459 23.0436C68.3934 23.2706 68.4336 23.5012 68.4921 23.7246C68.5871 24.076 68.6821 24.4312 68.7991 24.7753C68.8686 24.9803 68.9746 25.1707 69.0733 25.3647C69.1354 25.4856 69.2085 25.6027 69.278 25.7199C69.2999 25.7565 69.3255 25.7894 69.3584 25.8444L69.3621 25.8517Z" fill="#515151"/>
<path d="M80.0254 20.2457C80.0254 20.1945 80.0254 20.1469 80.0254 20.0956C80.0254 20.0114 80.0583 19.9712 80.146 19.9712C80.3471 19.9712 80.5518 19.9712 80.7528 19.9602C80.8625 19.9565 80.9027 20.0004 80.9027 20.1066C80.9027 20.5167 80.9027 20.9267 80.9063 21.3368C80.9063 22.1568 80.9137 22.9769 80.921 23.7934C80.921 24.6208 80.9283 25.4519 80.9356 26.2793C80.9356 26.3781 80.9356 26.4806 80.9356 26.5795C80.9356 26.6564 80.9466 26.7333 80.9502 26.8101C80.9539 26.9383 80.9063 26.9969 80.7821 27.0005C80.5883 27.0078 80.3946 27.0078 80.1972 27.0115C80.1095 27.0115 80.0766 26.9749 80.0766 26.887C80.0766 26.3562 80.0656 25.8216 80.0619 25.2908C80.0619 24.6867 80.0619 24.0826 80.0619 23.4785" fill="#515151"/>
<path d="M84.8313 25.0746C84.8313 25.6897 84.6705 26.2681 84.4219 26.8246C84.3452 27.0003 84.2976 27.0223 84.1185 26.9491C83.9467 26.8795 83.7749 26.799 83.6104 26.7111C83.5848 26.6965 83.5592 26.6269 83.5702 26.594C83.6762 26.2791 83.8151 25.9752 83.8882 25.653C84.0271 25.0709 84.0198 24.4888 83.7018 23.9506C83.4386 23.5076 82.9671 23.3429 82.4699 23.4966C82.214 23.5772 81.9874 23.7053 81.7791 23.8664C81.6365 23.9763 81.6255 23.9763 81.5159 23.8371C81.3989 23.687 81.2819 23.5369 81.1613 23.3868C81.1065 23.3172 81.1138 23.2733 81.1832 23.2147C81.5707 22.9035 81.9984 22.6619 82.4919 22.5887C83.2376 22.4789 83.8663 22.6985 84.3305 23.3136C84.6559 23.7456 84.8021 24.2435 84.824 24.778C84.8277 24.8732 84.824 24.9684 84.824 25.0636L84.8313 25.0746Z" fill="#515151"/>
<path d="M86.379 37.816L86.3717 37.5963C86.3644 37.4279 86.3571 37.2558 86.3571 37.0764C86.3534 36.692 86.2876 36.6261 85.9002 36.6261H85.8965V36.7725H85.8929V36.6261L82.5006 36.6627C81.7878 36.67 81.075 36.681 80.3659 36.692C80.3622 36.692 80.3549 36.692 80.3512 36.692C80.3512 36.692 80.3512 36.6883 80.3512 36.6847C80.3366 36.3808 80.322 36.0733 80.3037 35.7694C80.2891 35.5094 80.2745 35.2495 80.2635 34.9896C80.2489 34.6894 80.2379 34.3855 80.2233 34.0853C80.2123 33.7997 80.2014 33.5105 80.1868 33.2249C80.1758 32.9833 80.1612 32.7416 80.1502 32.5C80.1319 32.1485 80.1136 31.7971 80.099 31.4493C80.0917 31.2699 80.0917 31.0941 80.0917 30.9147C80.0917 30.7976 80.0917 30.6804 80.0917 30.5669C80.0917 30.4827 80.0844 30.4022 80.0807 30.318C80.0807 30.2521 80.0734 30.1862 80.0734 30.1166C80.0734 30.0471 80.0588 29.9482 79.9857 29.8823C79.9126 29.8164 79.8176 29.8127 79.7444 29.8164C79.452 29.8384 79.1596 29.8567 78.8671 29.8677C78.6259 29.8786 78.5528 29.9519 78.5528 30.1935C78.5528 30.2228 78.5528 30.2521 78.5528 30.2814L78.8489 36.6554C78.8489 36.6554 78.8489 36.6774 78.8489 36.692C78.8379 36.692 78.8233 36.692 78.816 36.692L78.275 36.6993C77.8034 36.7066 77.3282 36.7103 76.8567 36.714C76.1548 36.714 75.2264 36.7286 74.2979 36.7945L74.2248 36.8018C74.1444 36.8018 74.0786 36.8311 74.031 36.8787C73.9835 36.93 73.9616 36.9995 73.9652 37.0837C73.9725 37.2302 73.9762 37.373 73.9799 37.5194L73.9908 37.8599C74.0018 38.2114 74.0786 38.2809 74.4222 38.2736L78.8562 38.2297C78.8562 38.2297 78.9037 38.2297 78.9293 38.2297C78.9293 38.2443 78.9293 38.2626 78.9329 38.2919C78.9476 38.5299 78.9585 38.7679 78.9695 39.0058L79.1888 43.6811C79.2181 44.3291 79.251 44.9808 79.2802 45.6288C79.2802 45.6618 79.2875 45.7606 79.3606 45.8302C79.4191 45.8851 79.4959 45.8924 79.5397 45.8924C79.5507 45.8924 79.558 45.8924 79.5653 45.8924C79.8834 45.8778 80.205 45.8631 80.5231 45.8521C80.6035 45.8521 80.6656 45.8228 80.7095 45.7752C80.7753 45.702 80.768 45.6105 80.768 45.5775C80.7607 45.4824 80.757 45.3908 80.7533 45.2956L80.7314 44.7318C80.7168 44.3804 80.7058 44.0289 80.6875 43.6811C80.6693 43.282 80.6473 42.883 80.6291 42.4839L80.4755 39.2731C80.4573 38.9289 80.439 38.5848 80.4244 38.237C80.4244 38.2297 80.4244 38.2223 80.4244 38.2187C80.4317 38.2187 80.439 38.2187 80.4463 38.2187L84.0578 38.1821C84.7268 38.1748 85.3957 38.1674 86.0647 38.1564C86.1524 38.1564 86.2511 38.1491 86.3205 38.0722C86.39 37.999 86.3936 37.9002 86.39 37.8123L86.379 37.816Z" fill="#515151"/>
<path d="M72.3306 34.5542C72.1735 34.5249 72.0163 34.5066 71.8628 34.492C71.7129 34.481 71.563 34.4737 71.4131 34.4627C71.2925 34.4553 71.1719 34.448 71.0513 34.4407C70.8831 34.4297 70.7186 34.4151 70.5541 34.4004C70.4079 34.3894 70.2617 34.3785 70.1191 34.3675L69.834 34.3455C69.2418 34.3016 68.6533 34.2576 68.0611 34.221C67.8637 34.2101 67.6992 34.221 67.5567 34.2467C67.33 34.2943 67.2313 34.4224 67.2387 34.6567C67.246 34.8581 67.2569 35.0594 67.2679 35.2608L67.2935 35.7917C67.3154 36.2859 67.3374 36.7838 67.3593 37.2781L67.3703 37.5527C67.3958 38.1494 67.4214 38.7462 67.4434 39.343C67.4507 39.5297 67.5603 39.6505 67.7431 39.6725L67.8418 39.6871C67.9368 39.7017 68.0355 39.7127 68.1306 39.7164C68.9275 39.7384 69.7207 39.753 70.5176 39.7713L71.4314 39.8006H71.9615C72.1771 39.8006 72.2173 39.6578 72.2246 39.5736C72.2575 39.1306 72.2868 38.6913 72.3233 38.2483C72.3672 37.7247 72.4147 37.2012 72.4586 36.6777L72.539 35.7843C72.5646 35.4951 72.5902 35.2095 72.6158 34.9203C72.634 34.6933 72.5536 34.5835 72.327 34.5432L72.3306 34.5542ZM68.9457 37.7467H68.9238L68.9165 37.5051C68.9055 37.1426 68.8909 36.7802 68.8799 36.4214C68.8726 36.2237 68.8617 36.0296 68.847 35.8319C68.847 35.8246 68.847 35.8173 68.847 35.81C68.847 35.81 68.8507 35.81 68.8544 35.81C69.5562 35.8576 70.2544 35.9052 70.9562 35.9564C70.9635 35.9564 70.9708 35.9564 70.9781 35.9564C70.916 36.696 70.8502 37.4355 70.7844 38.1714C70.7844 38.1897 70.7844 38.2043 70.7808 38.2153C70.7588 38.2153 70.7296 38.2153 70.715 38.2153C70.4774 38.208 70.2398 38.208 70.0022 38.2043C69.8084 38.2043 69.6147 38.2007 69.4209 38.197C69.3222 38.197 69.2235 38.186 69.1248 38.1787L68.9567 38.1714C68.9567 38.1018 68.9567 38.0359 68.9567 37.97V37.7394L68.9457 37.7467Z" fill="#515151"/>
<path d="M85.4579 43.0552C85.2715 42.8356 85.0814 42.6195 84.895 42.4035C84.5697 42.0301 84.2443 41.6567 83.93 41.2759C83.8276 41.1551 83.7216 41.0379 83.6156 40.9171C83.378 40.6535 83.1514 40.4009 82.9759 40.108C82.9065 39.9909 82.8151 39.8957 82.7273 39.8005L82.6433 39.7089C82.6104 39.6723 82.5702 39.6504 82.5373 39.6321L82.4459 39.5771L82.3399 39.6211C82.3033 39.6357 82.2594 39.6504 82.2192 39.687C82.0584 39.8261 81.8976 39.9689 81.7367 40.1117L81.4918 40.3313C81.3785 40.4302 81.3712 40.5693 81.4662 40.6828L81.532 40.7634C81.5649 40.8073 81.6015 40.8476 81.6344 40.8878L84.6355 44.3732C84.6684 44.4135 84.7232 44.4757 84.8182 44.4794C84.8182 44.4794 84.8219 44.4794 84.8255 44.4794C84.884 44.4794 84.9425 44.4538 84.9974 44.3989C85.0741 44.3183 85.1618 44.2487 85.2496 44.1755C85.4104 44.0437 85.5786 43.9046 85.7028 43.7142C85.7394 43.6556 85.8198 43.5348 85.7175 43.3884C85.637 43.2749 85.5566 43.1577 85.4652 43.0516L85.4579 43.0552Z" fill="#515151"/>
<path d="M77.769 40.5036C77.5753 40.3132 77.3816 40.1265 77.1878 39.9397C76.9393 39.7018 76.8442 39.7018 76.5993 39.9434C75.8902 40.65 75.181 41.3566 74.4718 42.0632C74.2745 42.2609 74.0771 42.4586 73.8833 42.6563L73.6421 42.9016C73.6055 42.9382 73.5434 43.0004 73.547 43.0956C73.547 43.1359 73.5617 43.1981 73.6274 43.2531C73.7115 43.3263 73.7883 43.4105 73.8687 43.491C74.0076 43.6375 74.1538 43.7912 74.3403 43.9084C74.4097 43.9523 74.4755 43.9706 74.5303 43.9706C74.6181 43.9706 74.6875 43.9304 74.7424 43.8901C74.7789 43.8645 74.8118 43.8315 74.852 43.7912L75.0494 43.5972C75.4771 43.1725 75.9048 42.7478 76.3325 42.3231C76.804 41.8545 77.2756 41.3822 77.7434 40.9136C77.7727 40.888 77.7946 40.855 77.8202 40.8221L77.9043 40.6683L77.8348 40.5768C77.8166 40.5512 77.7983 40.5255 77.78 40.5072L77.769 40.5036Z" fill="#515151"/>
<path d="M81.616 34.1949C81.6891 34.2242 81.7585 34.2644 81.828 34.301C81.8865 34.334 81.945 34.3633 82.0034 34.3926L82.0473 34.4145C82.1643 34.4694 82.2849 34.528 82.4128 34.5646C82.475 34.5829 82.5262 34.5903 82.5737 34.5903C82.7236 34.5903 82.804 34.5024 82.8844 34.3523C82.9392 34.2461 82.9941 34.1436 83.0489 34.0374L84.4818 31.2989C84.5001 31.2623 84.5147 31.2257 84.533 31.1781L84.5732 31.0024L84.5001 30.9328C84.4745 30.9072 84.4416 30.8706 84.3941 30.8449C84.3063 30.801 84.215 30.7534 84.1236 30.7095C83.9737 30.6362 83.8238 30.563 83.6776 30.4825L83.6301 30.4569C83.3925 30.3177 83.2938 30.3946 83.1512 30.6326L81.4844 33.8068C81.4551 33.8617 81.4222 33.9422 81.4551 34.0338C81.4917 34.1326 81.5867 34.1729 81.616 34.1875V34.1949Z" fill="#515151"/>
<path d="M74.1955 33.284C74.7475 33.7013 75.2995 34.1151 75.8514 34.5324L76.7068 35.1695C76.7397 35.1951 76.8018 35.239 76.8823 35.239C76.8932 35.239 76.9078 35.239 76.9188 35.239C76.9627 35.2317 77.0212 35.2061 77.0723 35.1292C77.1308 35.0377 77.2003 34.9498 77.2697 34.8656C77.4086 34.6935 77.5512 34.5178 77.628 34.2835C77.6353 34.2652 77.6828 34.1077 77.5878 34.0162C77.4854 33.9137 77.3831 33.8222 77.2844 33.7453C76.981 33.5146 76.6739 33.2876 76.3668 33.057L74.9924 32.0282C74.9668 32.0062 74.8791 31.944 74.7767 31.9623C74.6707 31.9806 74.6086 32.0685 74.5903 32.0978C74.4697 32.2698 74.3454 32.4383 74.2211 32.6067L73.9141 33.0277L74.0603 33.1668C74.1041 33.2108 74.148 33.251 74.1919 33.2876L74.1955 33.284Z" fill="#515151"/>
<path d="M74.4054 22.6224C74.5005 22.6151 74.5955 22.6151 74.6906 22.6004C74.7893 22.5858 74.8331 22.6297 74.8368 22.7249C74.8478 22.9812 74.8624 23.2375 74.877 23.4937C74.9245 24.4163 74.9757 25.3426 75.0269 26.2652C75.0342 26.43 75.0525 26.5947 75.0598 26.7558C75.0671 26.8656 75.0305 26.9388 74.9026 26.9462C74.7088 26.9608 74.5151 26.9791 74.3214 26.9974C74.2336 27.0048 74.1971 26.9718 74.1934 26.8839C74.1715 26.4666 74.1496 26.0529 74.124 25.6355C74.0765 24.7788 74.0253 23.9257 73.9778 23.069C73.9705 22.9629 73.9705 22.8567 73.9631 22.7469C73.9595 22.67 73.996 22.637 74.0728 22.6334C74.1825 22.6334 74.2921 22.6224 74.4054 22.6151V22.6224Z" fill="#515151"/>
<path d="M73.7987 20.8316C73.7731 20.6156 74.0289 20.3557 74.2446 20.2971C74.4639 20.2349 74.6686 20.2605 74.8441 20.3886C75.1109 20.5827 75.1621 20.9268 74.8989 21.2014C74.6869 21.4247 74.219 21.432 74.0216 21.2673C73.8864 21.1538 73.7913 21.0257 73.7987 20.8316Z" fill="#515151"/>
</g>
<defs>
<clipPath id="clip0_1080_39159">
<rect width="85.4928" height="50" fill="white" transform="translate(0.884766)"/>
</clipPath>
</defs>
</svg>
