<svg width="26" height="26" viewBox="0 0 26 26" fill="none" xmlns="http://www.w3.org/2000/svg">
<g clip-path="url(#clip0_1110_45573)">
<path d="M8.54753 1.4708V1.47083V3.78584C8.54753 4.32247 8.11269 4.75713 7.5767 4.75713C7.04024 4.75713 6.60547 4.3224 6.60547 3.78584V1.47083C6.60547 0.934865 7.04015 0.5 7.5767 0.5C8.11282 0.5 8.54757 0.934786 8.54753 1.4708Z" fill="#FFD4C0" stroke="#5F231B"/>
<path d="M19.3952 1.4708V1.47083V3.78584C19.3952 4.32245 18.9604 4.75713 18.4244 4.75713C17.8879 4.75713 17.4532 4.32243 17.4531 3.78584C17.4531 3.78583 17.4531 3.78582 17.4531 3.78581V1.47083C17.4531 0.934865 17.8878 0.5 18.4244 0.5C18.9605 0.5 19.3953 0.934796 19.3952 1.4708Z" fill="#FFD4C0" stroke="#5F231B"/>
<path d="M3.14742 8.17737H2.64742V8.67737V21.8354C2.64742 23.0168 3.60776 23.9771 4.78913 23.9771H21.2112C22.3925 23.9771 23.3529 23.0168 23.3529 21.8354L23.3529 8.67737L23.3529 8.17737H22.8529H3.14742ZM3.90198 2.59668H4.31223V3.78592C4.31223 5.58641 5.77586 7.05004 7.57631 7.05004C9.3764 7.05004 10.84 5.58636 10.84 3.78592V2.59668H15.1603V3.78592C15.1603 5.58642 16.624 7.05004 18.4244 7.05004C20.2244 7.05004 21.6881 5.58636 21.6881 3.78592V2.59668H22.0983C23.7786 2.59668 25.141 3.95898 25.141 5.63933V22.4574C25.141 24.1378 23.7787 25.5001 22.0983 25.5001H3.90198C2.22162 25.5001 0.859331 24.1378 0.859375 22.4574V5.63933C0.859375 3.95897 2.22163 2.59668 3.90198 2.59668Z" fill="#FFD4C0" stroke="#5F231B"/>
<path d="M11.8289 14.953L11.2363 15.4034L11.8774 15.7817C12.2109 15.9786 12.6002 16.5262 12.6002 17.2954C12.6002 17.9069 12.3821 18.3989 12.0313 18.7386C11.6793 19.0794 11.1633 19.296 10.5179 19.296C9.49675 19.296 8.80753 18.8415 8.53925 18.1627L9.04245 18.0467C9.11975 18.1989 9.23316 18.3679 9.3988 18.518C9.6637 18.7582 10.0336 18.9237 10.5179 18.9237C10.9509 18.9237 11.3512 18.7799 11.6439 18.4837C11.936 18.1882 12.0763 17.7862 12.0763 17.3531C12.0763 16.8824 11.9279 16.4488 11.6109 16.1319C11.2939 15.815 10.8602 15.6668 10.3896 15.6668H10.332V15.3057H10.3665C10.7942 15.3057 11.191 15.1653 11.482 14.8742C11.7731 14.5831 11.9135 14.1864 11.9135 13.7587C11.9135 13.3582 11.7887 12.9806 11.5131 12.7015C11.2368 12.4217 10.8607 12.2933 10.4599 12.2933C10.1268 12.2933 9.80798 12.3782 9.54253 12.5827C9.34954 12.7314 9.20933 12.9244 9.11188 13.1427L8.63775 13.0312C8.87673 12.3873 9.55202 11.9209 10.5066 11.9209C11.1437 11.9209 11.6199 12.1135 11.9328 12.4084C12.2426 12.7005 12.4374 13.135 12.4374 13.7124C12.4374 14.2249 12.2239 14.6529 11.8289 14.953Z" fill="#FFD4C0" stroke="#5F231B"/>
<path d="M17.0207 13.3976V12.4355L16.2334 12.9885L15.6602 13.391V12.9031L16.8381 12.0488H17.5329V19.1682H17.0207V13.3976Z" fill="#FFD4C0" stroke="#5F231B"/>
</g>
<defs>
<clipPath id="clip0_1110_45573">
<rect width="26" height="26" fill="white"/>
</clipPath>
</defs>
</svg>
