<svg width="28" height="26" viewBox="0 0 28 26" fill="none" xmlns="http://www.w3.org/2000/svg">
<g clip-path="url(#clip0_1110_45570)">
<path d="M17.2615 15.6752L17.2617 15.6749C17.4179 15.4028 17.5047 15.0738 17.5048 14.6685L17.2615 15.6752ZM17.2615 15.6752C17.0961 15.9639 16.8666 16.2092 16.5644 16.416C16.2634 16.6203 15.8906 16.7811 15.4379 16.8893C15.2419 16.9353 15.032 16.9691 14.8087 16.9972L14.3712 17.0524V17.4933V18.3486M17.2615 15.6752L14.3712 18.3486M14.3712 18.3486H13.6289V17.5195V17.0564L13.1672 17.0209C12.6941 16.9846 12.2492 16.9163 11.8363 16.8106L11.835 16.8102C11.5758 16.7446 11.2385 16.5638 10.9372 16.3717C10.8219 16.2982 10.7191 16.2277 10.6373 16.1697L11.1676 15.6773C11.2367 15.7277 11.3234 15.7887 11.4211 15.8527C11.6529 16.0044 11.9987 16.2078 12.3321 16.2919C12.8654 16.4268 13.3979 16.496 13.9313 16.496C14.601 16.496 15.195 16.3866 15.6901 16.1383L15.6912 16.1378C15.9569 16.0038 16.1844 15.8189 16.3434 15.5706C16.5036 15.3207 16.5744 15.0375 16.5744 14.7408C16.5744 14.3128 16.4322 13.9235 16.1084 13.6331L16.1083 13.633C15.7889 13.3466 15.3198 13.2199 14.8124 13.1675L14.8124 13.1674L14.8011 13.1665L13.2398 13.0413C12.3705 12.9627 11.7619 12.742 11.3638 12.4297C11.0126 12.154 10.8023 11.7202 10.8023 11.0306C10.8023 10.6639 10.8817 10.355 11.0288 10.0908C11.1847 9.81093 11.397 9.57354 11.6732 9.37653C11.9551 9.17627 12.2893 9.02005 12.681 8.91493L12.6814 8.9148C12.8374 8.87278 13.0082 8.84361 13.2025 8.81471L13.629 8.75131V8.32015V7.65137H14.3713V8.29633V8.75346L14.8266 8.79433C15.2134 8.82905 15.5732 8.88568 15.902 8.96964L15.9023 8.96973C16.1431 9.03103 16.4107 9.16075 16.6326 9.28817C16.6868 9.31928 16.7366 9.34929 16.7807 9.37672L16.3016 9.82857C16.2544 9.80095 16.1988 9.76954 16.1373 9.73665C15.9517 9.63742 15.6815 9.5083 15.4104 9.44253L15.4095 9.44232C14.9513 9.33205 14.4719 9.27528 13.9706 9.27528C13.3233 9.27528 12.7467 9.3873 12.3305 9.69714L12.3304 9.69725C11.9204 10.0027 11.695 10.4292 11.695 10.9401C11.695 11.371 11.8422 11.7659 12.1885 12.0456C12.5123 12.3094 12.9822 12.4287 13.4992 12.4773L13.4992 12.4774L13.5062 12.4779L14.8753 12.5873C14.8754 12.5873 14.8754 12.5874 14.8755 12.5874C15.8415 12.6658 16.4976 12.8997 16.9089 13.2302L16.9095 13.2307C17.2891 13.5347 17.5047 13.9869 17.5048 14.6684L14.3712 18.3486ZM13.129 8.32015V7.65137V8.32015ZM14.8713 8.29633C15.2781 8.33284 15.6651 8.39312 16.0257 8.48519L14.8713 8.29633ZM10.4202 16.3713L10.4203 16.3712L10.4202 16.3713Z" fill="#FFD4C0" stroke="#5F231B"/>
<path d="M25 13C25 7.31312 20.0297 2.75 14 2.75C7.96936 2.75 3 7.31314 3 13C3 18.6869 7.96936 23.25 14 23.25C20.0297 23.25 25 18.6869 25 13ZM0.5 13C0.5 6.13117 6.5083 0.5 14 0.5C21.4908 0.5 27.5 6.13119 27.5 13C27.5 19.8696 21.4909 25.5 14 25.5C6.50828 25.5 0.5 19.8696 0.5 13Z" fill="#FFD4C0" stroke="#5F231B"/>
</g>
<defs>
<clipPath id="clip0_1110_45570">
<rect width="28" height="26" fill="white"/>
</clipPath>
</defs>
</svg>
