<svg width="20" height="20" viewBox="0 0 20 20" fill="none" xmlns="http://www.w3.org/2000/svg">
<g clip-path="url(#clip0_2682_45722)">
<path d="M10 0C4.48609 0 0 4.48609 0 10C0 15.5139 4.48609 20 10 20C15.5139 20 20 15.5139 20 10C20 4.48609 15.5139 0 10 0ZM10 17.5C5.86426 17.5 2.5 14.1357 2.5 10C2.5 5.86426 5.86426 2.5 10 2.5C14.1357 2.5 17.5 5.86426 17.5 10C17.5 14.1357 14.1357 17.5 10 17.5Z" fill="#FD7B46"/>
<path d="M14.48 7.0609C14.0369 7.0609 13.6774 7.42039 13.6774 7.86352C13.6774 8.0802 13.7635 8.27613 13.9032 8.42016C13.357 9.55113 12.3145 9.94543 11.5052 9.58836C10.7849 9.27035 10.5188 8.35973 10.4291 7.65355C10.7227 7.49914 10.9229 7.19152 10.9229 6.83691C10.9229 6.32664 10.5103 5.91406 10 5.91406C9.48981 5.91406 9.07719 6.32668 9.07719 6.83691C9.07719 7.19152 9.27738 7.49914 9.57035 7.65355C9.48125 8.35973 9.21512 9.27039 8.49492 9.58836C7.68621 9.94543 6.64313 9.55113 6.09684 8.42016C6.2366 8.27609 6.32266 8.0802 6.32266 7.86352C6.32266 7.42039 5.96316 7.0609 5.52004 7.0609C5.07691 7.0609 4.7168 7.42039 4.7168 7.86352C4.7168 8.27125 5.02199 8.60816 5.41625 8.65879L5.97535 12.045H14.0247L14.5838 8.65879C14.9781 8.60812 15.2832 8.27121 15.2832 7.86352C15.2832 7.42039 14.9231 7.0609 14.48 7.0609Z" fill="#FD7B46"/>
<path d="M13.5092 12.8418H6.49012C6.16051 12.8418 5.89258 13.1091 5.89258 13.4393V13.4888C5.89258 13.819 6.16051 14.0857 6.49012 14.0857H13.5092C13.8388 14.0857 14.1061 13.819 14.1061 13.4888V13.4393C14.1061 13.1091 13.8388 12.8418 13.5092 12.8418Z" fill="#FD7B46"/>
</g>
<defs>
<clipPath id="clip0_2682_45722">
<rect width="20" height="20" fill="white"/>
</clipPath>
</defs>
</svg>
