<?xml version="1.0" encoding="utf-8"?>
<!-- Generator: Adobe Illustrator 26.5.0, SVG Export Plug-In . SVG Version: 6.00 Build 0)  -->
<svg version="1.1" id="圖層_1" xmlns="http://www.w3.org/2000/svg" xmlns:xlink="http://www.w3.org/1999/xlink" x="0px" y="0px"
	 viewBox="0 0 71 68" style="enable-background:new 0 0 71 68;" xml:space="preserve">
<style type="text/css">
	.st0{fill:#FFFFFF;stroke:#A1D429;stroke-width:2;}
	.st1{fill:#A1D429;}
</style>
<path class="st0" d="M8,16.8C15.5,8.2,25,2.9,38,1.3c13-1.6,22.3,3.4,27,16.4c4.7,13,6.5,22,3.5,32.5c-3,10.5-13.5,16.9-36,16
	c-22.5-0.9-29.6-14-31-23.5C0.2,33.2,1.1,24.7,8,16.8z"/>
<path class="st1" d="M35,27.4c0.7,0,1.3-0.6,1.3-1.3v-3.2c0-0.7-0.6-1.3-1.3-1.3c-0.7,0-1.3,0.6-1.3,1.3v3.2
	C33.7,26.8,34.3,27.4,35,27.4z"/>
<path class="st1" d="M29.9,27.4c0.7,0,1.3-0.6,1.3-1.3v-3.2c0-0.7-0.6-1.3-1.3-1.3c-0.7,0-1.3,0.6-1.3,1.3v3.2
	C28.6,26.8,29.2,27.4,29.9,27.4z"/>
<path class="st1" d="M40.2,27.4c0.7,0,1.3-0.6,1.3-1.3v-3.2c0-0.7-0.6-1.3-1.3-1.3c-0.7,0-1.3,0.6-1.3,1.3v3.2
	C38.8,26.8,39.4,27.4,40.2,27.4z"/>
<path class="st1" d="M45.3,27.4c0.7,0,1.3-0.6,1.3-1.3v-3.2c0-0.7-0.6-1.3-1.3-1.3c-0.7,0-1.3,0.6-1.3,1.3v3.2
	C43.9,26.8,44.5,27.4,45.3,27.4z"/>
<path class="st1" d="M42.3,46.9v5.3l7.3-7.1h-5.5C43.2,45.1,42.3,45.9,42.3,46.9z"/>
<path class="st1" d="M47.9,23.1v3c0,1.4-1.2,2.6-2.6,2.6c-1.2,0-2.3-0.8-2.6-1.9c-0.3,1.1-1.3,1.9-2.6,1.9c-1.2,0-2.3-0.8-2.6-1.9
	c-0.3,1.1-1.3,1.9-2.6,1.9c-1.2,0-2.3-0.8-2.6-1.9c-0.3,1.1-1.3,1.9-2.6,1.9c-1.5,0-2.6-1.2-2.6-2.6v-3h-2.4v25.6
	c0,2.2,1.8,3.9,4,3.9h11.8v-5.8c0-1.9,1.5-3.4,3.5-3.4h6.1V23.1H47.9z M37.3,46.1h-7.5v-2h7.5V46.1z M45.4,40.7H29.8v-2h15.5V40.7z
	 M45.4,35.4H29.8v-2h15.5V35.4z"/>
</svg>
