<?xml version="1.0" encoding="utf-8"?>
<!-- Generator: Adobe Illustrator 26.5.0, SVG Export Plug-In . SVG Version: 6.00 Build 0)  -->
<svg version="1.1" id="圖層_1" xmlns="http://www.w3.org/2000/svg" xmlns:xlink="http://www.w3.org/1999/xlink" x="0px" y="0px"
	 viewBox="0 0 71 68" style="enable-background:new 0 0 71 68;" xml:space="preserve">
<style type="text/css">
	.st0{fill:#FFFFFF;stroke:#A1D429;stroke-width:2;}
	.st1{fill-rule:evenodd;clip-rule:evenodd;fill:#A1D429;}
</style>
<path class="st0" d="M8,16.8C15.5,8.2,25,2.9,38,1.3c13-1.6,22.3,3.4,27,16.4c4.7,13,6.5,22,3.5,32.5c-3,10.5-13.5,16.9-36,16
	c-22.5-0.9-29.6-14-31-23.5C0.2,33.2,1.1,24.7,8,16.8z"/>
<path class="st1" d="M25,34c0-1.6,0.4-3.1,1.2-4.5c0.8-1.4,1.9-2.6,3.3-3.5c1.4-0.9,2.9-1.5,4.6-1.7c1.7-0.2,3.4-0.1,4.9,0.5
	c0.4,0.1,0.8,0.1,1.1-0.1s0.6-0.4,0.8-0.8c0.1-0.4,0.1-0.7-0.1-1.1c-0.2-0.3-0.5-0.6-0.9-0.7c-2.8-0.9-5.8-0.9-8.6-0.1
	c-2.8,0.8-5.2,2.5-6.9,4.7c-1.7,2.2-2.6,4.9-2.5,7.6c0.1,2.7,1.1,5.4,2.9,7.5c1.8,2.1,4.3,3.7,7.2,4.3c2.8,0.7,5.8,0.5,8.5-0.6
	s5-2.9,6.5-5.2c1.5-2.4,2.1-5.1,1.8-7.8c0-0.2-0.1-0.4-0.2-0.5c-0.1-0.2-0.2-0.3-0.4-0.4c-0.2-0.1-0.3-0.2-0.5-0.3
	c-0.2-0.1-0.4-0.1-0.6,0c-0.2,0-0.4,0.1-0.6,0.2c-0.2,0.1-0.3,0.2-0.4,0.4C46.1,32,46,32.2,46,32.4c-0.1,0.2-0.1,0.4-0.1,0.5
	c0.2,1.3,0,2.7-0.4,3.9c-0.4,1.3-1.1,2.5-2,3.5c-0.9,1-2.1,1.8-3.3,2.4c-1.3,0.6-2.7,0.9-4.1,1c-1.4,0.1-2.9-0.1-4.2-0.6
	c-1.3-0.5-2.6-1.2-3.6-2.1c-1-0.9-1.9-2-2.4-3.2C25.3,36.7,25,35.3,25,34z M47.1,26.5c0.3-0.3,0.4-0.6,0.4-1c0-0.4-0.2-0.7-0.5-1
	c-0.3-0.2-0.7-0.4-1.1-0.3c-0.4,0-0.8,0.2-1,0.5l-9.7,10.2l-4.8-3.6c-0.2-0.1-0.3-0.2-0.5-0.3c-0.2-0.1-0.4-0.1-0.6-0.1
	c-0.4,0-0.8,0.2-1,0.5c-0.1,0.1-0.2,0.3-0.3,0.5C28,32.1,28,32.3,28,32.5c0,0.4,0.2,0.7,0.5,0.9l5.9,4.5c0.3,0.2,0.7,0.3,1.1,0.3
	c0.4,0,0.7-0.2,1-0.5L47.1,26.5z"/>
</svg>
