<?xml version="1.0" encoding="utf-8"?>
<!-- Generator: Adobe Illustrator 26.5.0, SVG Export Plug-In . SVG Version: 6.00 Build 0)  -->
<svg version="1.1" id="圖層_1" xmlns="http://www.w3.org/2000/svg" xmlns:xlink="http://www.w3.org/1999/xlink" x="0px" y="0px"
	 viewBox="0 0 71 68" style="enable-background:new 0 0 71 68;" xml:space="preserve">
<style type="text/css">
	.st0{fill:#FFFFFF;stroke:#A1D429;stroke-width:2;}
	.st1{fill:#A1D429;}
</style>
<path class="st0" d="M8,16.8C15.5,8.2,25,2.9,38,1.3c13-1.6,22.3,3.4,27,16.4c4.7,13,6.5,22,3.5,32.5c-3,10.5-13.5,16.9-36,16
	c-22.5-0.9-29.6-14-31-23.5C0.2,33.2,1.1,24.7,8,16.8z"/>
<path class="st1" d="M51.1,22.5H36.2c-0.5,0-0.9,0.4-0.9,0.8v13.3c0,0.5,0.4,0.8,0.9,0.8h14.9c0.5,0,0.9-0.4,0.9-0.8V23.3
	C52,22.9,51.6,22.5,51.1,22.5z"/>
<path class="st1" d="M28,39.8c-1.6,0-2.9,1.3-2.9,2.9c0,1.6,1.3,2.9,2.9,2.9c1.6,0,2.9-1.3,2.9-2.9C31,41.1,29.7,39.8,28,39.8z
	 M28,43.9c-0.7,0-1.3-0.6-1.3-1.3c0-0.7,0.6-1.3,1.3-1.3c0.7,0,1.3,0.6,1.3,1.3C29.4,43.4,28.8,43.9,28,43.9z"/>
<path class="st1" d="M45.4,39.8c-1.6,0-2.9,1.3-2.9,2.9c0,1.6,1.3,2.9,2.9,2.9c1.6,0,2.9-1.3,2.9-2.9C48.4,41.1,47,39.8,45.4,39.8z
	 M45.4,43.9c-0.7,0-1.3-0.6-1.3-1.3c0-0.7,0.6-1.3,1.3-1.3c0.7,0,1.3,0.6,1.3,1.3C46.7,43.4,46.2,43.9,45.4,43.9z"/>
<path class="st1" d="M33.1,26.5h-6.6c-0.2,0-0.4,0.1-0.6,0.3l-4.8,5.5C21,32.4,21,32.6,21,32.8v4.9v2.5c0,0.4,0.3,0.7,0.7,0.7h2.2
	c0.7-1.5,2.3-2.6,4.1-2.6c1.8,0,3.4,1.1,4.1,2.6h1.7V27.2C33.8,26.8,33.5,26.5,33.1,26.5z M23.6,32.8c0-0.2,0.1-0.3,0.2-0.5l3-3.6
	c0.1-0.2,0.4-0.3,0.6-0.3h3c0.4,0,0.8,0.3,0.8,0.7v4.1c0,0.4-0.3,0.7-0.8,0.7h-6c-0.4,0-0.8-0.3-0.8-0.7V32.8z"/>
<path class="st1" d="M35.7,38.9c-0.2,0-0.4,0.2-0.4,0.4v1.2c0,0.2,0.2,0.4,0.4,0.4h5.6c0.4-0.8,1-1.5,1.8-2H35.7z"/>
<path class="st1" d="M51.5,38.9h-3.8c0.8,0.5,1.5,1.2,1.8,2h2c0.2,0,0.4-0.2,0.4-0.4v-1.2C51.9,39,51.7,38.9,51.5,38.9z"/>
</svg>
