<svg width="20" height="18" viewBox="0 0 20 18" fill="none" xmlns="http://www.w3.org/2000/svg">
<path d="M19.4355 0.979492H9.84477C9.53336 0.979492 9.28125 1.24445 9.28125 1.57147V10.8698C9.28125 11.1968 9.53336 11.4618 9.84477 11.4618H19.4355C19.747 11.4618 19.9993 11.1968 19.9993 10.8698V1.57147C19.9993 1.24445 19.747 0.979492 19.4355 0.979492Z" fill="#A1D429"/>
<path d="M4.55883 13.0342C3.51055 13.0342 2.66016 13.9268 2.66016 15.0275C2.66016 16.1288 3.51055 17.0215 4.55883 17.0215C5.60742 17.0215 6.45758 16.1288 6.45758 15.0275C6.45754 13.9268 5.60738 13.0342 4.55883 13.0342ZM4.55883 15.9252C4.08699 15.9252 3.70449 15.5233 3.70449 15.0275C3.70449 14.5324 4.08699 14.1307 4.55883 14.1307C5.0307 14.1307 5.4132 14.5324 5.4132 15.0275C5.4132 15.5233 5.0307 15.9252 4.55883 15.9252Z" fill="#A1D429"/>
<path d="M15.7734 13.0342C14.7252 13.0342 13.875 13.9268 13.875 15.0275C13.875 16.1288 14.7252 17.0215 15.7734 17.0215C16.822 17.0215 17.6721 16.1288 17.6721 15.0275C17.6721 13.9268 16.822 13.0342 15.7734 13.0342ZM15.7734 15.9252C15.3018 15.9252 14.9193 15.5233 14.9193 15.0275C14.9193 14.5324 15.3018 14.1307 15.7734 14.1307C16.2453 14.1307 16.6278 14.5324 16.6278 15.0275C16.6278 15.5233 16.2453 15.9252 15.7734 15.9252Z" fill="#A1D429"/>
<path d="M7.81715 3.77539H3.53523C3.39613 3.77539 3.26348 3.84028 3.17469 3.95303L0.109062 7.81518C0.0385156 7.90341 0 8.01526 0 8.13092V11.5186V13.2901C0 13.5627 0.210508 13.7834 0.469922 13.7834H1.90883C2.36328 12.7211 3.37871 11.9778 4.55793 11.9778C5.73746 11.9778 6.75258 12.7211 7.20676 13.7834H8.28766V4.26877C8.28762 3.99605 8.07684 3.77539 7.81715 3.77539ZM1.71605 8.1817C1.71605 8.06485 1.75426 7.95152 1.82453 7.86096L3.78168 5.33054C3.87387 5.21131 4.01215 5.14228 4.15801 5.14228H6.07496C6.34281 5.14228 6.55949 5.37008 6.55949 5.65132V8.52287C6.55949 8.80378 6.34281 9.03162 6.07496 9.03162H2.20027C1.93301 9.03162 1.71605 8.80382 1.71605 8.52287V8.1817Z" fill="#A1D429"/>
<path d="M9.51223 12.3965C9.36609 12.3965 9.24805 12.5207 9.24805 12.6742V13.5069C9.24805 13.6601 9.36609 13.7843 9.51223 13.7843H13.1242C13.3732 13.2015 13.7911 12.7169 14.3124 12.3965H9.51223Z" fill="#A1D429"/>
<path d="M19.7027 12.3965H17.2344C17.7557 12.717 18.1736 13.2015 18.4226 13.7843H19.7027C19.8489 13.7843 19.9669 13.6601 19.9669 13.5069V12.6742C19.9669 12.5207 19.8489 12.3965 19.7027 12.3965Z" fill="#A1D429"/>
</svg>
