<?xml version="1.0" encoding="utf-8"?>
<!-- Generator: Adobe Illustrator 26.5.0, SVG Export Plug-In . SVG Version: 6.00 Build 0)  -->
<svg version="1.1" id="圖層_1" xmlns="http://www.w3.org/2000/svg" xmlns:xlink="http://www.w3.org/1999/xlink" x="0px" y="0px"
	 viewBox="0 0 71 68" style="enable-background:new 0 0 71 68;" xml:space="preserve">
<style type="text/css">
	.st0{fill:#FFFFFF;stroke:#A1D429;stroke-width:2;}
	.st1{clip-path:url(#SVGID_00000165957176071045878240000011963285357050437264_);}
	.st2{fill:#A1D429;}
</style>
<path class="st0" d="M8,16.8C15.5,8.2,25,2.9,38,1.3c13-1.6,22.3,3.4,27,16.4c4.7,13,6.5,22,3.5,32.5c-3,10.5-13.5,16.9-36,16
	c-22.5-0.9-29.6-14-31-23.5C0.2,33.2,1.1,24.7,8,16.8z"/>
<g>
	<defs>
		<rect id="SVGID_1_" x="21.2" y="18.3" width="30" height="30"/>
	</defs>
	<clipPath id="SVGID_00000042737315818605218800000000221362305816191631_">
		<use xlink:href="#SVGID_1_"  style="overflow:visible;"/>
	</clipPath>
	<g style="clip-path:url(#SVGID_00000042737315818605218800000000221362305816191631_);">
		<path class="st2" d="M51.2,30.5c0-0.3,0-0.5-0.1-0.8l0,0c-0.4-1.1-1.4-1.9-2.5-1.9H41l-2.3-7.1c-0.4-1.1-1.4-1.9-2.5-1.9
			c-1.2,0-2.2,0.8-2.5,1.9l1.2,0.4l-1.2-0.4l-2.3,7.1h-7.5c-1.2,0-2.2,0.7-2.5,1.9l0,0c-0.1,0.3-0.1,0.5-0.1,0.8
			c0,0.8,0.4,1.7,1.1,2.2l0,0l6.1,4.4L26,44.2l0,0c-0.1,0.3-0.1,0.6-0.1,0.8c0,0.8,0.4,1.6,1.1,2.2l0,0c0.5,0.3,1,0.5,1.6,0.5
			c0.6,0,1.1-0.2,1.6-0.5l0,0l6-4.4l6,4.4l0,0c0.5,0.3,1,0.5,1.6,0.5c0.5,0,1.1-0.2,1.6-0.5l0,0c0.7-0.5,1.1-1.3,1.1-2.2
			c0-0.3,0-0.6-0.1-0.8L44,37.1l6.1-4.4l0,0C50.8,32.2,51.2,31.4,51.2,30.5z M48.7,30.7L48.7,30.7l-6.8,4.9
			c-0.4,0.3-0.6,0.9-0.4,1.4l2.6,7.9l0,0.1c0,0.1,0,0.2-0.1,0.2l0,0c0,0-0.1,0-0.1,0c-0.1,0-0.1,0-0.1,0l0,0l-6.7-4.9
			c-0.4-0.3-1-0.3-1.4,0l-6.7,4.9c0,0-0.1,0-0.1,0c-0.1,0-0.1,0-0.1,0c-0.1,0-0.1-0.1-0.1-0.2l0-0.1l0,0L31,37
			c0.2-0.5,0-1.1-0.4-1.4l-6.8-4.9l0,0c-0.1,0-0.1-0.1-0.1-0.2l0-0.1c0-0.1,0.1-0.2,0.2-0.2h8.4c0.5,0,1-0.3,1.2-0.8l2.6-8
			c0-0.1,0.1-0.2,0.2-0.2c0.1,0,0.2,0.1,0.2,0.2l2.6,8c0.2,0.5,0.6,0.8,1.2,0.8h8.4c0.1,0,0.2,0.1,0.2,0.2l0,0.1
			C48.8,30.6,48.7,30.7,48.7,30.7z"/>
	</g>
</g>
</svg>
