<svg width="10" height="12" viewBox="0 0 10 12" fill="none" xmlns="http://www.w3.org/2000/svg">
<path d="M5 12C4.47368 12 5.09632 11.1187 2.50158 9.74791C2.35942 9.67267 2.22148 9.58881 2.08842 9.49674C0.797368 8.60595 0 6.97674 0 5.22307C0 2.3386 2.23842 0 5 0C7.76158 0 10 2.3386 10 5.22251C10 7.15479 9.02947 8.93805 7.50263 9.74567C4.90526 11.1181 5.52632 12 5 12ZM5 7.31721C6.11105 7.31721 7 6.384 7 5.2493C7 4.1146 6.11105 3.1814 5 3.1814C3.88895 3.1814 3 4.1146 3 5.2493C3 6.384 3.88895 7.31721 5 7.31721Z" fill="#909090"/>
</svg>
