<svg width="71" height="67" viewBox="0 0 71 67" fill="none" xmlns="http://www.w3.org/2000/svg">
<path d="M1.20579 30.067L1.42893 30.0797C1.44107 30.0812 1.44106 30.0813 1.44105 30.0814L1.44117 30.0804L1.44172 30.076L1.44601 30.0431C1.45024 30.012 1.45729 29.9623 1.46786 29.8952C1.489 29.761 1.52417 29.557 1.57881 29.2908C1.68809 28.7583 1.8751 27.9779 2.18307 27.0107C2.79913 25.076 3.89793 22.3982 5.8241 19.4636C9.66566 13.6109 16.836 6.67737 30.1831 2.60165L30.1832 2.60161C34.5568 1.26546 39.4554 0.815448 44.0439 1.06631L1.20579 30.067ZM1.20579 30.067L1.43881 30.0981C-0.448539 44.1974 4.0675 52.454 8.93627 57.2004C11.3899 59.5924 13.9622 61.1203 15.9209 62.0492C16.8992 62.5132 17.7209 62.8261 18.2928 63.0217C18.5786 63.1195 18.8017 63.1878 18.9502 63.2309C19.0244 63.2524 19.0799 63.2676 19.1154 63.2771L19.1532 63.287L19.1597 63.2887L19.1605 63.2889L19.1607 63.2889L19.1611 63.289L19.2077 63.3005L19.2542 63.3169C22.6369 64.5114 26.1759 65.2688 29.7617 65.6473L29.6567 66.6418L29.7618 65.6473C38.7414 66.5956 48.3385 65.6525 56.8051 62.5661C66.8764 58.894 70.6248 48.5674 69.9173 38.3252C69.68 34.8991 69.1342 31.4928 68.3318 28.1428C67.1745 23.312 65.5009 18.4889 63.3842 13.985L1.20579 30.067ZM55.0164 3.94212L55.0162 3.94204C51.7189 2.10624 47.8944 1.27726 44.044 1.06632L55.0164 3.94212ZM55.0164 3.94212C58.8827 6.09388 61.4621 9.89573 63.3842 13.985L55.0164 3.94212Z" fill="white" stroke="#DDDDDD" stroke-width="2"/>
<g clip-path="url(#clip0_1110_45517)">
<path d="M51.0001 31.2471C51.0001 30.9745 50.9581 30.698 50.8717 30.4296L50.8713 30.4288C50.5152 29.3243 49.4885 28.5763 48.3281 28.5759H40.8271L38.5437 21.4663C38.1885 20.3614 37.1615 19.6117 36.0002 19.6113C34.838 19.6117 33.8116 20.3614 33.4564 21.4659L34.611 21.8372L33.4564 21.4663L31.173 28.5759H23.672C22.5117 28.5763 21.4849 29.3243 21.1286 30.4288L21.1283 30.4296C21.042 30.698 21 30.9745 21 31.2471C20.9996 32.0912 21.4014 32.9066 22.1146 33.4186L22.114 33.4178L28.1903 37.7802L25.8513 44.8812L25.8517 44.88C25.7609 45.1547 25.7168 45.4375 25.7168 45.7173C25.7164 46.5563 26.1138 47.3658 26.8173 47.8782L26.8182 47.8787C27.2855 48.2179 27.8388 48.3894 28.3887 48.389C28.9419 48.3894 29.4987 48.2166 29.9675 47.8732L29.9679 47.8727L36.0002 43.4522L42.0319 47.8727L42.0332 47.8732C42.5014 48.2162 43.0581 48.3894 43.6114 48.389C44.1606 48.3894 44.7144 48.2183 45.1819 47.8787L45.1826 47.8782C45.8866 47.3654 46.2841 46.5559 46.2833 45.7165C46.2833 45.4375 46.2399 45.1552 46.1495 44.8812L43.81 37.7801L49.8858 33.4177L49.8853 33.4181C50.598 32.9066 51.0005 32.0912 51.0001 31.2471ZM48.4719 31.4473H48.4714L41.6722 36.3292C41.2407 36.639 41.0616 37.1897 41.2277 37.6938L43.8459 45.6397L43.8577 45.7164C43.8577 45.7939 43.8214 45.869 43.755 45.917L43.7559 45.9166C43.7116 45.9486 43.6636 45.9629 43.6113 45.9633C43.5589 45.9629 43.5096 45.9482 43.4645 45.9158L43.4653 45.9162L36.7171 40.9706C36.2915 40.6587 35.709 40.6587 35.2833 40.9706L28.5347 45.9158C28.4903 45.9482 28.4414 45.9629 28.3887 45.9633C28.3367 45.9629 28.2882 45.9486 28.244 45.9162C28.1783 45.8681 28.1426 45.7939 28.1422 45.7172L28.1546 45.641L28.155 45.6397L30.7724 37.6938C30.9384 37.1893 30.7591 36.639 30.3275 36.3292L23.5285 31.4473L23.5281 31.4469C23.4625 31.4009 23.4259 31.3255 23.4254 31.2471L23.4372 31.1725C23.4699 31.0701 23.5658 31.001 23.6719 31.0014H32.0573C32.5847 31.0014 33.0507 30.6613 33.2119 30.159L35.7657 22.2076C35.7981 22.106 35.894 22.0365 36.0002 22.0369C36.1059 22.0365 36.202 22.106 36.2347 22.208L38.7881 30.159C38.9491 30.6613 39.4154 31.0014 39.9428 31.0014H48.3281C48.4343 31.001 48.5302 31.0701 48.5626 31.1725L48.5745 31.2471C48.574 31.3255 48.5378 31.4005 48.4719 31.4473Z" fill="#DDDDDD"/>
</g>
<defs>
<clipPath id="clip0_1110_45517">
<rect width="30" height="30" fill="white" transform="translate(21 19)"/>
</clipPath>
</defs>
</svg>
