<svg width="42" height="43" viewBox="0 0 42 43" fill="none" xmlns="http://www.w3.org/2000/svg">
<path d="M1 41L11.2941 14L29 30.9254L1 41Z" fill="#FFD4C0"/>
<path d="M24.3531 17.836C24.075 17.836 23.7981 17.6939 23.6295 17.4656C23.3548 17.0919 23.3905 16.5838 23.7155 16.2571C24.1655 15.805 24.7294 15.5946 25.4898 15.5946C25.5545 15.5946 25.6193 15.5957 25.6852 15.5991C25.9163 15.6092 26.153 15.6394 26.4043 15.6718C26.5271 15.6875 26.6544 15.7032 26.7862 15.7177C26.7984 15.7188 26.8107 15.7199 26.823 15.7199C26.9123 15.7199 26.9983 15.6841 27.062 15.6192C27.1334 15.5454 27.168 15.4435 27.1558 15.3417L27.1491 15.2902C27.005 14.1656 26.8699 13.1037 27.6917 12.2745C28.1529 11.8101 28.6989 11.6031 29.4627 11.6031C29.8836 11.6031 30.3392 11.6669 30.7702 11.7318C30.787 11.734 30.8037 11.7351 30.8205 11.7351C30.9076 11.7351 30.9924 11.7016 31.055 11.6389C31.1298 11.565 31.1666 11.4598 31.1521 11.3547C30.9913 10.1428 30.8517 9.09536 31.6993 8.25722C32.1548 7.80626 32.6964 7.60595 33.4568 7.60595C33.8867 7.60595 34.3546 7.66974 34.7666 7.72681C34.7822 7.72904 34.7967 7.73016 34.8124 7.73016C34.9017 7.73016 34.9877 7.69435 35.0513 7.63057C35.125 7.5556 35.1596 7.44929 35.144 7.34522C34.9497 6.05276 34.8738 5.07474 35.6822 4.27016C36.1456 3.80913 36.6883 3.60323 37.442 3.60323C37.863 3.60323 38.3174 3.66925 38.7462 3.73975C38.7641 3.74311 38.783 3.74423 38.8009 3.74423C38.8869 3.74423 38.9706 3.71066 39.0332 3.65023C39.1091 3.57638 39.1459 3.47119 39.1325 3.366L39.1002 3.12429C39.0789 2.96092 39.0577 2.80649 39.0399 2.65319C38.9494 1.89673 39.0253 1.30925 39.2788 0.802334C39.4642 0.433059 39.7255 0.17009 40.0783 0H40.5116C40.8957 0.195828 41.1089 0.38718 41.1804 0.598674C41.2597 0.833667 41.1882 1.16154 40.9537 1.63041C40.8041 1.9303 40.8443 2.29398 40.8767 2.58716L40.8812 2.62857C40.9068 2.86244 40.9482 3.09296 40.9895 3.31564C41.0431 3.61442 41.0944 3.89529 41.1078 4.17617C41.1324 4.67301 41.014 5.07362 40.765 5.33547C40.5283 5.58501 40.1632 5.71593 39.7087 5.71593C39.6641 5.71593 39.6183 5.71481 39.5725 5.71258C39.2062 5.69243 38.8411 5.62529 38.4559 5.55368C38.2906 5.52346 38.1265 5.49213 37.9612 5.46527C37.7848 5.43618 37.6497 5.42275 37.5369 5.42275C37.4442 5.42275 37.1595 5.42275 36.9764 5.6432C36.7754 5.88379 36.8178 6.23068 36.877 6.56639C36.9004 6.69955 36.9261 6.83271 36.9507 6.96587C37.0188 7.32844 37.0903 7.70219 37.1282 8.06699C37.1818 8.57614 37.0713 8.99801 36.8111 9.28895C36.5621 9.56647 36.1813 9.71194 35.7101 9.71194C35.6811 9.71194 35.6509 9.71194 35.6219 9.7097C35.2702 9.69627 34.9196 9.63361 34.5489 9.56871C34.3311 9.52954 34.1056 9.49038 33.88 9.46128C33.7181 9.44002 33.6031 9.43107 33.507 9.43107C33.3541 9.43107 33.133 9.45233 32.98 9.63249C32.7991 9.84622 32.8282 10.1405 32.8817 10.4762C32.9164 10.6911 32.9566 10.9059 32.9956 11.1141C33.0403 11.3502 33.085 11.593 33.1218 11.8314C33.2134 12.4423 33.1107 12.9414 32.8226 13.2771C32.568 13.5737 32.1705 13.7314 31.6725 13.7314C31.5396 13.7314 31.4 13.7203 31.256 13.6979C31.0248 13.6621 30.7881 13.6184 30.5603 13.5748C30.2901 13.5244 30.0121 13.4718 29.7318 13.4316C29.6413 13.4181 29.5643 13.4125 29.4962 13.4125C29.2874 13.4125 29.1255 13.4752 29.0138 13.5994C28.8485 13.784 28.8519 14.0414 28.8742 14.2451C28.901 14.4935 28.9457 14.7374 28.9881 14.9736C29.0261 15.1795 29.0607 15.373 29.0853 15.57C29.121 15.852 29.1545 16.1843 29.1355 16.5077C29.0964 17.1691 28.6677 17.6346 28.068 17.667C27.9954 17.6704 27.924 17.6726 27.8514 17.6726C27.3824 17.6726 26.89 17.5976 26.4132 17.526C26.3272 17.5126 26.2413 17.5003 26.1553 17.488C25.9989 17.4656 25.8326 17.4443 25.664 17.4443C25.3267 17.4443 25.0442 17.5294 24.774 17.7107C24.6512 17.7924 24.506 17.836 24.3531 17.836Z" fill="#5F231B"/>
<path d="M0.89336 42.2115C0.658872 42.2115 0.453415 42.1164 0.264707 41.9228C-0.0155624 41.6352 -0.071393 41.3051 0.0882826 40.8833C0.329471 40.2488 0.565076 39.6132 0.801798 38.9764C0.943608 38.5937 1.08653 38.2099 1.22946 37.8272C4.34369 29.504 7.45904 21.1807 10.5744 12.8564L10.5956 12.7993C10.6358 12.6908 10.6738 12.5889 10.7184 12.4938C10.8803 12.1492 11.1896 11.9421 11.5458 11.9421C11.7669 11.9421 11.9802 12.0238 12.1645 12.1771C12.237 12.2387 12.3085 12.3103 12.3833 12.3864L15.0408 15.0496C19.8557 19.8737 24.8335 24.8612 29.7221 29.7759C29.894 29.9493 30.028 30.1787 30.1341 30.3645C30.1576 30.4059 30.1799 30.444 30.2011 30.4786C30.1899 31.0214 29.9767 31.3448 29.5188 31.5193C28.4246 31.9367 27.3091 32.3552 26.2315 32.7592L25.0312 33.209L1.64037 42C1.53541 42.0392 1.42933 42.0806 1.32437 42.1209C1.1714 42.1813 1.02624 42.2115 0.89336 42.2115ZM4.41292 35.1875C4.39841 35.1875 4.38501 35.1886 4.37049 35.1897C4.24767 35.2054 4.1427 35.2882 4.09916 35.4057L2.75029 39.0246C2.70451 39.1477 2.73466 39.2864 2.82733 39.3793C2.89098 39.4431 2.97696 39.4778 3.06406 39.4778C3.10314 39.4778 3.14334 39.4711 3.1813 39.4565L6.25869 38.2983C6.35583 38.2614 6.43064 38.1819 6.46079 38.0835C6.49094 37.9839 6.47419 37.8765 6.41501 37.7914L4.68649 35.3296C4.62396 35.2401 4.52124 35.1875 4.41292 35.1875ZM8.63819 24.0186C8.51983 24.0186 8.40928 24.0812 8.34898 24.1853C8.32777 24.2222 8.30879 24.2513 8.29315 24.2771C8.2563 24.3364 8.22169 24.3912 8.19601 24.4617L7.96487 25.0783C7.11289 27.3499 6.23189 29.6987 5.37656 32.0139C5.28723 32.2568 5.33636 32.5544 5.42569 32.7413C6.13809 34.2397 7.0794 35.6854 8.22504 37.0383C8.32777 37.1592 8.49526 37.3203 8.75766 37.3203C8.85369 37.3203 8.95419 37.2979 9.06473 37.2532C9.4857 37.0808 9.92229 36.9186 10.3444 36.7608C10.4862 36.7082 10.6269 36.6556 10.7687 36.603C11.4822 36.3345 12.1968 36.067 12.9327 35.7917L13.9521 35.4101C14.0549 35.3721 14.1319 35.2859 14.1587 35.1796C14.1855 35.0733 14.1598 34.9603 14.0884 34.8775C11.423 31.7689 9.7481 28.3055 8.9687 24.2916C8.94191 24.154 8.83359 24.0477 8.69513 24.0242C8.67504 24.0197 8.65605 24.0186 8.63819 24.0186ZM12.045 14.7923C12.0215 14.7923 11.9981 14.7945 11.9735 14.8001C11.8618 14.8247 11.7703 14.9042 11.7312 15.0105C11.6307 15.2813 11.5302 15.5476 11.432 15.8095C11.1673 16.5144 10.9183 17.1803 10.6738 17.8573C10.5833 18.109 10.5241 18.381 10.4962 18.6652C10.3399 20.3023 10.4248 21.9808 10.7586 23.7981C11.4766 27.7113 13.1996 31.1859 15.8794 34.1233C16.0581 34.3191 16.249 34.4153 16.4634 34.4153C16.5807 34.4153 16.699 34.3874 16.8375 34.3269C17.0831 34.2195 17.3333 34.13 17.5979 34.0349C17.7296 33.9879 17.8603 33.9409 17.9909 33.8916C18.9244 33.5403 19.8568 33.1878 20.7925 32.8353L21.8098 32.4515C21.9047 32.4157 21.9784 32.3384 22.0096 32.2411C22.0409 32.1449 22.0275 32.0385 21.9717 31.9535C21.8209 31.723 21.6691 31.4958 21.5194 31.2709C21.1934 30.783 20.8852 30.322 20.5993 29.8408C18.9188 27.0041 17.905 23.9391 17.5856 20.7309C17.5443 20.3157 17.3846 19.9856 17.082 19.6936C16.4589 19.0904 15.837 18.4626 15.2351 17.8561C15.004 17.6234 14.7729 17.3895 14.5406 17.1568L12.2828 14.8907C12.2192 14.827 12.1332 14.7923 12.045 14.7923ZM20.2878 23.2062C20.2286 23.2062 20.1694 23.2218 20.117 23.2532C19.9852 23.3315 19.9238 23.4904 19.9673 23.637C19.9986 23.741 20.0299 23.8496 20.0611 23.9615C20.136 24.2189 20.213 24.4863 20.3001 24.7549C21.0594 27.0869 22.2062 29.2276 23.7069 31.1187C23.8185 31.2586 24.0731 31.4667 24.3188 31.4667C24.3679 31.4667 24.4148 31.4589 24.4595 31.4432C25.1462 31.2049 25.824 30.9475 26.4783 30.698C26.6637 30.6275 26.8479 30.557 27.0299 30.4887C27.136 30.4484 27.2153 30.3567 27.2387 30.2448C27.2622 30.1329 27.2287 30.0176 27.1483 29.937L20.5234 23.3035C20.4609 23.2397 20.3749 23.2062 20.2878 23.2062Z" fill="#5F231B"/>
<path d="M29.6764 23.1512C29.5625 23.1512 29.4475 23.1277 29.3258 23.0796C28.9863 22.9464 28.8043 22.6935 28.7697 22.3075C28.744 22.0199 28.839 21.7748 29.0589 21.5577C31.4641 19.1832 34.0346 17.8706 36.9165 17.5438C37.1789 17.5136 37.4413 17.5024 37.7183 17.4901C37.8478 17.4845 37.9773 17.4789 38.1057 17.4711C38.1526 17.4689 38.1962 17.4565 38.2352 17.4364C38.4184 17.4621 38.6004 17.4868 38.7835 17.5114C39.3217 17.583 39.8789 17.6568 40.4126 17.7687C40.7286 17.8348 40.9676 17.9881 41.1061 18.2119C41.2322 18.4167 41.2624 18.6651 41.1932 18.9303C41.0848 19.341 40.7543 19.5771 40.2865 19.5771C40.1748 19.5771 40.0587 19.5637 39.9381 19.5368C39.2837 19.3924 38.6238 19.3186 37.9784 19.3186C36.2533 19.3186 34.546 19.84 32.9034 20.8684C32.2089 21.3037 31.5758 21.8408 30.9639 22.3612C30.7707 22.5257 30.5764 22.6902 30.3821 22.8513C30.1342 23.0516 29.9042 23.1512 29.6764 23.1512Z" fill="#5F231B"/>
<path d="M19.8939 13.389C19.6695 13.389 19.4573 13.2961 19.2809 13.1204C18.9158 12.7568 18.9415 12.2028 19.3423 11.7407L19.5567 11.4945C20.0704 10.9059 20.6007 10.2972 21.0485 9.63582C22.4286 7.59026 23.0126 5.40146 22.786 3.12762C22.7558 2.82213 22.691 2.52447 22.6296 2.23688C22.614 2.16638 22.5995 2.09589 22.585 2.02651C22.4834 1.5375 22.7469 1.06639 23.198 0.930991C23.2895 0.903016 23.3845 0.889587 23.4805 0.889587C23.8222 0.889587 24.2108 1.07311 24.3112 1.48267C24.4564 2.08022 24.5524 2.70799 24.6462 3.3145C24.6853 3.57299 24.7255 3.83148 24.7691 4.08885C24.6261 7.26238 23.4034 10.061 21.0306 12.6449C20.9279 12.7568 20.814 12.8754 20.6633 13.0287C20.431 13.2592 20.1574 13.389 19.8939 13.389Z" fill="#5F231B"/>
<path d="M36.7655 26.7121C36.5266 26.7121 36.2977 26.6147 36.1212 26.439C35.9448 26.2622 35.8477 26.0328 35.8477 25.7922C35.8477 25.2999 36.2653 24.8802 36.7599 24.8769C37.2702 24.8769 37.6677 25.2719 37.6744 25.7777C37.68 26.2969 37.2993 26.6998 36.789 26.7121H36.7655Z" fill="#5F231B"/>
<path d="M17.2561 7.16722C16.7525 7.15938 16.346 6.74311 16.3516 6.23843C16.3561 5.736 16.7592 5.3421 17.2684 5.3421C17.5274 5.34434 17.7586 5.44169 17.9294 5.61514C18.0969 5.78635 18.1873 6.01463 18.184 6.25858C18.1773 6.75094 17.7586 7.16722 17.2706 7.16722H17.2561Z" fill="#5F231B"/>
<path d="M29.6775 5.38021C29.1728 5.38021 28.7708 4.98632 28.7619 4.48276C28.7574 4.23993 28.849 4.00942 29.0187 3.83485C29.1895 3.65916 29.4173 3.55957 29.663 3.55621H29.6797C30.18 3.55621 30.5775 3.95234 30.5831 4.45702C30.5898 4.97736 30.2057 5.37461 29.6909 5.38133L29.6775 5.38021Z" fill="#5F231B"/>
<path d="M38.5368 14.2685C38.2933 14.2673 38.0644 14.17 37.8925 13.9965C37.7205 13.8231 37.6267 13.5937 37.6289 13.3497C37.6323 12.8473 38.0421 12.4377 38.5423 12.4377C39.0504 12.4411 39.4568 12.854 39.4546 13.3587C39.4524 13.86 39.0426 14.2673 38.5435 14.2673H38.5368V14.2685Z" fill="#5F231B"/>
</svg>
