<svg width="28" height="26" viewBox="0 0 28 26" fill="none" xmlns="http://www.w3.org/2000/svg">
<path d="M14 9.49537C14.6917 8.32468 16.0261 7.54725 17.5248 7.54725C19.7128 7.54725 21.5504 9.20324 21.5504 11.3211C21.5504 12.2551 21.3135 13.5917 20.3906 14.9746C19.4665 16.3591 17.8764 17.7576 15.2222 18.8482C15.049 18.9197 14.795 19.0151 14.5901 19.0906C14.4864 19.1288 14.3931 19.1628 14.3257 19.1871L14.2458 19.2159L14.224 19.2238L14.2233 19.224C14.1522 19.2512 14.0765 19.2653 14 19.2653C13.9235 19.2653 13.8478 19.2512 13.7767 19.224L13.776 19.2238L13.7542 19.2159L13.6743 19.1871C13.6069 19.1628 13.5136 19.1288 13.4099 19.0906C13.2052 19.0152 12.9513 18.9198 12.7782 18.8483M14 9.49537C13.3082 8.32466 11.9736 7.54725 10.4744 7.54725C8.2863 7.54725 6.44876 9.20325 6.44876 11.3211C6.44876 12.2552 6.68587 13.5918 7.60903 14.9746C8.53332 16.3592 10.1238 17.7578 12.7782 18.8483M14 9.49537C13.894 9.67483 13.803 9.86354 13.7289 10.0601L14 9.49537ZM12.7782 18.8483C12.778 18.8482 12.7778 18.8482 12.7777 18.8481L12.9686 18.386L12.7786 18.8485C12.7785 18.8484 12.7783 18.8484 12.7782 18.8483ZM0.5 13C0.5 6.13117 6.5083 0.5 14 0.5C21.4908 0.5 27.5 6.13119 27.5 13C27.5 19.8688 21.4908 25.5 14 25.5C6.5083 25.5 0.5 19.8688 0.5 13Z" fill="#FFD4C0" stroke="#5F231B"/>
</svg>
