<svg width="21" height="26" viewBox="0 0 21 26" fill="none" xmlns="http://www.w3.org/2000/svg">
<path d="M17.5 7C17.5 10.5579 14.399 13.5 10.5 13.5C6.60096 13.5 3.5 10.5579 3.5 7C3.5 3.44208 6.60096 0.5 10.5 0.5C14.399 0.5 17.5 3.44208 17.5 7Z" fill="#FFD4C0" stroke="#5F231B"/>
<path d="M15.8456 15.2862C11.1683 17.3873 7.16677 16.4485 5.16882 15.4273C4.73675 15.2064 4.19118 15.2541 3.8599 15.6087C-3.51527 23.5021 5.08415 25.5 10.4488 25.5C23.3945 25.5 20.4278 18.8074 16.9401 15.4484C16.6493 15.1684 16.2139 15.1208 15.8456 15.2862Z" fill="#FFD4C0" stroke="#5F231B" stroke-linejoin="round"/>
</svg>
