<svg width="20" height="26" viewBox="0 0 20 26" fill="none" xmlns="http://www.w3.org/2000/svg">
<g clip-path="url(#clip0_1110_45561)">
<path d="M17.239 6.73634C17.239 10.1176 14.0648 12.9727 9.99934 12.9727C5.9333 12.9727 2.75977 10.1177 2.75977 6.73634C2.75977 3.35603 5.93335 0.5 9.99934 0.5C14.0648 0.5 17.239 3.35605 17.239 6.73634Z" fill="#FFD4C0" stroke="#5F231B"/>
<path d="M19.4209 20.056C19.2658 19.2478 18.7803 18.2383 18.1544 17.2656C17.5328 16.2993 16.8056 15.4199 16.214 14.8715L16.2139 14.8714C16.1785 14.8386 16.099 14.8031 15.9521 14.8081C15.8043 14.8131 15.6816 14.8571 15.653 14.8725L15.6523 14.8729C14.0024 15.7582 12.0692 16.2729 9.99996 16.2729C7.93081 16.2729 5.99756 15.7582 4.34772 14.8729L4.34696 14.8725C4.31843 14.8571 4.19576 14.8131 4.04788 14.8081C3.90101 14.8031 3.82144 14.8386 3.78602 14.8714L3.78597 14.8715C3.19443 15.4199 2.46725 16.2993 1.84558 17.2656C1.21972 18.2383 0.734194 19.2478 0.579082 20.056L19.4209 20.056ZM19.4209 20.056C19.6119 21.0534 19.4462 21.8567 19.0428 22.5153C18.6327 23.1849 17.9512 23.7458 17.0456 24.1964C15.2256 25.1019 12.6243 25.4997 10 25.4997C7.37572 25.4997 4.77445 25.1019 2.95447 24.1964M19.4209 20.056L2.95447 24.1964M2.95447 24.1964C2.04888 23.7458 1.36734 23.1849 0.957219 22.5153M2.95447 24.1964L0.957219 22.5153M0.957219 22.5153C0.553794 21.8567 0.388166 21.0535 0.579046 20.0562L0.957219 22.5153Z" fill="#FFD4C0" stroke="#5F231B"/>
</g>
<defs>
<clipPath id="clip0_1110_45561">
<rect width="20" height="26" fill="white"/>
</clipPath>
</defs>
</svg>
