<svg width="55" height="53" viewBox="0 0 55 53" fill="none" xmlns="http://www.w3.org/2000/svg">
<path d="M18.9393 41.7332L21.6715 39.4407L23.4358 40.6699L24.0605 41.1051L24.0607 41.1048L24.4449 41.3722L28.3167 44.068L28.3172 44.0683C28.4223 44.1415 28.486 44.2575 28.4913 44.384L28.4914 44.3863C28.4971 44.5149 28.4431 44.6381 28.3447 44.7207L25.8188 46.8401C25.6685 46.9662 25.4499 46.9681 25.2979 46.8457L25.2976 46.8455L18.9393 41.7332ZM24.6801 37.5587C24.7509 37.8198 24.7905 38.07 24.8036 38.3067L24.8038 38.3099C24.8322 38.7853 24.7594 39.2197 24.6262 39.5987L24.2684 39.4749L24.2933 39.4391L24.6801 37.5587Z" fill="#FFD4C0" stroke="#5F231B" stroke-width="1.5"/>
<mask id="path-2-inside-1_4393_59940" fill="white">
<path d="M20.9282 11.364C20.217 11.9608 20.0892 14.135 20.0096 15.0443C19.9405 15.8337 19.3822 22.037 10.8042 29.2348L19.2237 39.2688C27.8017 32.0711 34.0078 32.5984 34.798 32.6685C35.7065 32.747 37.8699 32.9987 38.5811 32.4019C39.2912 31.8061 39.3839 30.7459 38.7881 30.0358L23.2943 11.571C22.6985 10.861 21.6383 10.7682 20.9282 11.364Z"/>
</mask>
<path d="M20.9282 11.364C20.217 11.9608 20.0892 14.135 20.0096 15.0443C19.9405 15.8337 19.3822 22.037 10.8042 29.2348L19.2237 39.2688C27.8017 32.0711 34.0078 32.5984 34.798 32.6685C35.7065 32.747 37.8699 32.9987 38.5811 32.4019C39.2912 31.8061 39.3839 30.7459 38.7881 30.0358L23.2943 11.571C22.6985 10.861 21.6383 10.7682 20.9282 11.364Z" fill="#FFD4C0"/>
<path d="M20.0096 15.0443L18.5153 14.9135L18.5153 14.9136L20.0096 15.0443ZM10.8042 29.2348L9.83997 28.0858L8.6909 29.0499L9.65508 30.199L10.8042 29.2348ZM19.2237 39.2688L18.0746 40.233L19.0388 41.3821L20.1879 40.4179L19.2237 39.2688ZM34.798 32.6685L34.6654 34.1626L34.6689 34.1629L34.798 32.6685ZM23.2943 11.571L24.4434 10.6069L23.2943 11.571ZM19.964 10.215C19.4912 10.6117 19.2369 11.1481 19.0913 11.5363C18.9334 11.9572 18.8289 12.4119 18.7554 12.8231C18.6095 13.6394 18.5515 14.5005 18.5153 14.9135L21.5039 15.1752C21.5473 14.6789 21.5929 13.9982 21.7086 13.3509C21.7659 13.0302 21.8317 12.7726 21.9003 12.5896C21.9812 12.3739 22.0095 12.4147 21.8923 12.5131L19.964 10.215ZM18.5153 14.9136C18.4743 15.3817 18.0601 21.1883 9.83997 28.0858L11.7683 30.3839C20.7044 22.8857 21.4067 16.2857 21.5039 15.175L18.5153 14.9136ZM9.65508 30.199L18.0746 40.233L20.3728 38.3047L11.9532 28.2706L9.65508 30.199ZM20.1879 40.4179C28.4082 33.5202 34.1983 34.1212 34.6654 34.1626L34.9306 31.1744C33.8172 31.0755 27.1951 30.6219 18.2595 38.1198L20.1879 40.4179ZM34.6689 34.1629C35.0801 34.1985 35.9386 34.2905 36.7673 34.2884C37.1848 34.2874 37.6506 34.2634 38.0925 34.181C38.5001 34.105 39.0725 33.9477 39.5452 33.551L37.6169 31.2529C37.7341 31.1545 37.7694 31.1896 37.5428 31.2318C37.3507 31.2676 37.0856 31.2876 36.7598 31.2884C36.1018 31.2901 35.4244 31.217 34.9271 31.1741L34.6689 34.1629ZM39.5452 33.551C40.89 32.4226 41.0654 30.4162 39.9371 29.0716L37.639 31C37.7023 31.0755 37.6923 31.1896 37.6169 31.2529L39.5452 33.551ZM39.9371 29.0716L24.4434 10.6069L22.1452 12.5352L37.639 31L39.9371 29.0716ZM24.4434 10.6069C23.3151 9.26224 21.3087 9.08658 19.964 10.215L21.8923 12.5131C21.9678 12.4498 22.0819 12.4598 22.1452 12.5352L24.4434 10.6069Z" fill="#5F231B" mask="url(#path-2-inside-1_4393_59940)"/>
<path d="M9.40144 38.9619C7.50595 36.7029 7.62677 33.4235 9.57264 31.3107L16.9662 40.1219C14.5475 41.6713 11.2969 41.2208 9.40144 38.9619Z" fill="#FFD4C0" stroke="#5F231B" stroke-width="1.5"/>
<path d="M30.5 18.0486L33.6602 21.8148C34.6996 20.9426 34.8362 19.392 33.9632 18.3516C33.0902 17.3112 31.5394 17.1764 30.5 18.0486Z" fill="#5F231B"/>
<path d="M42.7756 9.89618L37.707 14.1492L38.5324 15.1328L43.6009 10.8798L42.7756 9.89618Z" fill="#5F231B"/>
<path d="M36.0036 4.27139L34.7799 3.88547L32.6343 10.6946L33.861 11.0798L36.0036 4.27139Z" fill="#5F231B"/>
<path d="M41.3929 21.1325L48.472 20.2029L48.3036 18.9297L41.2275 19.8586L41.3929 21.1325Z" fill="#5F231B"/>
</svg>
