<svg width="25" height="22" viewBox="0 0 25 22" fill="none" xmlns="http://www.w3.org/2000/svg">
<path fill-rule="evenodd" clip-rule="evenodd" d="M4.10074 11.0002C4.10034 9.77074 4.42111 8.55907 5.03621 7.46654C5.65132 6.37401 6.54288 5.43238 7.63631 4.72041C8.72975 4.00844 9.99328 3.54682 11.3212 3.37418C12.6491 3.20154 14.0029 3.32289 15.2691 3.72809C15.5697 3.82407 15.8996 3.80666 16.1862 3.67969C16.4728 3.55271 16.6926 3.32658 16.7973 3.05104C16.902 2.77549 16.8831 2.4731 16.7445 2.21039C16.606 1.94768 16.3593 1.74617 16.0587 1.65019C13.8476 0.943043 11.4455 0.913904 9.2147 1.56716C6.98388 2.22042 5.04514 3.52067 3.69069 5.27194C2.33625 7.02322 1.6395 9.13061 1.70546 11.2765C1.77142 13.4224 2.59651 15.4905 4.05638 17.169C5.51625 18.8476 7.53178 20.0457 9.7992 20.5828C12.0666 21.1199 14.463 20.9668 16.6273 20.1467C18.7915 19.3265 20.6063 17.8837 21.7981 16.0358C22.9899 14.1878 23.4941 12.0348 23.2347 9.90129C23.2174 9.7577 23.1694 9.61865 23.0934 9.49207C23.0175 9.36549 22.9151 9.25387 22.792 9.16357C22.669 9.07328 22.5278 9.00608 22.3765 8.96581C22.2251 8.92554 22.0666 8.91299 21.9099 8.92888C21.7533 8.94477 21.6016 8.98879 21.4635 9.05842C21.3254 9.12805 21.2037 9.22193 21.1052 9.33469C21.0067 9.44746 20.9334 9.57691 20.8894 9.71565C20.8455 9.85439 20.8318 9.9997 20.8491 10.1433C20.9755 11.1838 20.8691 12.237 20.5364 13.2385C20.2037 14.24 19.6518 15.1688 18.9142 15.9681C18.1766 16.7674 17.269 17.4205 16.2468 17.8874C15.2245 18.3542 14.1092 18.6251 12.9689 18.6835C11.8285 18.7418 10.6872 18.5864 9.61466 18.2267C8.5421 17.867 7.56082 17.3106 6.7308 16.5914C5.90078 15.8723 5.23946 15.0056 4.78725 14.0442C4.33504 13.0829 4.10145 12.0471 4.10074 11.0002ZM21.8007 5.12839C22.0114 4.90958 22.1187 4.62302 22.0989 4.33174C22.0791 4.04046 21.9338 3.76832 21.6951 3.57519C21.4564 3.38206 21.1438 3.28375 20.8261 3.30191C20.5083 3.32006 20.2114 3.45318 20.0007 3.67199L12.2787 11.68L8.45914 8.82768C8.33701 8.73639 8.19646 8.66804 8.04552 8.62654C7.89457 8.58503 7.73618 8.57119 7.5794 8.5858C7.26277 8.61529 6.97188 8.75889 6.77074 8.98498C6.67115 9.09694 6.59658 9.22577 6.55131 9.36414C6.50603 9.50251 6.49093 9.6477 6.50686 9.79141C6.53904 10.0817 6.69569 10.3483 6.94234 10.5327L11.6571 14.0527C11.8973 14.2318 12.2038 14.3189 12.5124 14.2958C12.821 14.2726 13.1079 14.141 13.3131 13.9284L21.8007 5.12839Z" fill="#A1D429"/>
</svg>
