<svg width="24" height="26" viewBox="0 0 24 26" fill="none" xmlns="http://www.w3.org/2000/svg">
<g clip-path="url(#clip0_1110_45564)">
<path d="M11.9912 1.08693V1.08697V3.72988C11.9912 4.03186 11.7273 4.3168 11.3511 4.3168C10.9746 4.3168 10.711 4.03202 10.7109 3.72983C10.7109 3.72982 10.7109 3.7298 10.7109 3.72979V1.08697C10.7109 0.785149 10.9747 0.5 11.3511 0.5C11.7272 0.5 11.9913 0.785282 11.9912 1.08693Z" fill="#FFD4C0" stroke="#5F231B"/>
<path d="M7.60843 3.72988C7.60843 4.03186 7.34453 4.3168 6.96831 4.3168C6.59173 4.3168 6.32812 4.03198 6.32812 3.72983V1.08697C6.32812 0.785148 6.59187 0.5 6.96831 0.5C7.34438 0.5 7.60843 0.785253 7.60843 1.08697V3.72988Z" fill="#FFD4C0" stroke="#5F231B"/>
<path d="M16.3721 3.72988C16.3721 4.03198 16.1085 4.3168 15.732 4.3168C15.3557 4.3168 15.0918 4.03185 15.0918 3.72983V1.08697C15.0918 0.785283 15.3559 0.5 15.732 0.5C16.1084 0.5 16.3721 0.785133 16.3721 1.08697V3.72988Z" fill="#FFD4C0" stroke="#5F231B"/>
<path d="M20.7549 1.08693V1.08697V3.72988C20.7549 4.03198 20.4913 4.3168 20.1148 4.3168C19.7386 4.3168 19.4747 4.03189 19.4746 3.72983C19.4746 3.72982 19.4746 3.7298 19.4746 3.72979V1.08697C19.4746 0.785282 19.7387 0.5 20.1148 0.5C20.4912 0.5 20.7549 0.785149 20.7549 1.08693Z" fill="#FFD4C0" stroke="#5F231B"/>
<path d="M22.5904 20.1602L18.1094 24.4322V21.1462C18.1106 20.6236 18.5611 20.1613 19.1678 20.1602H22.5904Z" fill="#FFD4C0" stroke="#5F231B"/>
<path d="M13.5417 5.34533C14.048 5.98362 14.8436 6.39145 15.7324 6.39145C16.6211 6.39145 17.417 5.98355 17.9233 5.34524C18.4296 5.98355 19.2255 6.39145 20.1142 6.39145C21.6177 6.39145 22.881 5.21991 22.881 3.7302V1.73633H23.9172V17.8178H19.1684H19.1682C17.2765 17.8183 15.7025 19.285 15.702 21.1458V21.1459V25.5003H6.12592C4.46848 25.5003 3.16602 24.2251 3.16602 22.7019V1.73633H4.20226V3.7302C4.20226 5.21993 5.46567 6.39145 6.96909 6.39145C7.85782 6.39145 8.65368 5.98355 9.16001 5.34524C9.66635 5.98355 10.4622 6.39145 11.3509 6.39145C12.2397 6.39145 13.0354 5.98362 13.5417 5.34533ZM13.3071 20.9803H13.8071V20.4803V18.8396V18.3396H13.3071H6.8911H6.3911V18.8396V20.4803V20.9803H6.8911H13.3071ZM20.1921 16.5048H20.6921V16.0048V14.3641V13.8641H20.1921H6.8911H6.3911V14.3641V16.0048V16.5048H6.8911H20.1921ZM20.1921 12.0294H20.6921V11.5294V9.88869V9.38869H20.1921H6.8911H6.3911V9.88869V11.5294V12.0294H6.8911H20.1921Z" fill="#FFD4C0" stroke="#5F231B"/>
</g>
<defs>
<clipPath id="clip0_1110_45564">
<rect width="24" height="26" fill="white"/>
</clipPath>
</defs>
</svg>
