<svg width="24" height="25" viewBox="0 0 24 25" fill="none" xmlns="http://www.w3.org/2000/svg">
<path d="M22.6534 5.44783C22.6022 5.06912 22.2751 4.78222 21.8912 4.78222H20.6257C20.401 4.78222 20.2019 4.64451 20.1137 4.43507C18.979 1.70951 16.1948 1.37384 16.1721 1.37097C14.551 1.14145 13.4589 1.72099 12.8276 2.24602C12.4351 2.57308 12.1507 3.0436 12.0256 3.56576L11.2208 6.93685C11.0928 7.80616 11.9659 8.63817 12.2617 8.89065L12.0455 9.30379C11.9289 9.53044 11.7924 9.74274 11.6388 9.94071C11.2777 10.4055 10.5439 11.3322 9.09067 13.1196C6.9691 15.7332 6.66195 19.5289 6.62213 20.2778C6.20408 20.2892 4.84183 20.1343 3.88343 17.8907C3.5905 17.2079 3.23217 16.8149 2.8198 16.7317C2.47568 16.6599 2.09744 16.8063 1.73342 17.1563C1.45471 17.4231 1.30114 17.8047 1.31536 18.2006C1.45187 22.1828 4.12801 23.2615 5.27127 23.5398C5.53291 23.6029 5.80877 23.6374 6.09032 23.6374L19.9061 23.6804C19.9403 23.6804 19.9772 23.6804 20.0114 23.6804C20.3071 23.6804 20.583 23.6316 20.8361 23.5398C21.4106 23.3246 21.7661 22.7308 21.6978 22.0938C21.6296 21.4655 21.3793 20.9778 20.9499 20.645C20.236 20.0884 19.252 20.1314 18.9335 20.163C16.9399 16.2152 18.9108 10.0383 19.1696 9.26362C22.6989 8.71277 22.7814 6.4348 22.6534 5.4622V5.44783Z" fill="#FFD4C0" stroke="black" stroke-miterlimit="10"/>
<path fill-rule="evenodd" clip-rule="evenodd" d="M16.2128 1.05437L16.2141 1.05454L16.2232 1.05573C16.2306 1.05673 16.2407 1.05814 16.2532 1.06002C16.2783 1.06378 16.3133 1.06941 16.3571 1.07744C16.4446 1.0935 16.5674 1.11917 16.7168 1.15863C17.0152 1.23742 17.422 1.37186 17.8657 1.59613C18.7539 2.04511 19.7986 2.85937 20.4027 4.31007C20.443 4.40529 20.5306 4.46292 20.6255 4.46292H21.891C22.4283 4.46292 22.8915 4.86394 22.9646 5.4045L22.9675 5.42614V5.4415C23.0335 5.96459 23.0434 6.84835 22.5527 7.68481C22.065 8.51615 21.119 9.24068 19.408 9.54752C19.2183 10.1425 18.7592 11.7011 18.5183 13.5651C18.2538 15.612 18.2601 17.9718 19.1224 19.8303C19.5829 19.8125 20.4583 19.8596 21.1406 20.3914C21.6494 20.7858 21.934 21.3593 22.01 22.0589C22.0934 22.8365 21.6591 23.5721 20.9446 23.8397L20.9416 23.8408C20.6531 23.9455 20.3414 24 20.0112 24H19.906L6.09015 23.957C6.09009 23.957 6.09021 23.957 6.09015 23.957C5.78359 23.957 5.48326 23.9195 5.19852 23.8508L5.1979 23.8506C4.59508 23.7039 3.58209 23.3454 2.6989 22.4907C1.80773 21.6283 1.07209 20.2828 1.0011 18.2119C0.983773 17.7254 1.1723 17.2547 1.51751 16.9241C1.92278 16.5345 2.40023 16.3187 2.8818 16.4187C3.45178 16.5342 3.86813 17.0564 4.17135 17.7632C4.62916 18.8349 5.17032 19.3793 5.61888 19.6573C5.89265 19.827 6.14126 19.9034 6.33056 19.9362C6.37535 19.3958 6.48885 18.4328 6.77122 17.3185C7.1243 15.9251 7.74684 14.2731 8.84807 12.9164C10.3004 11.1301 11.0327 10.2053 11.3919 9.74306C11.5338 9.56007 11.6596 9.36436 11.7668 9.15591L11.7679 9.15395L11.8683 8.96194C11.7067 8.80651 11.503 8.58802 11.3245 8.3281C11.0676 7.95418 10.8282 7.44408 10.9098 6.88972L10.9119 6.87557L11.72 3.49058C11.8603 2.90498 12.18 2.37261 12.6282 1.99914C13.3128 1.4298 14.4897 0.811161 16.2128 1.05437ZM13.0264 2.4934C12.6898 2.77405 12.4407 3.18289 12.3308 3.64151L11.5296 6.99729C11.4887 7.30859 11.6213 7.64422 11.8398 7.96232C12.0569 8.27824 12.326 8.52875 12.4636 8.64617L12.6584 8.81247L12.3239 9.45195C12.3237 9.45229 12.3235 9.45263 12.3233 9.45297C12.1975 9.69744 12.0504 9.92601 11.8855 10.1386C11.5222 10.6061 10.7867 11.535 9.33277 13.3232C8.31252 14.5802 7.72075 16.1328 7.37993 17.4778C7.03979 18.8201 6.955 19.9339 6.9358 20.2951L6.92016 20.5893L6.63045 20.5972C6.3747 20.6043 5.86668 20.5592 5.29161 20.2028C4.71497 19.8453 4.09565 19.1901 3.59507 18.0183C3.31265 17.3601 3.01267 17.0964 2.75844 17.0451L2.7565 17.0447C2.55026 17.0018 2.27169 17.0784 1.94923 17.3885L1.94874 17.389C1.73682 17.5918 1.61831 17.884 1.62927 18.1891C1.69479 20.1004 2.36549 21.2859 3.13233 22.028C3.90715 22.7778 4.80386 23.0978 5.3443 23.2293C5.5826 23.2868 5.8339 23.3181 6.09015 23.3181H6.09112L19.906 23.3611H19.9068H20.0112C20.2719 23.3611 20.5114 23.3183 20.7287 23.2397C21.1623 23.0765 21.4383 22.6243 21.3852 22.1286C21.3247 21.572 21.1089 21.1702 20.7591 20.8992L20.7584 20.8986C20.1478 20.4225 19.2741 20.4503 18.9638 20.4811L18.7513 20.5021L18.6537 20.309C17.6123 18.2466 17.6169 15.6349 17.8951 13.4819C18.1748 11.3179 18.7393 9.55775 18.8718 9.16105L18.9331 8.97745L19.1217 8.94802C20.8189 8.68313 21.6268 8.0157 22.0128 7.35762C22.4069 6.68579 22.4012 5.95716 22.3417 5.50469L22.3389 5.48361V5.47287C22.3015 5.2648 22.115 5.10181 21.891 5.10181H20.6255C20.2712 5.10181 19.9607 4.88423 19.8246 4.56087L19.8241 4.55971C18.7653 2.01647 16.162 1.69172 16.1334 1.68815L16.1285 1.68754C14.6111 1.47268 13.6042 2.013 13.0264 2.4934Z" fill="#5F231B"/>
<path fill-rule="evenodd" clip-rule="evenodd" d="M11.3711 8.13326C11.3841 8.15303 12.3506 9.62386 13.7633 9.62488C13.7629 9.62488 13.7624 9.62488 13.7619 9.62488H13.7648C13.7643 9.62488 13.7638 9.62488 13.7633 9.62488C14.1364 9.62461 14.5388 9.5231 14.9646 9.2639C15.0234 9.23108 16.3997 8.41962 16.3997 7.16364L15.2322 1.31934L14.944 1.379L16.1056 7.17856C16.094 8.24111 14.859 8.98245 14.8185 9.00679L14.8176 9.00733C13.0208 10.0992 11.674 8.05566 11.6181 7.96914L11.3711 8.13322L11.3711 8.13326ZM16.9896 23.68L16.9924 23.6804H16.9896C16.9896 23.6803 16.9896 23.6801 16.9896 23.68ZM16.7157 23.6378L16.9896 23.68C17.1767 22.3051 16.6486 21.5294 16.1736 21.1218C15.7767 20.7811 15.2514 20.5925 14.6953 20.5925H12.8062C14.6478 19.3938 14.5025 16.1628 14.4941 16.0138L14.2146 16.032C14.2174 16.0716 14.3879 19.8653 12.0992 20.6016C12.0349 20.6229 11.9902 20.6928 12.0014 20.7689C12.0126 20.845 12.0712 20.8997 12.1411 20.8997H14.6981C15.1899 20.8997 15.6538 21.064 16.0031 21.3622C16.6095 21.8824 16.8498 22.6491 16.7157 23.6378Z" fill="#5F231B"/>
<path d="M11.3711 8.13326L11.58 7.99597L11.5799 7.99568L11.3711 8.13326ZM14.9646 9.2639L14.8427 9.04542L14.8346 9.05035L14.9646 9.2639ZM16.3997 7.16364H16.6497V7.13892L16.6448 7.11467L16.3997 7.16364ZM15.2322 1.31934L15.4774 1.27036L15.4281 1.02349L15.1815 1.07453L15.2322 1.31934ZM14.944 1.379L14.8933 1.13419L14.6501 1.18455L14.6989 1.4281L14.944 1.379ZM16.1056 7.17856L16.3556 7.1813L16.3559 7.15513L16.3507 7.12946L16.1056 7.17856ZM14.8185 9.00679L14.6898 8.79245L14.6896 8.79257L14.8185 9.00679ZM14.8176 9.00733L14.6887 8.79311L14.6877 8.79369L14.8176 9.00733ZM11.6181 7.96914L11.8281 7.83351L11.6907 7.62077L11.4798 7.76089L11.6181 7.96914ZM11.3711 8.13322L11.2328 7.92498L11.0253 8.06281L11.1624 8.2708L11.3711 8.13322ZM16.9924 23.6804V23.9304L17.0304 23.4333L16.9924 23.6804ZM16.9896 23.6804L16.7418 23.6469L16.7035 23.9304H16.9896V23.6804ZM16.7157 23.6378L16.468 23.6042L16.435 23.8475L16.6777 23.8849L16.7157 23.6378ZM16.1736 21.1218L16.0107 21.3115L16.0108 21.3115L16.1736 21.1218ZM12.8062 20.5925L12.6698 20.3829L11.9638 20.8425H12.8062V20.5925ZM14.4941 16.0138L14.7437 15.9997L14.7295 15.7478L14.4778 15.7643L14.4941 16.0138ZM14.2146 16.032L14.1983 15.7825L13.9475 15.7989L13.9652 16.0496L14.2146 16.032ZM12.0992 20.6016L12.0226 20.3636L12.0206 20.3643L12.0992 20.6016ZM12.0014 20.7689L12.2487 20.7326L12.2487 20.7326L12.0014 20.7689ZM16.0031 21.3622L16.1659 21.1724L16.1654 21.172L16.0031 21.3622ZM13.7635 9.37488C13.1446 9.37443 12.6068 9.05067 12.2077 8.69861C11.8116 8.34921 11.5808 7.99715 11.58 7.99597L11.1622 8.27054C11.1744 8.28914 11.4334 8.68238 11.877 9.07359C12.3175 9.46215 12.9694 9.8743 13.7632 9.87488L13.7635 9.37488ZM13.7633 9.37488C13.763 9.37488 13.7626 9.37488 13.7624 9.37488C13.7621 9.37488 13.762 9.37488 13.7619 9.37488V9.87488C13.7623 9.87488 13.7626 9.87488 13.7629 9.87488C13.7631 9.87488 13.7632 9.87488 13.7633 9.87488V9.37488ZM13.7619 9.87488H13.7648V9.37488H13.7619V9.87488ZM13.7648 9.37488C13.7647 9.37488 13.7646 9.37488 13.7643 9.37488C13.7641 9.37488 13.7637 9.37488 13.7633 9.37488V9.87488C13.7635 9.87488 13.7636 9.87488 13.7638 9.87488C13.7641 9.87488 13.7644 9.87488 13.7648 9.87488V9.37488ZM14.8346 9.05035C14.4458 9.28702 14.088 9.37464 13.7632 9.37488L13.7635 9.87488C14.1848 9.87457 14.6318 9.75918 15.0946 9.47745L14.8346 9.05035ZM16.1497 7.16364C16.1497 7.69808 15.8558 8.15555 15.5243 8.49881C15.361 8.66804 15.195 8.80253 15.0662 8.89665C15.002 8.94356 14.9475 8.98004 14.9081 9.00539C14.8883 9.01806 14.8724 9.02789 14.861 9.0348C14.8553 9.03825 14.8508 9.04094 14.8475 9.04284C14.8441 9.04487 14.8426 9.04571 14.8428 9.04558L15.0864 9.48221C15.1293 9.45828 15.5102 9.23326 15.884 8.8461C16.2555 8.46143 16.6497 7.88519 16.6497 7.16364H16.1497ZM14.9871 1.36831L16.1545 7.21262L16.6448 7.11467L15.4774 1.27036L14.9871 1.36831ZM14.9947 1.62381L15.2829 1.56414L15.1815 1.07453L14.8933 1.13419L14.9947 1.62381ZM16.3507 7.12946L15.1892 1.32991L14.6989 1.4281L15.8605 7.22766L16.3507 7.12946ZM14.9471 9.22114C14.9748 9.20456 15.3144 9.00039 15.6513 8.65712C15.9834 8.31874 16.3487 7.8086 16.3556 7.1813L15.8556 7.17582C15.8509 7.61107 15.5928 8.00288 15.2945 8.30688C15.0009 8.60601 14.7027 8.78468 14.6898 8.79245L14.9471 9.22114ZM14.9465 9.22155L14.9473 9.22102L14.6896 8.79257L14.6887 8.79311L14.9465 9.22155ZM11.4081 8.10477C11.4418 8.15697 11.8145 8.7234 12.4247 9.13707C12.7322 9.34548 13.1096 9.52177 13.5417 9.56659C13.9781 9.61184 14.4536 9.5211 14.9474 9.22098L14.6877 8.79369C14.2832 9.03951 13.9165 9.10278 13.5933 9.06926C13.2658 9.03529 12.9661 8.90001 12.7053 8.7232C12.179 8.36644 11.8503 7.86783 11.8281 7.83351L11.4081 8.10477ZM11.5094 8.34146L11.7564 8.17738L11.4798 7.76089L11.2328 7.92498L11.5094 8.34146ZM11.5799 7.99568L11.5798 7.99564L11.1624 8.2708L11.1624 8.27084L11.5799 7.99568ZM17.0304 23.4333L17.0277 23.4329L16.9516 23.9271L16.9543 23.9275L17.0304 23.4333ZM16.9896 23.9304H16.9924V23.4304H16.9896V23.9304ZM16.7419 23.6465L16.7418 23.6469L17.2373 23.7139L17.2374 23.7135L16.7419 23.6465ZM17.0277 23.4329L16.7537 23.3907L16.6777 23.8849L16.9516 23.9271L17.0277 23.4329ZM16.0108 21.3115C16.4273 21.669 16.9165 22.3629 16.7419 23.6463L17.2373 23.7137C17.4368 22.2474 16.8699 21.3899 16.3364 20.9321L16.0108 21.3115ZM14.6953 20.8425C15.1955 20.8425 15.6621 21.0121 16.0107 21.3115L16.3364 20.9321C15.8914 20.55 15.3073 20.3425 14.6953 20.3425V20.8425ZM12.8062 20.8425H14.6953V20.3425H12.8062V20.8425ZM14.2445 16.0278C14.2481 16.0921 14.2857 16.9138 14.0986 17.8611C13.9096 18.8182 13.5036 19.8402 12.6698 20.3829L12.9426 20.802C13.9503 20.146 14.3925 18.9532 14.5891 17.9579C14.7877 16.9528 14.7484 16.0845 14.7437 15.9997L14.2445 16.0278ZM14.2309 16.2815L14.5104 16.2632L14.4778 15.7643L14.1983 15.7825L14.2309 16.2815ZM12.1757 20.8396C13.4529 20.4287 14.0122 19.1767 14.2597 18.1122C14.5104 17.0344 14.4665 16.0492 14.464 16.0144L13.9652 16.0496C13.9651 16.0477 13.9764 16.2819 13.9574 16.6462C13.9386 17.0092 13.89 17.4947 13.7727 17.9989C13.534 19.0252 13.0342 20.0382 12.0226 20.3636L12.1757 20.8396ZM12.2487 20.7326C12.2545 20.7715 12.2335 20.8204 12.1778 20.8389L12.0206 20.3643C11.8363 20.4253 11.726 20.6142 11.754 20.8053L12.2487 20.7326ZM12.1411 20.6497C12.2123 20.6497 12.2445 20.7035 12.2487 20.7326L11.754 20.8053C11.7807 20.9864 11.9302 21.1497 12.1411 21.1497V20.6497ZM14.6981 20.6497H12.1411V21.1497H14.6981V20.6497ZM16.1654 21.172C15.7674 20.8323 15.2448 20.6497 14.6981 20.6497V21.1497C15.135 21.1497 15.5401 21.2957 15.8408 21.5523L16.1654 21.172ZM16.9634 23.6714C17.1057 22.6224 16.8529 21.7619 16.1659 21.1724L15.8403 21.5519C16.3661 22.0029 16.5939 22.6757 16.468 23.6042L16.9634 23.6714Z" fill="#5F231B"/>
</svg>
