<svg width="100" height="254" viewBox="0 0 100 254" fill="none" xmlns="http://www.w3.org/2000/svg">
<g clip-path="url(#clip0_4582_40519)">
<path d="M49.6169 116C48.2915 126.655 49.218 137.009 51.2897 146.894C53.2327 156.17 55.2915 165.295 57.3117 174.47C59.7116 185.385 59.6408 195.999 56.8678 206.544C55.0277 213.551 53.0654 220.497 51.6693 228.043C50.6527 233.54 49.604 239.977 50.0158 246.024C50.2281 249.172 50.6977 251.331 51.0773 254C51.4376 253.44 51.8301 253.65 51.7529 252.271C51.695 251.291 51.5534 250.422 51.4441 249.482C51.3604 248.733 51.2704 247.993 51.1931 247.233C51.0323 245.594 50.9101 243.925 50.9294 242.226C50.9744 237.948 51.6628 233.9 52.4413 230.142C53.2455 226.254 54.1399 222.376 55.1114 218.688C56.0829 215 57.2603 211.432 58.1095 207.434C59.7695 199.668 60.4708 190.562 59.6665 181.937C59.4864 179.958 59.2033 178.049 58.9588 176.12C58.4698 172.331 57.6141 168.923 56.7391 165.615C56.2952 163.926 55.8448 162.257 55.4266 160.527C55.0084 158.798 54.6932 156.979 54.3329 155.18C52.808 147.544 50.7749 139.618 50.4726 130.952C50.3632 127.704 50.4018 124.446 50.4983 121.197C50.5305 119.998 50.4919 118.559 50.8071 117.549" fill="#5F231B"/>
<path d="M31.1296 3.93012C9.08957 12.2201 -3.89042 37.3601 1.64958 62.7501C7.18958 88.1501 21.5096 107.36 44.2496 119.42C43.8696 120 43.4596 120.62 43.0396 121.25C42.4496 122.15 42.6996 123.36 43.5996 123.94C43.6396 123.96 43.6696 123.99 43.7096 124.01L46.3896 125.61C48.7396 127.01 51.6996 126.85 53.8896 125.2C54.4796 124.75 55.1196 124.36 55.7596 123.97C56.6996 123.41 56.9896 122.19 56.3996 121.27C55.9696 120.59 55.5696 119.98 55.2596 119.48C79.7696 104.71 96.6196 83.9601 98.5896 54.0501C101.08 16.0601 66.3596 -9.31988 31.1296 3.93012Z" fill="#FFD4C0" stroke="#5F231B" stroke-width="0.75" stroke-miterlimit="10"/>
</g>
<defs>
<clipPath id="clip0_4582_40519">
<rect width="99.09" height="253.94" fill="white"/>
</clipPath>
</defs>
</svg>
