<svg width="1920" height="80" viewBox="0 0 1920 80" fill="none" xmlns="http://www.w3.org/2000/svg">
<path fill-rule="evenodd" clip-rule="evenodd" d="M0.5 71C0.333187 71 0.16652 70.9994 0 70.9981V0H1920V67.3897C1914.95 65.635 1910.18 63.2791 1905.77 60.4078C1891.33 72.2474 1867.26 80 1840 80C1819.7 80 1801.17 75.7013 1787.07 68.6173C1781.48 70.1701 1775.59 71 1769.5 71C1759.1 71 1749.26 68.5741 1740.52 64.257C1725.85 73.8994 1704.18 80 1680 80C1659.53 80 1640.86 75.6278 1626.71 68.4358C1620.93 70.1053 1614.82 71 1608.5 71C1598.32 71 1588.69 68.6785 1580.09 64.5362C1565.43 74.017 1543.94 80 1520 80C1499.35 80 1480.54 75.552 1466.34 68.2489C1460.38 70.0385 1454.05 71 1447.5 71C1437.55 71 1428.11 68.7805 1419.67 64.8094C1405.02 74.1318 1383.71 80 1360 80C1339.17 80 1320.21 75.4739 1305.97 68.0568C1299.82 69.9696 1293.28 71 1286.5 71C1276.77 71 1267.54 68.88 1259.24 65.0769C1244.61 74.244 1223.49 80 1200 80C1178.99 80 1159.87 75.3935 1145.6 67.8595C1139.26 69.8986 1132.51 71 1125.5 71C1116 71 1106.97 68.9772 1098.82 65.3387C1084.2 74.3534 1063.26 80 1040 80C1018.8 80 999.53 75.3109 985.215 67.6569C978.704 69.8256 971.739 71 964.5 71C955.225 71 946.399 69.072 938.404 65.5949C923.806 74.4603 903.04 80 880 80C858.611 80 839.182 75.2259 824.829 67.449C818.143 69.7504 810.967 71 803.5 71C794.45 71 785.828 69.1646 777.988 65.8456C763.413 74.5645 742.823 80 720 80C698.416 80 678.829 75.1385 664.438 67.2358C657.579 69.6732 650.195 71 642.5 71C633.675 71 625.258 69.2548 617.575 66.0907C603.025 74.6663 582.608 80 560 80C538.218 80 518.469 75.0489 504.043 67.0175C497.014 69.5938 489.421 71 481.5 71C472.901 71 464.688 69.3429 457.165 66.3305C442.643 74.7656 422.396 80 400 80C378.017 80 358.104 74.9569 343.644 66.7938C336.448 69.5123 328.648 71 320.5 71C312.126 71 304.12 69.4286 296.759 66.5648C282.267 74.8625 262.188 80 240 80C217.812 80 197.733 74.8624 183.241 66.5648C175.88 69.4286 167.874 71 159.5 71C151.352 71 143.552 69.5123 136.356 66.7938C121.896 74.9569 101.983 80 80 80C58.0165 80 38.104 74.9569 23.644 66.7938C16.448 69.5123 8.64773 71 0.5 71Z" fill="#F7ECE3"/>
</svg>
