<svg width="158" height="51" viewBox="0 0 158 51" fill="none" xmlns="http://www.w3.org/2000/svg">
<path d="M100.54 10.5979C100.54 10.5979 106.239 5.19264 121 5.40865C135.761 5.19264 141.46 10.5979 141.46 10.5979C145.258 13.4625 138.258 16.4352 138.258 16.4352C133.102 13.5165 121 13.5705 121 13.5705C121 13.5705 108.898 13.5165 103.742 16.4352C103.742 16.4352 96.742 13.4625 100.54 10.5979Z" fill="#FFD4C0"/>
<path d="M121 0.00350336L120.99 0.503402L120.989 0.503393L120.987 0.50335L120.977 0.503176L120.937 0.502562C120.9 0.502066 120.846 0.501439 120.775 0.500937C120.631 0.499933 120.419 0.499428 120.146 0.501466C119.599 0.505542 118.808 0.519787 117.832 0.560524C115.879 0.642027 113.19 0.829429 110.248 1.25262C104.329 2.10373 97.5081 3.89253 93.5047 7.58306C92.2075 8.78014 91.3201 10.3607 90.8905 12.0861L85.0063 35.7448H85.2077L84.8104 36.48C84.8106 36.4796 84.8106 36.4797 84.8103 36.4802L84.8099 36.4809L84.8095 36.4816L84.8091 36.4825L84.8063 36.4881C84.802 36.4968 84.7946 36.5121 84.7849 36.5338C84.7655 36.5772 84.7368 36.6459 84.7051 36.7373C84.6415 36.9204 84.5662 37.1932 84.5269 37.5369C84.4489 38.2197 84.5112 39.1936 85.1096 40.3201C86.3118 42.5834 89.7468 45.5796 98.9237 47.9466L98.9251 47.9469L98.9475 47.952L99.0377 47.9724C99.1177 47.9904 99.2372 48.0169 99.3936 48.0507C99.7064 48.1182 100.167 48.2151 100.756 48.3317C101.934 48.5649 103.625 48.877 105.674 49.1916C109.773 49.8211 115.294 50.4595 121 50.5C126.704 50.4595 132.226 49.8211 136.325 49.1916C138.374 48.877 140.065 48.5649 141.244 48.3317C141.833 48.2151 142.293 48.1182 142.606 48.0507C142.763 48.0169 142.882 47.9904 142.962 47.9724L143.053 47.952L143.075 47.9469L143.076 47.9466C152.253 45.5808 155.688 42.5846 156.89 40.321C157.489 39.1944 157.551 38.2202 157.473 37.5372C157.434 37.1934 157.358 36.9205 157.295 36.7374C157.263 36.6459 157.235 36.5772 157.215 36.5338C157.205 36.5121 157.198 36.4967 157.194 36.4881L157.19 36.4815L157.19 36.4808L157.19 36.4802L157.19 36.4801L157.19 36.4799L157.189 36.4797L157.161 36.4268L157.146 36.3654L151.107 12.0835L151.107 12.083C150.68 10.3585 149.79 8.77795 148.493 7.5806C144.489 3.89009 137.669 2.10189 131.751 1.2514C128.809 0.828514 126.121 0.641417 124.168 0.560143C123.192 0.519521 122.4 0.505371 121.854 0.501361C121.581 0.499357 121.369 0.499887 121.226 0.500909C121.154 0.50142 121.1 0.502053 121.063 0.502554L121.023 0.503173L121.013 0.503348L121.011 0.503392L121.01 0.503401L121 0.00350336ZM121 0.00350336L120.99 0.503403L121 0.503605L121.01 0.503402L121 0.00350336ZM96.6559 12.3261C96.1589 12.2712 96.159 12.2706 96.159 12.2699L96.1592 12.2683L96.1597 12.2645L96.1609 12.2546C96.1619 12.2469 96.1633 12.2371 96.1651 12.2252C96.1688 12.2014 96.1742 12.1693 96.1821 12.1295C96.1978 12.05 96.2234 11.9396 96.2643 11.8026C96.346 11.5285 96.4885 11.1488 96.7346 10.6981C97.2279 9.79467 98.131 8.61839 99.7728 7.44062C103.051 5.08908 109.25 2.74739 120.985 2.50326L120.995 2.50304L121.005 2.50326C132.741 2.74739 138.939 5.08908 142.217 7.44062C143.859 8.61839 144.762 9.79467 145.256 10.6981C145.502 11.1488 145.644 11.5285 145.726 11.8026C145.767 11.9396 145.792 12.05 145.808 12.1295C145.816 12.1693 145.821 12.2014 145.825 12.2252C145.827 12.2371 145.828 12.2469 145.829 12.2546L145.83 12.2645L145.831 12.2683L145.831 12.2699C145.831 12.2706 145.831 12.2712 145.334 12.3261L145.831 12.2712L145.832 12.2795C146.021 14.2987 145.178 16.1046 143.791 17.4648C140.9 20.3007 136.471 21.4148 132.792 22.1779C128.941 22.9765 124.973 23.4545 121.004 23.509C114.979 23.5927 108.94 22.7038 103.295 20.4922H103.292L103.203 20.4572C101.546 19.8028 99.702 18.8623 98.3132 17.5456C96.9137 16.2187 95.9527 14.4825 96.158 12.2797L96.158 12.2797L96.1589 12.2712L96.6559 12.3261ZM112.435 43.5615C110.078 43.5615 108.164 41.6581 108.164 39.3058C108.164 37.9737 108.777 36.7868 109.737 36.0067C108.778 35.2274 108.164 34.0391 108.164 32.7075C108.164 30.3553 110.078 28.4518 112.435 28.4518C114.684 28.4518 116.53 30.1846 116.694 32.3867H125.296C125.461 30.1846 127.306 28.4518 129.555 28.4518C131.912 28.4518 133.826 30.3553 133.826 32.7075C133.826 34.0396 133.213 35.2266 132.254 36.0066C133.212 36.7859 133.826 37.9742 133.826 39.3058C133.826 41.6581 131.912 43.5615 129.555 43.5615C127.306 43.5615 125.461 41.8287 125.296 39.6266H116.694C116.53 41.8287 114.684 43.5615 112.435 43.5615Z" fill="#FFD4C0" stroke="#5F231B"/>
<path d="M16.5401 10.5981C16.5401 10.5981 22.2386 5.19263 36.9998 5.40865C51.7611 5.19263 57.4595 10.5981 57.4595 10.5981C61.2577 13.4629 54.2579 16.4357 54.2579 16.4357C49.1016 13.5169 36.9998 13.5709 36.9998 13.5709C36.9998 13.5709 24.898 13.5169 19.7418 16.4357C19.7418 16.4357 12.742 13.4629 16.5401 10.5981Z" fill="#FFD4C0"/>
<path d="M37 0.00350353L36.9899 0.503402L36.9895 0.503393L36.9872 0.50335L36.9773 0.503176L36.9367 0.502562C36.9005 0.502066 36.8461 0.501439 36.7746 0.500937C36.6314 0.499933 36.4194 0.499428 36.1462 0.501466C35.5997 0.505543 34.8083 0.519788 33.8322 0.560527C31.8794 0.642034 29.1913 0.829444 26.2489 1.25266C20.3312 2.10379 13.5108 3.89263 9.50737 7.58323C8.21008 8.78036 7.32262 10.361 6.89301 12.0865C6.89301 12.0866 6.89297 12.0866 6.89297 12.0867L0.854416 36.3672L0.521698 36.3264C0.809151 36.4816 0.809357 36.4812 0.809547 36.4809L0.806313 36.4874C0.802017 36.4961 0.794624 36.5114 0.784912 36.5331C0.765457 36.5765 0.736809 36.6451 0.705063 36.7366C0.64151 36.9197 0.566193 37.1925 0.526909 37.5362C0.448868 38.219 0.511238 39.193 1.10962 40.3196C2.31187 42.583 5.74685 45.5794 14.9239 47.9465L14.9251 47.9468L14.9475 47.9519L15.0377 47.9723C15.1178 47.9903 15.2372 48.0167 15.3936 48.0505C15.7064 48.1181 16.167 48.215 16.756 48.3316C17.9341 48.5648 19.6253 48.8769 21.6741 49.1915C25.7729 49.821 31.2945 50.4595 37 50.5C42.7043 50.4595 48.2259 49.821 52.325 49.1915C54.374 48.8769 56.0654 48.5648 57.2436 48.3316C57.8327 48.215 58.2934 48.1181 58.6063 48.0505C58.7627 48.0167 58.8822 47.9903 58.9623 47.9723L59.0526 47.9519L59.075 47.9468L59.0763 47.9465C68.2532 45.5806 71.6881 42.5842 72.8904 40.3205C73.4888 39.1938 73.5511 38.2196 73.4731 37.5366C73.4338 37.1927 73.3585 36.9198 73.2949 36.7366C73.2632 36.6452 73.2345 36.5765 73.2151 36.5331C73.2053 36.5114 73.1979 36.496 73.1937 36.4873L73.1904 36.4808L73.19 36.4801L73.1897 36.4795L73.1896 36.4794L73.1896 36.4792L73.1894 36.479L73.1608 36.4261L73.1456 36.3647L67.107 12.0841L67.1069 12.0836C66.6798 10.3589 65.7902 8.77821 64.4926 7.58077C60.4892 3.8902 53.6688 2.10195 47.7512 1.25143C44.8087 0.828529 42.1206 0.641424 40.1678 0.560146C39.1918 0.519521 38.4004 0.505371 37.8539 0.501361C37.5806 0.499357 37.3687 0.499887 37.2255 0.500909C37.1539 0.50142 37.0996 0.502053 37.0633 0.502554L37.0227 0.503173L37.0129 0.503348L37.0106 0.503392L37.0101 0.503401L37 0.00350353ZM37 0.00350353L36.99 0.503403L37 0.503605L37.0101 0.503402L37 0.00350353ZM24.7798 41.0448L24.7803 41.0446L29.7119 38.2075C31.7669 39.4886 34.9519 41.0443 38.6474 41.334C42.5255 41.638 46.9294 40.5433 51.1257 36.3652L51.4816 36.0108L51.1257 35.6565C46.9294 31.4784 42.5255 30.3837 38.6474 30.6877C34.9519 30.9774 31.7669 32.5331 29.7119 33.8142L24.7803 30.9771L24.7798 30.9769C23.8682 30.4536 22.7222 31.1058 22.7222 32.1641V39.8576L24.7798 41.0448ZM24.7798 41.0448C23.8696 41.5673 22.7257 40.918 22.7222 39.8625L24.7798 41.0448ZM12.6583 12.3292C12.1614 12.2743 12.1614 12.2736 12.1615 12.2729L12.1617 12.2713L12.1621 12.2676L12.1634 12.2576C12.1644 12.2499 12.1658 12.2401 12.1676 12.2282C12.1712 12.2044 12.1767 12.1724 12.1845 12.1326C12.2003 12.053 12.2259 11.9426 12.2667 11.8056C12.3484 11.5316 12.491 11.1518 12.737 10.7011C13.2304 9.79762 14.1335 8.62129 15.7753 7.44346C19.0534 5.09181 25.2521 2.75 36.9871 2.50586L36.9975 2.50564L37.0079 2.50586C48.743 2.75 54.9417 5.09181 58.2198 7.44346C59.8616 8.62129 60.7647 9.79762 61.258 10.7011C61.5041 11.1518 61.6466 11.5316 61.7283 11.8056C61.7692 11.9426 61.7948 12.053 61.8105 12.1326C61.8184 12.1724 61.8238 12.2044 61.8275 12.2282C61.8293 12.2401 61.8307 12.2499 61.8317 12.2576L61.8329 12.2676L61.8334 12.2713L61.8336 12.2729C61.8336 12.2736 61.8337 12.2743 61.3368 12.3292L61.8338 12.2743L61.8345 12.2825C62.0238 14.3018 61.1808 16.1078 59.794 17.4681C56.9029 20.3041 52.4732 21.4183 48.7942 22.1814L48.6927 21.6919L48.7942 22.1814C44.9438 22.9801 40.9758 23.458 37.007 23.5125C30.9813 23.5963 24.9425 22.7073 19.2972 20.4956H19.2943L19.2058 20.4606C17.5487 19.8062 15.7045 18.8657 14.3157 17.5489C12.9162 16.2219 11.9551 14.4856 12.1605 12.2828L12.1604 12.2828L12.1614 12.2743L12.6583 12.3292Z" fill="#FFD4C0" stroke="black"/>
</svg>
