<svg width="161" height="51" viewBox="0 0 161 51" fill="none" xmlns="http://www.w3.org/2000/svg">
<path d="M103.54 10.5979C103.54 10.5979 109.239 5.19264 124 5.40865C138.761 5.19264 144.46 10.5979 144.46 10.5979C148.258 13.4625 141.258 16.4352 141.258 16.4352C136.102 13.5165 124 13.5705 124 13.5705C124 13.5705 111.898 13.5165 106.742 16.4352C106.742 16.4352 99.742 13.4625 103.54 10.5979Z" fill="#FFD4C0"/>
<path d="M124 0.00350336L123.99 0.503402L123.989 0.503393L123.987 0.50335L123.977 0.503176L123.937 0.502562C123.9 0.502066 123.846 0.501439 123.775 0.500937C123.631 0.499933 123.419 0.499428 123.146 0.501466C122.599 0.505542 121.808 0.519787 120.832 0.560524C118.879 0.642027 116.19 0.829429 113.248 1.25262C107.329 2.10373 100.508 3.89253 96.5047 7.58306C95.2075 8.78014 94.3201 10.3607 93.8905 12.0861L88.0063 35.7448H88.2077L87.8104 36.48C87.8106 36.4796 87.8106 36.4797 87.8103 36.4802L87.8099 36.4809L87.8095 36.4816L87.8091 36.4825L87.8063 36.4881C87.802 36.4968 87.7946 36.5121 87.7849 36.5338C87.7655 36.5772 87.7368 36.6459 87.7051 36.7373C87.6415 36.9204 87.5662 37.1932 87.5269 37.5369C87.4489 38.2197 87.5112 39.1936 88.1096 40.3201C89.3118 42.5834 92.7468 45.5796 101.924 47.9466L101.925 47.9469L101.947 47.952L102.038 47.9724C102.118 47.9904 102.237 48.0169 102.394 48.0507C102.706 48.1182 103.167 48.2151 103.756 48.3317C104.934 48.5649 106.625 48.877 108.674 49.1916C112.773 49.8211 118.294 50.4595 124 50.5C129.704 50.4595 135.226 49.8211 139.325 49.1916C141.374 48.877 143.065 48.5649 144.244 48.3317C144.833 48.2151 145.293 48.1182 145.606 48.0507C145.763 48.0169 145.882 47.9904 145.962 47.9724L146.053 47.952L146.075 47.9469L146.076 47.9466C155.253 45.5808 158.688 42.5846 159.89 40.321C160.489 39.1944 160.551 38.2202 160.473 37.5372C160.434 37.1934 160.358 36.9205 160.295 36.7374C160.263 36.6459 160.235 36.5772 160.215 36.5338C160.205 36.5121 160.198 36.4967 160.194 36.4881L160.19 36.4815L160.19 36.4808L160.19 36.4802L160.19 36.4801L160.19 36.4799L160.189 36.4797L160.161 36.4268L160.146 36.3654L154.107 12.0835L154.107 12.083C153.68 10.3585 152.79 8.77795 151.493 7.5806C147.489 3.89009 140.669 2.10189 134.751 1.2514C131.809 0.828514 129.121 0.641417 127.168 0.560143C126.192 0.519521 125.4 0.505371 124.854 0.501361C124.581 0.499357 124.369 0.499887 124.226 0.500909C124.154 0.50142 124.1 0.502053 124.063 0.502554L124.023 0.503173L124.013 0.503348L124.011 0.503392L124.01 0.503401L124 0.00350336ZM124 0.00350336L123.99 0.503403L124 0.503605L124.01 0.503402L124 0.00350336ZM99.6559 12.3261C99.1589 12.2712 99.159 12.2706 99.159 12.2699L99.1592 12.2683L99.1597 12.2645L99.1609 12.2546C99.1619 12.2469 99.1633 12.2371 99.1651 12.2252C99.1688 12.2014 99.1742 12.1693 99.1821 12.1295C99.1978 12.05 99.2234 11.9396 99.2643 11.8026C99.346 11.5285 99.4885 11.1488 99.7346 10.6981C100.228 9.79467 101.131 8.61839 102.773 7.44062C106.051 5.08908 112.25 2.74739 123.985 2.50326L123.995 2.50304L124.005 2.50326C135.741 2.74739 141.939 5.08908 145.217 7.44062C146.859 8.61839 147.762 9.79467 148.256 10.6981C148.502 11.1488 148.644 11.5285 148.726 11.8026C148.767 11.9396 148.792 12.05 148.808 12.1295C148.816 12.1693 148.821 12.2014 148.825 12.2252C148.827 12.2371 148.828 12.2469 148.829 12.2546L148.83 12.2645L148.831 12.2683L148.831 12.2699C148.831 12.2706 148.831 12.2712 148.334 12.3261L148.831 12.2712L148.832 12.2795C149.021 14.2987 148.178 16.1046 146.791 17.4648C143.9 20.3007 139.471 21.4148 135.792 22.1779C131.941 22.9765 127.973 23.4545 124.004 23.509C117.979 23.5927 111.94 22.7038 106.295 20.4922H106.292L106.203 20.4572C104.546 19.8028 102.702 18.8623 101.313 17.5456C99.9137 16.2187 98.9527 14.4825 99.158 12.2797L99.158 12.2797L99.1589 12.2712L99.6559 12.3261ZM115.435 43.5615C113.078 43.5615 111.164 41.6581 111.164 39.3058C111.164 37.9737 111.777 36.7868 112.737 36.0067C111.778 35.2274 111.164 34.0391 111.164 32.7075C111.164 30.3553 113.078 28.4518 115.435 28.4518C117.684 28.4518 119.53 30.1846 119.694 32.3867H128.296C128.461 30.1846 130.306 28.4518 132.555 28.4518C134.912 28.4518 136.826 30.3553 136.826 32.7075C136.826 34.0396 136.213 35.2266 135.254 36.0066C136.212 36.7859 136.826 37.9742 136.826 39.3058C136.826 41.6581 134.912 43.5615 132.555 43.5615C130.306 43.5615 128.461 41.8287 128.296 39.6266H119.694C119.53 41.8287 117.684 43.5615 115.435 43.5615Z" fill="#FFD4C0" stroke="#5F231B"/>
<rect x="19" y="28" width="35" height="17" fill="#F7ECE3"/>
<path d="M16.5401 10.5981C16.5401 10.5981 22.2386 5.19263 36.9998 5.40865C51.7611 5.19263 57.4595 10.5981 57.4595 10.5981C61.2577 13.4629 54.2579 16.4357 54.2579 16.4357C49.1016 13.5169 36.9998 13.5709 36.9998 13.5709C36.9998 13.5709 24.898 13.5169 19.7418 16.4357C19.7418 16.4357 12.742 13.4629 16.5401 10.5981Z" fill="#FFD4C0"/>
<path d="M37 0.00350353L36.9899 0.503402L36.9895 0.503393L36.9872 0.50335L36.9773 0.503176L36.9367 0.502562C36.9005 0.502066 36.8461 0.501439 36.7746 0.500937C36.6314 0.499933 36.4194 0.499428 36.1462 0.501466C35.5997 0.505543 34.8083 0.519788 33.8322 0.560527C31.8794 0.642034 29.1913 0.829444 26.2489 1.25266C20.3312 2.10379 13.5108 3.89263 9.50737 7.58323C8.21008 8.78036 7.32263 10.361 6.89301 12.0865C6.89301 12.0866 6.89297 12.0866 6.89297 12.0867L0.854416 36.3672L0.521698 36.3264C0.809151 36.4816 0.809357 36.4812 0.809547 36.4809L0.806313 36.4874C0.802017 36.4961 0.794624 36.5114 0.784912 36.5331C0.765457 36.5765 0.736809 36.6451 0.705063 36.7366C0.64151 36.9197 0.566193 37.1925 0.526909 37.5362C0.448868 38.219 0.511238 39.193 1.10962 40.3196C2.31187 42.583 5.74685 45.5794 14.9239 47.9465L14.9251 47.9468L14.9475 47.9519L15.0377 47.9723C15.1178 47.9903 15.2372 48.0167 15.3936 48.0505C15.7064 48.1181 16.167 48.215 16.756 48.3316C17.9341 48.5648 19.6253 48.8769 21.6741 49.1915C25.7729 49.821 31.2945 50.4595 37 50.5C42.7043 50.4595 48.2259 49.821 52.325 49.1915C54.374 48.8769 56.0654 48.5648 57.2436 48.3316C57.8327 48.215 58.2934 48.1181 58.6063 48.0505C58.7627 48.0167 58.8822 47.9903 58.9623 47.9723L59.0526 47.9519L59.075 47.9468L59.0763 47.9465C68.2532 45.5806 71.6881 42.5842 72.8904 40.3205C73.4888 39.1938 73.5511 38.2196 73.4731 37.5366C73.4338 37.1927 73.3585 36.9198 73.2949 36.7366C73.2632 36.6452 73.2345 36.5765 73.2151 36.5331C73.2053 36.5114 73.1979 36.496 73.1937 36.4873L73.1904 36.4808L73.19 36.4801L73.1897 36.4795L73.1896 36.4794C73.1894 36.4789 73.1894 36.4788 73.1896 36.4792L73.1608 36.4261L73.1456 36.3647L67.107 12.0841L67.1069 12.0836C66.6798 10.359 65.7903 8.77835 64.4928 7.58094C60.4894 3.89025 53.6689 2.10197 47.7512 1.25143C44.8087 0.828529 42.1206 0.641424 40.1678 0.560146C39.1918 0.519521 38.4004 0.505371 37.8539 0.501361C37.5806 0.499357 37.3687 0.499887 37.2255 0.500909C37.1539 0.50142 37.0996 0.502053 37.0633 0.502554L37.0227 0.503173L37.0129 0.503348L37.0106 0.503392L37.0101 0.503401L37 0.00350353ZM37 0.00350353L36.99 0.503403L37 0.503605L37.0101 0.503402L37 0.00350353ZM24.7798 41.0448L24.7803 41.0446L29.7119 38.2075C31.7669 39.4886 34.9519 41.0443 38.6474 41.334C42.5255 41.638 46.9294 40.5433 51.1257 36.3652L51.4816 36.0108L51.1257 35.6565C46.9294 31.4784 42.5255 30.3837 38.6474 30.6877C34.9519 30.9774 31.7669 32.5331 29.7119 33.8142L24.7803 30.9771L24.7798 30.9769C23.8682 30.4536 22.7222 31.1058 22.7222 32.1641V39.8576L24.7798 41.0448ZM24.7798 41.0448C23.8696 41.5673 22.7257 40.918 22.7222 39.8625L24.7798 41.0448ZM12.6583 12.3292C12.1614 12.2743 12.1614 12.2736 12.1615 12.2729L12.1617 12.2713L12.1621 12.2676L12.1634 12.2576C12.1644 12.2499 12.1658 12.2401 12.1676 12.2282C12.1712 12.2044 12.1767 12.1724 12.1845 12.1326C12.2003 12.053 12.2259 11.9426 12.2667 11.8056C12.3484 11.5316 12.491 11.1518 12.737 10.7011C13.2304 9.79762 14.1335 8.62129 15.7753 7.44346C19.0534 5.09181 25.2521 2.75 36.9871 2.50586L36.9975 2.50564L37.0079 2.50586C48.743 2.75 54.9417 5.09181 58.2198 7.44346C59.8616 8.62129 60.7647 9.79762 61.258 10.7011C61.5041 11.1518 61.6466 11.5316 61.7283 11.8056C61.7692 11.9426 61.7948 12.053 61.8105 12.1326C61.8184 12.1724 61.8238 12.2044 61.8275 12.2282C61.8293 12.2401 61.8307 12.2499 61.8317 12.2576L61.8329 12.2676L61.8334 12.2713L61.8336 12.2729C61.8336 12.2736 61.8337 12.2743 61.3368 12.3292L61.8338 12.2743L61.8345 12.2825C62.0238 14.3018 61.1808 16.1078 59.794 17.4681C56.9029 20.3041 52.4732 21.4183 48.7942 22.1814C44.9438 22.9801 40.9758 23.458 37.007 23.5125C30.9813 23.5963 24.9425 22.7073 19.2972 20.4956H19.2943L19.2058 20.4606C17.5487 19.8062 15.7045 18.8657 14.3157 17.5489C12.9162 16.2219 11.9551 14.4856 12.1605 12.2828L12.1604 12.2828L12.1614 12.2743L12.6583 12.3292Z" fill="#FFD4C0" stroke="#5F231B"/>
</svg>
