<svg width="89" height="86" viewBox="0 0 89 86" fill="none" xmlns="http://www.w3.org/2000/svg">
<path d="M35.7115 63.2486L28.2073 62.5544L21.3728 72.6442" fill="white"/>
<path d="M21.5536 72.7665L28.3194 62.7845L35.6918 63.4632L35.7309 63.0293L28.0997 62.328L21.1917 72.5219L21.5536 72.7665Z" fill="#515151"/>
<path d="M62.3973 66.9868C62.4 67.039 62.4026 67.0913 62.4096 67.1433C62.8896 69.9716 76.0731 76.9057 76.0731 76.9057C76.0533 79.356 77.3515 79.3684 77.3515 79.3684C80.3981 79.6555 80.3511 77.3524 80.3511 77.3524L64.9537 61.8351C64.9537 61.8351 62.4119 63.659 62.3973 66.9868Z" fill="white"/>
<path d="M78.0843 79.6089C78.8296 79.5734 79.4301 79.3527 79.8639 78.9478C80.5773 78.285 80.5666 77.3861 80.5646 77.3469L80.5602 77.2598L64.9696 61.5508L64.8178 61.6585C64.708 61.7336 62.1849 63.5828 62.17 66.9892C62.1731 67.0502 62.1764 67.1155 62.1884 67.1804C62.6618 69.9653 74.4517 76.2978 75.8481 77.039C75.8588 78.0252 76.0831 78.7437 76.5163 79.1859C76.8986 79.5737 77.3013 79.5895 77.3451 79.5917C77.604 79.6143 77.8492 79.6245 78.0802 79.6135L78.0843 79.6089ZM80.128 77.4376C80.1124 77.6479 80.0231 78.211 79.564 78.6346C79.0881 79.0721 78.3499 79.247 77.3709 79.1539C77.3097 79.1524 76.271 79.0884 76.2914 76.9087L76.2935 76.7776L76.1767 76.7133C72.5363 74.7997 63.0057 69.3377 62.6303 67.107C62.624 67.068 62.622 67.0288 62.62 66.9896C62.6304 64.2689 64.414 62.5684 64.9422 62.1285L80.1367 77.4372L80.128 77.4376Z" fill="#515151" stroke="#515151" stroke-width="0.5"/>
<path d="M35.7112 63.252C35.6481 63.4733 33.2499 71.6614 27.7011 74.5938L31.1145 79.2607C31.1145 79.2607 33.6973 78.238 34.8374 80.8124C34.8374 80.8124 35.1001 82.4592 32.2435 82.3071L29.8258 82.2783L21.6622 76.3925C21.6622 76.3925 19.9851 74.5991 21.4649 72.5068" fill="white"/>
<path d="M35.7112 63.252C35.6481 63.4733 33.2499 71.6614 27.7011 74.5938L31.1145 79.2607C31.1145 79.2607 33.6973 78.238 34.8374 80.8124C34.8374 80.8124 35.1001 82.4592 32.2435 82.3071L29.8258 82.2783L21.6622 76.3925C21.6622 76.3925 19.9851 74.5991 21.4649 72.5068" stroke="#515151" stroke-width="0.5"/>
<path d="M32.884 82.5308C33.7209 82.491 34.3299 82.2655 34.6979 81.8549C35.1363 81.3668 35.0552 80.803 35.0498 80.7814L35.034 80.7298C33.9927 78.3778 31.809 78.8268 31.1934 79.009L28.0239 74.6712C33.5723 71.5598 35.8975 63.397 35.9241 63.3171L35.5029 63.1975C35.481 63.2815 33.1486 71.4752 27.5998 74.4076L27.3785 74.5229L31.0408 79.5315L31.1994 79.4715C31.2979 79.4319 33.5829 78.5676 34.6266 80.8802C34.631 80.9673 34.6343 81.2903 34.3736 81.5778C34.0093 81.9751 33.2799 82.1539 32.259 82.0978L29.9026 82.0703L21.7935 76.2256C21.761 76.1879 20.2889 74.5594 21.6466 72.6433L21.2885 72.3896C19.7229 74.5995 21.4855 76.5285 21.5041 76.5495L29.754 82.501L32.2417 82.5309C32.4694 82.5419 32.6837 82.5448 32.8842 82.5352L32.884 82.5308Z" fill="#515151" stroke="#515151" stroke-width="0.5"/>
<path d="M64.6061 44.2104C63.9246 44.2952 63.2367 44.2538 62.5653 44.1068C61.642 43.902 60.0412 43.6902 57.6498 43.8216L25.5559 45.351C25.5559 45.351 20.7526 45.4708 18.8047 43.0666C18.8047 43.0666 7.52163 21.6378 4.21179 20.8875C4.21179 20.8875 0.290054 19.4417 1.51481 22.7447C1.51481 22.7447 4.78979 24.7015 7.8865 30.8051L15.7249 45.0425C15.7249 45.0425 16.8117 49.4128 15.4904 51.7807C15.4904 51.7807 13.7872 56.0919 16.1202 60.4028C16.1202 60.4028 17.564 68.0214 10.6637 70.3714C10.6637 70.3714 7.3424 76.9686 11.2005 82.8395C11.2005 82.8395 11.2036 83.8478 14.1385 82.8916C14.1385 82.8916 15.4873 82.011 13.514 81.0006C13.514 81.0006 12.8222 75.8912 14.9226 73.7262C14.9226 73.7262 27.0513 73.0042 30.0704 66.1333C30.0704 66.1333 30.6447 63.0764 33.9333 63.0637C33.9333 63.0637 46.0129 63.7846 53.5112 62.803C53.5112 62.803 54.5634 62.7048 55.3685 62.4744C55.3685 62.4744 56.3624 70.695 58.0137 73.8816L60.3505 81.9684C60.4881 82.4421 60.9322 82.757 61.4203 82.7338L65.5295 82.538C66.0132 82.5149 66.4234 82.1636 66.5083 81.6837C66.6914 80.6448 66.4387 78.9368 62.9636 78.5437C62.9636 78.5437 60.3111 66.9927 65.3066 62.1405C65.3066 62.1405 68.9321 60.7629 69.8186 58.1756C69.8416 58.1134 69.8589 57.938 69.8734 57.7059C69.912 57.1759 70.5313 56.8975 70.9418 57.2403C71.7626 57.9214 73.2077 58.5947 75.7114 58.5234C76.1346 58.512 76.5546 58.4396 76.9587 58.3112C77.8612 58.0193 79.8562 57.479 81.5435 57.7609C83.5172 58.0903 85.1328 56.2715 84.8349 54.6182C84.8349 54.6182 86.7873 53.3246 85.2357 52.1021C85.2357 52.1021 83.6247 51.6026 83.2405 50.6605C82.8564 49.7185 83.2284 50.421 83.2284 50.421C83.2284 50.421 84.2948 46.6465 79.1821 44.6289C79.2312 44.4782 80.2216 40.9256 80.1464 40.9073C80.0712 40.8891 76.9475 41.3959 72.8533 43.0927C72.8533 43.0927 70.3903 44.0526 66.4263 44.0974C66.4263 44.0974 65.5826 44.0853 64.6057 44.2017L64.6061 44.2104Z" fill="white"/>
<path d="M69.1236 52.0638C80.1792 54.899 82.8548 50.6939 82.8107 48.2369C82.6918 46.7106 80.2663 45.1794 79.0684 44.6046L79.6951 41.3102C78.7493 41.2627 75.2189 42.4318 73.572 43.0222C71.4296 44.245 65.1364 44.341 62.2576 44.2362C58.5995 43.3875 39.4464 44.6358 30.3271 45.366C20.2044 46.9486 17.9835 42.5789 16.6174 39.4518C12.2462 29.4452 6.36704 22.8233 3.97388 20.7631C1.18027 19.6727 1.40035 21.7426 1.85959 22.9139C3.3378 23.7482 6.12902 27.9584 7.33985 29.9592L15.5756 44.0319L16.2329 47.7471L15.6062 51.0414L14.8228 55.1593C19.0132 56.7949 37.6415 58.0068 46.4319 58.4082C56.3414 59.3806 65.6887 54.5837 69.1236 52.0638Z" fill="#FFD4C0"/>
<path d="M61.4363 82.9508L65.5455 82.755C66.1382 82.7268 66.6233 82.302 66.7295 81.7251C66.8625 80.9897 66.7193 80.3199 66.3208 79.7845C65.7583 79.0299 64.6899 78.5483 63.151 78.3509C62.8679 76.9893 60.9247 66.7622 65.4348 62.3303C65.8716 62.1567 69.165 60.7775 70.0328 58.2522C70.0519 58.1989 70.0728 58.0932 70.098 57.7296C70.1112 57.5588 70.2089 57.4188 70.3671 57.3501C70.5167 57.2862 70.6838 57.3088 70.807 57.4121C71.5915 58.0644 73.0758 58.8231 75.7236 58.7493C76.1685 58.7369 76.6103 58.6634 77.0314 58.5255C77.8221 58.2695 79.8466 57.706 81.5119 57.9846C82.4988 58.1514 83.4826 57.8252 84.2054 57.0923C84.8577 56.4326 85.1759 55.5574 85.0727 54.7286C85.3503 54.5189 86.0279 53.9278 86.056 53.1887C86.072 52.7296 85.8453 52.3083 85.3722 51.9379L85.3005 51.902C85.3005 51.902 83.7821 51.42 83.4427 50.5849C83.4374 50.5677 83.428 50.5551 83.4228 50.5379L83.4376 50.4848C83.4487 50.4449 84.4719 46.5939 79.4474 44.5066C79.6706 43.7408 80.4493 41.0103 80.3431 40.8101L80.2997 40.7293L80.2066 40.7031C80.0072 40.6472 76.7099 41.2627 72.7697 42.8954C72.7483 42.9051 70.2971 43.8383 66.4205 43.8833C66.39 43.8848 65.555 43.8722 64.5783 43.9929C63.9271 44.072 63.2658 44.038 62.6076 43.8948C61.671 43.6862 60.0484 43.4754 57.6308 43.6081L25.5369 45.1375C25.4933 45.1396 20.8238 45.2268 18.9644 42.9319C18.5241 42.0885 7.62142 21.4404 4.24969 20.6756C4.06705 20.6058 2.18575 19.9446 1.38319 20.7424C0.971683 21.1549 0.941683 21.8548 1.30081 22.8199L1.32636 22.8929L1.39393 22.9333C1.42554 22.9536 4.65414 24.9431 7.68233 30.9016L15.5109 45.1176C15.5995 45.4845 16.5023 49.5012 15.2889 51.6719C15.2576 51.7433 13.5715 56.1322 15.9014 60.4695C16.0065 61.0757 17.0632 67.9531 10.5835 70.1565L10.4977 70.1868L10.4581 70.2672C10.4265 70.3342 7.14016 77.0171 10.9821 82.915C11.0001 83.0101 11.0605 83.1688 11.2465 83.304C11.7226 83.648 12.715 83.5788 14.1976 83.0978L14.2488 83.0736C14.2743 83.0593 14.8277 82.688 14.7981 82.1045C14.7753 81.6559 14.4089 81.2369 13.7082 80.8556C13.6268 80.1129 13.2446 75.8531 15.0166 73.9308C16.2049 73.848 27.3305 72.8987 30.2627 66.211L30.2777 66.1622C30.3023 66.0432 30.8655 63.2836 33.927 63.273C34.0323 63.2811 46.098 63.9852 53.5355 63.0109C53.566 63.0094 54.4136 62.9254 55.1817 62.7404C55.3632 64.1635 56.3116 71.0593 57.818 73.9734L60.1355 82.0219C60.3 82.5946 60.8304 82.9753 61.4274 82.9469L61.4363 82.9508ZM70.4959 56.8769C70.3957 56.8817 70.292 56.9041 70.1979 56.9435C69.8899 57.0716 69.6862 57.3607 69.6637 57.6936C69.6411 58.0221 69.6228 58.0928 69.6192 58.106C68.7786 60.5645 65.27 61.9235 65.2358 61.9382L65.1596 61.9855C62.5246 64.5469 62.0133 68.9323 62.0508 72.1653C62.0918 75.6425 62.7513 78.5664 62.757 78.5924L62.7909 78.7435L62.9447 78.7624C64.4429 78.9311 65.4607 79.3628 65.9669 80.0415C66.2952 80.4842 66.4054 81.0203 66.2973 81.6453C66.2292 82.024 65.9113 82.301 65.5234 82.3195L61.4142 82.5153C61.022 82.534 60.673 82.2844 60.5664 81.9053L58.2295 73.8185C56.5972 70.6615 55.599 62.5284 55.5905 62.4459L55.56 62.1897L55.3145 62.2582C54.5394 62.4785 53.5049 62.5802 53.4962 62.5806C46.0933 63.5489 34.0714 62.8471 33.9487 62.8398C30.6689 62.8521 29.9332 65.7421 29.8617 66.0554C28.3294 69.516 24.3691 71.3548 21.3106 72.2863C17.9639 73.3058 14.9422 73.4978 14.9117 73.4993L14.8289 73.5032L14.7707 73.5628C12.6205 75.7781 13.2732 80.8064 13.3015 81.019L13.3159 81.1318L13.419 81.1836C14.0246 81.4953 14.3555 81.82 14.3752 82.1203C14.3895 82.4033 14.1215 82.63 14.0457 82.686C12.2923 83.2541 11.7061 83.0638 11.5391 82.9583C11.4397 82.8931 11.4276 82.8282 11.4272 82.8195L11.4239 82.7542L11.3912 82.7121C7.86902 77.349 10.4795 71.2921 10.83 70.5376C14.4223 69.2795 15.7359 66.5889 16.2001 64.5456C16.7079 62.33 16.3581 60.4303 16.3411 60.3525L16.3203 60.288C14.0599 56.1177 15.6845 51.8932 15.7 51.8531C17.0376 49.4626 15.9895 45.1647 15.9451 44.9791L15.925 44.9277L8.08658 30.6903C5.20393 25.0174 2.20098 22.9123 1.70417 22.5911C1.51531 22.0544 1.37602 21.3757 1.71285 21.041C2.22408 20.5277 3.64499 20.8965 4.14801 21.0821C6.7156 21.6669 14.7354 35.7778 18.6221 43.1577C20.6402 45.6546 25.3751 45.5643 25.5714 45.5593L57.6697 44.0297C60.0394 43.8993 61.6225 44.1076 62.5282 44.3089C63.2351 44.4673 63.9487 44.4987 64.6435 44.4176C65.5899 44.3027 66.4247 44.3109 66.4336 44.3148C70.3979 44.2744 72.8445 43.3371 72.943 43.2975C76.3186 41.9012 79.0535 41.3081 79.898 41.1631C79.712 41.9752 79.0403 44.4038 78.9873 44.5635L78.9229 44.7586L79.1147 44.8368C83.0418 46.3871 83.2025 48.9506 83.1003 49.9508C83.0653 49.9481 83.0263 49.9543 82.9879 49.9736C82.7745 50.0711 82.8443 50.2424 83.0488 50.7434C83.4378 51.694 84.8749 52.2104 85.1415 52.2981C85.4742 52.5704 85.6374 52.8595 85.6265 53.1612C85.6002 53.8478 84.7299 54.4306 84.7216 54.4397L84.6034 54.5196L84.6281 54.6624C84.7611 55.3895 84.4869 56.184 83.8969 56.7796C83.2737 57.4117 82.4318 57.6919 81.5859 57.5489C79.8852 57.2632 77.9194 57.776 76.8964 58.1041C76.5183 58.2269 76.1154 58.2941 75.7097 58.3047C73.2017 58.3762 71.8119 57.6741 71.0868 57.0714C70.918 56.931 70.7049 56.8626 70.4957 56.8725L70.4959 56.8769Z" fill="#515151" stroke="#515151" stroke-width="0.5"/>
<path d="M85.4791 52.3633C85.2431 52.1824 83.5108 53.3235 83.66 53.4256C83.773 53.5031 84.7126 54.0478 85.1485 54.2977C85.2744 54.3703 85.4292 54.3235 85.4925 54.1937C85.7064 53.7595 86.0741 52.8241 85.4791 52.3633Z" fill="#515151"/>
<path d="M82.5553 54.0299C80.9849 53.0917 78.8979 53.9484 77.8343 55.2801C79.2908 54.4713 80.825 53.7331 82.5553 54.0299Z" fill="#515151"/>
<path d="M83.1554 54.8473C80.4486 54.8336 77.869 56.9201 78.139 59.7783C78.5322 57.0892 80.6379 55.4756 83.1554 54.8473Z" fill="#515151"/>
<path d="M85.8767 54.5383C86.6711 54.3645 87.3003 54.3779 88.0735 54.6509C87.5845 53.9534 86.4304 53.9173 85.8767 54.5383Z" fill="#515151"/>
<path d="M85.7769 55.4253C86.8076 55.5242 87.6357 55.847 88.3175 56.6488C88.0804 55.5764 86.747 55.0114 85.7769 55.4253Z" fill="#515151"/>
<path d="M73.5219 48.4089L74.6494 45.1337L74.3437 45.131C74.1474 45.1317 69.5042 45.1502 67.294 47.9007L67.635 48.1727C69.3973 45.9769 72.9677 45.63 74.0343 45.5742L73.1127 48.2582L73.5258 48.3999L73.5219 48.4089Z" fill="#515151" stroke="#515151" stroke-width="0.5"/>
<path d="M78.8459 50.5726C78.3697 50.5956 77.9643 50.2277 77.9404 49.751C77.9165 49.2743 78.2831 48.8692 78.7592 48.8463C79.2353 48.8233 79.6407 49.1912 79.6647 49.6679C79.6886 50.1446 79.322 50.5497 78.8459 50.5726Z" fill="#515151"/>
<path d="M64.581 82.6297C64.6312 81.6309 64.2685 79.708 62.5217 79.6043L62.4955 80.0383C64.2425 80.1463 64.1471 82.5064 64.1434 82.6071L64.581 82.6297Z" fill="#515151"/>
</svg>
