<svg width="488" height="418" viewBox="0 0 488 418" fill="none" xmlns="http://www.w3.org/2000/svg">
<g clip-path="url(#clip0_4460_40309)">
<path d="M445.841 105.622C445.841 105.622 444.535 17.573 408.159 4.11328C408.159 4.11328 361.43 22.527 338.112 76.0856C338.112 76.0856 290.076 65.9907 256.685 76.8333C256.685 76.8333 216.951 12.993 178.243 5.51534C173.953 4.6741 169.755 7.01087 167.89 10.9366C160.708 26.2658 143.359 67.7667 145.784 105.529C145.784 106.931 126.664 117.4 117.803 130.111C92.8058 165.724 102.506 209.094 127.876 238.444C128.622 239.285 129.462 240.126 130.208 240.874C123.586 244.893 62.026 284.525 99.2416 367.9C99.2416 367.9 108.289 412.673 133.193 413.794C141.028 414.168 148.116 409.401 152.22 402.671C152.687 401.924 153.06 401.176 153.526 400.428C153.526 400.895 154.365 405.943 160.615 408.56C173.58 414.075 184.679 403.232 191.021 389.866C192.98 385.847 195.312 380.519 195.125 374.817H227.024C227.024 374.817 228.61 409.588 259.39 407.999C259.39 407.999 291.009 412.673 291.009 363.975H310.223V394.446C310.223 394.446 313.674 405.289 323.934 408.186C333.914 410.99 342.775 407.065 350.517 400.241C362.176 390.053 377.379 368.835 378.778 327.147V279.384C431.197 268.167 479.979 243.398 483.803 190.213C483.803 190.213 493.13 136.654 445.841 105.529V105.622Z" fill="#FFF8E9"/>
<path d="M94.8576 292.095C90.7536 304.62 89.3545 319.856 93.0854 337.896C93.2719 339.017 93.5518 340.139 93.7383 341.354C78.4417 342.195 41.5059 339.765 14.6435 316.771C-1.49257 302.938 2.42486 291.254 10.353 283.122C19.0273 274.242 32.645 272.279 43.8377 277.42C66.7827 287.982 85.8102 289.104 96.0701 288.543C95.6038 289.758 95.2307 290.88 94.8576 292.095Z" fill="#A28977"/>
<path d="M308.171 72.9056C308.171 72.9056 333.448 176.938 470.464 130.483C470.464 130.483 454.795 114.033 445.934 106.275C445.934 106.275 442.576 14.58 408.252 4.76562C408.252 4.76562 354.527 25.2357 341.096 72.3448L338.298 76.7379L308.264 72.9056H308.171Z" fill="#A28977"/>
<path d="M344.081 184.231C351.189 184.231 356.952 178.456 356.952 171.333C356.952 164.209 351.189 158.434 344.081 158.434C336.972 158.434 331.209 164.209 331.209 171.333C331.209 178.456 336.972 184.231 344.081 184.231Z" fill="#515151"/>
<path d="M242.135 184.138C249.192 184.138 254.913 178.405 254.913 171.333C254.913 164.261 249.192 158.527 242.135 158.527C235.077 158.527 229.356 164.261 229.356 171.333C229.356 178.405 235.077 184.138 242.135 184.138Z" fill="#515151"/>
<path d="M322.255 206.382C321.323 204.98 319.457 204.606 318.058 205.54C316.659 206.475 316.286 208.345 317.219 209.747C319.644 213.392 320.11 214.14 318.898 217.692C318.245 219.748 316.193 221.243 313.581 221.898C310.876 222.552 307.052 222.178 304.347 219.374C302.388 217.318 300.709 214.794 299.963 213.018C302.575 211.896 304.72 209.653 305.093 206.569C305.746 201.989 302.575 197.689 298.005 197.035C293.434 196.38 289.144 199.558 288.491 204.138C287.931 207.877 289.983 211.336 293.248 212.831C291.755 219.094 289.144 220.776 284.294 221.711C281.682 222.178 277.858 221.898 275.713 220.309C274.78 219.654 274.313 218.813 274.127 217.785C273.474 213.018 276.179 211.523 277.112 211.055C278.604 210.214 279.07 208.438 278.231 206.942C277.391 205.447 275.619 204.98 274.127 205.821C269.463 208.438 267.411 213.018 268.157 218.626C268.531 221.337 269.93 223.58 272.168 225.169C276.086 228.067 281.682 228.254 285.32 227.599C290.916 226.571 294.647 224.234 296.979 219.935C298.284 221.804 299.59 223.206 299.87 223.487C302.761 226.478 306.772 228.067 311.063 228.067C312.275 228.067 313.488 227.973 314.7 227.693C319.457 226.665 323.095 223.58 324.401 219.561C326.453 213.392 324.96 210.588 322.069 206.288L322.255 206.382Z" fill="#515151"/>
<path d="M379.338 199.373C378.312 199.373 377.379 198.718 377.099 197.69C376.726 196.475 377.473 195.166 378.685 194.793L422.243 181.894C423.456 181.52 424.762 182.268 425.135 183.483C425.508 184.698 424.762 186.006 423.549 186.38L379.991 199.279C379.991 199.279 379.525 199.279 379.338 199.279V199.373Z" fill="#6D5B50"/>
<path d="M423.549 220.123C423.549 220.123 423.27 220.123 423.176 220.123L378.406 212.364C377.1 212.178 376.26 210.962 376.54 209.654C376.727 208.439 377.846 207.504 379.245 207.784L424.016 215.542C425.321 215.729 426.161 216.945 425.881 218.253C425.695 219.375 424.669 220.216 423.549 220.216V220.123Z" fill="#6D5B50"/>
<path d="M203.334 199.373C203.334 199.373 202.867 199.373 202.681 199.373L159.123 186.474C157.91 186.1 157.164 184.791 157.537 183.576C157.91 182.361 159.216 181.613 160.428 181.987L203.987 194.886C205.199 195.26 205.945 196.569 205.572 197.784C205.292 198.812 204.36 199.466 203.334 199.466V199.373Z" fill="#6D5B50"/>
<path d="M159.122 220.122C158.003 220.122 156.977 219.281 156.791 218.159C156.604 216.851 157.444 215.636 158.656 215.449L203.427 207.691C204.732 207.41 205.945 208.345 206.132 209.56C206.318 210.869 205.479 212.084 204.266 212.271L159.496 220.029C159.496 220.029 159.216 220.029 159.122 220.029V220.122Z" fill="#6D5B50"/>
<path d="M91.4062 309.667C91.4062 309.667 180.854 316.491 130.394 245.453L120.507 253.211C120.507 253.211 93.5515 275.083 91.4062 309.761V309.667Z" fill="#A28977"/>
<path d="M374.675 338.081C374.675 338.081 307.612 335.371 341.283 402.856C353.222 397.155 361.896 383.882 367.12 370.516C371.037 360.514 374.302 348.457 374.768 338.175L374.675 338.081Z" fill="#A28977"/>
<path d="M449.386 102.444C449.012 89.6381 445.282 17.4789 412.73 1.02811C409.931 -0.373952 406.667 -0.373952 403.589 1.02811C392.769 6.26245 356.486 26.2651 336.153 70.8506C325.52 68.8877 287.558 62.999 258.271 71.5048C250.622 59.7276 215.179 8.03839 179.269 0.934635C173.3 -0.187011 167.424 2.80404 164.812 8.22533C154.832 29.4431 148.023 50.6609 144.479 71.2244C143.266 78.4217 142.52 85.1515 142.333 91.6945C142.24 93.4704 142.24 95.0594 142.333 96.5549C142.333 97.3962 142.427 98.1439 142.427 98.7982C142.427 100.2 142.24 101.322 141.774 102.257C141.401 103.191 140.561 104.033 139.256 104.967C117.803 120.67 104.465 142.823 101.667 167.499C98.7754 192.923 107.17 218.534 125.358 239.565C125.545 239.752 125.731 240.032 126.011 240.219C118.456 245.266 99.7081 260.035 90.1011 285.178C79.5613 284.898 63.7983 282.748 45.3304 274.242C32.4589 268.26 17.4421 270.877 7.9283 280.598C2.42524 286.3 -0.279654 292.282 0.000162601 298.545C0.279979 305.648 4.47723 312.659 12.4054 319.482C36.7494 340.513 69.1148 344.813 87.3962 344.999C89.2616 352.664 92.0598 360.702 95.884 369.208C96.3503 371.171 105.864 416.691 133.193 417.906C133.473 417.906 133.752 418 134.126 418C141.121 418 147.743 414.448 152.593 408.559C155.671 411.27 160.801 414.168 167.33 414.168C170.035 414.168 173.02 413.607 176.191 412.392C176.937 411.924 193.54 401.643 196.711 378.929H224.04C224.879 384.724 227.584 396.502 236.259 404.447C242.415 410.055 250.156 412.579 259.017 412.111C259.483 412.205 270.956 413.7 280.843 405.194C289.424 397.717 293.994 385.285 294.554 368.18H306.866V390.052C306.866 399.025 312.275 407.064 320.763 410.242C331.396 413.981 343.522 411.55 352.382 403.979C365.254 392.95 380.924 370.797 382.416 327.801V281.159C408.346 274.99 469.439 255.081 484.642 201.242C495.089 164.321 480.632 123.942 449.386 102.444ZM85.8106 337.896C68.6485 337.428 39.0812 333.129 16.9757 314.154C10.5399 308.639 7.18212 303.312 6.99558 298.171C6.80903 293.965 8.76775 289.758 12.8717 285.552C17.6286 280.692 24.2509 278.168 31.1531 278.168C34.9772 278.168 38.8014 278.916 42.439 280.598C60.6271 289.011 76.4833 291.628 87.7693 292.095C83.8518 304.994 82.4528 320.23 85.8106 337.896ZM173.113 406.129C164.532 409.588 158.283 404.353 156.511 402.671C160.055 395.941 162.947 387.155 164.066 378.929H189.622C186.638 397.53 173.207 406.036 173.113 406.129ZM375.421 327.707C374.022 367.993 359.658 388.463 347.905 398.652C340.91 404.634 331.396 406.596 322.722 403.512C317.405 401.549 313.861 396.128 313.861 390.052V361.17H313.768V354.066C313.768 352.103 312.182 350.514 310.223 350.514C308.265 350.514 306.772 352.103 306.772 354.066V361.17H294.554V354.066C294.554 352.103 292.968 350.514 291.009 350.514C289.051 350.514 287.558 352.103 287.558 354.066V366.124C287.278 382.014 283.548 393.417 276.366 399.773C268.904 406.316 260.416 405.194 259.39 405.101C251.928 405.568 245.679 403.512 241.015 399.306C231.875 391.08 230.756 376.779 230.662 375.471V354.066C230.662 352.103 229.17 350.514 227.211 350.514C225.252 350.514 223.667 352.103 223.667 354.066V371.919H164.719V354.066C164.719 352.103 163.133 350.514 161.174 350.514C159.216 350.514 157.723 352.103 157.723 354.066V371.919L157.444 375.19C156.697 384.07 153.433 394.632 149.329 401.456C145.598 407.531 139.162 411.27 133.473 410.896C111.554 409.961 102.879 368.18 102.506 367.058C99.0552 359.207 96.4436 351.823 94.6714 344.813C94.2983 343.691 94.0185 342.476 93.7387 341.354C93.5522 340.139 93.2723 339.017 93.0858 337.896C89.3549 319.856 90.754 304.62 94.858 292.095C95.231 290.88 95.6041 289.758 96.0705 288.543C96.4436 287.328 96.9099 286.113 97.4696 284.991C107.077 261.904 124.798 249.099 130.768 245.36C161.361 275.831 206.411 284.337 238.311 288.169C255.379 290.132 272.541 291.16 289.61 291.16C318.338 291.16 347.159 288.356 375.421 282.655V327.707ZM477.927 199.372C463.936 248.631 407.879 267.699 382.416 273.962C379.711 274.616 377.379 275.177 375.421 275.551C330.463 284.618 284.667 286.487 239.15 281.159C210.422 277.794 170.688 270.41 141.96 245.921C138.976 243.491 136.178 240.873 133.566 237.976C132.54 236.948 131.607 235.919 130.674 234.891C113.792 215.449 105.957 191.801 108.569 168.34C111.181 145.627 123.493 125.157 143.359 110.669C145.598 109.08 147.09 107.304 148.116 105.341C149.515 102.444 149.422 99.4525 149.329 96.368C149.236 95.0594 149.236 93.5639 149.329 91.9749C149.515 85.7124 150.262 79.3564 151.474 72.3461C154.832 52.4369 161.454 31.8734 171.155 11.2164C172.367 8.69269 175.259 7.19716 177.963 7.85145C214.619 15.0487 253.421 76.8327 253.794 77.487L255.286 79.8237L257.898 78.9825C289.89 68.5138 336.993 78.1412 337.459 78.2347L340.257 78.889L341.376 76.2718C360.59 32.0603 396.127 12.338 406.574 7.3841C407.693 6.91675 408.719 6.82327 409.558 7.29063C440.898 23.0871 442.39 103.565 442.39 104.406V106.276L443.976 107.304C473.73 126.839 487.72 164.695 477.927 199.372Z" fill="#515151"/>
</g>
<defs>
<clipPath id="clip0_4460_40309">
<rect width="488" height="418" fill="white"/>
</clipPath>
</defs>
</svg>
