<svg width="406" height="418" viewBox="0 0 406 418" fill="none" xmlns="http://www.w3.org/2000/svg">
<g clip-path="url(#clip0_4584_40525)">
<path d="M362.747 105.622C362.747 105.622 361.439 17.573 324.977 4.11328C324.977 4.11328 278.138 22.527 254.765 76.0856C254.765 76.0856 206.617 65.9907 173.147 76.8333C173.147 76.8333 133.319 12.993 94.5203 5.51534C90.2197 4.6741 86.0126 7.01087 84.1428 10.9366C76.9439 26.2658 59.5545 67.7667 61.9853 105.529C61.9853 106.931 42.8195 117.4 33.9378 130.112C8.8821 165.724 18.6052 209.094 44.0349 238.444C44.7828 239.285 45.6243 240.126 46.3722 240.874C39.7343 244.893 -21.9701 284.525 15.333 367.9C15.333 367.9 24.4017 412.673 49.3639 413.794C57.2172 414.168 64.3226 409.401 68.4362 402.671C68.9036 401.924 69.2776 401.176 69.7451 400.428C69.7451 400.896 70.5865 405.943 76.8504 408.56C89.8457 414.075 100.971 403.232 107.329 389.866C109.292 385.847 111.629 380.519 111.442 374.817H143.416C143.416 374.817 145.006 409.588 175.858 407.999C175.858 407.999 207.552 412.673 207.552 363.975H226.811V394.446C226.811 394.446 230.27 405.289 240.554 408.186C250.558 410.99 259.439 407.065 267.199 400.241C278.886 390.053 294.125 368.835 295.527 327.147V279.384C348.069 268.167 396.965 243.398 400.798 190.213C400.798 190.213 410.148 136.654 362.747 105.529V105.622Z" fill="#FFF8E9"/>
<path d="M12.1541 288.543C11.6866 289.758 11.3126 290.88 10.9387 292.095C6.82504 304.62 5.42267 319.856 9.16233 337.895C9.34931 339.017 9.62979 340.139 9.81677 341.354" fill="#A28977"/>
<path d="M224.754 72.9056C224.754 72.9056 250.09 176.938 387.429 130.483C387.429 130.483 371.723 114.033 362.841 106.275C362.841 106.275 359.475 14.58 325.07 4.76562C325.07 4.76562 271.219 25.2357 257.756 72.3448L254.952 76.7379L224.847 72.9056H224.754Z" fill="#A28977"/>
<path d="M260.748 184.231C267.873 184.231 273.649 178.456 273.649 171.333C273.649 164.209 267.873 158.434 260.748 158.434C253.622 158.434 247.846 164.209 247.846 171.333C247.846 178.456 253.622 184.231 260.748 184.231Z" fill="#515151"/>
<path d="M158.561 184.138C165.635 184.138 171.37 178.405 171.37 171.333C171.37 164.261 165.635 158.527 158.561 158.527C151.487 158.527 145.753 164.261 145.753 171.333C145.753 178.405 151.487 184.138 158.561 184.138Z" fill="#515151"/>
<path d="M238.871 206.382C237.936 204.98 236.066 204.606 234.664 205.54C233.262 206.475 232.888 208.345 233.823 209.747C236.253 213.392 236.721 214.14 235.506 217.692C234.851 219.748 232.794 221.243 230.177 221.898C227.465 222.552 223.632 222.178 220.921 219.374C218.958 217.318 217.275 214.794 216.527 213.018C219.144 211.896 221.295 209.653 221.669 206.569C222.323 201.989 219.144 197.689 214.563 197.035C209.982 196.38 205.682 199.558 205.027 204.138C204.466 207.877 206.523 211.336 209.795 212.831C208.299 219.094 205.682 220.776 200.82 221.711C198.202 222.178 194.369 221.898 192.219 220.309C191.284 219.654 190.817 218.813 190.63 217.785C189.975 213.018 192.686 211.523 193.621 211.055C195.117 210.214 195.585 208.438 194.743 206.942C193.902 205.447 192.125 204.98 190.63 205.821C185.955 208.438 183.898 213.018 184.646 218.626C185.02 221.337 186.422 223.58 188.666 225.169C192.593 228.067 198.202 228.254 201.849 227.599C207.458 226.571 211.198 224.234 213.535 219.935C214.844 221.804 216.153 223.206 216.433 223.487C219.331 226.478 223.352 228.067 227.652 228.067C228.868 228.067 230.083 227.973 231.298 227.693C236.066 226.665 239.713 223.58 241.022 219.561C243.078 213.392 241.582 210.588 238.684 206.288L238.871 206.382Z" fill="#515151"/>
<path d="M296.088 199.373C295.059 199.373 294.124 198.718 293.844 197.69C293.47 196.475 294.218 195.166 295.433 194.793L339.094 181.894C340.309 181.52 341.618 182.268 341.992 183.483C342.366 184.698 341.618 186.006 340.403 186.38L296.742 199.279C296.742 199.279 296.275 199.279 296.088 199.279V199.373Z" fill="#6D5B50"/>
<path d="M340.402 220.123C340.402 220.123 340.122 220.123 340.028 220.123L295.152 212.364C293.843 212.178 293.002 210.962 293.282 209.654C293.469 208.439 294.591 207.504 295.994 207.784L340.87 215.542C342.178 215.729 343.02 216.945 342.739 218.253C342.552 219.375 341.524 220.216 340.402 220.216V220.123Z" fill="#6D5B50"/>
<path d="M119.669 199.373C119.669 199.373 119.202 199.373 119.015 199.373L75.3541 186.474C74.1387 186.1 73.3908 184.791 73.7647 183.576C74.1387 182.361 75.4476 181.613 76.663 181.987L120.324 194.886C121.539 195.26 122.287 196.569 121.913 197.784C121.632 198.812 120.697 199.466 119.669 199.466V199.373Z" fill="#6D5B50"/>
<path d="M75.3545 220.122C74.2326 220.122 73.2042 219.281 73.0172 218.159C72.8302 216.851 73.6717 215.636 74.8871 215.449L119.763 207.691C121.072 207.41 122.287 208.345 122.474 209.56C122.661 210.869 121.82 212.084 120.604 212.271L75.7285 220.029C75.7285 220.029 75.448 220.029 75.3545 220.029V220.122Z" fill="#6D5B50"/>
<path d="M7.47949 309.667C7.47949 309.667 97.1378 316.491 46.5589 245.453L36.6488 253.211C36.6488 253.211 9.6298 275.083 7.47949 309.761V309.667Z" fill="#A28977"/>
<path d="M291.413 338.081C291.413 338.081 224.193 335.371 257.943 402.856C269.91 397.155 278.605 383.882 283.84 370.516C287.767 360.514 291.039 348.457 291.507 338.175L291.413 338.081Z" fill="#A28977"/>
<path d="M3.45929 344.999C5.32912 352.664 8.13386 360.702 11.967 369.208C12.4345 371.171 21.9706 416.691 49.3636 417.906C49.6441 417.906 49.9246 418 50.2985 418C57.3104 418 63.9483 414.448 68.8098 408.559C71.8951 411.27 77.0371 414.168 83.5815 414.168C86.2927 414.168 89.2845 413.607 92.4632 412.392C93.2111 411.924 109.853 401.643 113.031 378.929H140.424C141.266 384.724 143.977 396.502 152.672 404.447C158.842 410.055 166.602 412.579 175.484 412.111C175.951 412.205 187.451 413.7 197.361 405.194C205.962 397.717 210.543 385.285 211.104 368.18H223.445V390.052C223.445 399.025 228.867 407.064 237.375 410.242C248.033 413.981 260.187 411.55 269.069 403.979C281.97 392.95 297.677 370.797 299.173 327.801V281.159C325.164 274.99 386.4 255.081 401.64 201.242C412.111 164.321 397.619 123.942 366.3 102.444C365.926 89.6381 362.186 17.4789 329.558 1.02811C326.753 -0.373952 323.481 -0.373952 320.395 1.02811C309.55 6.26245 273.182 26.2651 252.801 70.8506C242.143 68.8877 204.092 62.999 174.736 71.5048C167.069 59.7276 131.543 8.03839 95.5484 0.934635C89.565 -0.187011 83.675 2.80404 81.0572 8.22533C71.0536 29.4431 64.2288 50.6609 60.6761 71.2244C59.4607 78.4217 58.7128 85.1515 58.5258 91.6945C58.4323 93.4704 58.4323 95.0594 58.5258 96.5549C58.5258 97.3962 58.6193 98.1439 58.6193 98.7982C58.6193 100.2 58.4323 101.322 57.9648 102.257C57.5909 103.191 56.7494 104.033 55.4406 104.967C33.9375 120.67 20.5682 142.823 17.7635 167.499C14.8652 192.923 23.2795 218.534 41.5103 239.565C41.6973 239.752 41.8843 240.032 42.1648 240.219C36.0878 244.238 22.812 254.52 12.9019 271.345C10.3777 275.551 8.13386 280.131 6.17054 285.178L3.83325 292.095C-0.0933908 304.994 -1.49576 320.23 1.86993 337.896L3.45929 344.999ZM89.378 406.129C80.7768 409.588 74.5128 404.353 72.7365 402.671C76.2892 395.941 79.1874 387.155 80.3093 378.929H105.926C102.934 397.53 89.4715 406.036 89.378 406.129ZM292.161 327.707C290.759 367.993 276.361 388.463 264.581 398.652C257.569 404.634 248.033 406.596 239.338 403.512C234.009 401.549 230.457 396.128 230.457 390.052V361.17H230.363V354.066C230.363 352.103 228.774 350.514 226.81 350.514C224.847 350.514 223.351 352.103 223.351 354.066V361.17H211.104V354.066C211.104 352.103 209.515 350.514 207.551 350.514C205.588 350.514 204.092 352.103 204.092 354.066V366.124C203.812 382.014 200.072 393.417 192.873 399.773C185.394 406.316 176.886 405.194 175.858 405.101C168.378 405.568 162.114 403.512 157.44 399.306C148.278 391.08 147.156 376.779 147.062 375.471V354.066C147.062 352.103 145.566 350.514 143.603 350.514C141.64 350.514 140.05 352.103 140.05 354.066V371.919H80.9637V354.066C80.9637 352.103 79.3744 350.514 77.4111 350.514C75.4477 350.514 73.9519 352.103 73.9519 354.066V371.919L73.6714 375.19C72.9235 384.07 69.6513 394.632 65.5376 401.456C61.798 407.531 55.3471 411.27 49.6441 410.896C27.6736 409.961 18.9789 368.18 18.6049 367.058C15.1457 359.207 12.528 351.823 10.7516 344.813C10.3777 343.691 10.0972 342.476 9.81671 341.354C9.62972 340.139 9.34925 339.017 9.16227 337.896C5.42261 319.856 6.82498 304.62 10.9386 292.095C11.3126 290.88 11.6865 289.758 12.154 288.543C12.528 287.328 12.9954 286.113 13.5564 284.991C23.186 261.904 40.9494 249.099 46.9328 245.36C77.598 275.831 122.754 284.337 154.729 288.169C171.837 290.132 189.04 291.16 206.149 291.16C234.944 291.16 263.833 288.356 292.161 282.655V327.707ZM394.908 199.372C380.884 248.631 324.696 267.699 299.173 273.962C296.462 274.616 294.124 275.177 292.161 275.551C247.098 284.618 201.194 286.487 155.57 281.159C126.775 277.794 86.9472 270.41 58.1518 245.921C55.1601 243.491 52.3553 240.873 49.7376 237.976C48.7092 236.948 47.7743 235.919 46.8393 234.891C29.9174 215.449 22.0641 191.801 24.6819 168.34C27.2996 145.627 39.6405 125.157 59.5542 110.669C61.798 109.08 63.2938 107.304 64.3223 105.341C65.7246 102.444 65.6311 99.4525 65.5376 96.368C65.4442 95.0594 65.4442 93.5639 65.5376 91.9749C65.7246 85.7124 66.4726 79.3564 67.6879 72.3461C71.0536 52.4369 77.6915 31.8734 87.4147 11.2164C88.63 8.69269 91.5283 7.19716 94.2395 7.85145C130.982 15.0487 169.874 76.8327 170.248 77.487L171.744 79.8237L174.362 78.9825C206.429 68.5138 253.643 78.1412 254.11 78.2347L256.915 78.889L258.037 76.2718C277.296 32.0603 312.916 12.338 323.387 7.3841C324.509 6.91675 325.538 6.82327 326.379 7.29063C357.792 23.0871 359.288 103.565 359.288 104.406V106.276L360.877 107.304C390.701 126.839 404.725 164.695 394.908 199.372Z" fill="#515151"/>
</g>
<defs>
<clipPath id="clip0_4584_40525">
<rect width="405.005" height="418" fill="white"/>
</clipPath>
</defs>
</svg>
