<svg width="118" height="80" viewBox="0 0 118 80" fill="none" xmlns="http://www.w3.org/2000/svg">
<g clip-path="url(#clip0_4584_40557)">
<path d="M113.072 18.0016C113.072 18.0016 85.0567 24.171 47.5346 6.87647C35.4992 1.31389 20.6319 3.43779 11.2261 13.0459C2.62939 21.8449 -1.6184 34.4871 15.8784 49.5566C50.9733 79.5945 101.846 77.0661 108.622 75.4479C115.398 73.8297 113.072 18.1028 113.072 18.1028V18.0016Z" fill="#A28977"/>
<path d="M96.485 80.0012C77.0666 80.0012 40.7581 75.7535 13.4509 52.3906C4.85418 45.0076 0.404112 37.4222 -0.000438997 29.7358C-0.303852 22.9595 2.52801 16.4867 8.49514 10.4184C18.9123 -0.201024 35.1955 -3.03288 49.1525 3.43994C84.9553 20.0265 111.959 14.3628 112.263 14.3628L116.713 13.3514L116.915 17.9026C119.241 76.6637 112.263 78.383 109.633 79.091C108.015 79.4956 103.261 80.0012 96.5862 80.0012H96.485ZM33.7796 7.68772C26.3965 7.68772 19.1146 10.5196 14.0577 15.6776C9.60765 20.2288 7.48376 24.8812 7.68603 29.4324C7.88831 34.8938 11.5293 40.7598 18.5078 46.6258C51.0742 74.5398 98.7101 73.225 107.003 71.9102C109.431 67.1567 110.139 43.7939 109.532 22.4538C99.9237 23.5664 75.954 24.1732 46.1184 10.4184C42.174 8.59796 38.0274 7.78886 33.8807 7.78886L33.7796 7.68772Z" fill="#515151"/>
</g>
<defs>
<clipPath id="clip0_4584_40557">
<rect width="117.32" height="80" fill="white"/>
</clipPath>
</defs>
</svg>
