<svg width="1920" height="81" viewBox="0 0 1920 81" fill="none" xmlns="http://www.w3.org/2000/svg">
<!-- <rect width="1920" height="69" fill="#FFFAF6"/> -->
<path fill-rule="evenodd" clip-rule="evenodd" d="M0 32.5309V81H1920L1920 2.74932C1910.67 1.60386 1900.97 1 1891.02 1C1835.62 1 1788.08 19.7076 1767.7 46.3848C1751.23 31.345 1716.86 21 1677.13 21C1654.59 21 1633.77 24.3294 1616.97 29.9567C1598.46 20.1908 1570.93 14 1540.2 14C1490.72 14 1449.56 30.0427 1440.92 51.2165C1426.27 40.7263 1403.66 34 1378.28 34C1351.27 34 1327.38 41.6234 1312.91 53.2959C1297.18 34.6062 1248.95 21 1191.88 21C1133.58 21 1084.5 35.1993 1069.88 54.5119C1053.82 45.5843 1030.91 40 1005.48 40C993.111 40 981.342 41.32 970.667 43.7024C957.396 29.033 930.523 19 899.532 19C861.642 19 829.908 33.9966 821.66 54.1279C799.267 45.4244 767.654 40 732.619 40C691.68 40 655.416 47.406 633.073 58.7955C622.388 37.5174 589.111 22 549.714 22C516.661 22 487.915 32.9224 473.205 49.0056C452.478 28.2185 411.711 8 364.81 8C303.302 8 252.344 42.7741 243.3 68H242.912C228.402 56.4947 204.693 49 177.907 49C158.7 49 141.075 52.8537 127.289 59.2765C119.797 38.5697 87.5811 23 48.9746 23C30.5227 23 13.5306 26.5567 0 32.5309Z" fill="#F7ECE3"/>
</svg>
