<?xml version="1.0" encoding="UTF-8"?>
<svg id="_圖層_1" data-name="圖層 1" xmlns="http://www.w3.org/2000/svg" viewBox="0 0 156 109.2">
  <defs>
    <style>
      .cls-1 {
        fill: white;
        opacity:0.7;
      }
    </style>
  </defs>
  <path class="cls-1" d="m0,74.1c0,19.38,15.72,35.1,35.1,35.1h89.7c17.23,0,31.2-13.97,31.2-31.2,0-15.09-10.73-27.69-24.96-30.57,1-2.61,1.56-5.46,1.56-8.43,0-12.92-10.48-23.4-23.4-23.4-4.8,0-9.29,1.46-12.99,3.95C89.46,7.85,76.85,0,62.4,0,40.85,0,23.4,17.45,23.4,39c0,.66.02,1.32.05,1.97C9.8,45.78,0,58.79,0,74.1Z"/>
</svg>