<svg width="52" height="43" viewBox="0 0 52 43" fill="none" xmlns="http://www.w3.org/2000/svg">
<g clip-path="url(#clip0_3000_60003)">
<path d="M50.0217 22.1265C47.1837 22.713 43.9233 25.7072 41.7606 30.0596C39.5681 34.4769 40.5409 38.2922 42.5043 40.6444C44.6581 39.2954 51.8423 33.8472 50.0217 22.1265Z" fill="#A28977"/>
<path d="M17.0907 17.2615C17.882 11.7392 16.7724 6.63973 14.4669 3.64551C7.57715 4.374 4.81947 12.6128 4.81947 12.6128C3.53434 18.1937 5.66433 26.2504 5.66433 26.2565C10.2932 26.1979 15.984 24.994 17.0907 17.2615Z" fill="#F0C376"/>
<path d="M47.377 13.2581L42.9802 0.688477L42.6648 3.01286C41.93 6.58432 39.5412 8.30986 38.3037 8.97971C38.6785 9.64646 39.1486 10.2854 39.7078 10.8719C41.9509 13.2303 45.0001 14.0822 47.377 13.2581Z" fill="#A28977"/>
<path d="M37.8398 42.1567C36.1144 42.1567 34.746 41.74 33.7672 40.9158C32.9878 40.2583 32.4881 39.2644 32.3988 38.1901C32.3185 37.2116 32.5892 36.2948 33.1663 35.6065C33.6483 35.0323 34.2343 34.5755 34.8174 34.3223C35.3796 34.0785 35.9716 34.0229 36.5428 33.9704C36.7391 33.9519 36.9384 33.9334 37.1348 33.9087C37.2895 33.8871 37.4322 34.0013 37.4501 34.1618C37.4679 34.3223 37.3609 34.4705 37.2062 34.489C37.0039 34.5168 36.7986 34.5353 36.5933 34.5539C36.04 34.6032 35.5194 34.6526 35.0375 34.8625C34.5348 35.0817 34.0231 35.4799 33.5947 35.9892C33.1187 36.5572 32.8956 37.3197 32.964 38.1377C33.0384 39.0421 33.4757 39.9095 34.1272 40.459C35.1089 41.2862 36.5547 41.6536 38.4407 41.5517C41.6714 41.3757 44.6165 39.5236 46.7286 36.335C49.2691 32.5042 50.4472 27.5467 49.879 23.0739C49.519 20.2248 48.6593 17.6874 47.749 15.0019C47.511 14.295 47.2849 13.6128 47.0588 12.9337C46.5055 11.2544 45.979 9.66781 45.2739 7.77867C44.9616 6.94214 44.673 6.09326 44.3844 5.24438C43.9561 3.98804 43.5188 2.70084 42.9982 1.45684C42.8792 2.76566 42.6293 4.13621 42.0224 5.51294C41.3233 7.10883 40.0025 8.46086 38.4943 9.13071C37.7535 9.461 36.983 9.53508 36.2691 9.3437C35.4302 9.12144 34.5615 8.51334 33.684 7.53173C33.2734 7.07179 32.9254 6.58098 32.6368 6.16117C31.9823 5.19808 31.5064 4.23499 31.0096 3.16386C31.2059 4.8184 31.2595 5.78458 31.2714 7.26626C31.2892 9.47334 31.1613 11.6681 31.0453 13.3319C30.9649 14.4925 30.8817 15.6563 30.7954 16.8169C30.6794 18.4005 30.5663 19.9809 30.4622 21.5645C30.4146 22.2899 30.3908 23.0184 30.364 23.7469L30.3432 24.3334C30.2748 26.4509 30.2004 28.6426 29.4924 30.6953C29.0105 32.0875 27.8622 34.4798 25.5894 34.8409C25.1938 34.9027 24.816 34.8594 24.4917 34.7175C24.0366 34.5199 23.6468 34.1032 23.391 33.5445C23.0519 32.8036 22.8526 31.9949 22.689 31.1861C22.6443 32.5381 22.5253 33.8994 22.2249 35.2484C21.6567 37.8135 20.6571 39.3199 19.1667 39.8478C15.7278 41.0702 11.7415 39.0112 9.58181 36.3411C8.04085 34.4396 6.83604 31.9362 5.89599 28.6889C5.36052 26.8429 4.95594 24.8334 4.65846 22.543L4.63763 22.3763C4.27173 19.5858 3.8969 16.6996 4.39965 13.8783C4.78935 11.6959 5.6699 9.7419 7.08592 7.90215C7.34176 7.57186 7.62437 7.24465 7.9278 6.93288C9.31408 5.50676 11.5839 3.72566 14.5141 3.34598C14.9425 3.29042 15.3768 3.26264 15.823 3.26881C17.7418 3.28733 20.556 4.45107 21.969 5.80927C23.3196 7.10883 24.4649 8.87758 25.3752 11.0723C26.0178 12.6219 26.467 14.119 26.7109 15.5266C26.7377 15.6871 26.6366 15.8384 26.4819 15.8662C26.3302 15.897 26.1814 15.789 26.1546 15.6285C25.9196 14.2672 25.4823 12.8102 24.8576 11.3038C23.98 9.18627 22.8793 7.48234 21.5853 6.24143C20.2615 4.96657 17.6198 3.87383 15.8171 3.85531C15.4065 3.85222 14.9871 3.87383 14.5855 3.92631C11.8129 4.28438 9.65321 5.98522 8.32643 7.34652C8.03787 7.64285 7.77014 7.95154 7.52918 8.26639C6.17265 10.029 5.33077 11.8996 4.95594 13.9832C4.46807 16.712 4.83992 19.5519 5.1969 22.296L5.21773 22.4627C5.51224 24.7223 5.91086 26.701 6.43741 28.5191C7.35366 31.6893 8.52575 34.1217 10.0132 35.9614C12.0509 38.4772 15.7873 40.4281 18.9823 39.2891C20.2734 38.8291 21.1539 37.4647 21.6745 35.1126C22.1803 32.8376 22.1594 30.5934 22.1386 28.2197V27.769C22.1327 27.6486 22.2041 27.5375 22.3141 27.4943C22.4212 27.4511 22.5462 27.4788 22.6265 27.5714C22.7455 27.7073 22.7663 27.911 22.7693 27.9666C22.802 28.55 22.8912 29.2229 23.04 30.0162L23.0906 30.2817C23.2809 31.3096 23.4803 32.3745 23.8997 33.2944C24.096 33.7204 24.3816 34.0353 24.7089 34.1773C24.9379 34.2791 25.2146 34.3069 25.5031 34.2606C27.4844 33.9457 28.5196 31.7695 28.9569 30.4978C29.6382 28.5314 29.7066 26.3892 29.775 24.3148L29.7958 23.7283C29.8196 22.9937 29.8464 22.259 29.894 21.5274C29.9981 19.9439 30.1141 18.3603 30.2272 16.7768C30.3105 15.6161 30.3968 14.4555 30.4771 13.2948C30.5901 11.6403 30.721 9.461 30.7032 7.27552C30.6883 5.34934 30.599 4.30907 30.2153 1.41054C30.1974 1.26855 30.2807 1.13272 30.4116 1.08951C30.5455 1.04629 30.6853 1.11112 30.7478 1.24076C30.9174 1.60501 31.075 1.95074 31.2297 2.28411C31.8277 3.58984 32.3423 4.71654 33.0949 5.82471C33.3716 6.22908 33.7048 6.70137 34.0945 7.13661C34.8977 8.03179 35.6741 8.58434 36.4059 8.77881C36.9979 8.93624 37.6435 8.87141 38.2682 8.5936C39.6515 7.97932 40.8622 6.73841 41.5048 5.27217C42.1057 3.90161 42.3973 2.45389 42.5073 0.280759C42.5133 0.148025 42.6055 0.0338127 42.7334 0.00911803C42.8584 -0.0186635 42.9863 0.0492469 43.0428 0.169633C43.7835 1.75318 44.3577 3.43241 44.911 5.05609C45.1966 5.89879 45.4851 6.7415 45.7945 7.57186C46.5055 9.47334 47.0291 11.0661 47.5854 12.7516C47.8085 13.4276 48.0346 14.1098 48.2726 14.8166C49.1918 17.5331 50.0604 20.0951 50.4293 23.006C51.0154 27.6208 49.8016 32.7295 47.1838 36.6776C45.0002 39.9712 41.8201 41.9653 38.4586 42.1475C38.2444 42.1598 38.0332 42.166 37.8279 42.166L37.8398 42.1567Z" fill="#515151"/>
<path d="M13.0633 18.9376C13.5824 18.9317 13.9956 18.2 13.9861 17.3033C13.9766 16.4066 13.548 15.6845 13.0289 15.6904C12.5097 15.6964 12.0966 16.4281 12.1061 17.3247C12.1156 18.2214 12.5441 18.9435 13.0633 18.9376Z" fill="#515151"/>
<path d="M20.9633 16.9124C21.4381 16.9069 21.816 16.2392 21.8073 15.421C21.7986 14.6027 21.4067 13.9438 20.9319 13.9492C20.4572 13.9546 20.0793 14.6223 20.088 15.4406C20.0966 16.2588 20.4886 16.9178 20.9633 16.9124Z" fill="#515151"/>
<path d="M4.45341 19.4565C4.83716 21.0524 2.37102 20.9104 1.69276 20.7097C0.94905 20.4906 0.419529 19.7651 0.252938 18.9224C-0.728758 13.9743 5.66119 10.8257 5.66119 10.8257C5.66119 10.8257 3.84059 16.9129 4.45341 19.4565Z" fill="#515151"/>
<path d="M23.1445 7.6152C23.1445 7.6152 27.0862 6.97623 28.3802 11.4799C28.5587 12.1035 28.4219 12.7918 27.9876 13.2641C27.5532 13.7364 26.8244 13.9926 25.8189 12.7856" fill="#515151"/>
<path d="M39.4675 16.9189C39.9193 16.9189 40.2856 16.5389 40.2856 16.0701C40.2856 15.6012 39.9193 15.2212 39.4675 15.2212C39.0157 15.2212 38.6494 15.6012 38.6494 16.0701C38.6494 16.5389 39.0157 16.9189 39.4675 16.9189Z" fill="#515151"/>
<path d="M35.6617 16.9159C36.1103 16.9159 36.4739 16.5386 36.4739 16.0732C36.4739 15.6078 36.1103 15.2305 35.6617 15.2305C35.2132 15.2305 34.8496 15.6078 34.8496 16.0732C34.8496 16.5386 35.2132 16.9159 35.6617 16.9159Z" fill="#515151"/>
<path d="M38.8722 21.1481C38.4736 21.1481 38.0928 20.9907 37.8251 20.7036C37.7983 20.6727 37.6763 20.5431 37.5514 20.361C37.3342 20.7746 36.9862 21.003 36.4596 21.1018C36.1205 21.1666 35.5939 21.1419 35.225 20.8641C35.0138 20.7067 34.8859 20.4844 34.8502 20.2251C34.7758 19.6726 34.9752 19.2281 35.4095 18.975C35.5463 18.8947 35.7189 18.9441 35.7932 19.0861C35.8706 19.2281 35.823 19.4071 35.6861 19.4843C35.6028 19.5337 35.347 19.6819 35.4095 20.1418C35.4214 20.2437 35.469 20.3208 35.5553 20.3826C35.7575 20.5338 36.1115 20.5647 36.3555 20.5184C36.8463 20.4258 37.1022 20.2468 37.2301 19.4905C37.2569 19.3392 37.3818 19.2343 37.5365 19.2497C37.6823 19.2651 37.7953 19.3948 37.7923 19.546C37.7923 19.688 37.9946 20.0369 38.2326 20.29C38.4825 20.5585 38.8424 20.5894 39.0953 20.5307C39.3452 20.4721 39.5356 20.3208 39.5981 20.1233C39.7111 19.7776 39.6695 19.7004 39.4404 19.3454C39.3541 19.2127 39.3868 19.0305 39.5177 18.9379C39.6457 18.8484 39.8212 18.8824 39.9104 19.0182C40.1841 19.4411 40.3299 19.7066 40.1335 20.3085C40.0056 20.7005 39.6665 20.9969 39.2203 21.0987C39.1042 21.1265 38.9882 21.1389 38.8752 21.1389L38.8722 21.1481Z" fill="#515151"/>
<path d="M19.4735 25.4046C19.4944 25.312 19.533 25.2318 19.6044 25.17C20.0417 24.7842 20.6218 24.4755 21.1454 24.2347C21.7047 23.9785 22.2967 23.8026 22.9065 23.7408C22.9124 23.7408 22.9154 23.7408 22.9214 23.7408C23.1861 23.7161 24.0459 23.6143 24.2481 23.8273C24.4445 24.0341 24.3344 24.4786 24.3076 24.7286C24.2065 25.6763 24.0191 26.7165 23.2635 27.3493C22.9035 27.6518 22.4454 27.8 21.9843 27.7877C21.5202 27.7753 21.0472 27.6735 20.6337 27.445C20.241 27.2259 19.9317 26.874 19.7323 26.4603C19.6104 26.2072 19.4021 25.7318 19.4735 25.4015V25.4046Z" fill="#515151"/>
<path d="M41.8348 17.737C41.7753 17.737 41.7545 17.7247 41.7307 17.7123C41.5939 17.6382 41.5403 17.4592 41.6117 17.3172C41.6623 17.2184 41.7605 17.1598 41.8616 17.1598C42.168 17.1196 45.247 16.4436 47.2699 15.9929C47.4216 15.9621 47.5733 16.0609 47.606 16.2183C47.6387 16.3757 47.5406 16.5331 47.3889 16.5671C42.9593 17.5549 42.0728 17.737 41.8319 17.737H41.8348Z" fill="#515151"/>
<path d="M48.4631 20.7375C48.4631 20.7375 48.4423 20.7375 48.4304 20.7344L41.9453 19.5275C41.7906 19.4997 41.6894 19.3454 41.7162 19.1879C41.743 19.0274 41.8887 18.9225 42.0434 18.9503L48.5286 20.1572C48.6833 20.185 48.7844 20.3393 48.7576 20.4968C48.7309 20.6449 48.603 20.7468 48.4602 20.7375H48.4631Z" fill="#515151"/>
<path d="M33.0857 17.6256C33.044 17.6349 32.9994 17.6318 32.9548 17.6164L28.9982 16.2365C28.8673 16.1902 28.8019 16.0452 28.8495 15.9093C28.8971 15.7735 29.0429 15.6994 29.1708 15.7457L33.1273 17.1256C33.2582 17.1719 33.3236 17.3169 33.276 17.4528C33.2433 17.5423 33.169 17.6071 33.0827 17.6256H33.0857Z" fill="#515151"/>
<path d="M33.1153 19.2587C33.1153 19.2587 33.0945 19.2587 33.0856 19.2587L29.5039 19.1352C29.3641 19.1291 29.257 19.0148 29.2629 18.879C29.2689 18.7401 29.3849 18.6352 29.5247 18.6382L33.1064 18.7617C33.2462 18.7679 33.3533 18.8821 33.3474 19.0179C33.3414 19.1445 33.2403 19.2464 33.1153 19.2587Z" fill="#515151"/>
<path d="M32.6785 38.397C32.6785 38.397 32.6547 38.397 32.6428 38.397C32.4911 38.3785 32.381 38.2365 32.3959 38.079C32.4018 38.0173 32.5684 36.5943 34.8293 36.7641C34.984 36.7764 35.103 36.9153 35.0911 37.0758C35.0792 37.2363 34.9483 37.366 34.7906 37.3475C33.1098 37.2271 32.9641 38.1068 32.9581 38.1439C32.9373 38.289 32.8153 38.4001 32.6785 38.4001V38.397Z" fill="#515151"/>
<path d="M33.9461 40.9961C33.7973 40.9961 33.6724 40.8819 33.6516 40.7276C33.6486 40.6936 33.5593 39.9127 34.1127 39.2613C34.5827 38.7057 35.3561 38.4248 36.4092 38.4248C36.5788 38.4279 36.7097 38.5606 36.7097 38.7335C36.7097 38.9033 36.5758 39.0422 36.4122 39.0422H36.4092C35.5406 39.0422 34.9218 39.2521 34.5648 39.6626C34.187 40.101 34.2406 40.6288 34.2435 40.6504C34.2614 40.8202 34.1454 40.9714 33.9847 40.993C33.9728 40.993 33.9609 40.993 33.949 40.993L33.9461 40.9961Z" fill="#515151"/>
</g>
<defs>
<clipPath id="clip0_3000_60003">
<rect width="51.1905" height="43" fill="white"/>
</clipPath>
</defs>
</svg>
