<svg width="175" height="105" viewBox="0 0 175 105" fill="none" xmlns="http://www.w3.org/2000/svg">
<path d="M12.375 91.7737H21.7763C41.4516 91.7737 45.4482 82.5373 45.4482 82.5373L47.8778 76.8319C41.9871 77.8094 37.0683 76.014 37.0683 76.014H30.4239C22.1532 75.4155 19.7731 68.8922 19.7731 68.8922C17.8789 65.7403 22.887 65.5009 22.887 65.5009C28.1331 64.9623 32.0701 61.4413 32.0701 61.4413C43.1672 45.9309 60.4625 58.2494 60.4625 58.2494C73.8603 63.3264 82.2203 58.2494 82.2203 58.2494C91.3936 56.4041 101.449 45.1429 105.922 39.5871C109.869 34.6897 115.254 31.1288 121.323 29.5428C132.866 26.5106 145.342 28.5354 145.342 28.5354C174.319 28.8346 167.546 4.4769 167.546 4.4769C167.546 4.4769 166.931 -0.00165491 170.72 0.0282686C170.72 0.0282686 172.881 -0.630048 173.675 4.40707C173.675 4.40707 178.137 31.5178 144.925 36.8042C144.925 36.8042 151.55 52.7535 142.04 63.3264L135.118 72.4631C135.118 72.4631 132.668 75.216 135.405 80.2931C135.405 80.2931 141.316 88.9908 129.931 95.0753C129.931 95.0753 120.272 103.623 109.323 103.045C109.323 103.045 99.9519 104.062 102.114 98.8456C102.114 98.8456 98.6528 94.6464 117.386 93.0504C117.386 93.0504 127.333 90.0082 123.009 81.0212C123.009 81.0212 118.239 73.281 114.51 70.149C112.715 68.6429 112.041 67.6653 110.603 65.0121L108.441 68.8922C108.441 68.8922 78.9577 78.1585 66.4127 81.9189L63.2392 83.9637C63.2392 83.9637 60.2046 84.622 59.6394 85.779C59.0642 86.9361 57.2692 90.0581 56.6048 90.8062C55.9502 91.5443 51.1207 94.3471 50.7934 94.5167C50.4662 94.6863 36.6617 96.9006 36.6617 96.9006C36.6617 96.9006 10.342 98.716 9.84619 98.6262C9.35034 98.5364 7 96.1824 7 96.1824C7.5851 92.6515 12.3552 91.7837 12.3552 91.7837L12.375 91.7737Z" fill="white"/>
<path d="M120.685 62.1415C119.445 49.4945 137.737 46.0692 147.037 45.9375C147.296 46.8597 147.812 48.8621 147.812 49.4945C147.812 50.2849 146.456 57.2013 146.069 57.9917C145.681 58.7822 137.737 70.4412 137.155 70.6388C136.69 70.7969 135.282 73.076 134.636 74.1958L135.024 78.148L137.155 82.4954L137.737 86.25C132.569 83.4835 121.925 74.7886 120.685 62.1415Z" fill="#FFD4C0"/>
<path d="M105.49 40.3125C97.5597 51.0341 87.1547 56.8679 82.9434 58.4446C83.0768 58.4997 83.2094 58.5537 83.3412 58.6067C77.3423 60.6553 69.4097 61.612 61.1746 58.4446C55.7324 54.3715 42.7099 48.945 34.1579 59.8242C33.3156 61.0725 31.2424 63.5689 29.6875 63.5689C29.776 63.6138 29.9603 63.7813 30.2366 64.0325C32.387 65.9875 40.1111 73.0096 51.6507 66.7223C52.8169 69.3501 56.0045 74.6847 59.4253 75C59.4253 74.4508 59.6376 73.9494 59.9142 73.2959C60.4317 72.0734 61.1746 70.3185 61.1746 66.7223C61.9391 66.7223 92.7712 65.579 99.3449 58.7954C105.021 54.9761 106.052 46.2161 105.49 40.3125Z" fill="#FFD4C0"/>
<path d="M108.275 103.125C109.248 103.125 109.973 103.046 110.052 103.046C120.96 103.64 130.796 95.1275 130.895 95.0384C134.696 93.0391 137.038 90.4558 137.793 87.427C138.795 83.3491 136.542 79.9937 136.443 79.8551C133.902 75.1834 136.036 72.6792 136.125 72.5703L143.063 63.4841C151.698 53.9624 147.172 39.9569 146.18 37.235C157.048 35.4336 165.017 31.1181 169.861 24.4074C176.471 15.2816 174.824 4.80963 174.804 4.70075C174.446 2.42425 173.752 0.939569 172.739 0.316005C172.134 -0.0700115 171.598 -0.0106244 171.409 0.0289671C170.308 0.0289671 169.434 0.38529 168.819 1.08804C167.568 2.50343 167.876 4.79973 167.886 4.89871C167.926 5.04718 170.506 14.5788 165.276 21.3687C161.653 26.0702 155.211 28.4259 146.07 28.317C146.001 28.3071 133.436 26.3375 121.922 29.3365C115.868 30.9103 110.32 34.4933 106.3 39.4422C102.3 44.3516 91.9832 56.0539 82.7826 57.8949C82.7032 57.9444 74.3213 62.7319 61.2896 57.8621C60.7933 57.5256 56.6347 54.7245 51.1361 53.6357C45.8063 52.5767 38.2235 53.0221 32.3676 61.1482C32.3676 61.1482 28.4869 64.4937 23.4548 65.0084C23.1769 65.0183 20.5368 65.1865 19.7627 66.6415C19.4054 67.3047 19.5046 68.0866 20.0406 68.9774C20.0406 68.9774 22.5715 75.6288 31.0079 76.2325H37.6181C38.2334 76.4404 42.5509 77.836 47.8608 77.1431L45.7071 82.1514C44.3374 85.2396 37.7074 91.0793 22.3829 91.0793H12.9044C12.696 91.1189 7.85248 92.0394 7.21727 95.7808L7.1875 95.9788L7.33638 96.1272C8.2495 97.0378 9.85736 98.572 10.3933 98.6611C10.8995 98.7106 31.127 97.3743 37.3203 96.9487C42.5409 96.1173 51.2751 94.7019 51.6126 94.5337C51.8111 94.4347 56.8233 91.5841 57.5478 90.7626C58.2624 89.9609 60.1085 86.754 60.6345 85.6949C60.9918 84.9822 62.8677 84.3488 63.9694 84.1112L64.0984 84.0617L67.2248 82.0624C79.671 78.3606 108.94 69.2446 109.238 69.1457L109.387 69.0962L111.283 65.7309C112.523 67.948 113.248 68.9081 114.935 70.3136C118.578 73.3424 123.312 80.934 123.362 81.0033C124.533 83.4184 124.711 85.6256 123.878 87.526C122.369 90.9704 118.002 92.3363 117.962 92.3561C108.553 93.1381 103.253 94.7019 102.29 96.9883C102.003 97.6812 102.191 98.2355 102.35 98.5225C101.913 99.6706 101.983 100.631 102.558 101.393C103.66 102.858 106.419 103.125 108.265 103.125H108.275ZM110.032 102.254C108.484 102.412 104.375 102.482 103.204 100.918C102.777 100.344 102.767 99.6014 103.174 98.6314L103.263 98.4136L103.114 98.2256C103.114 98.2256 102.807 97.8197 103.045 97.2655C103.531 96.147 106.141 94.1279 118.131 93.1183C118.409 93.0391 122.965 91.6237 124.622 87.8427C125.555 85.7147 125.366 83.2798 124.076 80.6173C123.858 80.261 119.213 72.8079 115.461 69.6999C113.704 68.245 113.069 67.3344 111.65 64.7213L111.302 64.0879L108.861 68.433C106.558 69.1457 78.9067 77.7667 66.9568 81.3101L66.8576 81.3596L63.7411 83.3491C63.1853 83.4778 60.5452 84.131 59.9298 85.3386C59.3542 86.4867 57.5776 89.5352 56.9523 90.238C56.3568 90.9012 51.6026 93.6528 51.2552 93.821C50.8086 93.9596 42.6203 95.2958 37.231 96.1569C30.065 96.6419 11.2469 97.8791 10.4926 97.8692C10.2544 97.7802 9.05343 96.7013 8.04107 95.7016C8.69613 92.8213 12.6166 91.9404 13.0136 91.8612H22.3829C42.1042 91.8612 46.2728 82.8344 46.4415 82.4484L49.161 76.1237L48.4464 76.2424C42.7295 77.1827 37.8761 75.4704 37.8265 75.4506L37.6875 75.4308H31.0377C23.1571 74.8666 20.8545 68.8784 20.7552 68.6211C20.3383 67.9183 20.259 67.4036 20.4674 67.0077C20.9438 66.107 22.8296 65.8299 23.5243 65.7903C28.8541 65.2459 32.7944 61.8114 32.9632 61.6629C37.5287 55.358 43.5632 52.933 50.9674 54.3979C56.5354 55.4965 60.8429 58.4956 60.8826 58.5253L60.972 58.5748C73.964 63.4544 82.3214 59.1722 83.175 58.6773C92.2664 56.8264 101.903 46.1035 106.925 39.9371C110.846 35.1268 116.245 31.6328 122.131 30.0986C133.475 27.1491 145.882 29.0792 146.011 29.099C155.45 29.2177 162.139 26.7532 165.921 21.8339C171.389 14.7372 168.779 5.14616 168.67 4.73045C168.67 4.73045 168.422 2.73108 169.424 1.59283C169.891 1.06824 170.605 0.801 171.459 0.810897L171.578 0.791102C171.578 0.791102 171.925 0.711919 172.352 0.989059C172.898 1.34538 173.633 2.29558 174.03 4.81953C174.049 4.9284 175.637 15.0836 169.226 23.9422C164.432 30.5638 156.482 34.8001 145.584 36.5125L145.088 36.5916L145.286 37.0568C145.356 37.2152 151.708 52.7746 142.477 62.9595L135.53 72.0457C135.44 72.1447 132.939 75.025 135.788 80.2412C135.828 80.3105 137.961 83.4976 137.038 87.229C136.344 90.0301 134.13 92.4353 130.468 94.3753C130.299 94.5139 120.731 102.818 110.052 102.244L110.032 102.254Z" fill="#515151"/>
<path d="M21.1723 69.375C24.239 68.1588 22.7764 65.625 22.7764 65.625C22.6726 65.7061 20.3514 65.9493 20.3137 66.9426C20.2759 67.9358 21.1629 69.375 21.1629 69.375H21.1723Z" fill="#515151" stroke="#515151" stroke-width="0.8" stroke-miterlimit="10"/>
<path d="M60.5248 63.5349C60.5248 63.5349 61.2645 72.836 58.7244 75C58.7244 75 48.963 68.7265 48.4375 58.125" fill="#FFD4C0"/>
<path d="M59.2747 75.9375L59.4912 75.7443C62.1882 73.4161 61.4893 64.0523 61.4598 63.6558L60.6724 63.7168C60.8692 66.2179 60.9677 72.8976 59.1959 74.9106C57.6604 73.8126 49.6974 67.6718 49.2249 58.125L48.4375 58.1657C48.9789 69.1053 58.9302 75.7138 59.0286 75.7748L59.2747 75.9375Z" fill="#515151"/>
<path d="M38.5 65C37.6716 65 37 64.3284 37 63.5C37 62.6716 37.6716 62 38.5 62C39.3284 62 40 62.6716 40 63.5C40 64.3284 39.3284 65 38.5 65Z" fill="#515151"/>
<path d="M59.1071 82.5086C47.9681 93.9508 32.7326 95.041 32.7326 95.041C23.3295 96.6713 9.0561 96.1312 9.0561 96.1312C1.26973 96.0212 0.624997 103.763 0.624997 103.763C9.71075 106.813 20.3042 103.263 20.3042 103.263C24.5197 102.873 61.4975 101.042 61.4975 101.042C66.2586 100.932 67.9845 99.4119 67.9845 99.4119L76.5347 94.2608C77.0901 93.9208 77.7349 93.7407 78.3895 93.7407H80.7403C107.66 93.4107 110.15 70.4162 110.15 70.4162C110.15 70.4162 110.239 69.236 110.576 64.8551C110.576 64.8551 108.275 55.2532 116.875 51.5625" fill="white"/>
<path d="M9.25365 105C15.4734 105 20.696 103.304 20.7651 103.274C24.8129 102.909 61.2922 101.115 61.6575 101.105C66.4654 100.996 68.282 99.458 68.3511 99.3989L76.8021 94.3598C77.2957 94.064 77.8683 93.9062 78.4409 93.9062H80.7807C107.614 93.5808 110.418 70.7819 110.438 70.555L110.863 65.0032L110.843 64.9441C110.754 64.5693 108.73 55.7535 116.875 52.2922L116.569 51.5625C108.177 55.1224 109.875 64.1946 110.063 65.0525L109.777 68.78C109.691 69.9174 109.648 70.4926 109.648 70.5057C109.629 70.6832 106.884 92.8018 80.7709 93.1075H78.4311C77.7104 93.1075 76.9995 93.3047 76.3874 93.6696L67.8772 98.748C67.8081 98.8072 66.11 100.198 61.618 100.306C61.2428 100.326 24.7537 102.121 20.5973 102.505C20.4097 102.554 10.2212 105.868 1.48391 103.117C1.69123 101.726 2.92532 96.263 9.28328 96.263C9.33264 96.263 9.382 96.263 9.44123 96.263C9.56958 96.263 23.7861 96.7857 33.0763 95.1783C33.1947 95.1783 48.4874 93.9654 59.5447 82.704L58.982 82.1517C48.1419 93.1962 33.1355 94.3796 32.9775 94.3993C23.7269 95.9869 9.5992 95.4741 9.45111 95.4741C9.39188 95.4741 9.34252 95.4741 9.28328 95.4741C1.40494 95.4741 0.654613 103.284 0.654613 103.363L0.624997 103.669L0.921178 103.767C3.65589 104.675 6.53869 105 9.23392 105H9.25365Z" fill="#515151"/>
</svg>
