<svg width="525" height="355" viewBox="0 0 525 355" fill="none" xmlns="http://www.w3.org/2000/svg">
<g clip-path="url(#clip0_4460_40299)">
<path d="M425.201 220.734C425.666 221.852 426.132 222.97 426.505 224.181C429.673 232.288 431.817 241.605 432.003 252.227C432.096 253.346 432.096 254.557 432.096 255.768C448.776 255.954 482.975 253.718 508.228 239.369C524.442 230.238 524.162 218.218 516.148 212.814C507.575 207.037 490.243 209.926 479.154 213.373C454.833 220.734 434.892 221.107 425.201 220.734Z" fill="#F0C376"/>
<path d="M73.896 113.396C73.9891 107.899 74.5482 104.544 74.5482 104.544C82.1893 -13.1368 288.406 8.57313 288.406 8.57313C326.518 12.5797 368.172 22.9222 394.45 56.5587C403.395 68.0193 410.198 81.7162 413.739 96.2516C415.696 103.613 416.534 111.067 416.534 118.521C416.534 125.975 415.696 133.429 413.739 140.79C410.198 155.046 403.675 168.463 394.916 179.924C407.496 188.309 458.281 227.909 423.71 305.152C423.71 305.152 414.671 349.783 389.791 350.901C383.268 351.181 377.304 347.826 373.111 342.795C372.086 344.379 370.408 346.056 367.613 347.267C354.66 352.765 343.571 341.956 337.235 328.632C335.091 324.253 332.482 318.383 333.228 312.047H296.047C296.047 312.047 294.463 346.708 263.712 345.124C263.712 345.124 232.123 349.783 232.123 301.239H212.927V331.614C212.927 331.614 209.479 342.422 199.229 345.311C189.258 348.106 180.406 344.193 172.671 337.391C161.023 327.235 145.834 306.084 144.436 264.527V214.119C107.629 200.609 77.437 176.103 74.5482 132.497C74.5482 132.497 73.9891 129.143 73.896 123.645C73.896 121.968 73.896 120.198 73.896 118.521C73.896 116.843 73.8028 115.166 73.896 113.396Z" fill="#FFF8E9"/>
<path d="M431.722 277.01C431.722 277.01 295.673 252.225 391.373 180.387L403.953 191.941C403.953 191.941 443.463 222.316 431.722 277.01Z" fill="#F0C376"/>
<path d="M408.24 157.001C408.24 157.001 219.262 196.135 240.695 7.08116C240.695 7.08116 340.122 -5.12488 394.356 56.4644C394.356 56.4644 430.604 96.3436 408.24 157.001Z" fill="#F0C376"/>
<path d="M302.197 118.518C297.462 118.518 293.624 112.803 293.624 105.753C293.624 98.7034 297.462 92.9883 302.197 92.9883C306.931 92.9883 310.77 98.7034 310.77 105.753C310.77 112.803 306.931 118.518 302.197 118.518Z" fill="#515151"/>
<path d="M184.784 118.518C180.05 118.518 176.212 112.803 176.212 105.753C176.212 98.7034 180.05 92.9883 184.784 92.9883C189.519 92.9883 193.357 98.7034 193.357 105.753C193.357 112.803 189.519 118.518 184.784 118.518Z" fill="#515151"/>
<path d="M202.023 167.625C202.769 165.668 204.912 164.736 206.869 165.482C218.051 169.768 226.81 170.327 232.867 166.879C236.781 164.736 238.738 161.382 239.763 159.053C234.917 156.816 232.029 154.301 230.165 149.549C229.699 148.244 228.954 143.399 229.699 142.002C230.538 140.604 235.383 139.858 236.874 139.579C240.322 139.02 244.609 138.647 248.056 139.206C251.225 139.672 254.113 140.977 257.002 142.374C257.468 142.561 257.841 142.933 258.027 143.399C258.866 145.076 258.4 147.872 258.027 149.362C257.468 151.878 256.35 154.114 254.486 155.885C252.902 157.376 250.945 158.4 248.895 159.146C250.013 161.941 251.597 164.271 254.207 165.761C264.364 171.631 282.069 165.761 282.255 165.761C284.119 165.109 286.355 166.134 286.914 168.091C287.567 170.047 286.541 172.191 284.585 172.75C283.746 173.029 263.525 179.645 250.479 172.097C247.87 170.607 245.634 168.557 243.956 166.227C242.279 168.743 239.856 171.259 236.408 173.215C232.588 175.358 228.208 176.477 223.176 176.477C217.492 176.477 211.062 175.079 203.98 172.377C202.023 171.631 201.092 169.488 201.837 167.532L202.023 167.625Z" fill="#515151"/>
<path d="M330.151 308.599C330.151 308.599 320.367 289.312 299.587 290.709V308.599H330.151Z" fill="#F0C376"/>
<path d="M112.66 30.3752C174.907 -9.41089 282.814 1.11798 287.66 1.58386C313.286 4.28596 347.671 10.4356 375.253 30.8411C391.374 28.0458 496.486 12.1127 490.056 68.95C484.185 120.849 429.3 90.8463 412.247 80.1311C413.645 84.0445 414.95 87.9579 415.881 91.8713C417.838 99.4185 418.863 107.245 418.77 115.072C418.77 122.899 417.838 130.726 415.975 138.18C412.434 152.249 406.004 165.76 397.338 177.407C404.513 182.252 421.1 195.39 431.07 217.379C441.6 217.379 458.467 216.075 478.128 210.018C484.558 208.062 506.736 202.191 518.104 209.925C522.67 213 525.186 217.752 525 222.97C524.814 227.163 522.67 235.269 509.997 242.443C487.167 255.395 457.442 258.563 438.991 259.029C438.432 272.819 434.891 288.379 427.063 305.803C426.691 307.76 417.186 353.136 389.883 354.441H388.951C383.267 354.441 377.769 352.018 373.296 348.012C372.178 349.689 370.687 351.366 368.451 352.67C365.935 354.161 363.046 354.907 359.784 354.907C357.175 354.907 354.287 354.441 351.212 353.416C333.786 347.732 332.109 324.625 332.109 315.493H299.028C298.19 321.27 295.487 333.01 286.821 340.93C280.671 346.521 272.657 349.13 264.084 348.571C263.618 348.571 252.157 350.248 242.279 341.676C233.706 334.222 229.14 321.829 228.581 304.778H216.281V326.674C216.281 335.619 210.876 343.539 202.396 346.707C191.68 350.434 179.659 348.105 170.714 340.464C157.854 329.47 142.292 307.387 140.802 264.433L142.013 213.932C126.731 208.341 112.473 200.98 100.825 191.01C81.8159 174.984 71.3793 154.206 69.7951 129.514C69.7951 129.514 69.236 125.974 69.1428 120.29C69.0497 118.706 69.1428 117.122 69.1428 115.631V114.513C69.1428 112.929 69.0497 111.438 69.1428 109.854C69.236 104.357 69.702 100.909 69.7951 100.909C70.3542 92.4303 71.9384 84.5104 74.5475 77.0563C58.9857 88.0511 6.05711 121.408 0.186501 68.95C-5.96366 14.4421 90.482 26.8345 112.567 30.3752H112.66ZM438.991 252.134C456.603 251.668 485.21 248.407 506.55 236.294C513.632 232.287 517.825 227.349 518.011 222.69C518.104 219.895 516.8 217.472 514.191 215.702C511.395 213.745 507.109 213 502.263 213C495.181 213 486.888 214.677 480.178 216.727C461.262 222.411 445.048 223.995 433.866 224.181C436.755 232.38 438.712 241.698 438.991 252.134ZM353.448 346.8C358.294 348.384 362.114 348.384 364.816 346.8C366.773 345.589 367.798 343.819 368.451 342.514C368.264 342.235 367.985 341.955 367.798 341.676C363.605 334.781 360.25 324.811 359.039 315.586H339.191C339.191 323.227 340.402 342.701 353.448 346.894V346.8ZM175.373 335.153C182.362 341.117 191.866 343.073 200.533 339.999C205.844 338.042 209.385 332.638 209.385 326.674V290.709C209.478 288.752 211.062 287.168 213.019 287.168C214.976 287.168 216.467 288.752 216.467 290.709V297.79H228.674V290.709C228.674 288.752 230.258 287.168 232.215 287.168C234.172 287.168 235.663 288.752 235.663 290.709V302.635C235.943 318.568 239.577 329.936 246.845 336.272C254.3 342.794 262.78 341.769 263.805 341.676C271.353 342.048 277.503 339.999 282.162 335.806C291.667 327.233 292.505 312.046 292.505 311.859V290.709C292.505 288.752 293.996 287.168 295.953 287.168C297.91 287.168 299.494 288.752 299.494 290.709V308.505H358.387V290.709C358.387 288.752 359.971 287.168 361.835 287.168C363.791 287.168 365.376 288.752 365.376 290.709V308.785L365.655 311.766C366.401 320.711 369.662 331.24 373.762 337.949C377.489 344.098 383.64 347.546 389.603 347.453C411.502 346.428 420.168 304.871 420.447 303.66C427.902 287.075 431.35 272.167 431.909 259.122C432.002 258.004 432.095 256.793 432.095 255.768C432.095 254.556 432.095 253.345 432.002 252.227C431.816 241.605 429.673 232.287 426.504 224.181C426.132 222.97 425.666 221.852 425.2 220.733C424.641 219.522 423.988 218.311 423.429 217.1C413.831 197.812 398.922 186.724 392.958 182.811C363.978 216.727 319.249 225.206 287.567 228.56C285.889 228.747 271.166 230.144 250.107 230.144C222.245 230.144 183.48 227.535 149.002 216.354L147.883 264.433C149.281 304.592 163.632 325.09 175.373 335.153ZM76.2248 115.817C76.2248 117.308 76.1316 118.706 76.2248 120.104C76.318 125.228 76.784 128.396 76.784 128.769C78.3681 151.783 87.9661 170.978 105.392 185.699C162.234 233.778 281.882 222.131 286.914 221.572C318.317 218.218 363.232 209.832 390.535 174.891C399.295 163.617 405.724 150.386 409.172 136.503C410.943 129.514 411.874 122.34 411.781 115.072C411.781 107.804 410.943 100.537 409.172 93.6416C405.724 79.7584 399.295 66.4343 390.535 55.2532C363.232 20.3122 318.317 11.8332 286.914 8.57205C285.144 8.3857 270.514 6.98806 249.641 6.98806C208.453 6.98806 143.131 12.5786 105.392 44.4448C87.9661 59.1665 78.3681 78.3608 76.784 101.655C76.784 101.655 76.318 104.916 76.2248 110.041C76.1316 111.438 76.2248 112.836 76.318 114.979V115.817H76.2248Z" fill="#515151"/>
</g>
<defs>
<clipPath id="clip0_4460_40299">
<rect width="525" height="355" fill="white" transform="matrix(-1 0 0 1 525 0)"/>
</clipPath>
</defs>
</svg>
