<svg width="540" height="390" viewBox="0 0 540 390" fill="none" xmlns="http://www.w3.org/2000/svg">
<g clip-path="url(#clip0_4584_40547)">
<path d="M467.89 242.496C468.402 243.724 468.914 244.953 469.323 246.283C472.803 255.189 475.158 265.425 475.362 277.095C475.465 278.323 475.465 279.654 475.465 280.984" fill="#F0C376"/>
<path d="M81.985 124.574C82.0874 118.534 82.7015 114.849 82.7015 114.849C91.0953 -14.4343 317.623 9.41611 317.623 9.41611C359.489 13.8177 405.245 25.1799 434.111 62.1326C443.938 74.7232 451.41 89.7704 455.3 105.739C457.45 113.826 458.371 122.015 458.371 130.204C458.371 138.392 457.45 146.581 455.3 154.668C451.41 170.33 444.245 185.07 434.623 197.66C448.442 206.873 504.229 250.377 466.253 335.235C466.253 335.235 456.324 384.267 428.993 385.495C421.828 385.802 415.276 382.117 410.67 376.589C409.544 378.33 407.702 380.172 404.631 381.503C390.402 387.542 378.221 375.668 371.261 361.03C368.906 356.219 366.04 349.77 366.859 342.81H326.017C326.017 342.81 324.276 380.889 290.497 379.148C290.497 379.148 255.796 384.267 255.796 330.936H234.709V364.306C234.709 364.306 230.922 376.18 219.662 379.353C208.709 382.424 198.985 378.125 190.489 370.652C177.694 359.495 161.009 336.259 159.473 290.605V235.227C119.04 220.385 85.8748 193.463 82.7015 145.558C82.7015 145.558 82.0874 141.873 81.985 135.833C81.985 133.991 81.985 132.046 81.985 130.204C81.985 128.361 81.8827 126.518 81.985 124.574Z" fill="#FFF8E9"/>
<path d="M475.056 304.321C475.056 304.321 325.608 277.093 430.734 198.172L444.552 210.865C444.552 210.865 487.954 244.235 475.056 304.321Z" fill="#F0C376"/>
<path d="M449.363 172.48C449.363 172.48 241.67 215.473 265.213 7.77968C265.213 7.77968 374.434 -5.62977 434.009 62.0317C434.009 62.0317 473.828 105.843 449.261 172.48H449.363Z" fill="#F0C376"/>
<path d="M332.772 130.204C327.571 130.204 323.355 123.925 323.355 116.18C323.355 108.435 327.571 102.156 332.772 102.156C337.973 102.156 342.189 108.435 342.189 116.18C342.189 123.925 337.973 130.204 332.772 130.204Z" fill="#515151"/>
<path d="M203.796 130.204C198.595 130.204 194.378 123.925 194.378 116.18C194.378 108.435 198.595 102.156 203.796 102.156C208.997 102.156 213.213 108.435 213.213 116.18C213.213 123.925 208.997 130.204 203.796 130.204Z" fill="#515151"/>
<path d="M222.733 184.149C223.552 182 225.906 180.976 228.056 181.795C240.339 186.504 249.961 187.118 256.615 183.33C260.914 180.976 263.064 177.291 264.189 174.732C258.867 172.275 255.693 169.511 253.646 164.291C253.134 162.858 252.315 157.535 253.134 156C254.056 154.464 259.378 153.645 261.016 153.338C264.804 152.724 269.512 152.315 273.3 152.929C276.78 153.441 279.953 154.874 283.126 156.409C283.638 156.614 284.048 157.023 284.252 157.535C285.174 159.378 284.662 162.449 284.252 164.086C283.638 166.85 282.41 169.307 280.363 171.252C278.623 172.889 276.473 174.015 274.221 174.834C275.449 177.905 277.189 180.464 280.056 182.102C291.213 188.551 310.662 182.102 310.867 182.102C312.914 181.386 315.371 182.512 315.985 184.661C316.701 186.811 315.575 189.165 313.426 189.779C312.504 190.086 290.292 197.354 275.961 189.063C273.095 187.425 270.638 185.173 268.796 182.614C266.953 185.378 264.292 188.141 260.504 190.291C256.308 192.645 251.497 193.874 245.969 193.874C239.725 193.874 232.662 192.338 224.882 189.37C222.733 188.551 221.709 186.197 222.528 184.047L222.733 184.149Z" fill="#515151"/>
<path d="M363.48 339.022C363.48 339.022 352.732 317.833 329.906 319.369V339.022H363.48Z" fill="#F0C376"/>
<path d="M477.41 246.285C480.583 255.293 482.733 265.529 483.04 276.994V284.568C482.426 299.718 478.536 316.812 469.938 335.954C469.528 338.104 459.087 387.954 429.095 389.387H428.071C421.827 389.387 415.788 386.726 410.875 382.324C409.646 384.167 408.008 386.009 405.552 387.442C402.788 389.08 399.615 389.899 396.032 389.899C393.166 389.899 389.993 389.387 386.615 388.261C367.473 382.017 365.631 356.631 365.631 346.6H329.292C328.371 352.946 325.402 365.844 315.882 374.545C309.127 380.686 300.323 383.553 290.906 382.938C290.394 382.938 277.804 384.781 266.953 375.364C257.536 367.175 252.52 353.56 251.906 334.828H238.394V358.883C238.394 368.71 232.457 377.411 223.142 380.891C211.371 384.986 198.166 382.427 188.339 374.033C174.213 361.954 157.119 337.694 155.481 290.505L156.812 235.025C140.024 228.883 124.363 220.797 111.568 209.844C90.6857 192.238 79.2211 169.411 77.4809 142.285C77.4809 142.285 76.8668 138.395 76.7644 132.151C76.662 130.411 76.7644 128.671 76.7644 127.033V125.805C76.7644 124.064 76.662 122.427 76.7644 120.686C76.8668 114.647 77.3786 110.86 77.4809 110.86C78.0951 101.545 79.8353 92.8439 82.7014 84.655C65.6069 96.7337 7.46521 133.379 1.01639 75.7494C-5.73952 15.8675 100.205 29.4817 124.465 33.3715C192.945 -10.3372 311.481 1.22975 316.804 1.74156C344.953 4.71006 382.725 11.466 413.024 33.8833C430.733 30.8124 546.197 13.3085 539.134 75.7494C532.686 132.765 472.394 99.8046 453.662 88.0329C455.197 92.3321 456.631 96.6313 457.654 100.931C459.804 109.222 460.93 117.82 460.827 126.419C460.827 135.017 459.804 143.616 457.757 151.805C453.867 167.261 446.804 182.104 437.284 194.899C445.166 200.222 463.386 214.655 474.339 238.812L477.41 246.285ZM389.071 380.994C394.394 382.734 398.591 382.734 401.56 380.994C403.709 379.663 404.835 377.718 405.552 376.285C405.347 375.978 405.04 375.671 404.835 375.364C400.229 367.789 396.544 356.836 395.213 346.702H373.41C373.41 355.096 374.741 376.49 389.071 381.096V380.994ZM193.457 368.198C201.134 374.749 211.575 376.899 221.095 373.521C226.93 371.372 230.82 365.435 230.82 358.883V319.372C230.922 317.222 232.662 315.482 234.812 315.482C236.961 315.482 238.599 317.222 238.599 319.372V327.151H252.008V319.372C252.008 317.222 253.749 315.482 255.898 315.482C258.048 315.482 259.686 317.222 259.686 319.372V332.474C259.993 349.978 263.985 362.466 271.969 369.427C280.158 376.592 289.473 375.466 290.599 375.364C298.89 375.773 305.646 373.521 310.764 368.915C321.205 359.498 322.127 342.812 322.127 342.608V319.372C322.127 317.222 323.764 315.482 325.914 315.482C328.064 315.482 329.804 317.222 329.804 319.372V338.923H394.497V319.372C394.497 317.222 396.237 315.482 398.284 315.482C400.434 315.482 402.174 317.222 402.174 319.372V339.23L402.481 342.505C403.3 352.332 406.882 363.899 411.386 371.269C415.481 378.025 422.237 381.812 428.788 381.71C452.843 380.584 462.363 334.931 462.67 333.6C470.859 315.379 474.646 299.001 475.26 284.671C475.363 283.442 475.465 282.112 475.465 280.986C475.465 279.655 475.465 278.324 475.363 277.096C475.158 265.427 472.804 255.19 469.323 246.285C468.914 244.954 468.402 243.726 467.89 242.497C467.276 241.167 466.56 239.836 465.945 238.505C455.402 217.316 439.024 205.135 432.473 200.836C400.638 238.096 351.505 247.411 316.701 251.096C314.859 251.301 298.686 252.836 275.552 252.836C244.945 252.836 202.363 249.97 164.489 237.686L163.26 290.505C164.796 334.623 180.56 357.143 193.457 368.198ZM84.5439 127.238C84.5439 128.875 84.4416 130.411 84.5439 131.946C84.6463 137.576 85.1581 141.057 85.1581 141.466C86.8983 166.749 97.4416 187.836 116.583 204.009C179.024 256.828 310.457 244.033 315.985 243.419C350.481 239.734 399.82 230.521 429.812 192.135C439.434 179.749 446.497 165.214 450.284 149.962C452.229 142.285 453.253 134.403 453.15 126.419C453.15 118.434 452.229 110.45 450.284 102.875C446.497 87.6235 439.434 72.9857 429.812 60.7022C399.82 22.3164 350.481 13.0014 315.985 9.41872C314.04 9.214 297.969 7.67856 275.04 7.67856C229.796 7.67856 158.04 13.8203 116.583 48.8282C97.4416 65.0014 86.8983 86.088 85.1581 111.679C85.1581 111.679 84.6463 115.261 84.5439 120.891C84.4416 122.427 84.5439 123.962 84.6463 126.316V127.238H84.5439Z" fill="#515151"/>
</g>
<defs>
<clipPath id="clip0_4584_40547">
<rect width="538.63" height="390" fill="white" transform="matrix(-1 0 0 1 539.441 0)"/>
</clipPath>
</defs>
</svg>
