<svg width="146" height="70" viewBox="0 0 146 70" fill="none" xmlns="http://www.w3.org/2000/svg">
<g clip-path="url(#clip0_4584_40560)">
<path d="M5.15847 18.6667C5.15847 18.6667 39.176 23.579 84.7374 9.70181C99.4743 5.15795 122.194 1.22813 133.615 8.96497C144.053 16.0878 144.422 31.8071 123.176 43.965C80.562 68.158 18.79 66.0702 10.562 64.8422C2.3339 63.6141 5.15847 18.6667 5.15847 18.6667Z" fill="#F0C376"/>
<path d="M25.4213 70.0016C48.7546 70.0016 92.4739 66.5631 125.386 47.8964C142.088 38.4402 144.913 27.8788 145.158 22.3525C145.404 15.4753 142.088 9.21218 136.193 5.15954C121.088 -5.03344 91.9827 2.7034 83.3862 5.28235C39.5441 18.6683 6.1406 14.1245 5.89499 14.1245L0.98271 13.3876L0.737091 18.4227C-2.21028 67.2999 7.00025 68.8964 9.94762 69.3876C11.9125 69.756 17.5617 70.1245 25.5441 70.1245L25.4213 70.0016ZM115.193 9.21218C121.579 9.21218 127.228 10.1946 131.035 12.7736C134.351 14.9841 136.193 18.2999 135.948 21.9841C135.702 28.1245 130.176 34.6332 120.842 40.0367C79.5792 63.4929 18.0529 61.4052 11.2985 60.2999C9.82482 58.0894 8.71955 41.756 9.45639 23.8262C20.7546 24.6859 49.7371 25.2999 85.9652 14.1245C94.8073 11.4227 105.737 9.21218 115.07 9.21218H115.193Z" fill="#515151"/>
</g>
<defs>
<clipPath id="clip0_4584_40560">
<rect width="145.158" height="70" fill="white" transform="matrix(-1 0 0 1 145.158 0)"/>
</clipPath>
</defs>
</svg>
