<svg id="Layer_1" data-name="Layer 1" xmlns="http://www.w3.org/2000/svg" viewBox="0 0 444.83 638"><defs><style>.cls-1{fill:#34a853;}.cls-2{fill:#fbbc04;}.cls-3{fill:#4285f4;}.cls-4{fill:#1a73e8;}.cls-5{fill:#ea4335;}</style></defs><title>Google Maps Logo Vector</title><g id="g842"><path id="path835" class="cls-1" d="M400.13,653.75A618.77,618.77,0,0,1,450.39,728c12.81,24.31,18.07,40.74,27.6,70,5.58,16.1,10.84,21,22,21,12.16,0,17.74-8.21,22-21,8.87-27.59,15.77-48.62,26.61-68.66,21.36-38.44,48.3-72.6,74.58-105.46,7.23-9.19,53.22-63.4,73.92-106.44,0,0,25.29-47,25.29-112.68,0-61.44-25-104.15-25-104.15L625.17,320l-44,115.64L570.3,451.38,568,454.33l-3,3.62-4.93,5.91-7.23,7.23L513.8,503l-97.57,56.5Z" transform="translate(-277.59 -181)"/><path id="path833" class="cls-2" d="M299.27,509.53c24,54.53,69.65,102.17,100.86,144.22L565.38,458S542.05,488.5,500,488.5a84.62,84.62,0,0,1-85.09-84.76c0-32.52,19.38-54.86,19.38-54.86l-112,29.89Z" transform="translate(-277.59 -181)"/><path id="path831" class="cls-3" d="M567.35,191.18c54.86,17.74,101.84,54.87,130.09,109.73L565.38,458.28s19.38-22.67,19.38-54.87c0-48.29-40.74-84.76-84.76-84.76-41.72,0-65.71,30.23-65.71,30.23V249.66Z" transform="translate(-277.59 -181)"/><path id="path829" class="cls-4" d="M329.49,260.5c32.86-39.09,90.35-79.5,169.85-79.5,38.44,0,67.68,10.18,67.68,10.18L434.29,348.88h-94Z" transform="translate(-277.59 -181)"/><path id="path827" class="cls-5" d="M299.27,509.53s-21.68-43-21.68-105.13c0-58.81,23-110.06,52.23-143.57l104.8,88.38Z" transform="translate(-277.59 -181)"/></g></svg>