<svg width="45" height="39" viewBox="0 0 45 39" fill="none" xmlns="http://www.w3.org/2000/svg">
<mask id="path-1-inside-1_2413_59453" fill="white">
<path fill-rule="evenodd" clip-rule="evenodd" d="M5.98743 20.5355C5.47921 20.4553 4.98478 20.2425 4.55778 19.8918L1.09913 17.0509C-0.181203 15.9993 -0.370487 14.1057 0.676348 12.8214L7.64913 4.26725C7.86437 4.00319 8.1151 3.78546 8.38877 3.6153C9.06968 2.48772 11.8047 0.361816 22.7492 0.361816C34.0514 0.361816 36.3532 2.62896 36.8061 3.72256C37.0036 3.86858 37.1864 4.04153 37.3489 4.2409L44.3217 12.7951C45.3685 14.0793 45.1792 15.9729 43.8989 17.0246L40.4402 19.8654C39.8383 20.3598 39.1024 20.5801 38.3827 20.5413C39.1843 38.4233 34.6454 38.4233 22.7492 38.4233C10.1663 38.4233 4.62301 38.4233 5.98743 20.5355Z"/>
</mask>
<path fill-rule="evenodd" clip-rule="evenodd" d="M5.98743 20.5355C5.47921 20.4553 4.98478 20.2425 4.55778 19.8918L1.09913 17.0509C-0.181203 15.9993 -0.370487 14.1057 0.676348 12.8214L7.64913 4.26725C7.86437 4.00319 8.1151 3.78546 8.38877 3.6153C9.06968 2.48772 11.8047 0.361816 22.7492 0.361816C34.0514 0.361816 36.3532 2.62896 36.8061 3.72256C37.0036 3.86858 37.1864 4.04153 37.3489 4.2409L44.3217 12.7951C45.3685 14.0793 45.1792 15.9729 43.8989 17.0246L40.4402 19.8654C39.8383 20.3598 39.1024 20.5801 38.3827 20.5413C39.1843 38.4233 34.6454 38.4233 22.7492 38.4233C10.1663 38.4233 4.62301 38.4233 5.98743 20.5355Z" fill="#FFD4C0"/>
<path d="M5.98743 20.5355L6.98454 20.6115L7.05471 19.6915L6.1433 19.5477L5.98743 20.5355ZM4.55778 19.8918L5.19249 19.119L5.19249 19.119L4.55778 19.8918ZM1.09913 17.0509L0.464411 17.8237L0.464411 17.8237L1.09913 17.0509ZM0.676348 12.8214L-0.0987667 12.1896L-0.0987667 12.1896L0.676348 12.8214ZM7.64913 4.26725L8.42425 4.89907L8.42425 4.89907L7.64913 4.26725ZM8.38877 3.6153L8.9168 4.46453L9.12069 4.33776L9.2448 4.13223L8.38877 3.6153ZM36.8061 3.72256L35.8821 4.10515L35.9884 4.36173L36.2117 4.52677L36.8061 3.72256ZM37.3489 4.2409L36.5738 4.87272L36.5738 4.87273L37.3489 4.2409ZM44.3217 12.7951L43.5466 13.4269L43.5466 13.4269L44.3217 12.7951ZM43.8989 17.0246L44.5336 17.7973L44.5336 17.7973L43.8989 17.0246ZM40.4402 19.8654L39.8055 19.0927L39.8055 19.0927L40.4402 19.8654ZM38.3827 20.5413L38.4366 19.5428L37.3343 19.4833L37.3837 20.5861L38.3827 20.5413ZM6.1433 19.5477C5.80651 19.4945 5.47841 19.3539 5.19249 19.119L3.92307 20.6645C4.49116 21.1311 5.15192 21.416 5.83156 21.5232L6.1433 19.5477ZM5.19249 19.119L1.73384 16.2782L0.464411 17.8237L3.92307 20.6645L5.19249 19.119ZM1.73384 16.2782C0.87916 15.5762 0.75265 14.3105 1.45146 13.4532L-0.0987667 12.1896C-1.49362 13.9008 -1.24157 16.4224 0.464411 17.8237L1.73384 16.2782ZM1.45146 13.4532L8.42425 4.89907L6.87402 3.63543L-0.0987667 12.1896L1.45146 13.4532ZM8.42425 4.89907C8.56885 4.72166 8.7358 4.57707 8.9168 4.46453L7.86075 2.76607C7.49441 2.99385 7.15988 3.28472 6.87402 3.63543L8.42425 4.89907ZM9.2448 4.13223C9.41485 3.85063 10.0178 3.14974 12.0203 2.5196C14.0223 1.88963 17.3296 1.36182 22.7492 1.36182V-0.638184C17.2242 -0.638184 13.6918 -0.103051 11.42 0.611825C9.14865 1.32654 8.0436 2.25239 7.53274 3.09837L9.2448 4.13223ZM22.7492 1.36182C28.3495 1.36182 31.6253 1.92558 33.5208 2.57769C35.4118 3.22827 35.8052 3.91937 35.8821 4.10515L37.73 3.33996C37.354 2.43215 36.3701 1.44288 34.1714 0.686482C31.9773 -0.0683769 28.4511 -0.638184 22.7492 -0.638184V1.36182ZM38.124 3.60909C37.9083 3.34444 37.6647 3.11368 37.4004 2.91834L36.2117 4.52677C36.3426 4.62348 36.4645 4.73862 36.5738 4.87272L38.124 3.60909ZM45.0968 12.1633L38.124 3.60908L36.5738 4.87273L43.5466 13.4269L45.0968 12.1633ZM44.5336 17.7973C46.2396 16.3961 46.4916 13.8745 45.0968 12.1633L43.5466 13.4269C44.2454 14.2842 44.1189 15.5498 43.2642 16.2518L44.5336 17.7973ZM41.075 20.6382L44.5336 17.7973L43.2642 16.2518L39.8055 19.0927L41.075 20.6382ZM38.3289 21.5399C39.2889 21.5916 40.2727 21.2971 41.075 20.6382L39.8055 19.0927C39.4039 19.4226 38.9158 19.5686 38.4366 19.5428L38.3289 21.5399ZM37.3837 20.5861C37.5829 25.0288 37.4455 28.2876 36.9702 30.6848C36.4969 33.0713 35.7061 34.5162 34.6643 35.4397C33.6155 36.3694 32.1843 36.8857 30.1906 37.1527C28.1852 37.4213 25.746 37.4233 22.7492 37.4233V39.4233C25.7005 39.4233 28.2898 39.4252 30.4561 39.135C32.6343 38.8432 34.5182 38.2419 35.991 36.9363C37.4707 35.6246 38.4079 33.7166 38.932 31.0738C39.4539 28.4417 39.5834 24.9948 39.3817 20.4965L37.3837 20.5861ZM22.7492 37.4233C19.5832 37.4233 16.946 37.4217 14.7522 37.1513C12.5633 36.8815 10.948 36.3569 9.7637 35.4072C8.6004 34.4743 7.73226 33.0324 7.24033 30.6728C6.74416 28.2928 6.64616 25.0477 6.98454 20.6115L4.99033 20.4594C4.6465 24.9671 4.72975 28.4299 5.28242 31.0809C5.83932 33.7522 6.88761 35.6644 8.51244 36.9674C10.1163 38.2536 12.1608 38.847 14.5076 39.1363C16.8494 39.4249 19.6237 39.4233 22.7492 39.4233V37.4233Z" fill="#5F231B" mask="url(#path-1-inside-1_2413_59453)"/>
<g clip-path="url(#clip0_2413_59453)">
<path d="M24.643 19.8716C24.5368 19.7286 24.4967 19.5195 24.4251 19.359C24.0471 18.5141 23.3277 17.6485 22.3085 17.6736C22.3085 17.6736 20.4485 17.6573 20.1973 19.3063C20.1283 19.7597 19.8928 20.0314 19.4543 20.1798C19.2354 20.2541 19.0087 20.303 18.7915 20.3813C17.9458 20.6861 17.5805 21.5535 17.5928 22.3998C17.6043 23.2058 18.1095 23.9153 18.8663 24.1945C19.7709 24.5279 20.7073 24.0638 21.6152 23.9651C22.5825 23.8596 23.5676 23.9081 24.5203 24.105C25.0455 24.2138 25.5549 24.2956 26.0662 24.0688C26.6236 23.8219 26.9132 23.2747 27.0206 22.6975C27.2054 21.7067 26.6825 20.3719 25.5981 20.1747C25.4894 20.1547 25.3785 20.1514 25.2692 20.136C25.1056 20.1135 24.9453 20.0668 24.7952 19.998C24.7314 19.969 24.6826 19.9244 24.6424 19.871L24.643 19.8716Z" fill="#5F231B"/>
<path d="M16.0786 18.7976C16.0623 18.7828 16.0536 18.7742 16.0536 18.7742C15.4051 18.1354 15.3978 17.0923 16.0372 16.4439C16.6767 15.7955 17.7209 15.7888 18.37 16.4275C18.8465 16.8419 19.1636 17.9866 19.3417 18.8439C19.4529 19.3797 18.9943 19.863 18.4536 19.7745C17.3983 19.6019 16.7218 19.2512 16.3643 19.0137C16.2634 18.9533 16.1676 18.8807 16.0786 18.7965L16.0786 18.7976Z" fill="#5F231B"/>
<path d="M18.5992 15.7249C18.5881 15.706 18.5822 15.695 18.5822 15.695C18.1561 14.8909 18.4638 13.894 19.2689 13.4683C20.0739 13.0426 21.0718 13.35 21.498 14.1542C21.8275 14.6931 21.7845 15.8796 21.6965 16.7509C21.6414 17.2953 21.058 17.6179 20.5694 17.3716C19.6147 16.8896 19.0755 16.351 18.8063 16.0177C18.7282 15.9294 18.6588 15.8318 18.5992 15.7249Z" fill="#5F231B"/>
<path d="M28.4536 18.7108C28.4696 18.6956 28.4782 18.6869 28.4782 18.6869C29.1177 18.0391 29.1103 16.996 28.4618 16.3567C27.8133 15.7174 26.7691 15.7253 26.1291 16.3731C25.6584 16.7941 25.3575 17.9433 25.1914 18.803C25.0878 19.3403 25.5532 19.817 26.0926 19.7209C27.1453 19.5335 27.8168 19.1733 28.1709 18.9308C28.271 18.869 28.3658 18.795 28.4536 18.7096L28.4536 18.7108Z" fill="#5F231B"/>
<path d="M25.8901 15.6738C25.901 15.6547 25.9067 15.6437 25.9067 15.6437C26.3215 14.8336 25.9997 13.8412 25.1887 13.4269C24.3778 13.0126 23.3843 13.334 22.9695 14.1441C22.6476 14.6875 22.7073 15.8734 22.8076 16.7433C22.8703 17.2869 23.4582 17.6013 23.9433 17.348C24.8911 16.8527 25.4227 16.3066 25.6872 15.9695C25.764 15.8801 25.832 15.7815 25.8901 15.6738Z" fill="#5F231B"/>
</g>
<path fill-rule="evenodd" clip-rule="evenodd" d="M6.70897 13.7325L7.43799 14.3421L7.67841 14.0337C7.17112 17.9804 6.87535 21.281 6.79207 24.0418C6.64795 28.8193 7.14395 31.9085 8.21991 33.9216C9.27218 35.8905 10.9132 36.8896 13.2621 37.4011C15.6463 37.9202 18.6933 37.9228 22.4952 37.9228C26.0932 37.9228 28.9156 37.9198 31.1086 37.403C33.2571 36.8967 34.7527 35.9083 35.7395 33.9338C36.7505 31.9108 37.2493 28.811 37.2353 24.0282C37.2262 20.957 37.0065 17.2199 36.5902 12.6711L36.8679 13.0168L37.5706 12.4116C37.9986 17.0555 38.226 20.8788 38.2352 24.0253C38.2494 28.8399 37.7548 32.1383 36.634 34.3808C35.489 36.6719 33.7146 37.8162 31.338 38.3763C29.0188 38.9229 26.081 38.9228 22.5536 38.9228H22.5535H22.4952H22.4422H22.4422C18.704 38.9228 15.5507 38.9229 13.0494 38.3782C10.5009 37.8233 8.56545 36.6897 7.33797 34.393C6.13416 32.1406 5.64713 28.8316 5.79252 24.0117C5.87823 21.1705 6.18502 17.7793 6.70897 13.7325Z" fill="#5F231B"/>
<ellipse cx="22.4464" cy="2.49769" rx="11.4894" ry="2.49769" fill="#5F231B"/>
<ellipse cx="21.9468" cy="2.49764" rx="9.99078" ry="1.49862" fill="white"/>
<defs>
<clipPath id="clip0_2413_59453">
<rect width="13.391" height="11.033" fill="white" transform="matrix(-0.999975 0.00704073 0.00704073 0.999975 29.3438 12.9878)"/>
</clipPath>
</defs>
</svg>
