<svg width="46" height="39" viewBox="0 0 46 39" fill="none" xmlns="http://www.w3.org/2000/svg">
<mask id="path-1-inside-1_2413_59448" fill="white">
<path fill-rule="evenodd" clip-rule="evenodd" d="M20.3013 38.0412C29.4912 38.0412 36.9411 30.5913 36.9411 21.4015C36.9411 12.2116 29.4912 4.76172 20.3013 4.76172C11.9692 4.76172 5.06741 10.8858 3.85162 18.8783C2.0905 20.6268 1 23.0498 1 25.7275C1 31.0576 5.32092 35.3785 10.6511 35.3785C10.8492 35.3785 11.046 35.3725 11.2413 35.3608C13.8482 37.0562 16.9597 38.0412 20.3013 38.0412Z"/>
</mask>
<path fill-rule="evenodd" clip-rule="evenodd" d="M20.3013 38.0412C29.4912 38.0412 36.9411 30.5913 36.9411 21.4015C36.9411 12.2116 29.4912 4.76172 20.3013 4.76172C11.9692 4.76172 5.06741 10.8858 3.85162 18.8783C2.0905 20.6268 1 23.0498 1 25.7275C1 31.0576 5.32092 35.3785 10.6511 35.3785C10.8492 35.3785 11.046 35.3725 11.2413 35.3608C13.8482 37.0562 16.9597 38.0412 20.3013 38.0412Z" fill="#FFD4C0"/>
<path d="M3.85162 18.8783L4.55616 19.588L4.79057 19.3553L4.84025 19.0287L3.85162 18.8783ZM11.2413 35.3608L11.7865 34.5225L11.5101 34.3427L11.181 34.3626L11.2413 35.3608ZM35.9411 21.4015C35.9411 30.0391 28.9389 37.0412 20.3013 37.0412V39.0412C30.0435 39.0412 37.9411 31.1436 37.9411 21.4015H35.9411ZM20.3013 5.76172C28.9389 5.76172 35.9411 12.7639 35.9411 21.4015H37.9411C37.9411 11.6593 30.0435 3.76172 20.3013 3.76172V5.76172ZM4.84025 19.0287C5.98284 11.5174 12.4708 5.76172 20.3013 5.76172V3.76172C11.4675 3.76172 4.15198 10.2542 2.86299 18.7279L4.84025 19.0287ZM2 25.7275C2 23.327 2.97639 21.1564 4.55616 19.588L3.14708 18.1687C1.2046 20.0971 0 22.7726 0 25.7275H2ZM10.6511 34.3785C5.87321 34.3785 2 30.5053 2 25.7275H0C0 31.6099 4.76864 36.3785 10.6511 36.3785V34.3785ZM11.181 34.3626C11.0059 34.3731 10.8291 34.3785 10.6511 34.3785V36.3785C10.8693 36.3785 11.0862 36.3719 11.3015 36.3589L11.181 34.3626ZM20.3013 37.0412C17.1591 37.0412 14.2361 36.1156 11.7865 34.5225L10.6961 36.1991C13.4603 37.9969 16.7604 39.0412 20.3013 39.0412V37.0412Z" fill="#5F231B" mask="url(#path-1-inside-1_2413_59448)"/>
<path fill-rule="evenodd" clip-rule="evenodd" d="M33.2795 21.3001C33.2795 28.4674 27.4693 34.2775 20.3021 34.2775C18.8716 34.2775 17.4951 34.0461 16.2081 33.6185C15.8608 33.8636 15.4966 34.0862 15.1176 34.2845C16.7208 34.9251 18.4703 35.2775 20.3021 35.2775C28.0216 35.2775 34.2795 29.0196 34.2795 21.3001C34.2795 13.5806 28.0216 7.32275 20.3021 7.32275C14.1724 7.32275 8.96433 11.2685 7.0791 16.7585C7.4726 16.6017 7.87885 16.47 8.29586 16.3654C10.2378 11.6456 14.8819 8.32275 20.3021 8.32275C27.4693 8.32275 33.2795 14.1329 33.2795 21.3001Z" fill="#5F231B"/>
<path d="M31.7706 5.63964C31.8161 5.51519 31.9515 5.44863 32.0778 5.4887C32.2002 5.52753 32.2725 5.65359 32.2442 5.77886L25.7901 34.3957C25.5156 35.6128 24.2581 36.3342 23.0688 35.9569C21.9138 35.5905 21.2969 34.3354 21.7124 33.197L31.7706 5.63964Z" fill="white" stroke="#5F231B"/>
<path d="M38.6041 2.20319L37.7782 2.76696V2.76696L38.6041 2.20319ZM40.1857 12.3456V13.3456H40.3105L40.4315 13.3149L40.1857 12.3456ZM40.4419 20.9215C40.37 21.4691 40.7555 21.9714 41.3031 22.0434C41.8506 22.1153 42.3529 21.7298 42.4249 21.1822L40.4419 20.9215ZM32.926 5.89367C33.0224 5.4439 33.2947 4.83076 33.7205 4.1979C34.1416 3.57193 34.6699 2.99088 35.22 2.58122C35.7823 2.16233 36.275 1.9892 36.6511 2.00053C36.9643 2.00996 37.3572 2.15017 37.7782 2.76696L39.4301 1.63942C38.7171 0.594972 37.7767 0.0335171 36.7113 0.00143653C35.7089 -0.0287476 34.7777 0.416774 34.0252 0.977259C33.2604 1.54697 32.5828 2.30603 32.0611 3.08149C31.544 3.85005 31.1365 4.69965 30.9705 5.47451L32.926 5.89367ZM37.7782 2.76696C38.945 4.47629 38.7265 6.62079 38.4068 8.67826C38.331 9.16611 38.2482 9.66535 38.1942 10.1114C38.1407 10.5539 38.1055 11.0165 38.1458 11.4397C38.1855 11.8567 38.3104 12.3683 38.6988 12.7728C39.1099 13.2009 39.6551 13.3456 40.1857 13.3456V11.3456C40.0075 11.3456 40.0603 11.3031 40.1414 11.3875C40.1997 11.4482 40.1567 11.4594 40.1368 11.25C40.1174 11.0468 40.1307 10.757 40.1797 10.3516C40.2283 9.94982 40.3022 9.50572 40.3831 8.98534C40.69 7.00989 41.0982 4.08319 39.4301 1.63942L37.7782 2.76696ZM40.4315 13.3149C40.7942 13.2229 40.9791 13.2486 41.053 13.2709C41.1024 13.2858 41.1392 13.3071 41.187 13.3834C41.3341 13.6182 41.4391 14.1539 41.3861 15.0845C41.3362 15.961 41.1626 16.9822 40.9648 18.0221C40.773 19.0301 40.5519 20.0851 40.4419 20.9215L42.4249 21.1822C42.5249 20.4214 42.7253 19.4696 42.9295 18.3959C43.1277 17.3541 43.3247 16.2186 43.3829 15.1982C43.4379 14.2317 43.3884 13.1299 42.8817 12.3213C42.6025 11.8759 42.1874 11.524 41.6305 11.3561C41.0981 11.1955 40.5222 11.2286 39.9399 11.3763L40.4315 13.3149Z" fill="#5F231B"/>
<circle cx="40.9343" cy="23.6296" r="1.99677" fill="#5F231B"/>
<path d="M38.7216 28.0704C38.108 29.6035 38.3788 31.3148 38.6404 31.2585C38.9019 31.2022 38.9656 30.7446 39.1322 30.3282C39.0997 31.6034 40.1992 29.7523 40.5754 28.8125C41.0483 27.631 40.8641 26.8102 40.7596 25.6656C40.7596 25.6656 39.3353 26.5374 38.7216 28.0704Z" fill="#5F231B"/>
<path d="M44.1085 28.2103C45.149 30.0479 44.9805 32.3304 44.6097 32.3206C44.2389 32.3108 44.0946 31.7335 43.812 31.2344C44.0125 32.8785 42.2573 30.7463 41.6194 29.6197C40.8175 28.2036 40.9739 27.0958 40.9799 25.5878C40.9799 25.5878 43.0679 26.3727 44.1085 28.2103Z" fill="#5F231B"/>
<circle cx="10.6511" cy="25.7272" r="9.15106" fill="white" stroke="#5F231B"/>
<path d="M10.8701 16.4795C11.3382 22.4112 13.6044 24.7638 19.6622 27.9804" stroke="#5F231B" stroke-linecap="round"/>
<path d="M1.38672 23.729C6.988 25.7366 8.66378 28.5406 10.1788 35.2299" stroke="#5F231B" stroke-linecap="round"/>
</svg>
