<svg width="46" height="40" viewBox="0 0 46 40" fill="none" xmlns="http://www.w3.org/2000/svg">
<mask id="path-1-inside-1_2413_59452" fill="white">
<path fill-rule="evenodd" clip-rule="evenodd" d="M13.4023 5.95034C9.58418 5.73828 6.42109 8.53618 6.66083 11.9135L7.07158 17.6999C7.13453 18.5868 7.40919 19.3854 7.83963 20.0772C7.83095 21.2862 8.348 22.4975 9.3908 23.4199L24.173 36.4955C26.2414 38.3251 29.5949 38.3251 31.6632 36.4955L41.2587 28.0078C43.3271 26.1782 43.3271 23.2119 41.2587 21.3824L26.4765 8.30676C25.3877 7.34362 23.9427 6.8875 22.5165 6.93842C21.7613 6.58908 20.8978 6.36664 19.944 6.31367L13.4023 5.95034Z"/>
</mask>
<path fill-rule="evenodd" clip-rule="evenodd" d="M13.4023 5.95034C9.58418 5.73828 6.42109 8.53618 6.66083 11.9135L7.07158 17.6999C7.13453 18.5868 7.40919 19.3854 7.83963 20.0772C7.83095 21.2862 8.348 22.4975 9.3908 23.4199L24.173 36.4955C26.2414 38.3251 29.5949 38.3251 31.6632 36.4955L41.2587 28.0078C43.3271 26.1782 43.3271 23.2119 41.2587 21.3824L26.4765 8.30676C25.3877 7.34362 23.9427 6.8875 22.5165 6.93842C21.7613 6.58908 20.8978 6.36664 19.944 6.31367L13.4023 5.95034Z" fill="#FFD4C0"/>
<path d="M6.66083 11.9135L5.60363 11.9722L5.60363 11.9722L6.66083 11.9135ZM13.4023 5.95034L13.4687 5.0152L13.4687 5.0152L13.4023 5.95034ZM7.07158 17.6999L8.12878 17.6412L8.12878 17.6412L7.07158 17.6999ZM7.83963 20.0772L8.89889 20.0832L8.90064 19.8392L8.76764 19.6254L7.83963 20.0772ZM9.3908 23.4199L8.64178 24.0824L9.3908 23.4199ZM24.173 36.4955L23.424 37.158L24.173 36.4955ZM31.6632 36.4955L30.9142 35.8329L31.6632 36.4955ZM41.2587 28.0078L42.0078 28.6704L41.2587 28.0078ZM22.5165 6.93842L22.0256 7.76871L22.2764 7.88473L22.5592 7.87464L22.5165 6.93842ZM19.944 6.31367L19.8776 7.24881L19.8776 7.24881L19.944 6.31367ZM7.71802 11.8548C7.51824 9.04034 10.1541 6.70876 13.3359 6.88548L13.4687 5.0152C9.01421 4.7678 5.32394 8.03201 5.60363 11.9722L7.71802 11.8548ZM8.12878 17.6412L7.71802 11.8548L5.60363 11.9722L6.01439 17.7587L8.12878 17.6412ZM8.76764 19.6254C8.41268 19.0549 8.18197 18.3906 8.12878 17.6412L6.01439 17.7587C6.0871 18.783 6.4057 19.7159 6.91163 20.529L8.76764 19.6254ZM10.1398 22.7573C9.30541 22.0193 8.89193 21.0518 8.89889 20.0832L6.78038 20.0713C6.76997 21.5205 7.3906 22.9757 8.64178 24.0824L10.1398 22.7573ZM24.9221 35.8329L10.1398 22.7573L8.64178 24.0824L23.424 37.158L24.9221 35.8329ZM30.9142 35.8329C29.2595 37.2966 26.5767 37.2966 24.9221 35.8329L23.424 37.158C25.906 39.3535 29.9302 39.3535 32.4123 37.158L30.9142 35.8329ZM40.5097 27.3453L30.9142 35.8329L32.4123 37.158L42.0078 28.6704L40.5097 27.3453ZM40.5097 22.0449C42.1644 23.5086 42.1644 25.8816 40.5097 27.3453L42.0078 28.6704C44.4898 26.4749 44.4898 22.9153 42.0078 20.7198L40.5097 22.0449ZM25.7275 8.96931L40.5097 22.0449L42.0078 20.7198L27.2255 7.64422L25.7275 8.96931ZM22.5592 7.87464C23.7022 7.83383 24.8564 8.19879 25.7275 8.96931L27.2255 7.64422C25.9189 6.48845 24.1831 5.94118 22.4738 6.0022L22.5592 7.87464ZM19.8776 7.24881C20.6838 7.29358 21.4026 7.48052 22.0256 7.76871L23.0074 6.10813C22.12 5.69764 21.1118 5.4397 20.0104 5.37853L19.8776 7.24881ZM13.3359 6.88548L19.8776 7.24881L20.0104 5.37853L13.4687 5.0152L13.3359 6.88548Z" fill="#5F231B" mask="url(#path-1-inside-1_2413_59452)"/>
<circle cx="2.75785" cy="2.75785" r="2.25785" transform="matrix(0.749022 -0.662546 0.749022 0.662546 11.6895 13.9912)" fill="white" stroke="#5F231B"/>
<rect x="0.374511" width="0.574434" height="6.48382" rx="0.25" transform="matrix(0.749022 -0.662546 0.749022 0.662546 22.009 31.0802)" fill="white" stroke="#5F231B" stroke-width="0.5"/>
<rect x="0.374511" width="1.11165" height="6.48382" rx="0.25" transform="matrix(0.749022 -0.662546 0.749022 0.662546 27.2395 26.4522)" fill="white" stroke="#5F231B" stroke-width="0.5"/>
<rect x="0.374511" width="1.11165" height="6.48382" rx="0.25" transform="matrix(0.749022 -0.662546 0.749022 0.662546 29.2512 24.6729)" fill="white" stroke="#5F231B" stroke-width="0.5"/>
<rect x="0.374511" width="1.74498" height="6.48382" rx="0.25" transform="matrix(0.749022 -0.662546 0.749022 0.662546 31.2649 22.8931)" fill="white" stroke="#5F231B" stroke-width="0.5"/>
<rect x="0.374511" width="2.7233" height="6.48382" rx="0.25" transform="matrix(0.749022 -0.662546 0.749022 0.662546 23.6194 29.6563)" fill="white" stroke="#5F231B" stroke-width="0.5"/>
<path d="M34.6283 19.8745L34.684 19.8252C34.7874 19.7337 34.9551 19.7337 35.0585 19.8252L39.5405 23.7897C39.644 23.8812 39.644 24.0295 39.5405 24.121L39.4848 24.1703C39.3814 24.2618 39.2137 24.2618 39.1103 24.1703L34.6283 20.2058C34.5248 20.1143 34.5248 19.966 34.6283 19.8745Z" fill="white" stroke="#5F231B" stroke-width="0.5"/>
<g clip-path="url(#clip0_2413_59452)">
<path d="M24.6393 19.7122C24.5162 19.6921 24.3954 19.614 24.2817 19.5713C23.6827 19.3468 22.8981 19.2577 22.3857 19.7008C22.3857 19.7008 21.421 20.4813 22.0814 21.3381C22.2631 21.5736 22.272 21.797 22.1175 22.0503C22.0404 22.1769 21.9472 22.2951 21.873 22.4227C21.5838 22.9197 21.8113 23.4692 22.2229 23.8491C22.6148 24.211 23.2145 24.3199 23.7375 24.1264C24.3625 23.895 24.6221 23.2871 25.0419 22.8576C25.489 22.3999 26.019 22.0046 26.6035 21.6907C26.9258 21.5178 27.227 21.3392 27.3814 21.0194C27.55 20.6709 27.4369 20.2992 27.2158 19.9911C26.8364 19.4619 25.9281 19.076 25.2758 19.4456C25.2103 19.4825 25.1517 19.528 25.0881 19.5673C24.9932 19.6264 24.8883 19.673 24.7781 19.7053C24.7315 19.7191 24.685 19.7194 24.6387 19.7122L24.6393 19.7122Z" fill="#5F231B"/>
<path d="M19.7184 22.8515C19.7029 22.8516 19.6943 22.8514 19.6943 22.8514C19.0547 22.8354 18.5513 22.3637 18.5698 21.7977C18.5883 21.2317 19.1224 20.7862 19.7623 20.8019C20.206 20.7886 20.9174 21.1753 21.4197 21.4901C21.7336 21.6868 21.729 22.1011 21.4084 22.2899C20.7827 22.6584 20.2667 22.7854 19.969 22.8288C19.8881 22.844 19.804 22.8516 19.7179 22.851L19.7184 22.8515Z" fill="#5F231B"/>
<path d="M19.544 20.3854C19.5292 20.3815 19.5209 20.379 19.5209 20.379C18.9165 20.1935 18.5974 19.6094 18.8077 19.0746C19.0181 18.5397 19.6789 18.2569 20.2833 18.4424C20.711 18.548 21.2572 19.1063 21.6292 19.5402C21.8616 19.8113 21.7159 20.2053 21.3465 20.3002C20.6244 20.4853 20.089 20.4686 19.7908 20.431C19.7083 20.4238 19.6259 20.4088 19.544 20.3854Z" fill="#5F231B"/>
<path d="M26.0439 17.5697C26.0449 17.556 26.0452 17.5484 26.0452 17.5484C26.0639 16.9827 25.5605 16.511 24.9206 16.4947C24.2807 16.4785 23.7472 16.9245 23.7281 17.4905C23.6876 17.8816 24.0831 18.5321 24.4094 18.9938C24.6135 19.2822 25.0813 19.3021 25.3128 19.0298C25.7648 18.4985 25.9378 18.05 26.0039 17.7896C26.0257 17.7191 26.0391 17.6453 26.0433 17.5692L26.0439 17.5697Z" fill="#5F231B"/>
<path d="M23.2709 17.2736C23.2674 17.2603 23.265 17.2529 23.265 17.2529C23.0904 16.7085 22.4495 16.3931 21.8338 16.5481C21.218 16.7031 20.8608 17.2703 21.0354 17.8147C21.13 18.1985 21.7287 18.7129 22.197 19.0664C22.4896 19.2873 22.9427 19.1813 23.0711 18.8605C23.3215 18.2334 23.3335 17.7597 23.3081 17.4942C23.3048 17.421 23.2926 17.3473 23.2709 17.2736Z" fill="#5F231B"/>
</g>
<defs>
<clipPath id="clip0_2413_59452">
<rect width="8.91637" height="7.29488" fill="white" transform="matrix(-0.767574 0.64096 0.729725 0.683741 23.6533 14.8696)"/>
</clipPath>
</defs>
</svg>
