<svg width="130" height="123" viewBox="0 0 130 123" fill="none" xmlns="http://www.w3.org/2000/svg">
<path d="M0.819651 54.7556C0.819651 54.7556 5.01878 18.155 54.7301 3.00622C62.9788 0.491401 72.1679 -0.344024 80.7439 0.123899C87.9742 0.519177 95.2718 2.07679 101.625 5.60651C109.2 9.81355 114.131 17.1721 117.713 24.7764C121.643 33.1221 124.748 42.0533 126.895 50.9972C128.386 57.2084 129.402 63.5329 129.844 69.9022C131.168 89.0251 124.167 108.932 104.636 116.039C88.8431 121.784 70.9871 123.527 54.3011 121.769C47.608 121.064 40.9865 119.652 34.6445 117.417C34.6445 117.417 -6.24172 107.396 0.819651 54.7534V54.7556Z" fill="white" stroke="#5F231B" stroke-opacity="0.5"/>
<!-- <path d="M0.819651 54.7556C0.819651 54.7556 5.01878 18.155 54.7301 3.00622C62.9788 0.491401 72.1679 -0.344024 80.7439 0.123899C87.9742 0.519177 95.2718 2.07679 101.625 5.60651C109.2 9.81355 114.131 17.1721 117.713 24.7764C121.643 33.1221 124.748 42.0533 126.895 50.9972C128.386 57.2084 129.402 63.5329 129.844 69.9022C131.168 89.0251 124.167 108.932 104.636 116.039C88.8431 121.784 70.9871 123.527 54.3011 121.769C47.608 121.064 40.9865 119.652 34.6445 117.417C34.6445 117.417 -6.24172 107.396 0.819651 54.7534V54.7556Z" stroke="#5F231B" stroke-opacity="0.5"/> -->
</svg>
