<svg width="197" height="177" viewBox="0 0 197 177" fill="none" xmlns="http://www.w3.org/2000/svg">
<path d="M33.2629 78.0956L59.1139 80.3744L63.8864 94.1364L29.7718 85.851C29.7718 85.851 21.1281 85.1981 17.691 88.8038C17.2089 89.3071 16.5074 89.556 15.8176 89.4357C15.1277 89.3153 14.3747 89.0077 13.8366 88.2166C13.2985 87.4256 13.3481 86.3318 13.9569 85.5695C15.8679 83.1598 21.6708 77.3316 32.7771 78.1596" fill="#FFD4C0"/>
<path d="M15.2304 89.7662C15.392 89.8162 15.5647 89.8604 15.7343 89.8849C16.5654 90.0303 17.4098 89.7417 18.0046 89.115C21.2574 85.7131 29.6519 86.2982 29.7337 86.3049L64.5675 94.7662L59.4373 79.9615L59.1466 79.9368L33.2957 77.658L33.2163 78.5469L58.7766 80.801L63.183 93.5175L29.8641 85.4318C29.4295 85.3905 20.8969 84.7999 17.3523 88.5122C16.964 88.9233 16.4131 89.107 15.8732 89.0144C15.1271 88.8953 14.5647 88.5442 14.178 87.9864C13.7476 87.3592 13.7851 86.4853 14.2758 85.8636C16.217 83.4166 21.884 77.8167 32.7082 78.6226L32.7764 77.7396C21.5235 76.9035 15.6001 82.7596 13.5769 85.321C12.8447 86.2409 12.7941 87.5487 13.4426 88.4951C13.8671 89.1112 14.468 89.5489 15.2166 89.7806L15.2304 89.7662Z" fill="#515151"/>
<path d="M41.9274 50.1018C41.9274 50.1018 41.4435 44.2571 39.5679 42.6979C39.5679 42.6979 34.9784 46.8044 36.4634 51.7939" fill="#FFD4C0"/>
<path d="M36.041 51.9249L36.8944 51.6671C35.7226 47.7438 38.6061 44.3302 39.5702 43.3237C40.7906 44.8014 41.3642 48.6699 41.4888 50.1345L42.3773 50.0647C42.3607 49.8172 41.8551 44.0124 39.8618 42.3515L39.5663 42.1015L39.2818 42.3583C39.0884 42.5315 34.4948 46.7114 36.0521 51.919L36.041 51.9249Z" fill="#515151"/>
<path d="M140.596 100.777C140.596 100.777 149.29 115.78 148.708 126.273C148.708 126.273 148.574 134.265 152.951 139.609C154.926 142.02 155.905 145.091 155.947 148.208L156.178 167.788C156.178 167.788 160.34 173.587 154.148 174.346C154.148 174.346 148.169 175.776 146.467 171.968C146.467 171.968 146.897 168.41 149.381 166.047C149.381 166.047 146.915 155.283 140.54 148.537C140.54 148.537 131.777 140.046 129.278 132.701C129.278 132.701 122.269 119.03 114.09 117.114C114.09 117.114 83.4051 117.775 68.7368 102.768C68.7368 102.768 45.9746 98.4903 36.6718 92.2274C36.6718 92.2274 31.8839 89.6269 30.1607 95.6459C29.9644 96.3402 29.4214 96.8898 28.7154 97.0627C27.477 97.3598 25.5392 97.3565 24.0915 95.1375C23.5991 94.3792 23.5837 93.4051 24.023 92.6183C25.4439 90.0755 29.1903 84.3565 34.3596 84.2788C34.3596 84.2788 39.6199 84.2387 54.8553 88.1995C56.3224 88.5791 57.8805 88.9961 59.538 89.4532C59.538 89.4532 54.3159 88.9181 53.8106 82.6006C53.8106 82.6006 50.1531 80.173 46.3568 80.4519C45.4317 80.5197 44.508 80.5228 43.5818 80.4132C39.7554 79.9465 30.7588 78.476 27.4899 74.612C26.5131 73.4615 26.5856 73.5585 26.5856 73.5585C26.5856 73.5585 22.1781 70.9639 27.7997 64.6975C27.7997 64.6975 29.6297 52.7928 39.8041 50.2472L42.5867 49.7197L45.804 39.3257C45.804 39.3257 51.9633 42.3134 57.6841 53.1625C57.6841 53.1625 70.1099 57.7078 75.027 63.6851C75.5823 64.3603 76.2314 64.9433 76.96 65.4205C82.2786 68.8657 103.595 81.9697 124.428 84.8016C126.645 85.1058 128.92 84.533 130.667 83.135C132.751 81.4594 135.372 78.412 137.462 72.9258L141.858 59.0564C144.139 51.8678 148.979 45.6858 155.604 42.0789C159.733 39.8242 164.497 38.5865 169.042 40.5247C169.042 40.5247 173.863 43.8624 165.968 46.9643C165.968 46.9643 154.608 50.8395 148.882 65.8444C148.882 65.8444 144.403 83.2952 140.867 88.0634C140.068 89.1396 139.366 90.2925 138.935 91.5663C138.31 93.4048 137.856 95.7437 138.941 96.9369L140.576 100.78L140.596 100.777Z" fill="white"/>
<path d="M147.057 159.52C146.816 153.622 153.035 151.586 156.174 151.306C156.077 156.677 155.942 167.531 156.179 167.98C158.653 172.127 156.543 173.884 155.179 174.245C150.674 175.903 147.791 173.837 146.49 172.73C145.449 171.844 147.944 167.779 149.322 165.857L147.057 159.52Z" fill="#FFD4C0"/>
<path d="M151.312 169.291C150.552 170.229 149.397 172.596 150.858 174.551" stroke="#515151" stroke-width="2" stroke-linecap="round"/>
<path d="M146.195 112.995C127.289 112.778 106.351 89.2339 98.2458 77.4887L97.9499 76.9275L106.603 80.0756L113.542 82.693L123.665 84.887L127.425 84.8768L130.792 83.1013L133.568 80.2033L136.66 75.5247L139.445 66.5246L142.165 57.7388L145.16 51.8561L148.201 48.101L153.14 43.5244L158.752 40.5652L163.767 39.5347C164.669 39.6571 166.656 39.9122 167.395 39.9531C168.134 39.9939 168.89 40.181 169.176 40.2694L170.722 42.8613L169.563 45.0858L165.354 47.3052L161.92 49.295L158.288 51.9276L154.471 55.9124L151.379 60.591L148.798 65.8972L146.971 73.3156L142.282 86.1882L139.058 91.2954L138.307 95.9944L146.195 112.995Z" fill="#FFD4C0"/>
<path d="M81.941 96.7717C70.0789 90.0897 62.3019 96.4625 59.8962 100.484L67.8271 102.187C78.1471 113.208 99.6524 116.971 109.115 117.475C108.773 112.151 90.8565 101.455 81.941 96.7717Z" fill="#FFD4C0"/>
<path d="M149.078 174.704C151.417 175.428 154.088 174.81 154.25 174.767C156.051 174.551 157.242 173.866 157.733 172.732C158.589 170.779 157.013 168.222 156.615 167.642L156.386 148.203C156.345 144.872 155.244 141.716 153.288 139.331C149.059 134.172 149.147 126.36 149.151 126.287C149.724 115.914 141.506 101.477 140.991 100.581L139.284 96.6411C138.539 95.8235 138.567 94.0796 139.372 91.7191C139.734 90.6382 140.328 89.5637 141.239 88.3358C144.783 83.5421 149.137 66.677 149.321 65.9605C154.884 51.39 166 47.43 166.115 47.3909C169.128 46.2079 170.743 44.8156 170.926 43.2598C171.135 41.4698 169.368 40.2236 169.291 40.1718L169.211 40.1284C165.135 38.3913 160.49 38.9111 155.388 41.6937C148.762 45.3007 143.808 51.4288 141.43 58.932L137.034 72.8015C134.929 78.3387 132.252 81.2944 130.389 82.7962C128.778 84.0871 126.633 84.6628 124.486 84.3711C103.958 81.5776 83.104 68.8777 77.2027 65.0564C76.52 64.6121 75.8996 64.0565 75.3704 63.4174C70.6846 57.7167 59.5422 53.3917 57.9975 52.811C52.2962 42.0797 46.2514 39.0529 46.0009 38.9288L45.5312 38.6995L42.2402 49.3317L39.7269 49.8027C29.9473 52.2469 27.6366 63.1452 27.3895 64.4855C25.2119 66.9432 24.2544 69.1634 24.5523 71.0918C24.8237 72.8349 26.0399 73.724 26.3113 73.9012C26.3891 73.9812 26.5942 74.2218 27.1522 74.8885C30.5309 78.8796 39.731 80.3852 43.5292 80.8525C44.4017 80.9548 45.3372 80.974 46.3888 80.8894C49.5184 80.6558 52.6173 82.3886 53.3851 82.8593C53.6292 85.293 54.5621 86.8866 55.6268 87.9339C55.4115 87.8766 55.1877 87.8166 54.9724 87.7593C39.8562 83.8353 34.575 83.8224 34.3609 83.8214C28.9408 83.896 25.0612 89.8348 23.6377 92.3861C23.1091 93.3409 23.1393 94.4781 23.7217 95.3667C25.3673 97.88 27.6294 97.7693 28.8286 97.4787C29.6747 97.2746 30.3449 96.6152 30.5938 95.7509C31.1074 93.9712 31.9361 92.8296 33.0636 92.349C34.6936 91.6605 36.4459 92.5944 36.4629 92.5996C45.4172 98.6335 66.427 102.76 68.5141 103.154C76.1765 110.923 88.1347 114.419 96.8319 115.983C105.837 117.606 113.311 117.552 114.043 117.536C121.908 119.439 128.815 132.752 128.877 132.884C131.349 140.192 139.865 148.486 140.222 148.838C145.912 154.85 148.475 164.274 148.879 165.891C146.484 168.328 146.04 171.751 146.021 171.903L146.001 172.028L146.051 172.136C146.685 173.553 147.828 174.317 149.061 174.699L149.078 174.704ZM138.577 97.1774L140.209 101.001C140.294 101.148 148.836 116.012 148.268 126.247C148.262 126.599 148.179 134.487 152.61 139.894C154.444 142.13 155.468 145.085 155.508 148.21L155.742 167.931L155.818 168.048C155.818 168.048 157.677 170.683 156.925 172.389C156.56 173.208 155.608 173.724 154.097 173.909C153.987 173.931 148.528 175.186 146.933 171.906C147.035 171.276 147.614 168.351 149.69 166.374L149.875 166.199L149.821 165.949C149.799 165.84 147.258 154.987 140.868 148.228C140.767 148.131 132.139 139.719 129.706 132.553C129.397 131.926 122.496 118.624 114.199 116.671L114.092 116.656C114.016 116.661 106.338 116.801 96.9879 115.118C88.3783 113.572 76.5589 110.109 69.0678 102.45L68.9698 102.345L68.8284 102.32C68.5994 102.277 46.0454 97.9891 36.9368 91.8515C36.8086 91.7839 34.76 90.6931 32.7363 91.5394C31.3435 92.1242 30.3416 93.4638 29.7523 95.5184C29.5923 96.0654 29.1621 96.4915 28.6382 96.6182C27.4586 96.9056 25.773 96.8405 24.4885 94.8771C24.0895 94.2689 24.0725 93.4807 24.4356 92.8195C25.7804 90.4022 29.4389 84.7865 34.383 84.7137C34.4308 84.7098 39.8023 84.732 54.7628 88.6172C55.8334 88.8926 56.9524 89.1924 58.1224 89.5079C58.9232 89.8117 59.4992 89.8782 59.5162 89.8834L59.6833 89.0124C59.1931 88.8793 58.7115 88.7489 58.2411 88.6126C56.7632 87.9967 54.5949 86.4494 54.274 82.5472L54.2581 82.3279L54.0808 82.2078C53.9265 82.1041 50.2441 79.6967 46.3523 79.9833C45.3597 80.0582 44.4779 80.0463 43.6702 79.9454C39.9766 79.5012 31.0396 78.0491 27.8661 74.2986C27.4499 73.8062 27.184 73.4909 26.9997 73.3034L26.9912 73.3007C26.9337 73.2456 26.8905 73.2043 26.8474 73.163C26.8474 73.163 26.8304 73.1577 26.8186 73.1355C26.7957 73.1191 26.7729 73.1026 26.7585 73.0889C26.4754 72.8894 25.6549 72.1974 25.4698 70.9284C25.2257 69.2776 26.1614 67.2184 28.1717 64.9699L28.2569 64.8751L28.2794 64.7423C28.2966 64.6264 30.1855 53.1035 39.9565 50.6567L42.9748 50.0904L46.1079 39.9685C47.6206 40.8935 52.6405 44.4606 57.336 53.3519L57.4183 53.5078L57.5799 53.5579C57.7022 53.6144 69.9474 58.141 74.7286 63.955C75.3186 64.6689 76.0049 65.2822 76.7648 65.7784C82.7034 69.6299 103.709 82.4138 124.417 85.2259C126.796 85.552 129.195 84.9061 130.992 83.4676C132.95 81.9018 135.739 78.8225 137.919 73.0753L142.322 59.1804C144.632 51.8982 149.436 45.9564 155.86 42.4552C160.693 39.822 165.067 39.3024 168.859 40.9049C169.071 41.0637 170.22 41.988 170.079 43.1373C169.935 44.3232 168.471 45.501 165.848 46.5348C165.753 46.5707 154.249 50.6432 148.515 65.6737C148.447 65.8948 144.003 83.1421 140.56 87.79C139.597 89.095 138.963 90.2409 138.571 91.4153C137.658 94.1246 137.674 96.059 138.619 97.1624L138.577 97.1774Z" fill="#515151"/>
<path d="M33.1874 64.1829C35.2026 64.5084 36.9156 64.2744 38.9263 64.5239C37.4393 63.0943 34.914 63.2726 33.1874 64.1829Z" fill="#515151"/>
<path d="M32.9017 68.299C33.1682 68.251 33.4272 68.3778 33.6713 68.4627C35.3944 69.2197 37.0209 70.1985 38.6055 71.1923C40.3351 72.3802 42.3025 73.4924 43.2492 75.4632C43.125 72.1905 35.8845 67.7869 32.9043 68.2905L32.9017 68.299Z" fill="#515151"/>
<path d="M32.0811 69.8062C32.3554 69.8538 32.5429 70.061 32.7495 70.2368C34.0986 71.5398 35.2909 73.0181 36.4327 74.5086C37.6443 76.2258 39.1066 77.9461 39.3085 80.1244C40.3173 77.0159 35.0452 70.3788 32.087 69.8174L32.0811 69.8062Z" fill="#515151"/>
<path d="M26.1442 64.3238C24.9104 63.0098 22.7678 62.5237 21.0959 63.2272C22.8689 63.1608 24.5331 63.5361 26.1442 64.3238Z" fill="#515151"/>
<path d="M25.0977 65.7148C23.6055 64.6936 21.4111 64.6762 19.9298 65.7276C21.6523 65.2821 23.3537 65.2961 25.0977 65.7148Z" fill="#515151"/>
<path d="M26.5783 97.2207L27.3196 96.7231C26.4641 95.4517 27.9294 93.398 27.9458 93.3751L27.2219 92.8528C27.1425 92.9587 25.3735 95.4217 26.5783 97.2207Z" fill="#515151"/>
</svg>
