<svg width="35" height="44" viewBox="0 0 35 44" fill="none" xmlns="http://www.w3.org/2000/svg">
<path d="M20.4605 16.7113C21.4166 10.281 20.0759 4.3432 17.2903 0.856689C8.96579 1.70495 5.63384 11.2982 5.63384 11.2982C4.08109 17.7968 6.65463 27.178 6.65463 27.1852C12.2474 27.1169 19.1234 25.7151 20.4605 16.7113Z" fill="#F0C376"/>
<path d="M32.0895 14.2741C38.0284 32.5082 33.4805 36.3433 30.7344 36.7639C30.2564 36.8358 29.7999 36.7854 29.4081 36.6201C28.8582 36.3901 28.3873 35.9048 28.0782 35.2542C27.6685 34.3916 27.4277 33.4499 27.23 32.5082C27.1761 34.0825 27.0323 35.6676 26.6692 37.2383C25.9827 40.2252 24.775 41.9793 22.9743 42.5939C18.8192 44.0172 14.0028 41.6198 11.3933 38.5107C9.53144 36.2966 8.07574 33.3816 6.93993 29.6003C6.29294 27.4509 5.80411 25.111 5.44468 22.444L5.41952 22.2499C4.97742 19.0006 4.52453 15.64 5.13197 12.3547C5.60283 9.81353 6.66676 7.53831 8.37766 5.39609C8.68677 5.01149 9.02824 4.63049 9.39486 4.26746C11.0698 2.60688 13.8123 0.532948 17.3527 0.090844C17.8703 0.0261459 18.3951 -0.00620293 18.9342 0.000985749C21.2526 0.0225518 24.6528 1.37762 26.3601 2.95913C27.992 4.47234 29.3758 6.5319 30.4757 9.08747C31.252 10.8918 31.7948 12.6351 32.0895 14.2741C32.1219 14.461 31.9997 14.6371 31.8128 14.6695C31.6294 14.7054 31.4497 14.5796 31.4174 14.3927C31.1334 12.8076 30.6051 11.1111 29.8502 9.35705C28.7899 6.89133 27.46 4.90726 25.8965 3.46233C24.297 1.97787 21.1052 0.705476 18.927 0.68391C18.431 0.680315 17.9242 0.705475 17.439 0.766579C14.0891 1.18352 11.4796 3.164 9.8765 4.74911C9.52785 5.09416 9.20436 5.4536 8.91322 5.82022C7.2742 7.87259 6.257 10.0508 5.80411 12.4769C5.21464 15.6543 5.66393 18.9611 6.09526 22.1565L6.12042 22.3506C6.47626 24.9816 6.9579 27.2856 7.59409 29.4027C8.70115 33.094 10.1173 35.9264 11.9145 38.0686C14.3766 40.998 18.8911 43.2696 22.7514 41.9433C24.3114 41.4078 25.3753 39.8191 26.0043 37.0802C26.6153 34.4311 26.5902 31.8181 26.565 29.054V28.5292C26.5578 28.3891 26.6441 28.2597 26.7771 28.2093C26.9065 28.159 27.0574 28.1914 27.1545 28.2992C27.2983 28.4573 27.3234 28.6946 27.327 28.7593C27.3666 29.4386 27.4744 30.2222 27.6541 31.1459L27.7152 31.455C27.9452 32.6519 28.1861 33.892 28.6929 34.9631C28.9301 35.4591 29.2751 35.8258 29.6705 35.9911C29.9473 36.1097 30.2816 36.1421 30.6302 36.0881C33.024 35.7215 36.7197 32.838 31.4174 14.3927C27.1064 -3.62258 30.1762 9.35705 32.0895 14.2741Z" fill="#515151"/>
<path d="M15.6011 18.2453C16.2284 18.2384 16.7276 17.3864 16.7161 16.3423C16.7046 15.2982 16.1868 14.4574 15.5596 14.4643C14.9323 14.4712 14.4331 15.3232 14.4446 16.3673C14.4561 17.4114 14.9739 18.2522 15.6011 18.2453Z" fill="#515151"/>
<path d="M25.147 15.8877C25.7206 15.8814 26.1772 15.1039 26.1667 14.1511C26.1562 13.1983 25.6827 12.431 25.109 12.4373C24.5354 12.4436 24.0788 13.2211 24.0893 14.1739C24.0998 15.1267 24.5733 15.894 25.147 15.8877Z" fill="#515151"/>
<path d="M5.19911 18.8501C5.66278 20.7083 2.68307 20.543 1.86356 20.3094C0.964978 20.0542 0.325186 19.2095 0.123903 18.2282C-1.06223 12.4665 6.65841 8.80029 6.65841 8.80029C6.65841 8.80029 4.45868 15.8883 5.19911 18.8501Z" fill="#515151"/>
<path d="M27.7812 5.06199C27.7812 5.06199 32.5437 4.31796 34.1073 9.5621C34.3229 10.2882 34.1576 11.0897 33.6328 11.6396C33.1081 12.1896 32.2274 12.4879 31.0126 11.0825" fill="#515151"/>
<path d="M23.3477 25.7761C23.3728 25.6682 23.4195 25.5748 23.5058 25.5029C24.0342 25.0536 24.7351 24.6942 25.3677 24.4138C26.0434 24.1155 26.7587 23.9106 27.4955 23.8387C27.5027 23.8387 27.5063 23.8387 27.5135 23.8387C27.8334 23.81 28.8722 23.6914 29.1166 23.9394C29.3538 24.1802 29.2208 24.6978 29.1885 24.9889C29.0663 26.0924 28.8398 27.3037 27.9268 28.0405C27.4919 28.3928 26.9384 28.5653 26.3813 28.5509C25.8206 28.5365 25.2491 28.4179 24.7494 28.1519C24.275 27.8967 23.9012 27.487 23.6604 27.0053C23.513 26.7106 23.2614 26.1571 23.3477 25.7725V25.7761Z" fill="#515151"/>
</svg>
