<svg width="132" height="77" viewBox="0 0 132 77" fill="none" xmlns="http://www.w3.org/2000/svg">
<g clip-path="url(#clip0_655_8723)">
<path d="M94.0059 40.1954C88.6562 41.2608 82.5103 46.7002 78.4335 54.6069C74.3007 62.6314 76.1344 69.5624 79.8354 73.8354C83.8953 71.3849 97.4377 61.4875 94.0059 40.1954Z" fill="#A28977"/>
<path d="M31.93 31.3578C33.4216 21.3258 31.33 12.062 26.9841 6.62262C13.9968 7.94602 8.79858 22.9127 8.79858 22.9127C6.37609 33.0513 10.3911 47.6872 10.3911 47.6984C19.1166 47.5918 29.844 45.4049 31.93 31.3578Z" fill="#F0C376"/>
<path d="M89.0207 24.0847L80.7327 1.25049L80.1382 5.47302C78.7532 11.961 74.2502 15.0957 71.9175 16.3125C72.624 17.5238 73.51 18.6846 74.5643 19.75C78.7924 24.0342 84.5402 25.5819 89.0207 24.0847Z" fill="#A28977"/>
<path d="M71.0428 76.5832C67.7904 76.5832 65.2109 75.8261 63.366 74.3289C61.8968 73.1345 60.9547 71.3288 60.7865 69.3774C60.6351 67.5998 61.1454 65.9343 62.2333 64.6838C63.1417 63.6408 64.2464 62.8109 65.3455 62.351C66.4053 61.908 67.5212 61.8071 68.5979 61.7118C68.968 61.6781 69.3437 61.6445 69.7138 61.5996C70.0054 61.5604 70.2746 61.7678 70.3082 62.0594C70.3419 62.351 70.14 62.6202 69.8484 62.6538C69.4671 62.7043 69.0802 62.738 68.6932 62.7716C67.6502 62.8613 66.6689 62.951 65.7605 63.3324C64.8128 63.7305 63.8483 64.4539 63.0408 65.3791C62.1435 66.4109 61.723 67.796 61.852 69.282C61.9921 70.9251 62.8165 72.5008 64.0445 73.499C65.895 75.0018 68.6203 75.6691 72.1756 75.4841C78.2654 75.1644 83.817 71.7999 87.7984 66.0072C92.5873 59.0481 94.8079 50.0423 93.7368 41.9169C93.0583 36.7411 91.4377 32.1316 89.7218 27.253C89.2732 25.9688 88.847 24.7296 88.4208 23.4959C87.3778 20.4453 86.3853 17.563 85.0563 14.1312C84.4675 12.6115 83.9235 11.0694 83.3796 9.52731C82.5721 7.24501 81.7478 4.90664 80.7664 2.64677C80.5421 5.02439 80.0711 7.51418 78.9271 10.0152C77.6093 12.9143 75.1196 15.3704 72.2765 16.5873C70.8802 17.1873 69.4278 17.3219 68.082 16.9742C66.5007 16.5705 64.8632 15.4658 63.209 13.6826C62.4351 12.847 61.779 11.9554 61.2351 11.1928C60.0014 9.44319 59.1042 7.69362 58.1677 5.74778C58.5378 8.75346 58.6388 10.5086 58.6612 13.2003C58.6949 17.2097 58.4537 21.1968 58.235 24.2193C58.0836 26.3277 57.9266 28.4418 57.764 30.5503C57.5453 33.427 57.3322 36.2981 57.1359 39.1748C57.0462 40.4926 57.0014 41.816 56.9509 43.1394L56.9116 44.2048C56.7827 48.0516 56.6425 52.033 55.3079 55.7621C54.3994 58.2911 52.2349 62.637 47.9507 63.2931C47.2049 63.4053 46.4927 63.3268 45.8815 63.0688C45.0235 62.7099 44.2889 61.9529 43.8066 60.9379C43.1674 59.5921 42.7917 58.1229 42.4832 56.6537C42.3991 59.1098 42.1748 61.5828 41.6085 64.0333C40.5374 68.6932 38.6532 71.4298 35.8438 72.3887C29.3614 74.6093 21.8472 70.869 17.7761 66.0184C14.8714 62.5641 12.6003 58.0163 10.8283 52.1171C9.81889 48.7638 9.05626 45.1132 8.4955 40.9524L8.45624 40.6496C7.76651 35.5803 7.05995 30.3372 8.00763 25.2118C8.74223 21.2472 10.4021 17.6976 13.0713 14.3555C13.5536 13.7555 14.0863 13.161 14.6583 12.5947C17.2714 10.004 21.55 6.76836 27.0735 6.07863C27.881 5.97769 28.6997 5.92722 29.5409 5.93844C33.1578 5.97208 38.4626 8.08615 41.1262 10.5535C43.6721 12.9143 45.831 16.1275 47.5469 20.1145C48.7582 22.9295 49.6049 25.6492 50.0647 28.2063C50.1152 28.4979 49.9246 28.7726 49.633 28.8231C49.347 28.8792 49.0666 28.6829 49.0161 28.3913C48.5731 25.9184 47.7488 23.2716 46.5712 20.5351C44.917 16.6882 42.8421 13.5928 40.4028 11.3386C37.9074 9.02262 32.9279 7.03753 29.5297 7.00388C28.7558 6.99828 27.9651 7.03753 27.2081 7.13286C21.9818 7.78334 17.9107 10.8731 15.4097 13.3461C14.8657 13.8844 14.3611 14.4452 13.9068 15.0172C11.3498 18.2191 9.76282 21.6173 9.05626 25.4025C8.13661 30.3596 8.83756 35.5186 9.51047 40.5038L9.54973 40.8066C10.1049 44.9114 10.8563 48.5058 11.8488 51.8087C13.576 57.5677 15.7854 61.9865 18.5892 65.3287C22.4304 69.8989 29.4736 73.4429 35.4962 71.3737C37.9299 70.5381 39.5897 68.0596 40.571 63.7866C41.5243 59.6538 41.4851 55.577 41.4458 51.2648V50.4461C41.4346 50.2274 41.5692 50.0255 41.7767 49.947C41.9786 49.8685 42.2141 49.919 42.3655 50.0872C42.5898 50.3339 42.629 50.704 42.6347 50.805C42.6963 51.8648 42.8646 53.0873 43.1449 54.5284L43.2403 55.0107C43.5992 56.878 43.9749 58.8126 44.7655 60.4837C45.1357 61.2575 45.674 61.8295 46.2908 62.0875C46.7226 62.2725 47.2441 62.323 47.7881 62.2389C51.5227 61.6669 53.4742 57.7135 54.2985 55.4032C55.5826 51.8312 55.7116 47.9395 55.8406 44.1712L55.8798 43.1057C55.9247 41.7711 55.9752 40.4365 56.0649 39.1075C56.2612 36.2308 56.4799 33.3541 56.6929 30.4774C56.85 28.3689 57.0126 26.2604 57.164 24.152C57.3771 21.1463 57.6238 17.1873 57.5902 13.2171C57.5621 9.71797 57.3939 7.8282 56.6705 2.56265C56.6369 2.3047 56.7939 2.05797 57.0406 1.97946C57.293 1.90095 57.5565 2.01871 57.6743 2.25423C57.9939 2.91593 58.2911 3.54399 58.5827 4.14961C59.7098 6.52163 60.68 8.56841 62.0987 10.5815C62.6202 11.3161 63.2482 12.1741 63.9828 12.9648C65.4969 14.591 66.9605 15.5947 68.34 15.948C69.4559 16.234 70.6727 16.1163 71.8503 15.6116C74.4579 14.4957 76.7402 12.2414 77.9514 9.57778C79.0841 7.088 79.6337 4.45803 79.8412 0.510266C79.8524 0.269139 80.0262 0.061657 80.2673 0.0167961C80.5029 -0.0336724 80.744 0.0896951 80.8505 0.308392C82.2468 3.1851 83.3291 6.23564 84.3721 9.18524C84.9105 10.7161 85.4544 12.247 86.0376 13.7555C87.3778 17.2097 88.3647 20.1033 89.4134 23.165C89.8339 24.3931 90.2601 25.6324 90.7087 26.9165C92.4415 31.8512 94.0789 36.5055 94.7742 41.7935C95.8789 50.1769 93.591 59.4575 88.6563 66.6296C84.5404 72.613 78.5458 76.2355 72.2092 76.5663C71.8055 76.5888 71.4073 76.6 71.0204 76.6L71.0428 76.5832Z" fill="#515151"/>
<path d="M24.3382 34.4026C25.3168 34.3918 26.0956 33.0626 26.0777 31.4337C26.0598 29.8047 25.252 28.4929 24.2734 28.5037C23.2948 28.5145 22.516 29.8437 22.5339 31.4726C22.5518 33.1015 23.3596 34.4133 24.3382 34.4026Z" fill="#515151"/>
<path d="M39.23 30.7231C40.125 30.7132 40.8372 29.5002 40.8209 28.0138C40.8045 26.5273 40.0658 25.3302 39.1708 25.3401C38.2758 25.3499 37.5635 26.5629 37.5799 28.0494C37.5962 29.5359 38.335 30.7329 39.23 30.7231Z" fill="#515151"/>
<path d="M8.10881 35.3448C8.83219 38.2439 4.18348 37.986 2.90495 37.6215C1.50304 37.2233 0.504888 35.9055 0.190862 34.3747C-1.65965 25.3857 10.3855 19.6659 10.3855 19.6659C10.3855 19.6659 6.95364 30.7241 8.10881 35.3448Z" fill="#515151"/>
<path d="M43.3413 13.834C43.3413 13.834 50.7714 12.6732 53.2107 20.8547C53.5472 21.9875 53.2892 23.238 52.4705 24.0959C51.6518 24.9539 50.2779 25.4193 48.3826 23.2267" fill="#515151"/>
<path d="M74.1105 30.7353C74.9621 30.7353 75.6525 30.0449 75.6525 29.1932C75.6525 28.3415 74.9621 27.6511 74.1105 27.6511C73.2588 27.6511 72.5684 28.3415 72.5684 29.1932C72.5684 30.0449 73.2588 30.7353 74.1105 30.7353Z" fill="#515151"/>
<path d="M66.9381 30.7297C67.7836 30.7297 68.469 30.0443 68.469 29.1988C68.469 28.3534 67.7836 27.668 66.9381 27.668C66.0926 27.668 65.4072 28.3534 65.4072 29.1988C65.4072 30.0443 66.0926 30.7297 66.9381 30.7297Z" fill="#515151"/>
<path d="M72.9887 38.4178C72.2373 38.4178 71.5195 38.1318 71.0148 37.6103C70.9643 37.5542 70.7344 37.3187 70.4989 36.9878C70.0895 37.7392 69.4334 38.1542 68.4409 38.3336C67.8016 38.4514 66.8091 38.4065 66.1137 37.9019C65.7156 37.6159 65.4745 37.2121 65.4072 36.7411C65.267 35.7373 65.6427 34.9298 66.4614 34.47C66.7194 34.3242 67.0446 34.4139 67.1848 34.6719C67.3306 34.9298 67.2409 35.2551 66.9829 35.3953C66.8259 35.485 66.3436 35.7541 66.4614 36.5897C66.4838 36.7747 66.5736 36.9149 66.7362 37.0271C67.1175 37.3018 67.7848 37.3579 68.2446 37.2738C69.1699 37.1056 69.6521 36.7803 69.8933 35.4065C69.9437 35.1317 70.1793 34.941 70.4708 34.9691C70.7456 34.9971 70.9587 35.2326 70.9531 35.5074C70.9531 35.7654 71.3344 36.399 71.783 36.8588C72.2541 37.3467 72.9326 37.4028 73.4092 37.2962C73.8803 37.1897 74.2392 36.9149 74.3569 36.556C74.57 35.928 74.4915 35.7878 74.0597 35.1429C73.8971 34.9018 73.9588 34.5709 74.2055 34.4027C74.4466 34.2401 74.7775 34.3018 74.9457 34.5485C75.4616 35.3167 75.7364 35.799 75.3663 36.8925C75.1252 37.6047 74.4859 38.143 73.6448 38.328C73.4261 38.3785 73.2074 38.4009 72.9943 38.4009L72.9887 38.4178Z" fill="#515151"/>
<path d="M36.4215 46.1506C36.4607 45.9824 36.5336 45.8366 36.6682 45.7245C37.4925 45.0235 38.586 44.4627 39.5729 44.0254C40.6272 43.5599 41.7431 43.2403 42.8927 43.1281C42.9039 43.1281 42.9095 43.1281 42.9207 43.1281C43.4198 43.0833 45.0404 42.8982 45.4217 43.2851C45.7918 43.6609 45.5843 44.4684 45.5338 44.9226C45.3432 46.6441 44.9899 48.5339 43.5656 49.6834C42.887 50.233 42.0235 50.5021 41.1543 50.4797C40.2795 50.4573 39.3879 50.2722 38.6084 49.8573C37.8682 49.4591 37.285 48.8199 36.9093 48.0684C36.6794 47.6086 36.2869 46.745 36.4215 46.145V46.1506Z" fill="#515151"/>
<path d="M78.574 32.2213C78.4618 32.2213 78.4226 32.1989 78.3777 32.1765C78.1198 32.0419 78.0188 31.7166 78.1534 31.4587C78.2487 31.2792 78.4338 31.1727 78.6244 31.1727C79.202 31.0998 85.0059 29.8717 88.8191 29.053C89.1051 28.997 89.3911 29.1764 89.4528 29.4624C89.5144 29.7484 89.3294 30.0344 89.0434 30.096C80.6937 31.8905 79.0226 32.2213 78.5684 32.2213H78.574Z" fill="#515151"/>
<path d="M91.0675 37.672C91.0675 37.672 91.0282 37.672 91.0058 37.6663L78.7812 35.4738C78.4896 35.4233 78.2989 35.1429 78.3494 34.8569C78.3999 34.5653 78.6746 34.3747 78.9662 34.4251L91.1908 36.6177C91.4824 36.6682 91.6731 36.9486 91.6226 37.2346C91.5722 37.5037 91.331 37.6888 91.0619 37.672H91.0675Z" fill="#515151"/>
<path d="M62.0819 32.0195C62.0033 32.0363 61.9192 32.0307 61.8351 32.0026L54.377 29.496C54.1303 29.4119 54.0069 29.1484 54.0966 28.9016C54.1863 28.6549 54.4611 28.5203 54.7022 28.6044L62.1604 31.111C62.4071 31.1951 62.5305 31.4587 62.4407 31.7054C62.3791 31.8681 62.2389 31.9858 62.0762 32.0195H62.0819Z" fill="#515151"/>
<path d="M62.1378 34.9859C62.1378 34.9859 62.0985 34.9859 62.0817 34.9859L55.3301 34.7616C55.0666 34.7504 54.8647 34.5429 54.8759 34.2962C54.8871 34.0438 55.1058 33.8532 55.3694 33.8588L62.121 34.0831C62.3845 34.0943 62.5864 34.3018 62.5752 34.5485C62.564 34.7784 62.3733 34.9635 62.1378 34.9859Z" fill="#515151"/>
<path d="M61.3136 69.7531C61.3136 69.7531 61.2687 69.7531 61.2463 69.7531C60.9603 69.7195 60.7528 69.4615 60.7809 69.1755C60.7921 69.0634 61.1061 66.4783 65.3679 66.7867C65.6595 66.8091 65.8838 67.0615 65.8614 67.3531C65.8389 67.6447 65.5922 67.8802 65.295 67.8465C62.1267 67.6278 61.8519 69.226 61.8407 69.2933C61.8014 69.5569 61.5715 69.7587 61.3136 69.7587V69.7531Z" fill="#515151"/>
<path d="M63.7027 74.4747C63.4223 74.4747 63.1868 74.2672 63.1475 73.9869C63.1419 73.9252 62.9737 72.5065 64.0167 71.3233C64.9027 70.3139 66.3607 69.8036 68.3458 69.8036C68.6654 69.8092 68.9121 70.0503 68.9121 70.3644C68.9121 70.6728 68.6598 70.9251 68.3514 70.9251H68.3458C66.7083 70.9251 65.542 71.3064 64.869 72.0522C64.1569 72.8485 64.2578 73.8074 64.2634 73.8467C64.2971 74.1551 64.0784 74.4299 63.7756 74.4691C63.7531 74.4691 63.7307 74.4691 63.7083 74.4691L63.7027 74.4747Z" fill="#515151"/>
<path d="M129.054 6.44316C129.031 6.31979 128.925 6.1067 128.74 6.05623C128.549 6.00016 128.336 5.96651 128.14 5.97212C126.934 5.98894 125.734 6.00577 124.529 6.0282L119.594 6.1067C118.899 6.11792 118.198 6.12913 117.502 6.13474L119.056 3.29168C119.078 3.24682 119.156 3.10663 119.106 2.94962C119.056 2.787 118.91 2.7141 118.859 2.69167C118.427 2.47297 117.99 2.24306 117.57 2.00193C117.485 1.95146 117.356 1.89538 117.211 1.93464C117.07 1.97389 116.992 2.09165 116.947 2.17577C116.818 2.41128 116.689 2.6468 116.56 2.88232L112.405 10.4694C112.265 10.7218 112.13 10.9797 111.99 11.2321L111.743 11.6919C111.698 11.776 111.631 11.8994 111.682 12.0452C111.732 12.191 111.872 12.2526 111.917 12.2751C112.029 12.3255 112.136 12.3872 112.242 12.4489C112.338 12.505 112.433 12.5611 112.534 12.6115C112.809 12.7461 113.089 12.8639 113.369 12.9816C113.521 13.0433 113.689 12.948 113.756 12.8583L113.829 12.7573C113.941 12.6003 114.059 12.4433 114.149 12.2695C114.631 11.3891 115.108 10.5087 115.59 9.62828L116.095 8.69742C116.134 8.61891 116.168 8.6077 116.229 8.61331C116.353 8.61331 116.476 8.61331 116.605 8.6077C116.678 8.6077 116.751 8.60209 116.824 8.60209L126.407 8.4619C126.407 8.4619 126.458 8.4619 126.474 8.4619C126.474 8.47872 126.474 8.50115 126.474 8.52919C126.435 9.59464 126.39 10.6601 126.345 11.7255C126.267 13.6041 126.188 15.4826 126.104 17.3668L125.818 23.9894C125.818 24.0286 125.818 24.0567 125.813 24.0791C125.79 24.0791 125.762 24.0791 125.723 24.0791L125.342 24.0959C124.91 24.1128 124.473 24.1296 124.041 24.1464C123.957 24.1464 123.828 24.1632 123.738 24.2642C123.637 24.3763 123.643 24.5221 123.648 24.5726C123.659 24.7464 123.659 24.9259 123.659 25.0997C123.659 25.2455 123.659 25.3857 123.665 25.5315C123.671 25.7109 123.693 25.8848 123.721 26.0642C123.76 26.3109 123.917 26.4736 124.142 26.496H124.209C124.349 26.5184 124.489 26.5296 124.63 26.5296C124.658 26.5296 124.686 26.5296 124.708 26.5296C125.353 26.5016 126.003 26.4736 126.648 26.4455L127.831 26.3894C128.224 26.3726 128.331 26.2549 128.319 25.8567L128.308 25.6212C128.297 25.3969 128.291 25.167 128.297 24.9427C128.347 23.4567 128.409 21.9706 128.471 20.4846C128.493 19.907 128.527 19.3351 128.555 18.7575C128.583 18.2472 128.605 17.7313 128.628 17.221C128.645 16.806 128.661 16.3911 128.678 15.9761C128.695 15.4995 128.712 15.0228 128.734 14.5518C128.774 13.7275 128.813 12.9031 128.858 12.0788C128.891 11.3723 128.931 10.6601 128.964 9.95353C128.992 9.37594 129.009 8.79836 129.026 8.22077V8.0918C129.037 7.78338 129.043 7.48057 129.048 7.17215V6.80205C129.06 6.6955 129.065 6.57213 129.043 6.44877L129.054 6.44316Z" fill="#515151"/>
<path d="M108.53 9.55538C108.821 9.37593 109.107 9.2021 109.399 9.02265L110.694 8.21516C110.75 8.18151 110.891 8.0974 110.913 7.93477C110.941 7.77215 110.84 7.64879 110.807 7.60953C110.745 7.53103 110.689 7.4413 110.638 7.35158C110.593 7.27868 110.554 7.20579 110.504 7.13849C110.352 6.9198 110.195 6.7011 110.027 6.49362C109.825 6.24688 109.612 6.21324 109.337 6.37586C109.006 6.57773 108.681 6.77961 108.35 6.98148L107.734 7.3628C107.504 7.50299 107.268 7.64879 107.038 7.78898C107.038 7.78898 107.033 7.78898 107.027 7.79458L106.876 7.57589C106.674 7.27868 106.472 6.98148 106.253 6.69549C105.608 5.84874 104.907 5.19826 104.111 4.72161C103.825 4.54778 103.651 4.58703 103.472 4.87302L103.281 5.17583C103.102 5.46182 102.922 5.7422 102.737 6.02258C102.642 6.16838 102.558 6.29735 102.591 6.45437C102.625 6.61138 102.771 6.7011 102.889 6.774C103.741 7.30111 104.335 8.04693 104.969 9.01144C104.184 9.46005 103.393 9.90305 102.608 10.346L102.266 10.5367C101.728 10.8395 101.189 11.1479 100.646 11.4507C100.606 11.4732 100.477 11.5461 100.438 11.6919C100.399 11.8433 100.477 11.9723 100.505 12.0171C100.724 12.3872 100.937 12.7573 101.15 13.1274L101.223 13.2508C101.431 13.6097 101.565 13.6489 101.93 13.4527C102.502 13.1386 103.074 12.8246 103.646 12.505L104.857 11.8321C105.272 11.6022 105.687 11.3779 106.119 11.1311L106.236 11.3891C106.775 12.6171 107.223 13.9069 107.571 15.3761L107.234 15.5723C107.049 15.6789 106.859 15.7854 106.674 15.892L101.902 18.679C101.857 18.707 101.717 18.7855 101.677 18.9481C101.638 19.1107 101.728 19.2453 101.756 19.2902C102.019 19.7052 102.272 20.1313 102.518 20.5575C102.659 20.7986 102.872 20.8547 103.107 20.7201C103.348 20.5799 103.59 20.4454 103.831 20.3052L108.132 17.8154L108.188 18.2191C108.255 18.7238 108.328 19.2285 108.384 19.7332C108.513 20.8435 108.491 21.9482 108.457 22.8791C108.457 22.9408 108.457 22.9464 108.378 22.9576C108.087 23.008 107.801 23.0529 107.509 23.1034L105.434 23.4623C105.317 23.4847 105.193 23.5183 105.12 23.6305C105.031 23.7595 105.064 23.9109 105.081 24.0062C105.171 24.4492 105.255 24.8978 105.322 25.3464C105.367 25.6324 105.457 25.8062 105.754 25.8062C105.799 25.8062 105.844 25.8062 105.9 25.795C106.197 25.7502 106.494 25.6997 106.791 25.6492L109.506 25.1838C109.803 25.1333 110.1 25.0829 110.392 25.0268C110.683 24.9763 110.75 24.78 110.778 24.5726C110.79 24.4492 110.795 24.337 110.795 24.2249C110.795 24.152 110.795 24.0847 110.801 24.0118C110.823 23.6473 110.835 23.2828 110.846 22.9295C110.857 22.5706 110.868 22.2286 110.891 21.8977V21.8865L110.863 21.2809C110.846 20.8715 110.829 20.4902 110.801 20.1089C110.734 19.2734 110.666 18.6341 110.582 18.0341C110.504 17.4733 110.392 16.9126 110.274 16.3462C110.139 15.6901 110.027 15.191 109.904 14.7312C109.752 14.1592 109.601 13.6377 109.433 13.1386C109.225 12.5106 108.995 11.8994 108.726 11.1704C108.541 10.6769 108.345 10.1946 108.126 9.77407C108.126 9.77407 108.143 9.76286 108.177 9.74043L108.507 9.53855L108.53 9.55538Z" fill="#515151"/>
<path d="M122.672 13.7891C122.207 13.6153 121.73 13.6153 121.259 13.6209C120.793 13.6209 120.334 13.6321 119.868 13.6433C119.476 13.6545 119.083 13.6602 118.691 13.6658C118.051 13.6658 117.418 13.6658 116.778 13.6545H116.464C116.262 13.6489 116.066 13.6433 115.864 13.6377C115.606 13.6321 115.348 13.6209 115.091 13.6209C114.833 13.6153 114.58 13.6321 114.328 13.6433L114.025 13.6545C113.885 13.677 113.722 13.7611 113.733 14.0415C113.733 14.0863 113.739 14.1256 113.75 14.1929C113.767 14.3162 113.778 14.4452 113.79 14.5686C113.818 14.8153 113.84 15.0677 113.879 15.3144C113.963 15.8471 114.053 16.3742 114.143 16.907C114.249 17.535 114.356 18.1687 114.457 18.8023C114.524 19.2285 114.58 19.6547 114.642 20.0809C114.698 20.4846 114.754 20.8884 114.816 21.2921C114.838 21.4435 114.95 21.7015 115.152 21.7856C115.287 21.8417 115.449 21.8697 115.646 21.8697C115.691 21.8697 115.735 21.8697 115.786 21.8697C116.201 21.8473 116.61 21.808 117.025 21.7688L121.119 21.3874C121.573 21.3482 122.027 21.3033 122.481 21.2585C122.622 21.2416 122.801 21.1239 122.846 20.9669C122.885 20.8155 122.885 20.6641 122.885 20.5239C122.885 20.1369 122.885 19.75 122.885 19.3631V15.3649L122.924 14.1761C122.924 14.0415 122.829 13.862 122.678 13.806L122.672 13.7891ZM120.62 15.9649C120.62 16.9967 120.608 18.0285 120.603 19.0547C120.603 19.0827 120.603 19.0995 120.603 19.1164C120.592 19.1164 120.569 19.1164 120.547 19.122C119.969 19.178 119.392 19.2285 118.814 19.2846L117.849 19.3687C117.558 19.3967 117.266 19.4192 116.941 19.4528C116.868 18.9369 116.795 18.421 116.717 17.9051L116.543 16.6995C116.509 16.4527 116.476 16.2004 116.453 15.9481C116.453 15.9481 116.459 15.9425 116.464 15.9425L118.556 15.9144H120.575C120.575 15.9144 120.608 15.9144 120.625 15.9144C120.625 15.9256 120.625 15.9425 120.625 15.9649H120.62Z" fill="#515151"/>
<path d="M118.158 38.2327C118.158 38.8776 118.158 39.5225 118.158 40.1674C118.158 40.4085 118.231 40.487 118.455 40.4029C118.713 40.3019 118.955 40.1561 119.184 39.9991C119.319 39.9094 119.409 39.887 119.51 40.016C119.717 40.2683 119.919 40.5262 120.127 40.7786C120.183 40.8515 120.188 40.9132 120.115 40.9749C119.465 41.5468 118.719 41.8833 117.839 41.7936C117.614 41.7711 117.373 41.6926 117.177 41.5749C116.812 41.3562 116.756 40.9805 116.784 40.5879C116.801 40.3917 116.824 40.1898 116.829 39.9935C116.846 38.7542 116.857 37.5206 116.868 36.2813C116.868 35.9841 116.852 35.9616 116.554 35.9616C116.184 35.9616 115.814 35.9504 115.444 35.9504C115.27 35.9504 115.158 35.8831 115.164 35.6925C115.164 35.3785 115.164 35.0588 115.181 34.7448C115.181 34.6102 115.287 34.5934 115.394 34.5934C115.792 34.6046 116.19 34.6158 116.588 34.6214C116.874 34.627 116.902 34.6046 116.902 34.3186C116.908 33.399 116.913 32.4793 116.919 31.5597C116.919 31.5092 116.919 31.4531 116.919 31.4027C116.93 31.0606 116.986 31.0157 117.317 31.0269C117.575 31.0382 117.833 31.0382 118.091 31.0269C118.265 31.0269 118.287 31.2456 118.293 31.3746C118.298 31.5877 118.276 31.8064 118.276 32.0195C118.265 32.6588 118.254 33.298 118.242 33.9373C118.242 34.0831 118.242 34.2289 118.237 34.3803C118.237 34.6383 118.248 34.6607 118.512 34.6663C119.027 34.6775 119.543 34.6831 120.059 34.6887C120.407 34.6887 120.502 34.728 120.525 35.1654C120.536 35.3953 120.513 35.6196 120.513 35.8495C120.513 35.9841 120.452 36.0345 120.323 36.0345C119.717 36.0233 119.117 36.0177 118.512 36.0121C118.237 36.0121 118.214 36.0233 118.214 36.2925" fill="#515151"/>
<path d="M105.048 39.5954C105.238 39.3486 105.384 39.1636 105.524 38.9785C105.748 38.6757 105.962 38.3617 106.191 38.0645C106.264 37.9692 106.377 37.8851 106.489 37.8402C106.556 37.8122 106.679 37.8514 106.735 37.9019C107.061 38.2159 107.369 38.5411 107.689 38.8608C107.919 39.0963 108.149 39.3262 108.384 39.5561C108.496 39.6627 108.558 39.6515 108.608 39.5C108.782 38.9729 108.978 38.4458 109.107 37.9075C109.321 37.0047 109.489 36.085 109.438 35.1485C109.427 34.9747 109.438 34.7953 109.472 34.6214C109.483 34.5597 109.556 34.4644 109.607 34.4588C109.842 34.4364 110.083 34.4308 110.319 34.4476C110.515 34.4588 110.543 34.6382 110.554 34.7897C110.565 34.9859 110.565 35.1878 110.543 35.3841C110.464 36.214 110.414 37.0439 110.291 37.8682C110.145 38.872 109.971 39.8702 109.494 40.7842C109.371 41.0253 109.197 41.2104 108.922 41.3001C108.771 41.3506 108.653 41.3113 108.524 41.2384C107.952 40.9132 107.554 40.4029 107.094 39.9543C106.926 39.7916 106.758 39.629 106.59 39.4664C106.494 39.3767 106.41 39.3935 106.343 39.4944C106.203 39.7075 106.074 39.9374 105.922 40.1393C105.653 40.4982 105.378 40.8627 105.076 41.1879C104.885 41.3898 104.509 41.4795 104.268 41.1094C103.853 40.4589 103.528 39.7692 103.242 39.0514C102.866 38.1206 102.558 37.1673 102.356 36.1859C102.283 35.8327 102.272 35.4682 102.233 35.1037C102.216 34.9635 102.283 34.9018 102.429 34.9074C102.72 34.9186 103.018 34.9074 103.309 34.9242C103.36 34.9242 103.427 34.9859 103.444 35.0364C103.477 35.1149 103.472 35.2102 103.489 35.2943C103.562 35.642 103.623 35.9953 103.713 36.3374C103.859 36.8757 104.005 37.4196 104.184 37.9467C104.291 38.2608 104.453 38.5524 104.605 38.8496C104.7 39.0346 104.812 39.2141 104.919 39.3935C104.952 39.4496 104.991 39.5 105.042 39.5842L105.048 39.5954Z" fill="#515151"/>
<path d="M121.405 31.0101C121.405 30.9316 121.405 30.8587 121.405 30.7802C121.405 30.6512 121.455 30.5895 121.59 30.5895C121.898 30.5895 122.212 30.5895 122.521 30.5727C122.689 30.5671 122.751 30.6344 122.751 30.797C122.751 31.4251 122.751 32.0531 122.756 32.6812C122.756 33.9373 122.767 35.1934 122.779 36.4439C122.779 37.7112 122.79 38.9841 122.801 40.2515C122.801 40.4029 122.801 40.5599 122.801 40.7113C122.801 40.829 122.818 40.9468 122.824 41.0646C122.829 41.2608 122.756 41.3505 122.566 41.3562C122.268 41.3674 121.971 41.3674 121.668 41.373C121.534 41.373 121.483 41.3169 121.483 41.1823C121.483 40.3692 121.466 39.5505 121.461 38.7374C121.461 37.8121 121.461 36.8869 121.461 35.9616" fill="#515151"/>
<path d="M128.779 38.4065C128.779 39.3486 128.532 40.2346 128.151 41.087C128.033 41.3561 127.96 41.3898 127.685 41.2776C127.422 41.1711 127.158 41.0477 126.906 40.9131C126.867 40.8907 126.828 40.7842 126.844 40.7337C127.007 40.2514 127.22 39.786 127.332 39.2925C127.545 38.4009 127.534 37.5093 127.046 36.685C126.642 36.0065 125.919 35.7541 125.156 35.9897C124.764 36.113 124.416 36.3093 124.097 36.556C123.878 36.7243 123.861 36.7243 123.693 36.5112C123.513 36.2813 123.334 36.0513 123.149 35.8214C123.065 35.7149 123.076 35.6476 123.183 35.5579C123.777 35.0812 124.433 34.7111 125.19 34.599C126.334 34.4307 127.299 34.7672 128.011 35.7093C128.51 36.371 128.734 37.1336 128.768 37.9523C128.773 38.0981 128.768 38.2439 128.768 38.3897L128.779 38.4065Z" fill="#515151"/>
<path d="M131.151 57.9211L131.14 57.5846C131.129 57.3266 131.117 57.0631 131.117 56.7883C131.112 56.1995 131.011 56.0986 130.416 56.0986H130.411V56.3229H130.405V56.0986L125.201 56.1547C124.108 56.1659 123.014 56.1827 121.926 56.1995C121.921 56.1995 121.91 56.1995 121.904 56.1995C121.904 56.1995 121.904 56.1939 121.904 56.1883C121.882 55.7229 121.859 55.2518 121.831 54.7864C121.809 54.3883 121.786 53.9901 121.769 53.592C121.747 53.1321 121.73 52.6667 121.708 52.2069C121.691 51.7695 121.674 51.3265 121.652 50.8891C121.635 50.519 121.612 50.1489 121.596 49.7788C121.568 49.2405 121.54 48.7021 121.517 48.1694C121.506 47.8946 121.506 47.6255 121.506 47.3507C121.506 47.1713 121.506 46.9918 121.506 46.818C121.506 46.689 121.495 46.5656 121.489 46.4367C121.489 46.3357 121.478 46.2348 121.478 46.1282C121.478 46.0217 121.455 45.8703 121.343 45.7694C121.231 45.6684 121.085 45.6628 120.973 45.6684C120.525 45.7021 120.076 45.7301 119.627 45.7469C119.257 45.7637 119.145 45.8759 119.145 46.246C119.145 46.2909 119.145 46.3357 119.145 46.3806L119.599 56.1434C119.599 56.1434 119.599 56.1771 119.599 56.1995C119.582 56.1995 119.56 56.1995 119.549 56.1995L118.719 56.2107C117.996 56.2219 117.267 56.2276 116.543 56.2332C115.466 56.2332 114.042 56.2556 112.618 56.3565L112.506 56.3677C112.382 56.3677 112.281 56.4126 112.208 56.4855C112.136 56.564 112.102 56.6706 112.108 56.7995C112.119 57.0238 112.124 57.2425 112.13 57.4668L112.147 57.9883C112.164 58.5267 112.281 58.6332 112.808 58.622L119.611 58.5547C119.611 58.5547 119.683 58.5547 119.723 58.5547C119.723 58.5771 119.723 58.6052 119.728 58.65C119.751 59.0145 119.768 59.379 119.784 59.7435L120.121 66.9044C120.166 67.897 120.216 68.8952 120.261 69.8877C120.261 69.9382 120.272 70.0896 120.384 70.1961C120.474 70.2802 120.592 70.2914 120.659 70.2914C120.676 70.2914 120.687 70.2914 120.698 70.2914C121.186 70.269 121.68 70.2466 122.168 70.2298C122.291 70.2298 122.386 70.1849 122.454 70.112C122.555 69.9999 122.543 69.8597 122.543 69.8092C122.532 69.6634 122.526 69.5232 122.521 69.3774L122.487 68.5138C122.465 67.9755 122.448 67.4372 122.42 66.9044C122.392 66.2932 122.358 65.682 122.33 65.0708L122.095 60.1529C122.067 59.6258 122.039 59.0987 122.016 58.5659C122.016 58.5547 122.016 58.5435 122.016 58.5379C122.027 58.5379 122.039 58.5379 122.05 58.5379L127.59 58.4818C128.616 58.4706 129.643 58.4594 130.669 58.4426C130.803 58.4426 130.955 58.4313 131.061 58.3136C131.168 58.2014 131.173 58.05 131.168 57.9154L131.151 57.9211Z" fill="#515151"/>
<path d="M109.601 52.9247C109.36 52.8798 109.119 52.8518 108.883 52.8294C108.653 52.8125 108.423 52.8013 108.194 52.7845C108.008 52.7733 107.823 52.7621 107.638 52.7508C107.38 52.734 107.128 52.7116 106.876 52.6892C106.651 52.6723 106.427 52.6555 106.208 52.6387L105.771 52.6051C104.863 52.5378 103.96 52.4705 103.051 52.4144C102.749 52.3976 102.496 52.4144 102.278 52.4536C101.93 52.5265 101.778 52.7228 101.79 53.0817C101.801 53.3901 101.818 53.6985 101.835 54.007L101.874 54.8201C101.907 55.5771 101.941 56.3397 101.975 57.0968L101.992 57.5173C102.031 58.4314 102.07 59.3454 102.104 60.2594C102.115 60.5454 102.283 60.7305 102.563 60.7641L102.715 60.7866C102.861 60.809 103.012 60.8258 103.158 60.8314C104.38 60.8651 105.597 60.8875 106.82 60.9155L108.222 60.9604H109.035C109.366 60.9604 109.427 60.7417 109.438 60.6127C109.489 59.9342 109.534 59.2613 109.59 58.5828C109.657 57.7809 109.73 56.979 109.797 56.1771L109.921 54.8088C109.96 54.3658 109.999 53.9284 110.038 53.4854C110.066 53.1378 109.943 52.9695 109.595 52.9079L109.601 52.9247ZM104.408 57.8145H104.375L104.364 57.4444C104.347 56.8893 104.324 56.3341 104.307 55.7846C104.296 55.4818 104.279 55.1846 104.257 54.8817C104.257 54.8705 104.257 54.8593 104.257 54.8481C104.257 54.8481 104.263 54.8481 104.268 54.8481C105.345 54.921 106.416 54.9939 107.493 55.0724C107.504 55.0724 107.515 55.0724 107.526 55.0724C107.431 56.2051 107.33 57.3379 107.229 58.465C107.229 58.493 107.229 58.5155 107.223 58.5323C107.19 58.5323 107.145 58.5323 107.122 58.5323C106.758 58.5211 106.393 58.5211 106.029 58.5155C105.732 58.5155 105.435 58.5099 105.137 58.5043C104.986 58.5043 104.835 58.4874 104.683 58.4762L104.425 58.465C104.425 58.3585 104.425 58.2575 104.425 58.1566V57.8033L104.408 57.8145Z" fill="#515151"/>
<path d="M129.738 65.9455C129.452 65.6091 129.161 65.2782 128.875 64.9474C128.376 64.3754 127.876 63.8034 127.394 63.2202C127.237 63.0352 127.075 62.8557 126.912 62.6707C126.547 62.2669 126.2 61.88 125.931 61.4314C125.824 61.2519 125.684 61.1061 125.549 60.9604L125.42 60.8202C125.37 60.7641 125.308 60.7304 125.258 60.7024L125.117 60.6183L124.955 60.6856C124.899 60.708 124.832 60.7304 124.77 60.7865C124.523 60.9996 124.276 61.2183 124.03 61.437L123.654 61.7735C123.48 61.9249 123.469 62.138 123.615 62.3118L123.716 62.4352C123.766 62.5024 123.822 62.5641 123.873 62.6258L128.476 67.9643C128.527 68.0259 128.611 68.1213 128.757 68.1269C128.757 68.1269 128.762 68.1269 128.768 68.1269C128.858 68.1269 128.947 68.0876 129.032 68.0035C129.149 67.8801 129.284 67.7736 129.419 67.6615C129.665 67.4596 129.923 67.2465 130.114 66.9549C130.17 66.8652 130.293 66.6801 130.136 66.4558C130.013 66.282 129.89 66.1025 129.749 65.9399L129.738 65.9455Z" fill="#515151"/>
<path d="M117.945 62.0371C117.648 61.7455 117.351 61.4595 117.054 61.1735C116.672 60.809 116.527 60.809 116.151 61.1791C115.063 62.2614 113.975 63.3436 112.887 64.4259C112.584 64.7287 112.282 65.0315 111.984 65.3343L111.614 65.7101C111.558 65.7661 111.463 65.8615 111.468 66.0073C111.468 66.0689 111.491 66.1643 111.592 66.2484C111.721 66.3605 111.839 66.4895 111.962 66.6129C112.175 66.8372 112.399 67.0727 112.685 67.2521C112.792 67.3194 112.893 67.3475 112.977 67.3475C113.112 67.3475 113.218 67.2858 113.302 67.2241C113.358 67.1849 113.409 67.1344 113.47 67.0727L113.773 66.7755C114.429 66.125 115.085 65.4745 115.741 64.824C116.465 64.1063 117.188 63.3829 117.906 62.6651C117.951 62.6259 117.985 62.5754 118.024 62.5249L118.153 62.2894L118.046 62.1492C118.018 62.11 117.99 62.0707 117.962 62.0427L117.945 62.0371Z" fill="#515151"/>
<path d="M123.844 52.3751C123.957 52.42 124.063 52.4817 124.17 52.5377C124.259 52.5882 124.349 52.6331 124.439 52.6779L124.506 52.7116C124.686 52.7957 124.871 52.8854 125.067 52.9415C125.162 52.9695 125.241 52.9808 125.314 52.9808C125.544 52.9808 125.667 52.8462 125.79 52.6163C125.874 52.4536 125.959 52.2966 126.043 52.134L128.241 47.9395C128.269 47.8834 128.291 47.8274 128.319 47.7545L128.381 47.4853L128.269 47.3787C128.23 47.3395 128.179 47.2834 128.106 47.2442C127.972 47.1769 127.831 47.104 127.691 47.0367C127.461 46.9245 127.231 46.8124 127.007 46.689L126.934 46.6498C126.57 46.4367 126.418 46.5544 126.2 46.9189L123.643 51.7807C123.598 51.8648 123.547 51.9882 123.598 52.1284C123.654 52.2798 123.8 52.3415 123.844 52.3639V52.3751Z" fill="#515151"/>
<path d="M112.461 50.9788C113.308 51.6181 114.155 52.2518 115.001 52.891L116.314 53.8668C116.364 53.906 116.459 53.9733 116.583 53.9733C116.599 53.9733 116.622 53.9733 116.639 53.9733C116.706 53.9621 116.796 53.9228 116.874 53.8051C116.964 53.6649 117.071 53.5303 117.177 53.4013C117.39 53.1378 117.609 52.8686 117.727 52.5097C117.738 52.4817 117.811 52.2406 117.665 52.1004C117.508 51.9434 117.351 51.8032 117.2 51.6854C116.734 51.3321 116.263 50.9844 115.792 50.6312L113.684 49.0554C113.644 49.0218 113.51 48.9265 113.353 48.9545C113.19 48.9825 113.095 49.1171 113.067 49.162C112.882 49.4255 112.691 49.6835 112.5 49.9414L112.029 50.5863L112.254 50.7994C112.321 50.8667 112.388 50.9284 112.455 50.9844L112.461 50.9788Z" fill="#515151"/>
<path d="M112.786 34.6494C112.932 34.6382 113.077 34.6382 113.223 34.6158C113.375 34.5934 113.442 34.6607 113.448 34.8065C113.464 35.199 113.487 35.5915 113.509 35.9841C113.582 37.3972 113.661 38.8159 113.739 40.229C113.75 40.4814 113.778 40.7337 113.79 40.9804C113.801 41.1487 113.745 41.2608 113.548 41.272C113.251 41.2945 112.954 41.3225 112.657 41.3505C112.522 41.3618 112.466 41.3113 112.461 41.1767C112.427 40.5374 112.393 39.9038 112.354 39.2645C112.281 37.9523 112.203 36.6458 112.13 35.3336C112.119 35.171 112.119 35.0083 112.107 34.8401C112.102 34.7223 112.158 34.6719 112.276 34.6663C112.444 34.6663 112.612 34.6494 112.786 34.6382V34.6494Z" fill="#515151"/>
<path d="M111.855 31.9073C111.816 31.5765 112.209 31.1784 112.539 31.0886C112.876 30.9933 113.19 31.0326 113.459 31.2288C113.868 31.526 113.947 32.0531 113.543 32.4737C113.218 32.8158 112.5 32.827 112.197 32.5746C111.99 32.4008 111.844 32.2045 111.855 31.9073Z" fill="#515151"/>
</g>
<defs>
<clipPath id="clip0_655_8723">
<rect width="131.151" height="76.5832" fill="white"/>
</clipPath>
</defs>
</svg>
