<svg width="35" height="44" viewBox="0 0 35 44" fill="none" xmlns="http://www.w3.org/2000/svg">
<path d="M1.10932 28.719C4.09479 28.659 7.84093 30.3817 10.6483 33.3515C13.495 36.3661 13.0192 39.4878 11.3296 41.6588C8.94073 41.0065 0.842916 38.0981 1.10932 28.719Z" fill="#A28977"/>
<path d="M4.3544 13.6234L10.3418 0.705078L10.7712 3.09396C11.7718 6.76453 15.0247 8.53795 16.71 9.22638C16.1995 9.91163 15.5595 10.5683 14.7979 11.1711C11.7434 13.5949 7.59115 14.4705 4.3544 13.6234Z" fill="#A28977"/>
<path d="M17.3417 43.3245C19.6914 43.3245 21.5549 42.8963 22.8877 42.0492C23.9491 41.3734 24.6296 40.3519 24.7512 39.2478C24.8606 38.2421 24.4919 37.2998 23.706 36.5924C23.0497 36.0023 22.2517 35.5327 21.4576 35.2726C20.692 35.0219 19.8858 34.9648 19.108 34.9109C18.8406 34.8919 18.5692 34.8728 18.3018 34.8475C18.0912 34.8252 17.8967 34.9426 17.8724 35.1076C17.8481 35.2726 17.9939 35.4249 18.2046 35.4439C18.4801 35.4725 18.7596 35.4915 19.0391 35.5105C19.7926 35.5613 20.5016 35.612 21.1579 35.8278C21.8425 36.053 22.5393 36.4623 23.1226 36.9858C23.7708 37.5695 24.0746 38.3531 23.9815 39.1939C23.8802 40.1234 23.2847 41.0149 22.3975 41.5796C21.0606 42.4299 19.0918 42.8074 16.5234 42.7027C12.1239 42.5219 8.11331 40.6183 5.23702 37.3411C1.77738 33.4039 0.173139 28.3088 0.9469 23.7118C1.43708 20.7835 2.60785 18.1756 3.84749 15.4155C4.17158 14.689 4.47947 13.9878 4.78735 13.2899C5.54086 11.564 6.2579 9.93331 7.21801 7.9917C7.64338 7.13194 8.03633 6.25948 8.42929 5.38703C9.01264 4.09579 9.60816 2.77284 10.3171 1.49429C10.4791 2.83946 10.8194 4.24808 11.6459 5.66304C12.5979 7.30326 14.3966 8.69284 16.4505 9.38129C17.4592 9.72075 18.5084 9.79689 19.4807 9.60019C20.6231 9.37177 21.806 8.74677 23.0011 7.7379C23.5602 7.26519 24.0341 6.76075 24.4271 6.32928C25.3183 5.33944 25.9665 4.3496 26.643 3.24872C26.3757 4.94921 26.3028 5.94223 26.2866 7.46506C26.2622 9.73344 26.4364 11.9891 26.5944 13.6991C26.7038 14.892 26.8172 16.0881 26.9347 17.281C27.0927 18.9085 27.2467 20.5328 27.3884 22.1604C27.4533 22.9059 27.4857 23.6546 27.5221 24.4034L27.0603 28.6743C26.2866 32.2077 23.1226 36.4884 24.081 36.9858C23.5466 41.1089 24.2406 37.7115 24.4604 37.5756C24.081 36.9858 26.9347 32.7512 28.2959 28.1307V24.3843C28.2635 23.6293 28.227 22.8742 28.1622 22.1223C28.0204 20.4948 27.8624 18.8673 27.7085 17.2397C27.5951 16.0468 27.4776 14.854 27.3682 13.6611C27.2143 11.9606 27.036 9.72075 27.0603 7.47457C27.0806 5.4949 27.2021 4.42574 27.7247 1.4467C27.749 1.30077 27.6356 1.16117 27.4573 1.11676C27.275 1.07234 27.0846 1.13897 26.9995 1.27221C26.7686 1.64658 26.5539 2.0019 26.3433 2.34454C25.529 3.68653 24.8282 4.84452 23.8032 5.98347C23.4265 6.39908 22.9727 6.88448 22.4421 7.33181C21.3483 8.25185 20.2909 8.81974 19.2943 9.01961C18.4882 9.18141 17.6091 9.11479 16.7584 8.82926C14.8746 8.19792 13.2258 6.92255 12.3508 5.41558C11.5324 4.00696 11.1354 2.51903 10.9855 0.285546C10.9774 0.149126 10.8518 0.0317407 10.6777 0.00636022C10.5075 -0.0221929 10.3333 0.0476036 10.2563 0.171334C9.24761 1.79886 8.46575 3.52473 7.71224 5.1935C7.32334 6.05961 6.93038 6.92572 6.50907 7.77914C5.54086 9.73344 4.82786 11.3705 4.0703 13.1027C3.76647 13.7975 3.45859 14.4986 3.1345 15.2251C1.88271 18.017 0.699788 20.6502 0.197451 23.642C-0.600616 28.3849 1.05223 33.6355 4.6172 37.6932C7.59071 41.0784 11.9213 43.1278 16.4991 43.315C16.7908 43.3277 17.0784 43.3341 17.3579 43.3341L17.3417 43.3245Z" fill="#515151"/>
<path d="M31.6264 35.3042C31.0055 36.5958 30.0012 37.4692 28.6368 37.9034C27.5488 38.2488 25.753 38.3287 24.4414 37.7786C21.8725 35.6014 21.9644 35.7959 25.0043 37.509C26.1676 37.852 27.2959 37.7572 28.2052 37.4685C29.5745 37.0333 30.546 36.084 31.0996 34.6353C32.0461 32.1533 30.8312 29.278 27.6749 26.5423C27.6083 26.2999 28.0031 26.2501 28.2595 26.3257C31.519 29.1529 32.8237 32.2554 31.8377 34.8377C31.7758 35.0025 31.7074 35.1629 31.6335 35.3165L31.6264 35.3042Z" fill="#515151"/>
<path d="M15.1252 17.3857C14.51 17.3857 14.0112 16.9951 14.0112 16.5133C14.0112 16.0315 14.51 15.6409 15.1252 15.6409C15.7405 15.6409 16.2393 16.0315 16.2393 16.5133C16.2393 16.9951 15.7405 17.3857 15.1252 17.3857Z" fill="#515151"/>
<path d="M20.3081 17.3821C19.6974 17.3821 19.2022 16.9943 19.2022 16.516C19.2022 16.0377 19.6974 15.6499 20.3081 15.6499C20.9189 15.6499 21.4141 16.0377 21.4141 16.516C21.4141 16.9943 20.9189 17.3821 20.3081 17.3821Z" fill="#515151"/>
<path d="M15.9349 21.7318C16.4777 21.7318 16.9962 21.57 17.3608 21.275C17.3973 21.2433 17.5634 21.11 17.7335 20.9228C18.0293 21.3479 18.5032 21.5827 19.2202 21.6842C19.6821 21.7509 20.3991 21.7255 20.9014 21.4399C21.189 21.2782 21.3632 21.0497 21.4118 20.7832C21.5131 20.2154 21.2417 19.7585 20.6503 19.4984C20.4639 19.4159 20.229 19.4667 20.1277 19.6126C20.0223 19.7585 20.0872 19.9425 20.2735 20.0218C20.3869 20.0726 20.7353 20.2249 20.6503 20.6976C20.6341 20.8023 20.5692 20.8816 20.4518 20.945C20.1763 21.1005 19.6942 21.1322 19.362 21.0846C18.6936 20.9895 18.3452 20.8055 18.171 20.0282C18.1346 19.8727 17.9644 19.7649 17.7538 19.7807C17.5553 19.7966 17.4013 19.9298 17.4054 20.0853C17.4054 20.2312 17.1299 20.5897 16.8059 20.8499C16.4656 21.1259 15.9754 21.1576 15.6311 21.0973C15.2908 21.037 15.0315 20.8816 14.9464 20.6786C14.7925 20.3232 14.8492 20.2439 15.1611 19.8791C15.2786 19.7427 15.2341 19.5555 15.0558 19.4603C14.8816 19.3683 14.6426 19.4032 14.5211 19.5428C14.1484 19.9774 13.9499 20.2503 14.2173 20.8689C14.3915 21.2718 14.8533 21.5764 15.4609 21.6811C15.6189 21.7096 15.7769 21.7223 15.9308 21.7223L15.9349 21.7318Z" fill="#515151"/>
<path d="M11.9002 18.2265C11.9812 18.2265 12.0095 18.2138 12.0419 18.2011C12.2283 18.125 12.3012 17.9409 12.204 17.795C12.1351 17.6935 12.0014 17.6332 11.8637 17.6332C11.4464 17.592 7.25365 16.8972 4.49896 16.434C4.29236 16.4023 4.08576 16.5038 4.0412 16.6656C3.99664 16.8274 4.13032 16.9892 4.33693 17.0241C10.3689 18.0393 11.5761 18.2265 11.9042 18.2265H11.9002Z" fill="#515151"/>
<path d="M2.87582 21.3097C2.87582 21.3097 2.90417 21.3097 2.92038 21.3065L11.7516 20.0661C11.9622 20.0375 12.1 19.8789 12.0635 19.7171C12.027 19.5522 11.8285 19.4443 11.6179 19.4728L2.78669 20.7133C2.57604 20.7418 2.43831 20.9005 2.47476 21.0623C2.51122 21.2145 2.68542 21.3192 2.87986 21.3097H2.87582Z" fill="#515151"/>
<path d="M23.8147 18.112C23.8715 18.1215 23.9322 18.1183 23.993 18.1025L29.3808 16.6844C29.5591 16.6368 29.6482 16.4877 29.5834 16.3481C29.5186 16.2085 29.3201 16.1324 29.1459 16.18L23.758 17.5981C23.5798 17.6456 23.4907 17.7948 23.5555 17.9343C23.6 18.0263 23.7013 18.093 23.8188 18.112H23.8147Z" fill="#515151"/>
<path d="M23.7741 19.7901C23.7741 19.7901 23.8025 19.7901 23.8146 19.7901L28.6921 19.6632C28.8825 19.6568 29.0283 19.5395 29.0202 19.3999C29.0121 19.2571 28.8541 19.1492 28.6637 19.1524L23.7863 19.2793C23.5959 19.2857 23.4501 19.403 23.4582 19.5426C23.4663 19.6727 23.604 19.7774 23.7741 19.7901Z" fill="#515151"/>
<path d="M24.3711 39.46C24.3711 39.46 24.4035 39.46 24.4197 39.46C24.6263 39.441 24.7762 39.2951 24.756 39.1333C24.7479 39.0698 24.521 37.6073 21.4423 37.7818C21.2316 37.7945 21.0696 37.9372 21.0858 38.1022C21.102 38.2672 21.2802 38.4004 21.4949 38.3814C23.7837 38.2577 23.9822 39.1618 23.9903 39.1999C24.0187 39.349 24.1848 39.4632 24.3711 39.4632V39.46Z" fill="#515151"/>
<path d="M26.4322 37.8715C26.4322 37.8715 26.4174 37.8899 26.41 37.899C26.2982 38.0071 26.0954 38.0252 25.9556 37.9399C25.9008 37.9064 24.6569 37.1108 26.2225 35.4508C26.3304 35.3376 26.5358 35.3112 26.6804 35.3956C26.825 35.48 26.8664 35.6415 26.7509 35.7542C25.5925 36.991 26.3349 37.5157 26.3663 37.5377C26.4907 37.6217 26.5202 37.7677 26.4351 37.873L26.4322 37.8715Z" fill="#515151"/>
<path d="M28.1249 37.8363C28.1249 37.8363 28.1033 37.8552 28.0926 37.8647C27.937 37.9728 27.6981 37.9634 27.5573 37.8439C27.5022 37.797 26.2589 36.6914 28.4734 35.0073C28.6256 34.8926 28.8695 34.8928 29.016 35.012C29.1625 35.1312 29.171 35.3241 29.01 35.437C27.3694 36.6929 28.0993 37.4105 28.1302 37.4406C28.2535 37.5563 28.2519 37.7294 28.1279 37.8384L28.1249 37.8363Z" fill="#515151"/>
<path d="M22.6451 42.1317C22.8476 42.1317 23.0177 42.0143 23.0461 41.8557C23.0502 41.8208 23.1717 41.0182 22.4182 40.3488C21.7781 39.7777 20.7249 39.489 19.2908 39.489C19.0599 39.4922 18.8817 39.6286 18.8817 39.8063C18.8817 39.9807 19.064 40.1235 19.2868 40.1235H19.2908C20.4737 40.1235 21.3163 40.3392 21.8024 40.7612C22.3169 41.2117 22.244 41.7542 22.24 41.7764C22.2156 41.9509 22.3736 42.1063 22.5924 42.1285C22.6086 42.1285 22.6248 42.1285 22.641 42.1285L22.6451 42.1317Z" fill="#515151"/>
</svg>
