<svg width="142" height="57" viewBox="0 0 142 57" fill="none" xmlns="http://www.w3.org/2000/svg">
<rect width="4.90061" height="13.5437" rx="2.4503" transform="matrix(-1 0 0 1 106.173 40.4175)" fill="#A28977"/>
<path d="M105.995 17.7913C105.253 16.336 103.173 16.336 102.431 17.7913L91.2664 39.6854C90.5878 41.016 91.5544 42.5939 93.0481 42.5939H115.378C116.871 42.5939 117.838 41.016 117.159 39.6854L105.995 17.7913Z" fill="#317F46"/>
<path d="M127.187 45.3483C127.187 43.995 126.089 42.8979 124.736 42.8979V42.8979C123.383 42.8979 122.286 43.995 122.286 45.3483V52.0565C122.286 53.4098 123.383 54.5068 124.736 54.5068V54.5068C126.089 54.5068 127.187 53.4098 127.187 52.0565V45.3483Z" fill="#A28977"/>
<path fill-rule="evenodd" clip-rule="evenodd" d="M122.956 4.77823C123.699 3.32653 125.773 3.32653 126.516 4.77823L138.1 27.4107C138.781 28.7415 137.815 30.3219 136.32 30.3219H135.129L141.561 42.8891C142.242 44.22 141.276 45.8004 139.781 45.8004H110.671C109.176 45.8004 108.21 44.22 108.891 42.8891L115.323 30.3219H113.152C111.657 30.3219 110.691 28.7415 111.372 27.4107L122.956 4.77823Z" fill="#79AB03"/>
<rect x="79.5225" y="36.0913" width="4.90061" height="13.5437" rx="2.4503" fill="#A28977"/>
<path d="M79.7007 13.4651C80.4428 12.0099 82.522 12.0099 83.2641 13.4651L94.4289 35.3592C95.1075 36.6899 94.1409 38.2678 92.6472 38.2678H70.3175C68.8238 38.2678 67.8573 36.6899 68.5358 35.3592L79.7007 13.4651Z" fill="#79AB03"/>
<path d="M57.7461 42.025C57.7461 40.6717 58.8431 39.5747 60.1964 39.5747V39.5747C61.5497 39.5747 62.6467 40.6717 62.6467 42.025V48.7333C62.6467 50.0865 61.5497 51.1836 60.1964 51.1836V51.1836C58.8431 51.1836 57.7461 50.0865 57.7461 48.7333V42.025Z" fill="#A28977"/>
<path fill-rule="evenodd" clip-rule="evenodd" d="M61.9771 1.45498C61.2341 0.00328522 59.1594 0.00328713 58.4164 1.45499L46.8326 24.0874C46.1515 25.4182 47.118 26.9987 48.613 26.9987H49.8039L43.3717 39.5659C42.6906 40.8967 43.6571 42.4771 45.1521 42.4771H74.2613C75.7563 42.4771 76.7228 40.8967 76.0417 39.5659L69.6095 26.9987H71.7805C73.2755 26.9987 74.242 25.4182 73.5609 24.0874L61.9771 1.45498Z" fill="#317F46"/>
<rect width="4.90061" height="13.5437" rx="2.4503" transform="matrix(-1 0 0 1 18.6221 42.9106)" fill="#A28977"/>
<path d="M18.4439 20.2844C17.7018 18.8292 15.6225 18.8292 14.8805 20.2844L3.71562 42.1785C3.03705 43.5092 4.00363 45.0871 5.49733 45.0871H27.827C29.3207 45.0871 30.2873 43.5092 29.6087 42.1785L18.4439 20.2844Z" fill="#317F46"/>
<path d="M39.6357 47.8414C39.6357 46.4882 38.5387 45.3911 37.1854 45.3911V45.3911C35.8322 45.3911 34.7351 46.4882 34.7351 47.8414V54.5497C34.7351 55.9029 35.8322 57 37.1854 57V57C38.5387 57 39.6357 55.9029 39.6357 54.5497V47.8414Z" fill="#A28977"/>
<path fill-rule="evenodd" clip-rule="evenodd" d="M35.4047 7.27139C36.1477 5.81969 38.2224 5.81969 38.9654 7.27139L50.5492 29.9038C51.2304 31.2346 50.2639 32.8151 48.7689 32.8151H47.5779L54.0101 45.3823C54.6913 46.7131 53.7248 48.2935 52.2298 48.2935H23.1205C21.6255 48.2935 20.659 46.7131 21.3402 45.3823L27.7724 32.8151H25.6013C24.1063 32.8151 23.1398 31.2346 23.8209 29.9038L35.4047 7.27139Z" fill="#79AB03"/>
</svg>
