<svg width="369" height="152" viewBox="0 0 369 152" fill="none" xmlns="http://www.w3.org/2000/svg">
<g clip-path="url(#clip0_4364_40841)">
<path d="M308.846 25.7285C308.846 25.7285 378.643 29.2771 366.889 63.5543C355.135 97.8379 323.916 55.4789 323.916 55.4789C323.916 55.4789 313.992 28.4331 308.846 25.7285Z" fill="#515151"/>
<path d="M24.9171 53.6501C24.9043 54.411 17.2511 60.1526 13.3926 66.8853C2.51866 85.8621 6.72156 109.021 17.7677 124.66C30.4657 142.626 50.6574 148.183 69.1208 150.325C69.1272 150.325 159.824 164.947 172.758 98.9567C172.758 98.9567 176.808 70.3699 156.214 53.8036C156.214 53.8036 155.653 15.4088 139.786 8.22852C139.786 8.22852 119.422 9.4817 109.294 38.062C109.294 38.062 88.3623 32.6784 73.8467 38.4776C73.8467 38.4776 56.5376 12.9791 39.6942 9.01495C37.8383 8.58018 35.9824 9.81418 35.1852 11.9113C32.0601 20.089 25.3253 24.878 24.9171 53.6565V53.6501Z" fill="#FFF8E9"/>
<path d="M95.3711 35.9656C95.3711 35.9656 107.004 92.6084 166.661 67.826C166.661 67.826 164.218 61.202 156.221 53.8044C156.221 53.8044 156.699 17.1487 140.417 8.93902C138.216 7.53877 119.313 12.2894 109.663 36.6434L109.3 38.0628L95.3775 35.9656H95.3711Z" fill="#A28977"/>
<path d="M87.9234 152C80.5253 152 73.1145 151.469 65.7291 150.408C51.1688 148.317 30.3011 143.4 17.2842 124.986C1.69716 102.921 4.26099 72.4287 23.1262 55.5554C23.8596 54.8968 24.3379 54.2575 24.6249 53.535C25.0586 52.448 25.0267 51.2524 24.9885 49.737C24.9693 49.0018 24.9502 48.1706 24.9757 47.2498C25.1607 41.4123 25.7665 32.7679 28.8597 25.1209C30.5052 21.0033 32.2909 16.6363 34.4338 12.5443C35.2374 11.0161 36.7234 8.17729 39.6444 8.88061C55.5758 12.7425 72.0366 35.7985 73.7331 38.241C87.3494 32.9341 106.189 37.186 108.849 37.8318C109.525 35.741 113.562 28.0237 113.613 27.9405C119.378 18.6376 129.219 8.65043 139.538 8.50977H139.583C140.629 8.50977 141.706 9.01488 142.784 10.0123C154.239 20.626 156.05 38.0811 156.292 53.7907C169.807 64.7561 176.127 85.8621 171.669 105.178C169.067 116.45 162.982 126.054 153.601 133.713C143.856 141.667 133.014 145.523 125.641 147.351C113.185 150.44 100.564 151.993 87.9234 151.993V152ZM38.7643 9.3985C36.9594 9.3985 35.8752 11.1504 34.9887 12.832C32.8521 16.8984 31.0791 21.2462 29.4401 25.3511C26.3852 32.9085 25.792 41.4762 25.6071 47.269C25.5752 48.177 25.6007 48.9954 25.6198 49.7243C25.6645 51.3099 25.6964 52.5695 25.2117 53.7715C24.8864 54.5899 24.3571 55.306 23.5471 56.0285C4.91151 72.6844 2.39233 102.818 17.8008 124.621C30.6774 142.837 51.3729 147.709 65.8248 149.787C85.7614 152.652 105.838 151.635 125.501 146.75C134.442 144.532 164.156 134.96 171.069 105.037C175.495 85.894 169.213 64.9799 155.801 54.1871L155.686 54.0976V53.9506C155.45 38.3369 153.69 20.9585 142.37 10.4727C141.4 9.57114 140.444 9.14275 139.557 9.13636C129.493 9.27063 119.831 19.1107 114.155 28.2666C113.574 29.2001 109.467 37.5185 109.372 38.1898L109.091 38.1515L109.002 38.5095C109.002 38.5095 108.995 38.5095 108.989 38.5095H108.957C107.611 38.1642 87.7449 33.3113 73.7395 38.9123L73.5035 39.0082L73.3632 38.7972C73.191 38.5479 56.0031 13.4905 39.4977 9.48802C39.2362 9.42408 38.9938 9.3985 38.7579 9.3985H38.7643Z" fill="#515151"/>
<path d="M149.296 106.259C149.162 106.259 149.034 106.17 148.996 106.036C148.945 105.869 149.041 105.697 149.207 105.646L170.266 99.4181C170.432 99.3669 170.604 99.4628 170.655 99.6291C170.706 99.7953 170.61 99.9679 170.444 100.019L149.385 106.247C149.385 106.247 149.328 106.259 149.296 106.259Z" fill="#6D5B50"/>
<path d="M170.64 116.279C170.64 116.279 170.602 116.279 170.583 116.279L148.95 112.506C148.778 112.474 148.663 112.314 148.695 112.142C148.727 111.969 148.886 111.848 149.058 111.886L170.691 115.658C170.864 115.69 170.978 115.85 170.947 116.023C170.921 116.176 170.787 116.285 170.64 116.285V116.279Z" fill="#6D5B50"/>
<path d="M71.6787 106.061C71.6787 106.061 71.6213 106.061 71.5894 106.048L48.3746 99.1812C48.2088 99.1301 48.1131 98.9574 48.1641 98.7912C48.2152 98.6249 48.3874 98.529 48.5532 98.5802L71.7679 105.447C71.9338 105.498 72.0294 105.671 71.9784 105.837C71.9401 105.971 71.8126 106.061 71.6787 106.061Z" fill="#6D5B50"/>
<path d="M48.1513 117.108C48.0046 117.108 47.8707 117 47.8452 116.846C47.8133 116.673 47.9281 116.514 48.1003 116.482L71.9464 112.326C72.1122 112.294 72.2781 112.409 72.31 112.581C72.3418 112.754 72.2271 112.914 72.0549 112.946L48.2087 117.102C48.2087 117.102 48.1704 117.102 48.1513 117.102V117.108Z" fill="#6D5B50"/>
<path d="M343.993 79.4368C343.942 76.2015 343.719 74.2322 343.719 74.2322C340.428 4.88496 251.887 17.6534 251.88 17.6534C235.521 20.0127 217.626 26.1316 206.375 45.9204C202.523 52.6979 199.628 60.7668 198.097 69.3282C197.275 73.6695 196.892 78.0685 196.905 82.4546C196.892 86.8408 197.268 91.2397 198.097 95.5811C199.628 104.142 202.517 112.211 206.375 118.989C217.626 138.778 235.521 144.89 251.88 147.256C251.88 147.256 340.428 160.031 343.719 90.6771C343.719 90.6771 343.942 88.7078 343.993 85.4725C344.012 84.4623 343.98 83.4585 343.955 82.4546C343.98 81.4508 344.006 80.4534 343.993 79.4368Z" fill="#FFF8E9"/>
<path d="M235.388 28.9199C235.388 28.9199 161.585 35.8764 175.616 69.5462C189.647 103.216 223.64 60.3711 223.64 60.3711C223.64 60.3711 230.056 31.8739 235.388 28.9199Z" fill="#515151"/>
<path d="M199.15 99.712C199.15 99.712 282.27 119.654 273.246 16.957C273.246 16.957 228.296 10.2115 207.983 44.5335C207.983 44.5335 193.551 66.8095 199.15 99.712Z" fill="#F0C376"/>
<path d="M268.398 148.458C259.355 148.458 253.034 147.601 252.352 147.505C238.519 145.51 218.729 140.389 206.611 119.084C202.689 112.185 199.813 104.059 198.301 95.5807C197.491 91.3224 197.089 86.8851 197.102 82.3967C197.083 77.9082 197.491 73.4709 198.301 69.2126C199.813 60.7345 202.689 52.6079 206.611 45.709C218.729 24.4048 238.513 19.2834 252.346 17.2885C254.24 17.02 299.005 10.9842 325.587 33.0429C337.328 42.7934 343.706 56.6232 344.541 74.1615C344.541 74.1615 344.765 76.1627 344.816 79.3724C344.828 80.3187 344.809 81.265 344.784 82.1793V82.4031V82.6141C344.809 83.5284 344.828 84.4747 344.816 85.4146C344.765 88.6306 344.541 90.6319 344.535 90.6511C343.706 108.164 337.328 122 325.587 131.744C308.642 145.81 284.304 148.451 268.398 148.451V148.458ZM268.424 16.9624C259.419 16.9624 253.117 17.8128 252.435 17.9087C238.729 19.8844 219.131 24.9547 207.153 46.0159C203.263 52.8509 200.419 60.9071 198.913 69.3213C198.11 73.5476 197.708 77.9402 197.727 82.3903C197.714 86.8404 198.11 91.2393 198.913 95.4592C200.419 103.873 203.263 111.93 207.153 118.765C219.131 139.832 238.729 144.896 252.435 146.872C254.316 147.14 298.82 153.138 325.185 131.252C336.786 121.623 343.087 107.94 343.91 90.5935C343.91 90.5552 344.133 88.5795 344.184 85.4018C344.197 84.4683 344.178 83.5348 344.152 82.6269V82.4031V82.1601C344.178 81.2522 344.197 80.3123 344.184 79.3788C344.133 76.2011 343.91 74.2254 343.91 74.2062C343.087 56.8342 336.786 43.1515 325.185 33.5224C308.386 19.5775 284.234 16.9561 268.424 16.9561V16.9624Z" fill="#515151"/>
<path d="M300.644 81.0678C300.644 81.0678 300.593 81.0678 300.568 81.055L285.427 77.1739C285.299 77.142 285.204 77.0333 285.191 76.9054C285.178 76.7775 285.248 76.6497 285.363 76.5921L300.504 69.0794C300.657 69.0027 300.848 69.0666 300.925 69.2201C301.001 69.3735 300.937 69.5653 300.784 69.642L286.403 76.7775L300.721 80.4476C300.886 80.4923 300.988 80.6586 300.944 80.8312C300.906 80.9719 300.778 81.0678 300.638 81.0678H300.644Z" fill="#515151"/>
<path d="M137.126 92.5111C137.126 92.5111 137.075 92.5111 137.05 92.4983L121.909 88.6173C121.782 88.5853 121.686 88.4766 121.673 88.3488C121.661 88.2209 121.731 88.093 121.846 88.0355L136.986 80.5227C137.139 80.446 137.331 80.51 137.407 80.6634C137.484 80.8169 137.42 81.0087 137.267 81.0854L122.885 88.2209L137.209 91.8909C137.375 91.9357 137.477 92.1019 137.433 92.2746C137.394 92.4152 137.267 92.5111 137.126 92.5111Z" fill="#515151"/>
<path d="M228.614 82.9604C228.474 82.9604 228.346 82.8645 228.308 82.7238C228.264 82.5575 228.366 82.3849 228.531 82.3402L242.849 78.6701L228.468 71.5346C228.315 71.4579 228.251 71.2661 228.327 71.1126C228.404 70.9592 228.595 70.8952 228.748 70.972L243.889 78.4847C244.004 78.5422 244.074 78.6701 244.061 78.798C244.048 78.9259 243.953 79.0346 243.825 79.0665L228.684 82.9412C228.684 82.9412 228.633 82.954 228.608 82.954L228.614 82.9604Z" fill="#515151"/>
<path d="M74.1858 94.6549C74.0455 94.6549 73.9179 94.559 73.8796 94.4183C73.835 94.2521 73.937 94.0794 74.1029 94.0347L88.4271 90.3646L74.0455 83.2291C73.8924 83.1524 73.8286 82.9606 73.9052 82.8071C73.9817 82.6473 74.173 82.5898 74.3261 82.6665L89.4667 90.1792C89.5815 90.2368 89.6517 90.3646 89.6389 90.4925C89.6261 90.6204 89.5305 90.7291 89.4029 90.761L74.2623 94.6421C74.2623 94.6421 74.2113 94.6549 74.1858 94.6549Z" fill="#515151"/>
<path d="M319.426 6.01632C325.549 2.49333 333.361 4.60968 336.876 10.7413C340.39 16.8794 338.279 24.7118 332.162 28.2348C326.04 31.7578 298.488 32.8511 298.488 32.8511C298.488 32.8511 313.304 9.53931 319.426 6.01632Z" fill="#5ACDFF"/>
<path d="M289.764 8.59996C291.409 4.68055 295.918 2.83914 299.828 4.49513C303.737 6.14474 305.574 10.6652 303.922 14.5846C302.277 18.504 289.49 29.0793 289.49 29.0793C289.49 29.0793 288.112 12.5194 289.764 8.59996Z" fill="#5ACDFF"/>
<path d="M40.5423 4.31542C35.8611 -0.978651 27.7806 -1.47097 22.4999 3.22208C17.2191 7.91514 16.728 16.0161 21.4093 21.3102C26.0905 26.6042 51.8563 36.4379 51.8563 36.4379C51.8563 36.4379 45.2172 9.60949 40.5359 4.30903L40.5423 4.31542Z" fill="#5ACDFF"/>
<path d="M23.0805 26.7456C19.0561 25.3901 14.7002 27.5576 13.3481 31.5921C11.996 35.6266 14.1581 39.9936 18.1824 41.3491C22.2067 42.7046 38.5782 40.0959 38.5782 40.0959C38.5782 40.0959 27.1048 28.1011 23.0805 26.7456Z" fill="#5ACDFF"/>
<path d="M344.548 130.038C342.954 120.882 342.258 120.921 339.459 112.008C336.391 102.251 331.761 92.417 326.046 83.5807C320.747 75.3903 312.137 67.4044 312.162 57.0656C312.194 44.7767 325.415 40.6591 335.205 39.1374C374.121 33.0824 368.413 114.706 368.413 114.706" fill="#F0C376"/>
<path d="M353.425 44.0718C348.444 39.481 342.303 37.7163 335.16 38.8289C326.958 40.1076 320.842 42.5245 316.932 45.9835C316.849 46.0091 316.785 46.0667 316.747 46.1498C313.526 49.0781 311.862 52.7418 311.856 57.064C311.836 64.922 316.696 71.3797 321.397 77.6265C322.978 79.7301 324.471 81.7121 325.791 83.7518C331.473 92.5305 336.097 102.332 339.171 112.102C340.032 114.832 340.702 116.75 341.237 118.291C342.468 121.814 343.151 123.758 344.254 130.088L344.873 129.979C343.763 123.598 343.074 121.635 341.831 118.08C341.295 116.539 340.625 114.627 339.771 111.91C336.677 102.089 332.028 92.2299 326.32 83.4065C324.987 81.3541 323.488 79.3592 321.9 77.2493C317.264 71.0856 312.461 64.711 312.481 57.064C312.493 52.6075 314.317 49.2188 317.143 46.6421C318.89 47.2367 331.307 51.8211 334.369 62.5691C334.407 62.7097 334.535 62.7993 334.668 62.7993C334.694 62.7993 334.726 62.7992 334.758 62.7865C334.924 62.7417 335.019 62.5627 334.975 62.3964C331.983 51.8978 320.357 47.1344 317.685 46.169C320.823 43.5283 325.045 41.7956 329.381 40.6575C329.42 40.7278 329.483 40.779 329.56 40.8045C329.675 40.8365 340.887 44.4043 343.508 53.5986C343.546 53.7392 343.674 53.8287 343.808 53.8287C343.833 53.8287 343.865 53.8287 343.897 53.8159C344.063 53.7712 344.158 53.5922 344.114 53.4259C341.754 45.1523 332.742 41.3033 330.338 40.4145C331.99 40.0117 333.648 39.6984 335.255 39.4491C342.201 38.3685 348.17 40.082 352.998 44.5321C371.576 61.6612 368.139 114.154 368.1 114.679L368.725 114.723C368.764 114.193 372.227 61.399 353.425 44.0718Z" fill="#515151"/>
<path d="M20.663 133.094C22.1107 125.3 22.7038 125.338 25.1784 117.761C27.8889 109.468 31.9323 101.125 36.8942 93.6438C41.4925 86.7129 48.9161 79.9802 48.9926 71.1632C49.0819 60.6773 37.8444 57.0393 29.5088 55.6454C-3.62325 50.1084 0.464846 119.782 0.464846 119.782" fill="#A28977"/>
<path d="M45.2233 61.8988C45.1914 61.8284 45.134 61.7837 45.0638 61.7517C41.7602 58.7594 36.556 56.6303 29.5597 55.4602C23.4626 54.4372 18.1946 55.8886 13.8897 59.7696C-2.32876 74.3859 0.120275 119.475 0.145785 119.929L0.770798 119.891C0.745288 119.437 -1.68461 74.648 14.3106 60.2364C18.4625 56.496 23.5583 55.0957 29.4576 56.0804C30.7778 56.3042 32.1362 56.5791 33.4947 56.918C31.237 57.7492 23.7879 60.9589 21.7342 67.8642C21.6832 68.0304 21.7789 68.203 21.9447 68.2542C21.9766 68.2606 22.0021 68.267 22.034 68.267C22.1679 68.267 22.2955 68.1775 22.3337 68.0432C24.6488 60.2491 34.2281 57.3272 34.3238 57.2952C34.3939 57.276 34.445 57.2313 34.4832 57.1737C38.1249 58.1776 41.6645 59.6801 44.2985 61.9179C41.8495 62.7875 32.0725 66.7517 29.4385 75.6007C29.3875 75.7669 29.4831 75.9396 29.6489 75.9907C29.6808 75.9971 29.7063 76.0035 29.7382 76.0035C29.8722 76.0035 29.9997 75.914 30.038 75.7797C32.7357 66.7133 43.2589 62.9218 44.8278 62.3975C47.194 64.6161 48.7055 67.5061 48.6672 71.2785C48.6098 77.7874 44.4643 83.171 40.4527 88.3755C39.1389 90.0827 37.7741 91.8474 36.6198 93.5929C31.6643 101.067 27.5953 109.437 24.8657 117.787C24.1131 120.095 23.52 121.726 23.048 123.03C21.9511 126.054 21.3516 127.717 20.3375 133.158L20.9562 133.273C21.9575 127.889 22.557 126.24 23.6412 123.247C24.1131 121.937 24.7062 120.306 25.4652 117.985C28.1757 109.686 32.2192 101.374 37.1427 93.9445C38.2843 92.2246 39.579 90.543 40.9502 88.7655C45.0255 83.4779 49.2412 78.0111 49.2986 71.2913C49.3305 67.5828 47.9465 64.4371 45.2169 61.8988H45.2233Z" fill="#515151"/>
<path d="M102.764 118.899C102.764 118.899 107.534 118.688 109.907 113.023C109.907 113.023 112.585 118.535 117.841 118.899C117.841 118.899 117.981 130.012 111.099 130.901C111.099 130.901 105.296 132.205 103.72 125.69L102.764 118.899Z" fill="#F7BCCE"/>
<path d="M121.45 108.317C121.322 108.202 121.125 108.215 121.01 108.343C120.895 108.47 120.901 108.669 121.035 108.784C122.33 109.954 123.127 111.75 123.108 113.483C123.095 114.506 122.808 115.958 121.482 117.102C120.002 118.381 118.319 118.521 117.171 118.426C115.251 118.253 113.395 117.256 112.196 115.766C111.654 115.088 111.156 114.314 110.729 113.464C110.71 113.419 110.665 113.349 110.614 113.259C110.525 113.106 110.283 112.703 110.27 112.62C110.302 112.505 110.263 112.39 110.181 112.313C111.756 112.217 113.108 111.028 113.35 109.398C113.631 107.524 112.336 105.779 110.468 105.504C108.599 105.229 106.858 106.52 106.584 108.394C106.309 110.267 107.598 112.013 109.466 112.288C109.562 112.3 109.658 112.307 109.76 112.313C109.721 112.351 109.683 112.396 109.67 112.454C108.542 116.514 104.728 119.18 100.786 118.662C99.1791 118.451 96.8002 117.262 96.5451 115.286C96.2709 113.202 97.9099 111.181 99.5362 109.986C99.6765 109.883 99.7084 109.685 99.6064 109.545C99.5043 109.404 99.3066 109.378 99.1663 109.474C97.3997 110.772 95.614 113.004 95.9265 115.363C96.2135 117.53 98.6051 119.001 100.71 119.276C101.067 119.321 101.418 119.346 101.775 119.346C102.036 119.346 102.304 119.327 102.559 119.302C102.559 121.667 103.216 125.689 104.147 127.735C104.976 129.551 106.475 130.785 108.369 131.2C108.841 131.303 109.32 131.354 109.804 131.354C111.545 131.354 113.312 130.695 114.728 129.474C117.088 127.434 118.095 122.243 118.229 119.052C119.607 118.963 120.889 118.458 121.909 117.575C123.083 116.565 123.733 115.107 123.752 113.483C123.771 111.546 122.923 109.615 121.475 108.311L121.45 108.317ZM114.301 129.001C112.668 130.408 110.436 131.015 108.484 130.593C106.794 130.222 105.448 129.116 104.702 127.486C103.79 125.484 103.152 121.507 103.172 119.231C106.182 118.701 108.829 116.52 109.989 113.451C110.015 113.496 110.04 113.541 110.072 113.585C110.117 113.656 110.149 113.713 110.168 113.752C110.621 114.64 111.137 115.452 111.705 116.162C113.006 117.786 115.028 118.867 117.113 119.052C117.273 119.065 117.426 119.071 117.585 119.071C117.458 122.051 116.488 127.115 114.307 129.001H114.301Z" fill="#515151"/>
<path d="M264.418 102.799C264.418 102.799 263.895 108.675 255.432 110.35C255.432 110.35 256.038 125.273 262.256 126.91C262.256 126.91 265.763 128.432 269.412 126.469C269.412 126.469 274.858 124.666 275.63 115.497C275.63 115.497 276.21 111.232 275.821 110.356C275.821 110.356 268.244 110.228 265.011 102.805H264.405L264.418 102.799Z" fill="#F7BCCE"/>
<path d="M287.927 107.902C287.863 107.742 287.678 107.665 287.519 107.729C280.446 110.664 274.757 111.022 270.624 108.803C267.812 107.294 266.345 104.877 265.631 103.221C266 103.138 266.37 103.017 266.715 102.851C269.17 101.687 270.605 100.389 271.479 97.9721C271.715 97.3327 272.021 94.9223 271.626 94.2509C271.211 93.554 268.813 93.2535 268.073 93.1448C268.06 93.1448 268.048 93.1448 268.029 93.1448C266.338 92.9082 264.208 92.7676 262.531 93.0745C260.962 93.3558 259.585 94.0016 258.156 94.7241C257.926 94.8391 257.767 95.0246 257.652 95.2484C257.25 96.0668 257.512 97.4542 257.684 98.2023C257.965 99.4107 258.577 100.542 259.508 101.38C260.484 102.256 261.702 102.825 262.958 103.17C263.264 103.253 263.577 103.311 263.889 103.343C263.118 105.536 261.766 107.243 259.846 108.413C253.226 112.435 241.969 109.014 241.855 108.976C241.689 108.925 241.517 109.021 241.465 109.18C241.414 109.347 241.504 109.519 241.67 109.57C241.963 109.66 246.402 111.015 251.37 111.015C252.595 111.015 253.857 110.926 255.088 110.721C255.26 114.155 256.408 120.664 257.875 123.407C259.157 125.792 261.294 127.32 263.883 127.716C264.33 127.786 264.782 127.818 265.235 127.818C267.799 127.818 270.382 126.744 272.346 124.813C275.427 121.783 276.364 114.935 276.256 110.862C279.566 110.964 283.412 110.127 287.755 108.324C287.914 108.26 287.991 108.074 287.927 107.914V107.902ZM271.913 124.353C269.776 126.457 266.734 127.499 263.979 127.083C261.587 126.719 259.616 125.306 258.43 123.093C257.04 120.504 255.873 113.976 255.713 110.593C257.289 110.28 258.813 109.756 260.165 108.931C262.276 107.652 263.736 105.773 264.54 103.349C264.687 103.349 264.827 103.337 264.967 103.324C265.688 105.069 267.225 107.691 270.312 109.347C271.881 110.191 273.66 110.677 275.631 110.811C275.739 114.762 274.859 121.444 271.906 124.34L271.913 124.353Z" fill="#515151"/>
</g>
<defs>
<clipPath id="clip0_4364_40841">
<rect width="369" height="152" fill="white"/>
</clipPath>
</defs>
</svg>
