<svg width="305" height="60" viewBox="0 0 305 60" fill="none" xmlns="http://www.w3.org/2000/svg">
<path d="M63.7743 38.0796C62.4787 41.9669 60.6974 45.5103 58.5103 48.544C56.0734 51.9241 53.1804 54.6054 49.9965 56.4347C46.8126 58.264 43.4001 59.2056 39.9538 59.2056C36.5075 59.2056 33.095 58.264 29.9111 56.4347C26.7272 54.6054 23.8342 51.9241 21.3973 48.544C18.9604 45.1639 17.0274 41.1511 15.7086 36.7347C14.3897 32.3183 13.7109 27.5849 13.7109 22.8047L250.3 22.8047L250.299 22.8931L294.597 22.8931C294.597 27.685 293.963 32.4299 292.731 36.857C291.499 41.2841 289.693 45.3066 287.417 48.695C285.141 52.0833 282.438 54.7711 279.464 56.6049C276.49 58.4386 273.302 59.3824 270.083 59.3824C266.864 59.3824 263.676 58.4386 260.702 56.6049C257.728 54.7711 255.025 52.0833 252.749 48.695C250.707 45.6552 249.044 42.105 247.833 38.2101C246.542 42.0463 244.776 45.5443 242.613 48.544C240.176 51.9241 237.283 54.6054 234.099 56.4347C230.915 58.264 227.503 59.2056 224.057 59.2056C220.61 59.2056 217.198 58.264 214.014 56.4347C210.83 54.6054 207.937 51.9241 205.5 48.544C203.737 46.0985 202.238 43.3219 201.044 40.3009C199.85 43.3219 198.351 46.0985 196.588 48.544C194.151 51.9241 191.258 54.6054 188.074 56.4347C184.89 58.264 181.478 59.2056 178.031 59.2056C174.585 59.2056 171.173 58.264 167.989 56.4347C164.805 54.6054 161.912 51.9241 159.475 48.544C157.711 46.098 156.212 43.3207 155.018 40.2989C153.824 43.3207 152.324 46.098 150.561 48.544C148.124 51.9241 145.231 54.6054 142.047 56.4347C138.863 58.264 135.451 59.2056 132.004 59.2056C128.558 59.2056 125.146 58.264 121.962 56.4347C118.778 54.6054 115.885 51.9241 113.448 48.544C112.062 46.6218 110.839 44.495 109.8 42.2057C108.76 44.495 107.537 46.6218 106.151 48.544C103.715 51.9241 100.822 54.6054 97.6376 56.4347C94.4536 58.264 91.0411 59.2056 87.5949 59.2056C84.1486 59.2056 80.7361 58.264 77.5522 56.4347C74.3682 54.6054 71.4752 51.9241 69.0384 48.544C66.8512 45.5103 65.07 41.9669 63.7743 38.0796Z" fill="#FFD4C0"/>
<path d="M245.279 25.3271C244.493 25.2412 244.493 25.2417 244.493 25.2423L244.493 25.244L244.492 25.2498L244.49 25.2699L244.483 25.3443C244.477 25.4087 244.468 25.5027 244.458 25.6243C244.444 25.8019 244.428 26.0385 244.411 26.3279C244.398 26.0526 244.383 25.8256 244.371 25.6524C244.363 25.5249 244.355 25.4264 244.349 25.3591L244.343 25.2817L244.341 25.2609L244.34 25.2551L244.34 25.2534C244.34 25.2528 244.34 25.2524 243.553 25.3271C242.765 25.4019 242.765 25.4017 242.765 25.4017L242.767 25.4217L242.773 25.4895C242.778 25.5502 242.785 25.6418 242.793 25.7623C242.81 26.0031 242.832 26.3589 242.85 26.8131C242.887 27.7217 242.911 29.0223 242.862 30.5819C242.764 33.7061 242.369 37.845 241.195 41.9459C240.02 46.0511 238.079 50.0629 234.927 52.9969C231.795 55.9119 227.408 57.819 221.21 57.6323C215.003 57.4454 210.599 55.3505 207.453 52.3538C204.292 49.342 202.351 45.3702 201.177 41.3639C200.004 37.3599 199.61 33.3663 199.511 30.3644C199.462 28.8658 199.487 27.6201 199.523 26.7514C199.542 26.3171 199.563 25.9774 199.58 25.7479C199.588 25.6331 199.595 25.5458 199.6 25.4881L199.606 25.4239L199.608 25.4056C199.608 25.4057 199.608 25.4054 198.821 25.3271C198.034 25.2489 198.034 25.2493 198.034 25.2499L198.033 25.2516L198.033 25.2572L198.031 25.2773L198.024 25.3517L198.021 25.3913L197.869 25.4058C197.081 25.4805 197.081 25.4803 197.081 25.4803L197.082 25.4843L197.083 25.5003L197.089 25.5681C197.094 25.6288 197.101 25.7205 197.11 25.8409C197.126 26.0817 197.148 26.4376 197.166 26.8917C197.203 27.8003 197.227 29.1009 197.178 30.6605C197.08 33.7847 196.685 37.9237 195.511 42.0245C194.336 46.1297 192.395 50.1415 189.243 53.0755C186.111 55.9905 181.724 57.8976 175.526 57.7109C169.319 57.524 164.915 55.4292 161.769 52.4324C158.608 49.4207 156.667 45.4489 155.493 41.4425C154.32 37.4385 153.926 33.4449 153.827 30.443C153.778 28.9444 153.803 27.6987 153.839 26.83C153.858 26.3958 153.879 26.0561 153.896 25.8265C153.904 25.7117 153.911 25.6245 153.916 25.5667L153.922 25.5025L153.924 25.4843C153.924 25.4843 153.924 25.484 153.137 25.4058C152.35 25.3275 152.35 25.3279 152.35 25.3285L152.349 25.3302L152.349 25.3359L152.347 25.3559L152.34 25.4303C152.335 25.495 152.327 25.5894 152.318 25.7116C152.309 25.8456 152.297 26.013 152.286 26.2114L151.657 26.2726C150.87 26.3494 150.87 26.3493 150.87 26.3492L150.87 26.3532L150.872 26.369L150.877 26.4362C150.883 26.4966 150.89 26.5876 150.898 26.7073C150.915 26.9466 150.937 27.3002 150.956 27.7517C150.994 28.6549 151.019 29.9479 150.969 31.4984C150.868 34.6046 150.464 38.7191 149.264 42.7957C148.063 46.8756 146.079 50.8649 142.853 53.7839C139.646 56.686 135.15 58.5869 128.798 58.401C122.437 58.2147 117.924 56.1271 114.703 53.1442C111.468 50.1478 109.484 46.1983 108.284 42.2166C107.084 38.2365 106.681 34.2664 106.581 31.2821C106.564 30.7755 106.555 30.2979 106.553 29.8543C106.553 29.7444 106.553 29.6364 106.553 29.5305C106.554 28.8086 106.572 28.1874 106.593 27.6904C106.612 27.2587 106.634 26.9211 106.651 26.693C106.659 26.579 106.667 26.4923 106.672 26.435L106.677 26.3713L106.679 26.3564L106.679 26.3533C106.679 26.3533 106.679 26.353 106.43 26.3276L106.428 26.3022L106.421 26.225L106.42 26.2043L106.419 26.1967C106.419 26.1962 106.419 26.1958 105.765 26.2596C105.106 26.1922 105.106 26.1926 105.106 26.1931L105.105 26.1949L105.105 26.2005L105.103 26.2205L105.096 26.2947L105.093 26.3251C104.844 26.3494 104.844 26.3493 104.844 26.3492L104.845 26.3532L104.846 26.369L104.852 26.4362C104.857 26.4966 104.865 26.5876 104.873 26.7073C104.89 26.9466 104.912 27.3002 104.931 27.7517C104.951 28.2388 104.968 28.8392 104.971 29.5322C104.971 29.6385 104.971 29.7468 104.971 29.8571C104.971 30.3626 104.962 30.9121 104.943 31.4984C104.842 34.6046 104.439 38.7191 103.239 42.7957C102.037 46.8756 100.053 50.8649 96.8274 53.7839C93.6204 56.686 89.1246 58.5869 82.7724 58.401C76.4112 58.2147 71.8987 56.1271 68.6781 53.1442C65.443 50.1478 63.4587 46.1983 62.2586 42.2166C61.0591 38.2365 60.6561 34.2664 60.5554 31.2821C60.5051 29.7922 60.5303 28.5539 60.5679 27.6904C60.5866 27.2587 60.6085 26.9211 60.6255 26.693C60.634 26.579 60.6413 26.4923 60.6463 26.435L60.6522 26.3713L60.6536 26.3564L60.6539 26.3533C60.6539 26.3533 60.6539 26.3529 60.4613 26.3333C60.4481 26.0886 60.4347 25.885 60.4232 25.7264C60.414 25.5994 60.406 25.5013 60.4002 25.4342L60.3934 25.3569L60.3914 25.3362L60.3908 25.3303L60.3907 25.3286C60.3906 25.328 60.3906 25.3276 59.6036 25.4058C58.8165 25.4839 58.8165 25.4838 58.8165 25.4837L58.8169 25.4876L58.8184 25.5035L58.8243 25.5706C58.8295 25.6309 58.8369 25.7218 58.8456 25.8414C58.8629 26.0806 58.8852 26.4341 58.9043 26.8854C58.9426 27.7884 58.9683 29.081 58.9171 30.6311C58.8145 33.7365 58.4041 37.8499 57.183 41.9252C55.9611 46.0033 53.9429 49.9925 50.6593 52.9125C47.3936 55.8167 42.8134 57.7203 36.3426 57.5341C29.8629 57.3477 25.2664 55.2575 21.9873 52.2727C18.6944 49.2754 16.6758 45.3261 15.4553 41.3461C14.235 37.3672 13.8252 33.3983 13.7227 30.4147C13.6715 28.9253 13.6972 27.6874 13.7354 26.8241C13.7545 26.3927 13.7767 26.0552 13.794 25.8272C13.8026 25.7132 13.81 25.6266 13.8152 25.5694L13.8211 25.5058L13.8226 25.4909L13.8229 25.4878C13.8229 25.4879 13.8229 25.4876 13.0362 25.4058C12.2496 25.3239 12.2495 25.3243 12.2495 25.3249L12.2493 25.3266L12.2487 25.3323L12.2468 25.3524L12.2398 25.4267C12.234 25.4912 12.226 25.5852 12.2168 25.7069C12.1983 25.9504 12.1751 26.3045 12.1552 26.7538C12.1154 27.6521 12.0891 28.9322 12.1419 30.4694C12.2473 33.5389 12.669 37.6568 13.9434 41.8125C15.2175 45.9671 17.3567 50.2002 20.9243 53.4475C24.5055 56.7072 29.4719 58.9236 36.2972 59.12C43.1313 59.3166 48.114 57.2964 51.7087 54.0996C55.2855 50.9187 57.4251 46.6298 58.6978 42.3818C59.1143 40.9917 59.4397 39.6006 59.6926 38.2463C59.9509 39.6863 60.2933 41.1786 60.7445 42.6757C61.9962 46.8286 64.0979 51.0615 67.605 54.3097C71.1264 57.5713 76.012 59.7902 82.7263 59.9868C89.4497 60.1836 94.3519 58.1608 97.887 54.9619C101.403 51.78 103.505 47.4912 104.756 43.245C105.205 41.7187 105.546 40.1912 105.804 38.7125C106.051 40.0073 106.367 41.3395 106.77 42.6757C108.021 46.8286 110.123 51.0615 113.63 54.3097C117.152 57.5713 122.037 59.7902 128.752 59.9868C135.475 60.1836 140.377 58.1608 143.912 54.9619C147.429 51.78 149.531 47.4912 150.781 43.245C151.776 39.8641 152.242 36.4771 152.443 33.6291C152.676 36.1417 153.131 39.0068 153.975 41.8898C155.198 46.0618 157.251 50.3164 160.68 53.5827C164.124 56.864 168.906 59.0988 175.479 59.2967C182.062 59.4949 186.861 57.4572 190.319 54.2384C193.757 51.0387 195.81 46.7279 197.031 42.4624C197.69 40.1602 198.112 37.855 198.376 35.7175C198.643 37.6553 199.049 39.7285 199.659 41.8112C200.882 45.9831 202.935 50.2377 206.364 53.5041C209.808 56.7853 214.59 59.0202 221.163 59.2181C227.746 59.4163 232.545 57.3785 236.003 54.1598C239.441 50.9601 241.494 46.6493 242.715 42.3837C243.86 38.3869 244.287 34.3813 244.42 31.2593C244.58 34.2062 245.056 37.9367 246.268 41.6984C247.603 45.8464 249.844 50.0679 253.576 53.3034C257.319 56.5488 262.505 58.7523 269.632 58.9477C276.767 59.1432 281.968 57.1353 285.725 53.9535C289.466 50.7844 291.707 46.5072 293.041 42.2659C294.376 38.0235 294.817 33.7716 294.927 30.5914C294.983 28.9986 294.955 27.6682 294.914 26.7336C294.893 26.2662 294.868 25.8974 294.849 25.6438C294.839 25.5171 294.831 25.4191 294.825 25.3519L294.818 25.2746L294.815 25.2479L294.815 25.2461C294.815 25.2456 294.815 25.2451 294.028 25.3271C293.242 25.4092 293.242 25.409 293.242 25.4089L293.242 25.4127L293.243 25.4284L293.25 25.495C293.255 25.555 293.263 25.6455 293.272 25.7645C293.29 26.0027 293.313 26.3548 293.333 26.8044C293.373 27.7038 293.4 28.9917 293.347 30.5362C293.239 33.6305 292.81 37.7286 291.533 41.7885C290.256 45.8496 288.144 49.827 284.704 52.7414C281.278 55.6432 276.469 57.5479 269.675 57.3618C262.874 57.1754 258.049 55.0846 254.61 52.1032C251.16 49.112 249.049 45.1743 247.773 41.2109C246.497 37.247 246.068 33.2931 245.961 30.3204C245.907 28.8365 245.934 27.6032 245.974 26.7433C245.994 26.3135 246.017 25.9775 246.035 25.7505C246.044 25.6371 246.052 25.5509 246.057 25.494L246.064 25.4309L246.065 25.4162L246.065 25.4132C246.065 25.4133 246.065 25.413 245.279 25.3271Z" fill="#5F231B"/>
<path d="M48.2137 1.28843C48.6149 1.09851 49.0533 1 49.4972 1H267.389C267.96 1 268.52 1.16337 269.002 1.47087L295.821 18.5808C298.35 20.1941 297.207 24.1099 294.207 24.1099H13.3501C10.1492 24.1099 9.17339 19.7678 12.0665 18.3983L48.2137 1.28843Z" fill="#FFD4C0"/>
<path d="M112.226 18.9744H294.918M16.3114 19.3519L106.027 19.3518M203.558 17.5016L192.14 3.2278M156.594 17.3127L154.147 3.03893M63.6163 16.8215L75.0346 2.54778M110.582 16.6333L113.029 2.35951M13.0498 17.0342L43.4599 1.67978M46.1079 1H266.209M225.919 3.03916L246.309 17.3129M267.502 2.28402L293.913 19.1255" stroke="#5F231B" stroke-linecap="round"/>
</svg>
