<svg width="60" height="52" viewBox="0 0 60 52" fill="none" xmlns="http://www.w3.org/2000/svg">
<path d="M46.1546 25.8716C46.1546 17.3395 41.3933 12.9008 32.2341 12.9008C41.391 12.9008 46.1546 8.53212 46.1546 0C46.1546 8.53212 50.8432 12.9008 60 12.9008C50.8432 12.9008 46.1546 17.3373 46.1546 25.8716ZM25.2739 3.96025C25.2739 19.4561 33.9923 27.5798 50.6228 27.5798C33.9923 27.5798 25.2739 35.7034 25.2739 51.1993C25.2739 35.7034 16.6281 27.5798 0 27.5798C16.6305 27.5798 25.2739 19.4561 25.2739 3.96025ZM43.5899 36.5881C43.5899 40.616 45.8615 42.8004 50.1844 42.8004H50.2571C45.8615 42.8004 43.5899 44.9171 43.5899 48.945C43.5899 44.9171 41.3183 42.8004 36.9954 42.8004C41.3183 42.8004 43.5899 40.616 43.5899 36.5881Z" fill="#FFD4C0"/>
<path d="M54.6707 12.9047C52.4838 13.4614 50.6625 14.4056 49.2327 15.7485C47.7599 17.1318 46.7372 18.9052 46.1506 21.0369C45.5566 18.9045 44.5223 17.1309 43.0381 15.7477C41.5978 14.4055 39.7661 13.4614 37.572 12.9047C39.7643 12.3551 41.5952 11.4218 43.0354 10.0906C44.5211 8.71735 45.5563 6.95317 46.1506 4.82644C46.7373 6.95182 47.7605 8.71557 49.2344 10.0889C50.6643 11.4212 52.485 12.3549 54.6707 12.9047ZM7.30411 27.5798C12.2507 26.6983 16.2638 24.845 19.2834 22.019C22.3553 19.144 24.3519 15.3065 25.2762 10.5747C26.2073 15.3074 28.2176 19.1451 31.3029 22.0199C34.335 24.8452 38.3605 26.6982 43.3134 27.5798C38.3605 28.4613 34.335 30.3143 31.3029 33.1396C28.2175 36.0145 26.2072 39.8523 25.2761 44.5852C24.3517 39.8532 22.3547 36.0156 19.2825 33.1405C16.2629 30.3147 12.25 28.4614 7.30411 27.5798ZM43.5907 45.7299C43.2872 45.0352 42.8661 44.4295 42.3228 43.9233C41.809 43.4446 41.2018 43.0695 40.5097 42.7933C41.2037 42.5105 41.8121 42.1273 42.3263 41.6404C42.8673 41.128 43.287 40.517 43.5899 39.8185C43.8928 40.517 44.3125 41.128 44.8535 41.6404C45.3708 42.1303 45.9834 42.5151 46.6827 42.7984C45.9895 43.0737 45.3819 43.4466 44.8679 43.9216C44.3197 44.4283 43.8959 45.0345 43.5907 45.7299Z" stroke="#5F231B" stroke-width="1.2"/>
</svg>
