<svg width="135" height="81" viewBox="0 0 135 81" fill="none" xmlns="http://www.w3.org/2000/svg">
<path d="M9.09666 70.7969H16.3751C31.6076 70.7969 34.7017 63.6717 34.7017 63.6717L36.5827 59.2703C32.0222 60.0244 28.2141 58.6394 28.2141 58.6394H23.07C16.6668 58.1777 14.8242 53.1454 14.8242 53.1454C13.3578 50.7139 17.235 50.5293 17.235 50.5293C21.2965 50.1137 24.3445 47.3975 24.3445 47.3975C32.9358 35.4324 46.3257 44.9353 46.3257 44.9353C56.6982 48.8518 63.1705 44.9353 63.1705 44.9353C70.2723 43.5118 78.0575 34.8245 81.5201 30.5386C84.5758 26.7606 88.7448 24.0136 93.4435 22.7902C102.38 20.451 112.039 22.013 112.039 22.013C134.473 22.2439 129.229 3.4536 129.229 3.4536C129.229 3.4536 128.753 -0.00127665 131.686 0.0218072C131.686 0.0218072 133.36 -0.486037 133.974 3.39974C133.974 3.39974 137.429 24.3137 111.716 28.3918C111.716 28.3918 116.845 40.6955 109.482 48.8518L104.123 55.9001C104.123 55.9001 102.227 58.0238 104.346 61.9404C104.346 61.9404 108.922 68.6501 100.108 73.3438C100.108 73.3438 92.6297 79.9381 84.1535 79.4918C84.1535 79.4918 76.8981 80.2766 78.5719 76.2523C78.5719 76.2523 75.8924 73.0129 90.3955 71.7818C90.3955 71.7818 98.0962 69.4349 94.7487 62.5021C94.7487 62.5021 91.0557 56.5311 88.1689 54.1149C86.7793 52.9531 86.2572 52.199 85.1439 50.1522L83.4702 53.1454C83.4702 53.1454 60.6445 60.2937 50.9323 63.1946L48.4754 64.772C48.4754 64.772 46.126 65.2798 45.6884 66.1724C45.2431 67.065 43.8535 69.4734 43.3391 70.0505C42.8323 70.6199 39.0933 72.7821 38.8399 72.9129C38.5866 73.0437 27.8993 74.7519 27.8993 74.7519C27.8993 74.7519 7.52275 76.1523 7.13886 76.0831C6.75498 76.0138 4.93537 74.1979 4.93537 74.1979C5.38835 71.474 9.08131 70.8046 9.08131 70.8046L9.09666 70.7969Z" fill="white"/>
<path d="M92.9492 47.9378C91.9891 38.1815 106.15 35.5391 113.351 35.4375C113.551 36.1489 113.951 37.6936 113.951 38.1815C113.951 38.7912 112.901 44.1267 112.601 44.7365C112.301 45.3462 106.15 54.3403 105.7 54.4928C105.34 54.6147 104.25 56.3729 103.75 57.2367L104.05 60.2856L105.7 63.6393L106.15 66.5357C102.15 64.4015 93.9093 57.6941 92.9492 47.9378Z" fill="#FFD4C0"/>
<path d="M81.1853 31.0981C75.0459 39.3691 66.9904 43.8694 63.7301 45.0858C63.8333 45.1283 63.936 45.17 64.0381 45.2108C59.3937 46.7912 53.2524 47.5292 46.8768 45.0858C42.6635 41.9436 32.5816 37.7575 25.9607 46.15C25.3086 47.113 23.7035 49.0388 22.4997 49.0388C22.5683 49.0734 22.7109 49.2027 22.9249 49.3964C24.5897 50.9045 30.5696 56.3216 39.5035 51.4714C40.4064 53.4986 42.8742 57.6138 45.5225 57.8571C45.5225 57.4334 45.6869 57.0466 45.901 56.5425C46.3017 55.5994 46.8768 54.2456 46.8768 51.4714C47.4687 51.4714 71.3387 50.5894 76.4281 45.3564C80.8228 42.41 81.6205 35.6524 81.1853 31.0981Z" fill="#FFD4C0"/>
<path d="M83.3422 79.5536C84.0952 79.5536 84.6561 79.4925 84.7176 79.4925C93.1623 79.9506 100.777 73.3841 100.854 73.3154C103.797 71.773 105.61 69.7802 106.194 67.4437C106.97 64.2979 105.226 61.7094 105.149 61.6025C103.182 57.9986 104.834 56.0668 104.903 55.9828L110.275 48.9734C116.96 41.6281 113.456 30.8239 112.687 28.7241C121.101 27.3345 127.272 24.0054 131.021 18.8285C136.139 11.7886 134.863 3.71029 134.848 3.6263C134.571 1.87013 134.034 0.724811 133.25 0.243775C132.781 -0.0540088 132.366 -0.00819593 132.22 0.022346C131.367 0.022346 130.691 0.297224 130.215 0.839343C129.246 1.93122 129.485 3.70265 129.492 3.77901C129.523 3.89354 131.521 11.2465 127.471 16.4845C124.667 20.1113 119.68 21.9286 112.603 21.8446C112.549 21.8369 102.821 20.3175 93.9077 22.631C89.2204 23.8451 84.9251 26.6091 81.8131 30.4269C78.7164 34.2141 70.7289 43.2416 63.6059 44.6618C63.5444 44.7 57.0552 48.3932 46.9661 44.6365C46.5819 44.3769 43.3623 42.216 39.1054 41.3761C34.9791 40.5591 29.1085 40.9027 24.5749 47.1715C24.5749 47.1715 21.5705 49.7523 17.6747 50.1493C17.4596 50.1569 15.4156 50.2868 14.8163 51.4092C14.5396 51.9207 14.6165 52.524 15.0314 53.2111C15.0314 53.2111 16.9908 58.3422 23.5222 58.808H28.6398C29.1162 58.9683 32.4587 60.0449 36.5697 59.5104L34.9022 63.374C33.8419 65.7562 28.7089 70.2612 16.8448 70.2612H9.50662C9.34526 70.2917 5.59547 71.0018 5.10369 73.888L5.08064 74.0408L5.19591 74.1553C5.90284 74.8577 7.14763 76.0412 7.56257 76.11C7.95445 76.1481 23.6145 75.1174 28.4093 74.789C32.4511 74.1476 39.213 73.0558 39.4742 72.926C39.6279 72.8496 43.5083 70.6506 44.0693 70.0168C44.6225 69.3984 46.0517 66.9245 46.459 66.1075C46.7356 65.5577 48.1879 65.0691 49.0408 64.8858L49.1407 64.8476L51.5612 63.3053C61.1969 60.4496 83.857 53.4173 84.0875 53.3409L84.2028 53.3028L85.6704 50.7067C86.6309 52.4171 87.1919 53.1577 88.4981 54.2419C91.3182 56.5784 94.9834 62.4348 95.0218 62.4883C95.9286 64.3513 96.0669 66.054 95.4214 67.52C94.2534 70.1772 90.8725 71.2309 90.8418 71.2462C83.5573 71.8494 79.4541 73.0558 78.7087 74.8196C78.4859 75.3541 78.6319 75.7816 78.7548 76.0031C78.4167 76.8888 78.4705 77.6294 78.9162 78.2174C79.7691 79.3474 81.9053 79.5536 83.3345 79.5536H83.3422ZM84.7022 78.8816C83.5035 79.0038 80.3224 79.0573 79.4157 77.8509C79.0852 77.408 79.0776 76.8353 79.3926 76.0871L79.4618 75.9191L79.3465 75.774C79.3465 75.774 79.1083 75.4609 79.2927 75.0334C79.6692 74.1706 81.6901 72.6129 90.9724 71.8341C91.1875 71.773 94.7145 70.6811 95.9977 67.7644C96.72 66.1228 96.574 64.2444 95.5751 62.1905C95.406 61.9156 91.8099 56.1661 88.9054 53.7685C87.5453 52.6461 87.0535 51.9437 85.9547 49.9279L85.6858 49.4392L83.7955 52.7912C82.0128 53.3409 60.6052 59.9915 51.3537 62.725L51.2769 62.7631L48.8641 64.2979C48.4338 64.3971 46.3898 64.9011 45.9134 65.8326C45.4677 66.7183 44.0923 69.07 43.6082 69.6122C43.1472 70.1237 39.4665 72.2464 39.1976 72.3762C38.8518 72.4831 32.5125 73.5139 28.3401 74.1782C22.7923 74.5523 8.22341 75.5068 7.63942 75.4991C7.45501 75.4304 6.52524 74.5981 5.74147 73.827C6.24861 71.605 9.28379 70.9255 9.59115 70.8644H16.8448C32.1129 70.8644 35.3402 63.9008 35.4709 63.603L37.5763 58.724L37.023 58.8156C32.597 59.541 28.8396 58.22 28.8011 58.2048L28.6936 58.1895H23.5453C17.4442 57.7543 15.6615 53.1348 15.5847 52.9363C15.2619 52.3941 15.2005 51.9971 15.3618 51.6917C15.7307 50.9969 17.1906 50.7831 17.7285 50.7525C21.8548 50.3326 24.9054 47.6831 25.036 47.5685C28.5706 42.7047 33.2425 40.834 38.9748 41.9641C43.2855 42.8116 46.6203 45.1252 46.6511 45.1481L46.7202 45.1863C56.7786 48.9505 63.2488 45.6471 63.9097 45.2653C70.9482 43.8375 78.4091 35.5655 82.2972 30.8086C85.3323 27.0978 89.5124 24.4025 94.069 23.219C102.852 20.9436 112.457 22.4325 112.557 22.4478C119.864 22.5394 125.043 20.6382 127.971 16.8433C132.205 11.3687 130.184 3.96989 130.099 3.6492C130.099 3.6492 129.907 2.10683 130.683 1.22875C131.044 0.824072 131.598 0.617914 132.259 0.625549L132.351 0.610279C132.351 0.610279 132.62 0.549195 132.95 0.762988C133.373 1.03787 133.941 1.77087 134.249 3.71792C134.264 3.80191 135.493 11.6359 130.53 18.4697C126.818 23.5778 120.663 26.8458 112.226 28.1667L111.842 28.2278L111.996 28.5867C112.05 28.7089 116.967 40.7119 109.821 48.5688L104.442 55.5781C104.373 55.6545 102.437 57.8764 104.642 61.9003C104.673 61.9538 106.325 64.4124 105.61 67.291C105.073 69.4518 103.359 71.3072 100.524 72.8038C100.393 72.9107 92.9856 79.3169 84.7176 78.874L84.7022 78.8816Z" fill="#515151"/>
<path d="M15.9072 53.5179C18.2814 52.5796 17.1491 50.625 17.1491 50.625C17.0687 50.6875 15.2717 50.8752 15.2424 51.6414C15.2132 52.4076 15.8999 53.5179 15.8999 53.5179H15.9072Z" fill="#515151" stroke="#515151" stroke-width="0.8" stroke-miterlimit="10"/>
<path d="M46.3736 49.0127C46.3736 49.0127 46.9462 56.1879 44.9797 57.8572C44.9797 57.8572 37.4226 53.0176 37.0157 44.8394" fill="#FFD4C0"/>
<path d="M45.4065 58.5804L45.5742 58.4314C47.6621 56.6353 47.1211 49.4119 47.0982 49.106L46.4886 49.153C46.641 51.0824 46.7172 56.2354 45.3455 57.7883C44.1568 56.9412 37.9919 52.204 37.6261 44.8394L37.0164 44.8707C37.4356 53.3099 45.1398 58.4079 45.216 58.4549L45.4065 58.5804Z" fill="#515151"/>
<path d="M29.3221 50.1429C28.6807 50.1429 28.1608 49.6248 28.1608 48.9858C28.1608 48.3467 28.6807 47.8286 29.3221 47.8286C29.9635 47.8286 30.4834 48.3467 30.4834 48.9858C30.4834 49.6248 29.9635 50.1429 29.3221 50.1429Z" fill="#515151"/>
<path d="M45.2764 63.6495C36.6527 72.4764 24.8575 73.3174 24.8575 73.3174C17.5776 74.5751 6.5273 74.1584 6.5273 74.1584C0.499147 74.0736 -1.36053e-07 80.0456 -1.36053e-07 80.0456C7.03413 82.3989 15.2355 79.6598 15.2355 79.6598C18.4991 79.3589 47.1271 77.9469 47.1271 77.9469C50.8131 77.862 52.1493 76.6892 52.1493 76.6892L58.7688 72.7156C59.1988 72.4532 59.6979 72.3144 60.2048 72.3144H62.0247C82.866 72.0597 84.7935 54.3211 84.7935 54.3211C84.7935 54.3211 84.8626 53.4107 85.1237 50.0311C85.1237 50.0311 83.3421 42.624 90 39.7769" fill="white"/>
<path d="M6.68025 81.0001C11.4955 81.0001 15.5388 79.6916 15.5924 79.6688C18.7261 79.3874 46.9682 78.0028 47.251 77.9952C50.9733 77.9116 52.3796 76.7248 52.4331 76.6792L58.9758 72.7919C59.358 72.5637 59.8013 72.442 60.2446 72.442H62.056C82.8306 72.191 85.0013 54.6032 85.0166 54.4282L85.3452 50.1454L85.3299 50.0998C85.2611 49.8107 83.6943 43.0099 90 40.3398L89.7631 39.7769C83.2662 42.523 84.5809 49.5216 84.7261 50.1835L84.5045 53.059C84.4382 53.9363 84.4051 54.3801 84.4051 54.3902C84.3898 54.5271 82.265 71.59 62.0484 71.8258H60.2369C59.679 71.8258 59.1287 71.978 58.6548 72.2594L52.0662 76.1771C52.0127 76.2228 50.6981 77.2954 47.2204 77.3791C46.9299 77.3943 18.6803 78.7788 15.4624 79.0755C15.3172 79.1135 7.42929 81.6695 0.664963 79.5471C0.825473 78.4745 1.78089 74.2601 6.70319 74.2601C6.7414 74.2601 6.77961 74.2601 6.82547 74.2601C6.92483 74.2601 17.9312 74.6633 25.1236 73.4233C25.2153 73.4233 37.0548 72.4877 45.6153 63.8003L45.1796 63.3743C36.7873 71.8943 25.1694 72.8072 25.0471 72.8224C17.8854 74.0471 6.94777 73.6516 6.83312 73.6516C6.78726 73.6516 6.74905 73.6516 6.70319 73.6516C0.603824 73.6516 0.0229277 79.6764 0.0229277 79.7373L-1.3411e-06 79.9731L0.2293 80.0492C2.3465 80.749 4.57834 81.0001 6.66497 81.0001H6.68025Z" fill="#515151"/>
</svg>
