<svg width="130" height="123" viewBox="0 0 130 123" fill="none" xmlns="http://www.w3.org/2000/svg">
<path d="M0.819651 54.7556C0.819651 54.7556 5.01878 18.155 54.7301 3.00622C62.9788 0.491401 72.1679 -0.344024 80.7439 0.123899C87.9742 0.519177 95.2718 2.07679 101.625 5.60651C109.2 9.81355 114.131 17.1721 117.713 24.7764C121.643 33.1221 124.748 42.0533 126.895 50.9972C128.386 57.2084 129.402 63.5329 129.844 69.9022C131.168 89.0251 124.167 108.932 104.636 116.039C88.8431 121.784 70.9871 123.527 54.3011 121.769C47.608 121.064 40.9865 119.652 34.6445 117.417C34.6445 117.417 -6.24173 107.396 0.819651 54.7534V54.7556Z" fill="white"/>
<path d="M1.21882 54.807L1.31328 54.8124C1.31637 54.8127 1.31637 54.8128 1.31637 54.8128L1.31639 54.8126L1.31644 54.8121L1.31689 54.8084L1.31902 54.791C1.32101 54.7751 1.32418 54.7505 1.32867 54.7174C1.33766 54.6511 1.35196 54.551 1.37283 54.4188C1.41458 54.1543 1.48259 53.7613 1.58692 53.254C1.7956 52.2394 2.14948 50.7677 2.72884 48.952C3.88763 45.3204 5.94778 40.3146 9.55087 34.8364C16.7517 23.8883 30.1339 11.0242 54.8758 3.48451L54.8759 3.48449C63.059 0.989667 72.1882 0.157827 80.7166 0.623157C87.8979 1.01575 95.115 2.56168 101.382 6.04358L101.382 6.04362C108.821 10.1755 113.696 17.4215 117.26 24.9895C121.176 33.3033 124.27 42.2021 126.409 51.1139C127.894 57.3005 128.905 63.5974 129.345 69.9368C130.661 88.9473 123.699 108.571 104.465 115.569C88.7516 121.285 70.9729 123.023 54.3535 121.272C47.6952 120.57 41.1122 119.166 34.8107 116.945L34.7874 116.937L34.7636 116.931C34.7637 116.931 34.7635 116.931 34.6445 117.417L34.7635 116.931L1.21882 54.807Z" stroke="#5F231B" stroke-opacity="0.5"/>
</svg>
