<svg width="333" height="316" viewBox="0 0 333 316" fill="none" xmlns="http://www.w3.org/2000/svg">
<path d="M192.085 8.23729L192.232 7.75944L192.085 8.23727C171.084 1.76659 147.677 -0.386077 125.823 0.819041C107.407 1.83655 88.8507 5.84498 72.7127 14.9071L72.4679 14.4711L72.7126 14.9071C53.5024 25.6901 40.9644 44.5703 31.834 64.1623C21.8108 85.6719 13.8921 108.692 8.4158 131.746C4.6145 147.753 2.02377 164.05 0.896973 180.461C-2.47662 229.71 15.3669 280.808 64.9487 299.041C105.203 313.841 150.728 318.336 193.274 313.804C210.333 311.988 227.204 308.35 243.361 302.596L243.384 302.588L243.408 302.582L243.428 302.663C243.408 302.582 243.408 302.582 243.409 302.582L243.412 302.581L243.425 302.578L243.479 302.564C243.507 302.557 243.542 302.548 243.586 302.536C243.619 302.527 243.656 302.517 243.697 302.506C243.891 302.454 244.179 302.374 244.556 302.264C245.309 302.043 246.415 301.702 247.817 301.218C250.621 300.251 254.612 298.717 259.346 296.452C268.816 291.922 281.256 284.472 293.133 272.794C316.868 249.456 338.415 209.178 329.418 141.391L329.47 141.384L329.417 141.387L329.627 141.364L329.627 141.364C329.417 141.387 329.417 141.387 329.417 141.387L329.416 141.384L329.415 141.373L329.409 141.324C329.404 141.28 329.395 141.214 329.383 141.125C329.36 140.949 329.322 140.685 329.268 140.338C329.16 139.643 328.984 138.617 328.715 137.295C328.177 134.651 327.266 130.825 325.777 126.11C322.8 116.678 317.51 103.69 308.263 89.4808C289.774 61.071 255.449 27.7524 192.085 8.23729Z" fill="white" stroke="#5F231B"/>
</svg>
