<svg width="42" height="43" viewBox="0 0 42 43" fill="none" xmlns="http://www.w3.org/2000/svg">
<path d="M1 41L11.2941 14L29 30.9254L1 41Z" fill="#FFD4C0"/>
<path d="M24.3531 17.836C24.075 17.836 23.7981 17.6939 23.6295 17.4656C23.3548 17.0919 23.3905 16.5838 23.7155 16.2571C24.1655 15.805 24.7294 15.5946 25.4898 15.5946C25.5545 15.5946 25.6193 15.5957 25.6852 15.5991C25.9163 15.6092 26.153 15.6394 26.4043 15.6718C26.5271 15.6875 26.6544 15.7032 26.7862 15.7177C26.7984 15.7188 26.8107 15.7199 26.823 15.7199C26.9123 15.7199 26.9983 15.6841 27.062 15.6192C27.1334 15.5454 27.168 15.4435 27.1558 15.3417L27.1491 15.2902C27.005 14.1656 26.8699 13.1037 27.6917 12.2745C28.1529 11.8101 28.6989 11.6031 29.4627 11.6031C29.8836 11.6031 30.3392 11.6669 30.7702 11.7318C30.787 11.734 30.8037 11.7351 30.8205 11.7351C30.9076 11.7351 30.9924 11.7016 31.055 11.6389C31.1298 11.565 31.1666 11.4598 31.1521 11.3547C30.9913 10.1428 30.8517 9.09536 31.6993 8.25722C32.1548 7.80626 32.6964 7.60595 33.4568 7.60595C33.8867 7.60595 34.3546 7.66974 34.7666 7.72681C34.7822 7.72904 34.7967 7.73016 34.8124 7.73016C34.9017 7.73016 34.9877 7.69435 35.0513 7.63057C35.125 7.5556 35.1596 7.44929 35.144 7.34522C34.9497 6.05276 34.8738 5.07474 35.6822 4.27017C36.1456 3.80913 36.6883 3.60323 37.442 3.60323C37.863 3.60323 38.3174 3.66925 38.7462 3.73975C38.7641 3.74311 38.783 3.74423 38.8009 3.74423C38.8869 3.74423 38.9706 3.71066 39.0332 3.65023C39.1091 3.57638 39.1459 3.47119 39.1325 3.366L39.1002 3.12429C39.0789 2.96092 39.0577 2.80649 39.0399 2.65319C38.9494 1.89673 39.0253 1.30925 39.2788 0.802335C39.4642 0.433059 39.7255 0.17009 40.0783 0H40.5116C40.8957 0.195828 41.1089 0.38718 41.1804 0.598674C41.2597 0.833667 41.1882 1.16154 40.9537 1.63041C40.8041 1.9303 40.8443 2.29398 40.8767 2.58716L40.8812 2.62857C40.9068 2.86244 40.9482 3.09296 40.9895 3.31564C41.0431 3.61442 41.0944 3.89529 41.1078 4.17617C41.1324 4.67301 41.014 5.07362 40.765 5.33547C40.5283 5.58501 40.1632 5.71593 39.7087 5.71593C39.6641 5.71593 39.6183 5.71481 39.5725 5.71258C39.2062 5.69243 38.8411 5.62529 38.4559 5.55368C38.2906 5.52346 38.1265 5.49213 37.9612 5.46527C37.7848 5.43618 37.6497 5.42275 37.5369 5.42275C37.4442 5.42275 37.1595 5.42275 36.9764 5.6432C36.7754 5.88379 36.8178 6.23068 36.877 6.56639C36.9004 6.69955 36.9261 6.83271 36.9507 6.96587C37.0188 7.32844 37.0903 7.70219 37.1282 8.06699C37.1818 8.57614 37.0713 8.99801 36.8111 9.28895C36.5621 9.56647 36.1813 9.71194 35.7101 9.71194C35.6811 9.71194 35.6509 9.71194 35.6219 9.7097C35.2702 9.69627 34.9196 9.63361 34.5489 9.56871C34.3311 9.52954 34.1056 9.49038 33.88 9.46128C33.7181 9.44002 33.6031 9.43107 33.507 9.43107C33.3541 9.43107 33.133 9.45233 32.98 9.63249C32.7991 9.84622 32.8282 10.1405 32.8817 10.4762C32.9164 10.6911 32.9566 10.9059 32.9956 11.1141C33.0403 11.3502 33.085 11.593 33.1218 11.8314C33.2134 12.4423 33.1107 12.9414 32.8226 13.2771C32.568 13.5737 32.1705 13.7314 31.6725 13.7314C31.5396 13.7314 31.4 13.7203 31.256 13.6979C31.0248 13.6621 30.7881 13.6184 30.5603 13.5748C30.2901 13.5244 30.0121 13.4718 29.7318 13.4316C29.6413 13.4181 29.5643 13.4125 29.4962 13.4125C29.2874 13.4125 29.1255 13.4752 29.0138 13.5994C28.8485 13.784 28.8519 14.0414 28.8742 14.2451C28.901 14.4935 28.9457 14.7374 28.9881 14.9736C29.0261 15.1795 29.0607 15.373 29.0853 15.57C29.121 15.852 29.1545 16.1843 29.1355 16.5077C29.0964 17.1691 28.6677 17.6346 28.068 17.667C27.9954 17.6704 27.924 17.6726 27.8514 17.6726C27.3824 17.6726 26.89 17.5976 26.4132 17.526C26.3272 17.5126 26.2413 17.5003 26.1553 17.488C25.9989 17.4656 25.8326 17.4443 25.664 17.4443C25.3267 17.4443 25.0442 17.5294 24.774 17.7107C24.6512 17.7924 24.506 17.836 24.3531 17.836Z" fill="#5F231B"/>
<path d="M0.89336 42.2113C0.658872 42.2113 0.453415 42.1162 0.264707 41.9226C-0.0155624 41.635 -0.071393 41.3049 0.0882826 40.883C0.329471 40.2485 0.565076 39.6129 0.801798 38.9762C0.943608 38.5935 1.08653 38.2097 1.22946 37.827C4.34369 29.5037 7.45904 21.1805 10.5744 12.8561L10.5956 12.7991C10.6358 12.6905 10.6738 12.5887 10.7184 12.4936C10.8803 12.1489 11.1896 11.9419 11.5458 11.9419C11.7669 11.9419 11.9802 12.0236 12.1645 12.1769C12.237 12.2384 12.3085 12.3101 12.3833 12.3861L15.0408 15.0494C19.8557 19.8735 24.8335 24.8609 29.7221 29.7757C29.894 29.9491 30.028 30.1785 30.1341 30.3643C30.1576 30.4057 30.1799 30.4437 30.2011 30.4784C30.1899 31.0211 29.9767 31.3445 29.5188 31.5191C28.4246 31.9365 27.3091 32.355 26.2315 32.7589L25.0312 33.2088L1.64037 41.9998C1.53541 42.039 1.42933 42.0804 1.32437 42.1206C1.1714 42.1811 1.02624 42.2113 0.89336 42.2113ZM4.41292 35.1872C4.39841 35.1872 4.38501 35.1883 4.37049 35.1895C4.24767 35.2051 4.1427 35.2879 4.09916 35.4054L2.75029 39.0243C2.70451 39.1474 2.73466 39.2862 2.82733 39.379C2.89098 39.4428 2.97696 39.4775 3.06406 39.4775C3.10314 39.4775 3.14334 39.4708 3.1813 39.4563L6.25869 38.2981C6.35583 38.2612 6.43064 38.1817 6.46079 38.0832C6.49094 37.9836 6.47419 37.8762 6.41501 37.7912L4.68649 35.3293C4.62396 35.2398 4.52124 35.1872 4.41292 35.1872ZM8.63819 24.0183C8.51983 24.0183 8.40928 24.081 8.34898 24.185C8.32777 24.222 8.30879 24.2511 8.29315 24.2768C8.2563 24.3361 8.22169 24.3909 8.19601 24.4614L7.96487 25.078C7.11289 27.3496 6.23189 29.6984 5.37656 32.0137C5.28723 32.2565 5.33636 32.5542 5.42569 32.741C6.13809 34.2394 7.0794 35.6852 8.22504 37.0381C8.32777 37.1589 8.49526 37.3201 8.75766 37.3201C8.85369 37.3201 8.95419 37.2977 9.06473 37.2529C9.4857 37.0806 9.92229 36.9183 10.3444 36.7606C10.4862 36.708 10.6269 36.6554 10.7687 36.6028C11.4822 36.3342 12.1968 36.0668 12.9327 35.7915L13.9521 35.4099C14.0549 35.3719 14.1319 35.2857 14.1587 35.1794C14.1855 35.0731 14.1598 34.9601 14.0884 34.8772C11.423 31.7686 9.7481 28.3053 8.9687 24.2914C8.94191 24.1537 8.83359 24.0474 8.69513 24.0239C8.67504 24.0194 8.65605 24.0183 8.63819 24.0183ZM12.045 14.792C12.0215 14.792 11.9981 14.7943 11.9735 14.7999C11.8618 14.8245 11.7703 14.9039 11.7312 15.0102C11.6307 15.281 11.5302 15.5474 11.432 15.8092C11.1673 16.5142 10.9183 17.18 10.6738 17.857C10.5833 18.1088 10.5241 18.3807 10.4962 18.6649C10.3399 20.3021 10.4248 21.9806 10.7586 23.7979C11.4766 27.7111 13.1996 31.1856 15.8794 34.123C16.0581 34.3189 16.249 34.4151 16.4634 34.4151C16.5807 34.4151 16.699 34.3871 16.8375 34.3267C17.0831 34.2193 17.3333 34.1297 17.5979 34.0346C17.7296 33.9876 17.8603 33.9406 17.9909 33.8914C18.9244 33.54 19.8568 33.1875 20.7925 32.835L21.8098 32.4512C21.9047 32.4154 21.9784 32.3382 22.0096 32.2408C22.0409 32.1446 22.0275 32.0383 21.9717 31.9533C21.8209 31.7227 21.6691 31.4956 21.5194 31.2707C21.1934 30.7828 20.8852 30.3217 20.5993 29.8406C18.9188 27.0039 17.905 23.9389 17.5856 20.7306C17.5443 20.3155 17.3846 19.9854 17.082 19.6933C16.4589 19.0902 15.837 18.4624 15.2351 17.8559C15.004 17.6231 14.7729 17.3893 14.5406 17.1565L12.2828 14.8905C12.2192 14.8267 12.1332 14.792 12.045 14.792ZM20.2878 23.2059C20.2286 23.2059 20.1694 23.2216 20.117 23.2529C19.9852 23.3312 19.9238 23.4901 19.9673 23.6367C19.9986 23.7408 20.0299 23.8493 20.0611 23.9612C20.1359 24.2186 20.213 24.4861 20.3001 24.7546C21.0594 27.0867 22.2061 29.2273 23.7069 31.1185C23.8185 31.2583 24.0731 31.4665 24.3188 31.4665C24.3679 31.4665 24.4148 31.4587 24.4595 31.443C25.1462 31.2046 25.824 30.9473 26.4783 30.6977C26.6637 30.6272 26.8479 30.5567 27.0299 30.4885C27.136 30.4482 27.2153 30.3564 27.2387 30.2445C27.2622 30.1326 27.2287 30.0174 27.1483 29.9368L20.5234 23.3033C20.4609 23.2395 20.3749 23.2059 20.2878 23.2059Z" fill="#5F231B"/>
<path d="M29.6774 23.1513C29.5635 23.1513 29.4485 23.1278 29.3268 23.0797C28.9873 22.9466 28.8053 22.6937 28.7707 22.3076C28.745 22.02 28.8399 21.7749 29.0599 21.5579C31.4651 19.1833 34.0355 17.8707 36.9175 17.5439C37.1799 17.5137 37.4423 17.5025 37.7192 17.4902C37.8488 17.4846 37.9783 17.479 38.1067 17.4712C38.1536 17.469 38.1971 17.4567 38.2362 17.4365C38.4193 17.4623 38.6014 17.4869 38.7845 17.5115C39.3227 17.5831 39.8799 17.657 40.4136 17.7689C40.7296 17.8349 40.9686 17.9882 41.107 18.212C41.2332 18.4168 41.2634 18.6652 41.1941 18.9304C41.0858 19.3411 40.7553 19.5772 40.2874 19.5772C40.1758 19.5772 40.0597 19.5638 39.9391 19.5369C39.2847 19.3926 38.6248 19.3187 37.9794 19.3187C36.2542 19.3187 34.5469 19.8402 32.9044 20.8685C32.2099 21.3038 31.5767 21.841 30.9648 22.3613C30.7717 22.5258 30.5774 22.6903 30.3831 22.8514C30.1352 23.0517 29.9052 23.1513 29.6774 23.1513Z" fill="#5F231B"/>
<path d="M19.893 13.3891C19.6685 13.3891 19.4564 13.2962 19.2799 13.1205C18.9148 12.7568 18.9405 12.2029 19.3413 11.7407L19.5557 11.4946C20.0694 10.906 20.5998 10.2972 21.0475 9.63588C22.4277 7.59032 23.0117 5.40152 22.785 3.12768C22.7548 2.82219 22.6901 2.52453 22.6287 2.23694C22.613 2.16645 22.5985 2.09595 22.584 2.02657C22.4824 1.53756 22.7459 1.06645 23.197 0.931052C23.2886 0.903077 23.3835 0.889648 23.4795 0.889648C23.8212 0.889648 24.2098 1.07317 24.3103 1.48273C24.4554 2.08028 24.5515 2.70805 24.6453 3.31456C24.6843 3.57305 24.7245 3.83154 24.7681 4.08892C24.6252 7.26245 23.4025 10.0611 21.0297 12.6449C20.9269 12.7568 20.813 12.8754 20.6623 13.0287C20.43 13.2593 20.1565 13.3891 19.893 13.3891Z" fill="#5F231B"/>
<path d="M36.7665 26.7121C36.5275 26.7121 36.2986 26.6148 36.1222 26.4391C35.9458 26.2623 35.8486 26.0329 35.8486 25.7923C35.8486 25.2999 36.2662 24.8803 36.7609 24.877C37.2712 24.877 37.6687 25.272 37.6754 25.7778C37.681 26.297 37.3002 26.6998 36.7899 26.7121H36.7665Z" fill="#5F231B"/>
<path d="M17.2571 7.1674C16.7535 7.15957 16.347 6.74329 16.3526 6.23862C16.3571 5.73618 16.7602 5.34229 17.2693 5.34229C17.5284 5.34452 17.7595 5.44188 17.9304 5.61533C18.0979 5.78653 18.1883 6.01481 18.185 6.25876C18.1783 6.75113 17.7595 7.1674 17.2716 7.1674H17.2571Z" fill="#5F231B"/>
<path d="M29.6785 5.38015C29.1738 5.38015 28.7718 4.98626 28.7629 4.4827C28.7584 4.23987 28.8499 4.00935 29.0197 3.83479C29.1905 3.6591 29.4183 3.55951 29.664 3.55615H29.6807C30.1809 3.55615 30.5785 3.95228 30.584 4.45696C30.5907 4.9773 30.2066 5.37455 29.6919 5.38127L29.6785 5.38015Z" fill="#5F231B"/>
<path d="M38.5368 14.2687C38.2933 14.2676 38.0644 14.1702 37.8925 13.9968C37.7205 13.8233 37.6267 13.5939 37.6289 13.35C37.6323 12.8475 38.0421 12.438 38.5423 12.438C39.0504 12.4413 39.4568 12.8543 39.4546 13.3589C39.4524 13.8603 39.0426 14.2676 38.5435 14.2676H38.5368V14.2687Z" fill="#5F231B"/>
</svg>
