<svg width="1922" height="37" viewBox="0 0 1922 37" fill="none" xmlns="http://www.w3.org/2000/svg">
<path d="M0 8H1922V37H0V8Z" fill="#FFFAF6"/>
<path fill-rule="evenodd" clip-rule="evenodd" d="M0.500516 21.0195C0.333531 21.0195 0.166691 21.0189 0 21.0177V0H1922V17.4055C1916.94 15.6489 1912.17 13.2906 1907.76 10.4162C1893.3 22.2681 1869.2 30.0288 1841.92 30.0288C1821.6 30.0288 1803.05 25.7256 1788.93 18.6343C1783.33 20.1888 1777.44 21.0195 1771.34 21.0195C1760.93 21.0195 1751.08 18.5911 1742.33 14.2695C1727.65 23.9219 1705.95 30.0288 1681.75 30.0288C1661.26 30.0288 1642.57 25.652 1628.4 18.4526C1622.62 20.1239 1616.5 21.0195 1610.18 21.0195C1599.99 21.0195 1590.34 18.6956 1581.74 14.5489C1567.06 24.0396 1545.55 30.0288 1521.58 30.0288C1500.92 30.0288 1482.08 25.5762 1467.87 18.2656C1461.9 20.057 1455.56 21.0195 1449.01 21.0195C1439.05 21.0195 1429.6 18.7977 1421.15 14.8225C1406.48 24.1545 1385.15 30.0288 1361.42 30.0288C1340.57 30.0288 1321.58 25.498 1307.33 18.0732C1301.18 19.988 1294.63 21.0195 1287.84 21.0195C1278.1 21.0195 1268.86 18.8973 1260.55 15.0902C1245.9 24.2668 1224.76 30.0288 1201.25 30.0288C1180.22 30.0288 1161.08 25.4175 1146.79 17.8757C1140.45 19.917 1133.69 21.0195 1126.67 21.0195C1117.16 21.0195 1108.12 18.9946 1099.97 15.3523C1085.33 24.3764 1064.37 30.0288 1041.08 30.0288C1019.86 30.0288 1000.57 25.3348 986.241 17.6729C979.724 19.8439 972.752 21.0195 965.505 21.0195C956.22 21.0195 947.385 19.0895 939.381 15.6088C924.768 24.4833 903.981 30.0288 880.917 30.0288C859.505 30.0288 840.056 25.2497 825.688 17.4648C818.995 19.7686 811.812 21.0195 804.337 21.0195C795.277 21.0195 786.647 19.1822 778.798 15.8597C764.208 24.5877 743.596 30.0288 720.75 30.0288C699.144 30.0288 679.536 25.1623 665.13 17.2514C658.264 19.6913 650.872 21.0195 643.169 21.0195C634.335 21.0195 625.909 19.2725 618.218 16.1051C603.653 24.6896 583.215 30.0288 560.583 30.0288C538.779 30.0288 519.009 25.0725 504.568 17.0328C497.532 19.6119 489.931 21.0195 482.002 21.0195C473.393 21.0195 465.172 19.3606 457.641 16.3451C443.104 24.789 422.836 30.0288 400.417 30.0288C378.41 30.0288 358.477 24.9804 344.002 16.8089C336.799 19.5303 328.99 21.0195 320.834 21.0195C312.451 21.0195 304.436 19.4465 297.068 16.5797C282.561 24.8859 262.461 30.0288 240.25 30.0288C218.039 30.0288 197.939 24.8859 183.432 16.5797C176.064 19.4465 168.049 21.0195 159.666 21.0195C151.51 21.0195 143.701 19.5303 136.498 16.8089C122.023 24.9804 102.09 30.0288 80.0833 30.0288C58.077 30.0288 38.1438 24.9804 23.6687 16.8089C16.4652 19.5303 8.65679 21.0195 0.500516 21.0195Z" fill="#F7ECE3"/>
</svg>
