<svg width="92" height="54" viewBox="0 0 92 54" fill="none" xmlns="http://www.w3.org/2000/svg">
<rect x="73.9287" y="33.9927" width="4.55582" height="12.7563" rx="2.27791" fill="#A28977"/>
<path d="M73.964 12.9404C74.7028 11.4727 76.7982 11.4726 77.537 12.9404L87.7058 33.1435C88.3753 34.4736 87.4084 36.0426 85.9193 36.0426H65.5817C64.0926 36.0426 63.1257 34.4736 63.7952 33.1435L73.964 12.9404Z" fill="#79AB03"/>
<path d="M53.6846 39.5518C53.6846 38.2938 54.7044 37.2739 55.9625 37.2739V37.2739C57.2205 37.2739 58.2404 38.2938 58.2404 39.5518V45.93C58.2404 47.188 57.2205 48.2079 55.9625 48.2079V48.2079C54.7044 48.2079 53.6846 47.188 53.6846 45.93V39.5518Z" fill="#A28977"/>
<path fill-rule="evenodd" clip-rule="evenodd" d="M57.7477 1.62748C57.008 0.163237 54.9172 0.163237 54.1774 1.62748L43.6195 22.5269C42.9474 23.8572 43.9142 25.4287 45.4046 25.4287H46.3009L40.402 37.1055C39.73 38.4358 40.6968 40.0073 42.1872 40.0073H68.8268C70.3172 40.0073 71.284 38.4358 70.6119 37.1055L64.7131 25.4287H66.5206C68.011 25.4287 68.9778 23.8572 68.3057 22.5269L57.7477 1.62748Z" fill="#317F46"/>
<rect width="4.55582" height="12.7563" rx="2.27791" transform="matrix(-1 0 0 1 17.3115 40.416)" fill="#A28977"/>
<path d="M17.2762 19.3637C16.5374 17.896 14.442 17.896 13.7032 19.3637L3.53443 39.5668C2.86495 40.8969 3.83181 42.466 5.3209 42.466H25.6585C27.1476 42.466 28.1145 40.8969 27.445 39.5668L17.2762 19.3637Z" fill="#317F46"/>
<path d="M36.8467 45.0303C36.8467 43.7723 35.8268 42.7524 34.5688 42.7524V42.7524C33.3107 42.7524 32.2909 43.7723 32.2909 45.0303V51.4085C32.2909 52.6665 33.3107 53.6864 34.5688 53.6864V53.6864C35.8268 53.6864 36.8467 52.6665 36.8467 51.4085V45.0303Z" fill="#A28977"/>
<path fill-rule="evenodd" clip-rule="evenodd" d="M32.7835 7.10599C33.5232 5.64175 35.6141 5.64175 36.3538 7.10599L46.9118 28.0054C47.5838 29.3357 46.617 30.9072 45.1267 30.9072H44.2303L50.1292 42.584C50.8012 43.9143 49.8345 45.4858 48.3441 45.4858H21.7044C20.2141 45.4858 19.2473 43.9143 19.9193 42.584L25.8182 30.9072H24.0107C22.5203 30.9072 21.5535 29.3357 22.2255 28.0054L32.7835 7.10599Z" fill="#79AB03"/>
</svg>
