<svg width="57" height="55" viewBox="0 0 57 55" fill="none" xmlns="http://www.w3.org/2000/svg">
<rect width="5.13021" height="14.5535" rx="2.5" transform="matrix(-1 0 0 1 19.4949 39.8594)" fill="#A28977"/>
<path d="M19.2339 15.3964C18.4985 13.9162 16.387 13.9162 15.6516 15.3964L3.77259 39.3076C3.1121 40.6371 4.07921 42.1975 5.56373 42.1975H29.3218C30.8063 42.1975 31.7734 40.6371 31.113 39.3076L19.2339 15.3964Z" fill="#317F46"/>
<path d="M41.4924 45.0254C41.4924 43.6447 40.3731 42.5254 38.9924 42.5254H38.8622C37.4815 42.5254 36.3622 43.6447 36.3622 45.0254V52.4998C36.3622 53.8805 37.4815 54.9998 38.8622 54.9998H38.9924C40.3731 54.9998 41.4924 53.8805 41.4924 52.4998V45.0254Z" fill="#A28977"/>
<path fill-rule="evenodd" clip-rule="evenodd" d="M37.1373 1.41418C37.8737 -0.0625432 39.9807 -0.0625383 40.717 1.41419L53.0351 26.1183C53.6981 27.448 52.731 29.0107 51.2452 29.0107H49.807L56.6581 42.7509C57.3211 44.0805 56.3541 45.6433 54.8683 45.6433H24.0121C22.5263 45.6433 21.5593 44.0805 22.2223 42.7509L29.0735 29.0107H26.6091C25.1233 29.0107 24.1563 27.4479 24.8193 26.1183L37.1373 1.41418Z" fill="#79AB03"/>
</svg>
