<svg width="358" height="215" viewBox="0 0 358 215" fill="none" xmlns="http://www.w3.org/2000/svg">
<g clip-path="url(#clip0_2439_59480)">
<path d="M130.533 102.681L161.645 119.016L151.857 85.2832L130.533 102.681Z" fill="#FFD4C0"/>
<path d="M102.939 119.735L131.302 140.471L126.6 105.669L102.939 119.735Z" fill="#FD7B46"/>
<path d="M73.7679 133.472L99.5977 157.289L98.8742 122.178L73.7679 133.472Z" fill="#FFD4C0"/>
<path d="M14.7011 148.893L33.1053 178.823L41.9263 144.831L14.7011 148.893Z" fill="#FD7B46"/>
<path d="M44.6182 144.238L68.0703 170.397L70.6616 135.368L44.6182 144.238Z" fill="#F1C476"/>
<path d="M0.471947 147.658C18.0181 150.38 45.5108 148.338 85.2749 129.27C132.537 106.608 156.807 83.0358 168.699 67.6633" stroke="#515151" stroke-width="0.93" stroke-miterlimit="10"/>
</g>
<g clip-path="url(#clip1_2439_59480)">
<path d="M204.731 86.9179L179.243 116.388L175.671 77.6072L204.731 86.9179Z" fill="#FFD4C0"/>
<path d="M240.121 93.332L219.256 126.23L210 88.4069L240.121 93.332Z" fill="#FD7B46"/>
<path d="M275.795 95.6842L258.793 130.734L245.307 94.2057L275.795 95.6842Z" fill="#FFD4C0"/>
<path d="M343.006 87.6549L336.145 126.004L313.262 94.4986L343.006 87.6549Z" fill="#FD7B46"/>
<path d="M310.243 94.9786L296.644 131.482L279.77 96.3812L310.243 94.9786Z" fill="#F1C476"/>
<path d="M357.354 81.8436C334.1 92.7015 295.118 100.959 232.236 90.5386C157.497 78.1546 114.302 55.23 91.5946 38.6923" stroke="#515151" stroke-width="0.93" stroke-miterlimit="10"/>
</g>
<defs>
<clipPath id="clip0_2439_59480">
<rect width="174.871" height="96.2705" fill="white" transform="matrix(-0.694927 0.719081 0.719081 0.694927 121.522 22)"/>
</clipPath>
<clipPath id="clip1_2439_59480">
<rect width="193.895" height="106.744" fill="white" transform="translate(181.323) rotate(24.534)"/>
</clipPath>
</defs>
</svg>
