<svg width="76" height="73" viewBox="0 0 76 73" fill="none" xmlns="http://www.w3.org/2000/svg">
<path d="M30.3822 53.9006L24.0046 53.3106L18.196 61.8858" fill="white"/>
<path d="M18.3503 61.9904L24.1005 53.507L30.3661 54.0838L30.3993 53.715L23.9137 53.119L18.0428 61.7825L18.3503 61.9904Z" fill="#515151"/>
<path d="M53.063 57.0769C53.0653 57.1213 53.0675 57.1657 53.0735 57.21C53.4814 59.6137 64.6857 65.5068 64.6857 65.5068C64.6689 67.5893 65.7722 67.5998 65.7722 67.5998C68.3615 67.8438 68.3215 65.8864 68.3215 65.8864L55.2357 52.6986C55.2357 52.6986 53.0754 54.2487 53.063 57.0769Z" fill="white"/>
<path d="M66.3949 67.8046C67.0283 67.7745 67.5386 67.5869 67.9073 67.2428C68.5136 66.6795 68.5046 65.9155 68.5029 65.8822L68.4991 65.8082L55.249 52.4575L55.12 52.549C55.0267 52.6128 52.8824 54.1844 52.8697 57.0794C52.8723 57.1312 52.8751 57.1868 52.8853 57.2419C53.2877 59.6088 63.3076 64.9906 64.4943 65.6205C64.5035 66.4587 64.6941 67.0693 65.0622 67.4451C65.3872 67.7747 65.7294 67.7881 65.7667 67.79C65.9867 67.8092 66.1951 67.8179 66.3914 67.8085L66.3949 67.8046ZM68.1318 65.9593C68.1186 66.138 68.0426 66.6166 67.6524 66.9766C67.248 67.3484 66.6206 67.497 65.7886 67.4179C65.7366 67.4167 64.8538 67.3623 64.8712 65.5098L64.8729 65.3984L64.7736 65.3437C61.6798 63.7174 53.5799 59.0753 53.2609 57.1795C53.2555 57.1464 53.2538 57.1131 53.2521 57.0797C53.261 54.7675 54.7768 53.3223 55.2257 52.9484L68.1392 65.9589L68.1318 65.9593Z" fill="#515151" stroke="#515151" stroke-width="0.5"/>
<path d="M30.3828 53.9033C30.3292 54.0914 28.291 61.0503 23.5752 63.5425L26.4762 67.5088C26.4762 67.5088 28.6713 66.6397 29.6402 68.8276C29.6402 68.8276 29.8635 70.2271 27.4357 70.0979L25.381 70.0734L18.4429 65.0711C18.4429 65.0711 17.0175 63.547 18.2752 61.7688" fill="white"/>
<path d="M30.3828 53.9033C30.3292 54.0914 28.291 61.0503 23.5752 63.5425L26.4762 67.5088C26.4762 67.5088 28.6713 66.6397 29.6402 68.8276C29.6402 68.8276 29.8635 70.2271 27.4357 70.0979L25.381 70.0734L18.4429 65.0711C18.4429 65.0711 17.0175 63.547 18.2752 61.7688" stroke="#515151" stroke-width="0.5"/>
<path d="M27.9799 70.2866C28.6912 70.2528 29.2088 70.0611 29.5215 69.7122C29.8941 69.2974 29.8252 68.8182 29.8206 68.7999L29.8072 68.756C28.9222 66.7571 27.0663 67.1387 26.5431 67.2935L23.8495 63.6069C28.5649 60.9626 30.5411 54.0252 30.5636 53.9573L30.2057 53.8556C30.187 53.927 28.2048 60.8907 23.489 63.3828L23.3009 63.4809L26.4134 67.7376L26.5482 67.6866C26.6319 67.6529 28.5739 66.9184 29.4609 68.8838C29.4647 68.9578 29.4675 69.2323 29.2459 69.4767C28.9363 69.8143 28.3164 69.9663 27.4488 69.9186L25.4461 69.8953L18.5544 64.928C18.5267 64.8959 17.2756 63.5119 18.4295 61.8835L18.1252 61.6679C16.7946 63.546 18.2926 65.1854 18.3084 65.2032L25.3198 70.2613L27.4341 70.2867C27.6276 70.296 27.8097 70.2985 27.9801 70.2903L27.9799 70.2866Z" fill="#515151" stroke="#515151" stroke-width="0.5"/>
<path d="M54.9394 37.7195C54.3602 37.7916 53.7755 37.7564 53.2049 37.6315C52.4202 37.4574 51.0597 37.2774 49.0273 37.3891L21.7514 38.6889C21.7514 38.6889 17.6692 38.7907 16.0137 36.7474C16.0137 36.7474 6.42451 18.5355 3.61155 17.8979C3.61155 17.8979 0.278548 16.6692 1.31944 19.4763C1.31944 19.4763 4.10277 21.1393 6.7346 26.3267L13.3963 38.4267C13.3963 38.4267 14.3199 42.1409 13.197 44.1533C13.197 44.1533 11.7495 47.8173 13.7323 51.4811C13.7323 51.4811 14.9593 57.956 9.09486 59.9532C9.09486 59.9532 6.27218 65.56 9.55106 70.5496C9.55106 70.5496 9.55372 71.4065 12.048 70.5938C12.048 70.5938 13.1943 69.8454 11.5173 68.9867C11.5173 68.9867 10.9293 64.6443 12.7144 62.8044C12.7144 62.8044 23.0223 62.1907 25.5882 56.3513C25.5882 56.3513 26.0763 53.7533 28.8712 53.7425C28.8712 53.7425 39.1374 54.3552 45.5101 53.521C45.5101 53.521 46.4042 53.4375 47.0885 53.2417C47.0885 53.2417 47.9332 60.2282 49.3366 62.9364L51.3226 69.8092C51.4396 70.2118 51.817 70.4795 52.2318 70.4597L55.7241 70.2933C56.1352 70.2737 56.4838 69.9751 56.556 69.5673C56.7116 68.6843 56.4969 67.2328 53.5434 66.8986C53.5434 66.8986 51.2891 57.0817 55.5347 52.9579C55.5347 52.9579 58.6159 51.7871 59.3693 49.5882C59.3889 49.5354 59.4036 49.3863 59.4159 49.1891C59.4487 48.7386 59.975 48.502 60.3239 48.7933C61.0215 49.3722 62.2497 49.9444 64.3775 49.8838C64.7371 49.8741 65.0941 49.8126 65.4375 49.7035C66.2045 49.4554 67.9001 48.9962 69.3341 49.2358C71.0115 49.5157 72.3845 47.97 72.1313 46.5648C72.1313 46.5648 73.7906 45.4655 72.472 44.4265C72.472 44.4265 71.1028 44.002 70.7763 43.2013C70.4498 42.4007 70.766 42.9978 70.766 42.9978C70.766 42.9978 71.6723 39.7899 67.3272 38.0752C67.3689 37.9471 68.2106 34.9278 68.1467 34.9123C68.0828 34.8968 65.428 35.3275 61.9484 36.7696C61.9484 36.7696 59.8552 37.5854 56.4863 37.6235C56.4863 37.6235 55.7693 37.6132 54.939 37.7121L54.9394 37.7195Z" fill="white"/>
<path d="M58.7784 44.3939C68.1743 46.8036 70.4482 43.2297 70.4107 41.1416C70.3097 39.8444 68.2483 38.5431 67.2302 38.0545L67.7629 35.2547C66.959 35.2144 63.9586 36.2079 62.5589 36.7097C60.7382 37.749 55.3897 37.8306 52.9431 37.7415C49.8342 37.0202 33.5564 38.081 25.806 38.7016C17.203 40.0466 15.3155 36.333 14.1545 33.6753C10.4395 25.1709 5.44295 19.5431 3.40905 17.7922C1.03483 16.8655 1.22187 18.6247 1.61217 19.6201C2.86846 20.3292 5.24066 23.9073 6.26972 25.6078L13.2691 37.5679L13.8277 40.7253L13.2951 43.5251L12.6293 47.0248C16.1907 48.4149 32.0225 49.4448 39.4932 49.786C47.915 50.6123 55.8591 46.5356 58.7784 44.3939Z" fill="#FFD4C0"/>
<path d="M52.2456 70.6447L55.738 70.4783C56.2417 70.4543 56.654 70.0933 56.7442 69.603C56.8572 68.978 56.7355 68.4088 56.3969 67.9537C55.9188 67.3124 55.0108 66.9031 53.7029 66.7354C53.4623 65.5782 51.8109 56.8864 55.6439 53.1198C56.0151 52.9723 58.8141 51.8001 59.5516 49.6539C59.5679 49.6086 59.5856 49.5187 59.6071 49.2098C59.6182 49.0646 59.7013 48.9456 59.8357 48.8872C59.9629 48.8329 60.1049 48.8521 60.2096 48.9399C60.8763 49.4943 62.1378 50.1391 64.3881 50.0764C64.7662 50.0658 65.1417 50.0034 65.4996 49.8862C66.1716 49.6686 67.8921 49.1897 69.3074 49.4264C70.1462 49.5683 70.9823 49.291 71.5966 48.6681C72.151 48.1074 72.4214 47.3637 72.3337 46.6592C72.5696 46.481 73.1456 45.9787 73.1694 45.3506C73.183 44.9604 72.9903 44.6023 72.5882 44.2875L72.5273 44.257C72.5273 44.257 71.2368 43.8474 70.9484 43.1376C70.9439 43.123 70.936 43.1123 70.9315 43.0976L70.9441 43.0525C70.9535 43.0187 71.8231 39.7458 67.5529 37.9719C67.7426 37.321 68.4044 35.0003 68.3141 34.8303L68.2772 34.7615L68.1981 34.7393C68.0286 34.6918 65.2263 35.2149 61.8776 36.6025C61.8595 36.6108 59.7763 37.4038 56.4816 37.4421C56.4557 37.4433 55.746 37.4326 54.916 37.5353C54.3625 37.6024 53.8005 37.5736 53.2411 37.4518C52.4451 37.2746 51.0661 37.0954 49.0115 37.2082L21.7355 38.508C21.6985 38.5098 17.73 38.5839 16.1497 36.6335C15.7755 35.9168 6.50958 18.3684 3.64402 17.7184C3.4888 17.659 1.88993 17.0971 1.20785 17.7751C0.858116 18.1257 0.832619 18.7205 1.13783 19.5407L1.15954 19.6028L1.21697 19.6371C1.24384 19.6544 3.98775 21.3453 6.56135 26.4093L13.2147 38.4911C13.2899 38.8029 14.0572 42.2167 13.026 44.0615C12.9994 44.1221 11.5664 47.8522 13.5466 51.5383C13.6358 52.0535 14.534 57.8985 9.02698 59.7711L8.95403 59.7968L8.92038 59.8652C8.89357 59.9221 6.10057 65.6018 9.36577 70.6142C9.38101 70.6951 9.4324 70.8299 9.59044 70.9448C9.99509 71.2372 10.8385 71.1785 12.0986 70.7697L12.1421 70.749C12.1637 70.7369 12.634 70.4214 12.6089 69.9254C12.5895 69.5442 12.2781 69.1881 11.6826 68.864C11.6134 68.2329 11.2886 64.6125 12.7945 62.9788C13.8045 62.9084 23.2599 62.1017 25.7519 56.4179L25.7647 56.3764C25.7855 56.2753 26.2642 53.93 28.8661 53.921C28.9556 53.9279 39.2099 54.5262 45.531 53.6982C45.5569 53.697 46.2772 53.6255 46.93 53.4683C47.0842 54.6778 47.8903 60.5384 49.1706 63.015L51.1401 69.8552C51.2799 70.342 51.7307 70.6655 52.2381 70.6414L52.2456 70.6447ZM59.9452 48.485C59.86 48.4891 59.7719 48.5081 59.6919 48.5416C59.4302 48.6506 59.257 48.8963 59.238 49.1791C59.2187 49.4583 59.2032 49.5184 59.2001 49.5297C58.4857 51.6191 55.5039 52.774 55.4748 52.7865L55.41 52.8267C53.1706 55.0036 52.7361 58.7307 52.7679 61.4783C52.8028 64.4335 53.3633 66.9185 53.3681 66.9405L53.3969 67.069L53.5276 67.085C54.8009 67.2284 55.6659 67.5953 56.0961 68.1721C56.3751 68.5484 56.4688 69.004 56.3769 69.5352C56.319 69.857 56.0488 70.0925 55.7192 70.1082L52.2269 70.2746C51.8936 70.2905 51.5969 70.0783 51.5063 69.7561L49.5203 62.8833C48.133 60.2003 47.2847 53.2881 47.2774 53.218L47.2515 53.0003L47.0429 53.0585C46.3841 53.2457 45.505 53.3321 45.4976 53.3325C39.206 54.1554 28.9888 53.559 28.8846 53.5528C26.0971 53.5632 25.4718 56.0194 25.4111 56.2857C24.1089 59.2267 20.7431 60.7895 18.1437 61.5812C15.2994 62.4476 12.7313 62.6108 12.7054 62.6121L12.635 62.6154L12.5856 62.666C10.7582 64.5487 11.3129 68.8222 11.3369 69.0029L11.3492 69.0988L11.4369 69.1428C11.9515 69.4077 12.2328 69.6836 12.2494 69.9388C12.2616 70.1794 12.0338 70.3721 11.9694 70.4197C10.4793 70.9025 9.98102 70.7407 9.83911 70.651C9.75462 70.5957 9.7444 70.5405 9.74403 70.5331L9.74121 70.4776L9.71341 70.4418C6.72001 65.8839 8.93861 60.7362 9.23646 60.095C12.2895 59.0257 13.4059 56.7391 13.8004 55.0025C14.232 53.1195 13.9347 51.505 13.9202 51.4389L13.9026 51.3841C11.9815 47.8398 13.3622 44.2495 13.3753 44.2155C14.5122 42.1838 13.6214 38.5311 13.5837 38.3734L13.5666 38.3297L6.90491 26.2296C4.455 21.4083 1.90286 19.6193 1.48064 19.3463C1.32013 18.8902 1.20175 18.3134 1.48802 18.0289C1.9225 17.5927 3.1301 17.9061 3.55761 18.0638C5.73975 18.5609 12.5556 30.5534 15.8588 36.8255C17.574 38.9475 21.598 38.8707 21.7649 38.8665L49.0445 37.5665C51.0584 37.4557 52.4039 37.6327 53.1736 37.8038C53.7744 37.9384 54.3809 37.9651 54.9714 37.8962C55.7757 37.7985 56.4852 37.8055 56.4928 37.8088C59.8619 37.7744 61.9412 36.9779 62.0249 36.9442C64.8938 35.7575 67.2181 35.2535 67.9358 35.1303C67.7778 35.8204 67.2069 37.8845 67.1618 38.0202L67.1071 38.186L67.2701 38.2524C70.6077 39.57 70.7442 41.7487 70.6574 42.5987C70.6276 42.5964 70.5945 42.6017 70.5619 42.6181C70.3805 42.701 70.4399 42.8465 70.6137 43.2723C70.9442 44.0802 72.1656 44.5191 72.3922 44.5937C72.6749 44.8251 72.8136 45.0707 72.8044 45.3272C72.782 45.9107 72.0424 46.406 72.0354 46.4137L71.9348 46.4816L71.9559 46.603C72.0689 47.2209 71.8359 47.8961 71.3344 48.4023C70.8048 48.9396 70.0893 49.1777 69.3703 49.0562C67.925 48.8134 66.2543 49.2492 65.3849 49.528C65.0635 49.6324 64.7211 49.6895 64.3763 49.6985C62.2448 49.7593 61.0636 49.1626 60.4474 48.6503C60.3039 48.531 60.1228 48.4729 59.945 48.4813L59.9452 48.485Z" fill="#515151" stroke="#515151" stroke-width="0.5"/>
<path d="M72.6782 44.6483C72.4776 44.4945 71.0054 45.4643 71.1321 45.551C71.2282 45.617 72.0267 46.0799 72.3972 46.2923C72.5042 46.354 72.6357 46.3142 72.6895 46.2039C72.8713 45.8349 73.1838 45.0399 72.6782 44.6483Z" fill="#515151"/>
<path d="M70.1939 46.0649C68.8592 45.2676 67.0855 45.9956 66.1816 47.1274C67.4194 46.4401 68.7233 45.8127 70.1939 46.0649Z" fill="#515151"/>
<path d="M70.7044 46.7602C68.4039 46.7486 66.2116 48.5219 66.4411 50.951C66.7752 48.6656 68.5649 47.2942 70.7044 46.7602Z" fill="#515151"/>
<path d="M73.0164 46.4962C73.6915 46.3485 74.2263 46.3598 74.8834 46.5918C74.4678 45.9991 73.487 45.9684 73.0164 46.4962Z" fill="#515151"/>
<path d="M72.9318 47.252C73.8078 47.336 74.5116 47.6104 75.0911 48.2918C74.8895 47.3804 73.7563 46.9002 72.9318 47.252Z" fill="#515151"/>
<path d="M62.5164 41.2881L63.4747 38.5046L63.2149 38.5023C63.048 38.5029 59.1018 38.5186 57.2235 40.8562L57.5133 41.0873C59.011 39.2212 62.0454 38.9263 62.9519 38.8789L62.1687 41.16L62.5197 41.2805L62.5164 41.2881Z" fill="#515151" stroke="#515151" stroke-width="0.5"/>
<path d="M67.0411 43.1271C66.6365 43.1466 66.2919 42.8339 66.2716 42.4288C66.2513 42.0236 66.5628 41.6794 66.9675 41.6598C67.3721 41.6403 67.7167 41.953 67.737 42.3581C67.7574 42.7633 67.4458 43.1075 67.0411 43.1271Z" fill="#515151"/>
<path d="M54.9182 70.3706C54.9609 69.5217 54.6526 67.8876 53.168 67.7994L53.1457 68.1682C54.6304 68.26 54.5494 70.2658 54.5463 70.3514L54.9182 70.3706Z" fill="#515151"/>
</svg>
