<?xml version="1.0" encoding="UTF-8"?>
<svg id="_圖層_1" data-name="圖層 1" xmlns="http://www.w3.org/2000/svg" viewBox="0 0 566.93 566.93">
  <defs>
    <style>
      .cls-1 {
        fill: #fff;
      }
    </style>
  </defs>
  <rect width="566.93" height="566.93" rx="117.58" ry="117.58"/>
  <path class="cls-1" d="m185.45,135.51c13.22,0,26.45.02,39.67-.02,2.04,0,3.45.72,4.68,2.37,7.45,10.03,14.97,20.01,22.48,30,7.76,10.33,15.52,20.66,23.28,30.99,7.33,9.76,14.66,19.52,21.98,29.29,2.42,3.23,4.77,6.5,7.17,9.74.86,1.16,2.38,1.24,3.37.19,7.82-8.33,15.67-16.64,23.47-24.99,13.12-14.06,26.2-28.15,39.3-42.22,7.97-8.57,15.94-17.15,23.93-25.71,2.57-2.75,5.14-5.5,7.85-8.1.79-.76,2.07-1.41,3.14-1.43,6.61-.14,13.22-.11,19.83-.07,0,0,.01,0,.02,0,1.22.03,1.85,1.57,1.07,2.5-.03.03-.05.06-.08.09-9.57,10.38-19.15,20.75-28.77,31.08-7.84,8.41-15.77,16.75-23.64,25.14-13.45,14.35-26.87,28.72-40.3,43.09-5.04,5.39-10.04,10.82-15.09,16.2-.88.94-1.04,1.8-.27,2.82,7.27,9.7,14.56,19.4,21.81,29.12,7.77,10.41,15.48,20.87,23.28,31.26,7.88,10.5,15.87,20.92,23.73,31.43,8.41,11.25,16.71,22.6,25.11,33.87,6.79,9.1,13.67,18.14,20.51,27.21,1.07,1.42,2.19,2.79,3.22,4.23,1.23,1.73.71,2.79-1.45,2.86-2.2.07-4.41-.02-6.61-.02-24.46,0-48.91-.02-73.37.03-2.04,0-3.96-.96-5.17-2.6-10.48-14.16-21.03-28.27-31.56-42.39-7.88-10.58-15.75-21.17-23.63-31.75-6.4-8.59-12.81-17.18-19.24-25.75-1.53-2.04-3.15-4.02-4.74-6.02-.88-1.1-1.57-1.26-2.71-.04-12.33,13.26-24.73,26.45-37.09,39.67-8.05,8.61-16.04,17.27-24.1,25.87-12.14,12.97-24.33,25.89-36.47,38.85-.61.65-1.55,1.79-2.13,2.46-1.11,1.26-2.42,1.68-4.05,1.68-6.25-.02-12.51.04-18.76,0-.76,0-1.51-.45-2.27-.69.31-.75.45-1.67.97-2.23,5.45-5.88,10.98-11.7,16.45-17.56,8.44-9.03,16.83-18.09,25.28-27.11,8.4-8.96,16.86-17.86,25.25-26.82,6.5-6.95,12.91-13.99,19.42-20.92,8.07-8.59,16.37-16.96,24.24-25.73,4-4.45,4.4-2.61.5-7.85-9.79-13.15-19.67-26.24-29.46-39.38-6.23-8.36-12.32-16.83-18.57-25.18-8.13-10.86-16.38-21.61-24.52-32.46-6.64-8.86-13.15-17.82-19.78-26.69-6.29-8.42-12.66-16.77-18.95-25.18-.5-.67-.69-1.57-1.03-2.37.91-.29,1.81-.83,2.72-.83,6.47-.03,12.94.07,19.41.09,6.9.02,13.79,0,20.69,0h0Zm14.16,18.76s0-.05,0-.07c-5.9,0-11.8-.02-17.7.03-.64,0-1.28.39-1.93.6.21.63.3,1.34.67,1.86,1.16,1.62,2.44,3.14,3.63,4.73,9.8,13.14,19.57,26.3,29.4,39.42,6.68,8.91,13.48,17.74,20.15,26.66,7.1,9.49,14.08,19.06,21.18,28.54,6.46,8.64,13.02,17.2,19.52,25.82,9.18,12.18,18.36,24.36,27.51,36.56,7.92,10.55,15.8,21.13,23.7,31.7,11.09,14.84,22.18,29.67,33.24,44.52,1.38,1.85,2.97,2.74,5.39,2.71,8.6-.13,17.2-.06,25.8-.05,2.91,0,5.83.07,8.74.03.57,0,1.28-.27,1.65-.67.19-.2-.1-1.07-.4-1.47-4.19-5.64-8.4-11.25-12.62-16.86-5.42-7.2-10.87-14.37-16.26-21.59-6.28-8.41-12.48-16.9-18.79-25.29-5.88-7.82-11.92-15.53-17.8-23.36-6.86-9.13-13.58-18.36-20.42-27.51-7.35-9.83-14.79-19.59-22.15-29.42-8.76-11.7-17.47-23.44-26.23-35.13-6.34-8.46-12.77-16.86-19.12-25.31-8.6-11.45-17.18-22.92-25.72-34.42-1.09-1.47-2.36-2.06-4.16-2.04-5.76.06-11.51.02-17.27.02Z"/>
  <path d="m199.61,154.29c5.76,0,11.52.04,17.27-.02,1.8-.02,3.06.57,4.16,2.04,8.54,11.5,17.12,22.97,25.72,34.42,6.35,8.46,12.78,16.85,19.12,25.31,8.77,11.69,17.47,23.44,26.23,35.13,7.36,9.82,14.8,19.59,22.15,29.42,6.84,9.15,13.56,18.38,20.42,27.51,5.88,7.83,11.92,15.54,17.8,23.36,6.31,8.39,12.5,16.88,18.79,25.29,5.39,7.22,10.85,14.39,16.26,21.59,4.22,5.61,8.44,11.23,12.62,16.86.3.4.58,1.26.4,1.47-.37.4-1.07.66-1.65.67-2.91.04-5.83-.03-8.74-.03-8.6,0-17.2-.08-25.8.05-2.42.04-4.01-.86-5.39-2.71-11.06-14.86-22.15-29.69-33.24-44.52-7.9-10.57-15.78-21.14-23.7-31.7-9.15-12.2-18.33-24.38-27.51-36.56-6.49-8.61-13.06-17.18-19.52-25.82-7.1-9.49-14.08-19.06-21.18-28.54-6.67-8.92-13.47-17.74-20.15-26.66-9.83-13.12-19.59-26.28-29.4-39.42-1.19-1.59-2.48-3.12-3.63-4.73-.37-.52-.45-1.23-.67-1.86.64-.21,1.28-.6,1.93-.6,5.9-.05,11.8-.03,17.7-.03,0,.02,0,.05,0,.07Z"/>
</svg>