<svg width="111" height="44" viewBox="0 0 111 44" fill="none" xmlns="http://www.w3.org/2000/svg">
<path d="M35.8918 19.2251H34.7507V19.1663H22.0007V24.833H30.0069C28.8389 28.1317 25.7003 30.4997 22.0007 30.4997C17.3065 30.4997 13.5007 26.6938 13.5007 21.9997C13.5007 17.3056 17.3065 13.4997 22.0007 13.4997C24.1674 13.4997 26.1387 14.3171 27.6397 15.6523L31.6467 11.6453C29.1166 9.28722 25.7322 7.83301 22.0007 7.83301C14.1771 7.83301 7.83398 14.1761 7.83398 21.9997C7.83398 29.8232 14.1771 36.1663 22.0007 36.1663C29.8242 36.1663 36.1673 29.8232 36.1673 21.9997C36.1673 21.0498 36.0696 20.1226 35.8918 19.2251Z" fill="#FFC107"/>
<path d="M9.4668 15.4058L14.1213 18.8193C15.3807 15.7012 18.4308 13.4997 22 13.4997C24.1668 13.4997 26.1381 14.3171 27.6391 15.6523L31.6461 11.6453C29.116 9.28722 25.7315 7.83301 22 7.83301C16.5586 7.83301 11.8397 10.905 9.4668 15.4058Z" fill="#FF3D00"/>
<path d="M22.0005 36.1672C25.6598 36.1672 28.9847 34.7668 31.4986 32.4895L27.114 28.7792C25.6917 29.8566 23.9237 30.5005 22.0005 30.5005C18.3158 30.5005 15.1871 28.1509 14.0084 24.8721L9.38867 28.4314C11.7333 33.0193 16.4947 36.1672 22.0005 36.1672Z" fill="#4CAF50"/>
<path d="M35.8911 19.2258H34.75V19.167H22V24.8337H30.0063C29.4453 26.4182 28.426 27.7846 27.1113 28.7798L27.1135 28.7784L31.498 32.4886C31.1878 32.7705 36.1667 29.0837 36.1667 22.0003C36.1667 21.0505 36.0689 20.1232 35.8911 19.2258Z" fill="#1976D2"/>
<path d="M55.5341 19.5C55.3935 19.0696 55.2081 18.6839 54.978 18.343C54.7521 17.9979 54.4815 17.7038 54.1662 17.4609C53.8551 17.218 53.5014 17.0327 53.1051 16.9048C52.7088 16.777 52.2741 16.7131 51.8011 16.7131C51.0256 16.7131 50.3203 16.9134 49.6854 17.3139C49.0504 17.7145 48.5455 18.3047 48.1705 19.0845C47.7955 19.8643 47.608 20.821 47.608 21.9545C47.608 23.0881 47.7976 24.0447 48.1768 24.8246C48.5561 25.6044 49.0696 26.1946 49.7173 26.5952C50.3651 26.9957 51.0938 27.196 51.9034 27.196C52.6534 27.196 53.3139 27.0362 53.8849 26.7166C54.4602 26.3928 54.9077 25.9368 55.2273 25.3487C55.5511 24.7564 55.7131 24.0597 55.7131 23.2585L56.1989 23.3608H52.2614V21.9545H57.2472V23.3608C57.2472 24.4389 57.017 25.3764 56.5568 26.1733C56.1009 26.9702 55.4702 27.5881 54.6648 28.027C53.8636 28.4616 52.9432 28.679 51.9034 28.679C50.7443 28.679 49.7259 28.4062 48.848 27.8608C47.9744 27.3153 47.2926 26.5398 46.8026 25.5341C46.3168 24.5284 46.0739 23.3352 46.0739 21.9545C46.0739 20.919 46.2124 19.9879 46.4893 19.1612C46.7706 18.3303 47.1669 17.6229 47.6783 17.0391C48.1896 16.4553 48.7947 16.0078 49.4936 15.6967C50.1925 15.3857 50.9616 15.2301 51.8011 15.2301C52.4915 15.2301 53.1349 15.3345 53.7315 15.5433C54.3324 15.7479 54.8672 16.0398 55.3359 16.419C55.8089 16.794 56.2031 17.2436 56.5185 17.7678C56.8338 18.2876 57.0511 18.8651 57.1705 19.5H55.5341ZM63.7463 28.7045C62.8599 28.7045 62.0822 28.4936 61.4132 28.0717C60.7484 27.6499 60.2285 27.0597 59.8535 26.3011C59.4828 25.5426 59.2974 24.6562 59.2974 23.642C59.2974 22.6193 59.4828 21.7266 59.8535 20.9638C60.2285 20.201 60.7484 19.6087 61.4132 19.1868C62.0822 18.7649 62.8599 18.554 63.7463 18.554C64.6326 18.554 65.4082 18.7649 66.073 19.1868C66.742 19.6087 67.2619 20.201 67.6326 20.9638C68.0076 21.7266 68.1951 22.6193 68.1951 23.642C68.1951 24.6562 68.0076 25.5426 67.6326 26.3011C67.2619 27.0597 66.742 27.6499 66.073 28.0717C65.4082 28.4936 64.6326 28.7045 63.7463 28.7045ZM63.7463 27.3494C64.4196 27.3494 64.9735 27.1768 65.4082 26.8317C65.8429 26.4865 66.1646 26.0327 66.3734 25.4702C66.5822 24.9077 66.6866 24.2983 66.6866 23.642C66.6866 22.9858 66.5822 22.3743 66.3734 21.8075C66.1646 21.2408 65.8429 20.7827 65.4082 20.4332C64.9735 20.0838 64.4196 19.9091 63.7463 19.9091C63.073 19.9091 62.519 20.0838 62.0843 20.4332C61.6497 20.7827 61.3279 21.2408 61.1191 21.8075C60.9103 22.3743 60.8059 22.9858 60.8059 23.642C60.8059 24.2983 60.9103 24.9077 61.1191 25.4702C61.3279 26.0327 61.6497 26.4865 62.0843 26.8317C62.519 27.1768 63.073 27.3494 63.7463 27.3494ZM74.4865 28.7045C73.6001 28.7045 72.8224 28.4936 72.1534 28.0717C71.4886 27.6499 70.9688 27.0597 70.5938 26.3011C70.223 25.5426 70.0376 24.6562 70.0376 23.642C70.0376 22.6193 70.223 21.7266 70.5938 20.9638C70.9688 20.201 71.4886 19.6087 72.1534 19.1868C72.8224 18.7649 73.6001 18.554 74.4865 18.554C75.3729 18.554 76.1484 18.7649 76.8132 19.1868C77.4822 19.6087 78.0021 20.201 78.3729 20.9638C78.7479 21.7266 78.9354 22.6193 78.9354 23.642C78.9354 24.6562 78.7479 25.5426 78.3729 26.3011C78.0021 27.0597 77.4822 27.6499 76.8132 28.0717C76.1484 28.4936 75.3729 28.7045 74.4865 28.7045ZM74.4865 27.3494C75.1598 27.3494 75.7138 27.1768 76.1484 26.8317C76.5831 26.4865 76.9048 26.0327 77.1136 25.4702C77.3224 24.9077 77.4268 24.2983 77.4268 23.642C77.4268 22.9858 77.3224 22.3743 77.1136 21.8075C76.9048 21.2408 76.5831 20.7827 76.1484 20.4332C75.7138 20.0838 75.1598 19.9091 74.4865 19.9091C73.8132 19.9091 73.2592 20.0838 72.8246 20.4332C72.3899 20.7827 72.0682 21.2408 71.8594 21.8075C71.6506 22.3743 71.5462 22.9858 71.5462 23.642C71.5462 24.2983 71.6506 24.9077 71.8594 25.4702C72.0682 26.0327 72.3899 26.4865 72.8246 26.8317C73.2592 27.1768 73.8132 27.3494 74.4865 27.3494ZM85.2012 32.3864C84.4725 32.3864 83.8461 32.2926 83.3219 32.1051C82.7978 31.9219 82.361 31.679 82.0115 31.3764C81.6664 31.0781 81.3915 30.7585 81.187 30.4176L82.3887 29.5739C82.525 29.7528 82.6976 29.9574 82.9064 30.1875C83.1152 30.4219 83.4007 30.6243 83.763 30.7947C84.1294 30.9695 84.6088 31.0568 85.2012 31.0568C85.9938 31.0568 86.6479 30.8651 87.1635 30.4815C87.6792 30.098 87.937 29.4972 87.937 28.679V26.6847H87.8091C87.6983 26.8636 87.5407 27.0852 87.3361 27.3494C87.1358 27.6094 86.8461 27.8416 86.4668 28.0462C86.0918 28.2464 85.5847 28.3466 84.9455 28.3466C84.1529 28.3466 83.4412 28.1591 82.8105 27.7841C82.1841 27.4091 81.6877 26.8636 81.3212 26.1477C80.959 25.4318 80.7779 24.5625 80.7779 23.5398C80.7779 22.5341 80.9547 21.6584 81.3084 20.9126C81.6621 20.1626 82.1543 19.5831 82.785 19.174C83.4157 18.7607 84.1444 18.554 84.9711 18.554C85.6103 18.554 86.1174 18.6605 86.4924 18.8736C86.8716 19.0824 87.1614 19.321 87.3617 19.5895C87.5662 19.8537 87.7239 20.071 87.8347 20.2415H87.9881V18.6818H89.4455V28.7812C89.4455 29.625 89.2537 30.3111 88.8702 30.8395C88.4909 31.3722 87.9796 31.7621 87.3361 32.0092C86.6969 32.2607 85.9853 32.3864 85.2012 32.3864ZM85.15 26.9915C85.7551 26.9915 86.2665 26.853 86.6841 26.576C87.1017 26.299 87.4192 25.9006 87.6365 25.3807C87.8539 24.8608 87.9625 24.2386 87.9625 23.5142C87.9625 22.8068 87.856 22.1825 87.6429 21.6413C87.4299 21.1001 87.1145 20.6761 86.6969 20.3693C86.2793 20.0625 85.7637 19.9091 85.15 19.9091C84.5108 19.9091 83.9782 20.071 83.552 20.3949C83.1301 20.7187 82.8127 21.1534 82.5996 21.6989C82.3908 22.2443 82.2864 22.8494 82.2864 23.5142C82.2864 24.196 82.3929 24.799 82.606 25.3232C82.8233 25.843 83.1429 26.2521 83.5648 26.5504C83.9909 26.8445 84.5194 26.9915 85.15 26.9915ZM93.7154 15.4091V28.5H92.2069V15.4091H93.7154ZM100.595 28.7045C99.6488 28.7045 98.8327 28.4957 98.1467 28.0781C97.4648 27.6562 96.9386 27.0682 96.5678 26.3139C96.2013 25.5554 96.0181 24.6733 96.0181 23.6676C96.0181 22.6619 96.2013 21.7756 96.5678 21.0085C96.9386 20.2372 97.4542 19.6364 98.1147 19.206C98.7795 18.7713 99.555 18.554 100.441 18.554C100.953 18.554 101.458 18.6392 101.956 18.8097C102.455 18.9801 102.909 19.2571 103.318 19.6406C103.727 20.0199 104.053 20.5227 104.296 21.1491C104.539 21.7756 104.66 22.5469 104.66 23.4631V24.1023H97.092V22.7983H103.126C103.126 22.2443 103.015 21.75 102.794 21.3153C102.576 20.8807 102.265 20.5376 101.86 20.2862C101.46 20.0348 100.987 19.9091 100.441 19.9091C99.8406 19.9091 99.3207 20.0582 98.8817 20.3565C98.4471 20.6506 98.1126 21.0341 97.8782 21.5071C97.6438 21.9801 97.5266 22.4872 97.5266 23.0284V23.8977C97.5266 24.6392 97.6545 25.2678 97.9102 25.7834C98.1701 26.2947 98.5302 26.6847 98.9904 26.9531C99.4506 27.2173 99.9854 27.3494 100.595 27.3494C100.991 27.3494 101.349 27.294 101.669 27.1832C101.993 27.0682 102.272 26.8977 102.506 26.6719C102.74 26.4418 102.922 26.1562 103.049 25.8153L104.507 26.2244C104.353 26.7188 104.096 27.1534 103.733 27.5284C103.371 27.8991 102.924 28.1889 102.391 28.3977C101.858 28.6023 101.26 28.7045 100.595 28.7045Z" fill="black"/>
</svg>
