<?xml version="1.0" encoding="utf-8"?>
<!-- Generator: Adobe Illustrator 26.5.0, SVG Export Plug-In . SVG Version: 6.00 Build 0)  -->
<svg version="1.1" id="圖層_1" xmlns="http://www.w3.org/2000/svg" xmlns:xlink="http://www.w3.org/1999/xlink" x="0px" y="0px"
	 viewBox="0 0 1920 189" style="enable-background:new 0 0 1920 189;" xml:space="preserve">
<style type="text/css">
	.st0{fill:#FFFAF6;}
	.st1{fill-rule:evenodd;clip-rule:evenodd;fill:#F7ECE3;}
	.st2{fill:#A28977;}
	.st3{fill:#317F46;}
	.st4{fill-rule:evenodd;clip-rule:evenodd;fill:#79AB03;}
	.st5{fill:#FFFFFF;}
	.st6{fill:#515151;}
	.st7{fill:#515151;stroke:#515151;stroke-width:0.5;}
	.st8{fill:none;stroke:#515151;stroke-width:0.5;}
	.st9{fill:#FFD4C0;}
	.st10{fill:#F7ECE3;}
</style>
<rect y="106" class="st0" width="1920" height="83"/>
<path class="st1" d="M0.5,148c-0.2,0-0.3,0-0.5,0V77h1920v67.4c-5.1-1.8-9.8-4.1-14.2-7c-14.4,11.8-38.5,19.6-65.8,19.6
	c-20.3,0-38.8-4.3-52.9-11.4c-5.6,1.6-11.5,2.4-17.6,2.4c-10.4,0-20.2-2.4-29-6.7c-14.7,9.6-36.3,15.7-60.5,15.7
	c-20.5,0-39.1-4.4-53.3-11.6c-5.8,1.7-11.9,2.6-18.2,2.6c-10.2,0-19.8-2.3-28.4-6.5c-14.7,9.5-36.2,15.5-60.1,15.5
	c-20.7,0-39.5-4.4-53.7-11.8c-6,1.8-12.3,2.8-18.8,2.8c-9.9,0-19.4-2.2-27.8-6.2c-14.7,9.3-36,15.2-59.7,15.2
	c-20.8,0-39.8-4.5-54-11.9c-6.2,1.9-12.7,2.9-19.5,2.9c-9.7,0-19-2.1-27.3-5.9c-14.6,9.2-35.8,14.9-59.2,14.9
	c-21,0-40.1-4.6-54.4-12.1c-6.3,2-13.1,3.1-20.1,3.1c-9.5,0-18.5-2-26.7-5.7c-14.6,9-35.6,14.7-58.8,14.7
	c-21.2,0-40.5-4.7-54.8-12.3c-6.5,2.2-13.5,3.3-20.7,3.3c-9.3,0-18.1-1.9-26.1-5.4C923.8,151.5,903,157,880,157
	c-21.4,0-40.8-4.8-55.2-12.6c-6.7,2.3-13.9,3.6-21.3,3.6c-9,0-17.7-1.8-25.5-5.2c-14.6,8.7-35.2,14.2-58,14.2
	c-21.6,0-41.2-4.9-55.6-12.8c-6.9,2.4-14.2,3.8-21.9,3.8c-8.8,0-17.2-1.7-24.9-4.9c-14.5,8.6-35,13.9-57.6,13.9
	c-21.8,0-41.5-5-56-13c-7,2.6-14.6,4-22.5,4c-8.6,0-16.8-1.7-24.3-4.7c-14.5,8.4-34.8,13.7-57.2,13.7c-22,0-41.9-5-56.4-13.2
	c-7.2,2.7-15,4.2-23.1,4.2c-8.4,0-16.4-1.6-23.7-4.4c-14.5,8.3-34.6,13.4-56.8,13.4s-42.3-5.1-56.8-13.4c-7.4,2.9-15.4,4.4-23.7,4.4
	c-8.1,0-15.9-1.5-23.1-4.2C121.9,152,102,157,80,157c-22,0-41.9-5-56.4-13.2C16.4,146.5,8.6,148,0.5,148z"/>
<path class="st2" d="M1669,142.9h-0.1c-1.4,0-2.5,1.1-2.5,2.5v9.6c0,1.4,1.1,2.5,2.5,2.5h0.1c1.4,0,2.5-1.1,2.5-2.5v-9.6
	C1671.5,144,1670.4,142.9,1669,142.9z"/>
<path class="st3" d="M1671.2,118.4c-0.7-1.5-2.8-1.5-3.6,0l-11.9,23.9c-0.7,1.3,0.3,2.9,1.8,2.9h23.8c1.5,0,2.5-1.6,1.8-2.9
	L1671.2,118.4z"/>
<path class="st2" d="M1693.5,148c0-1.4-1.1-2.5-2.5-2.5h-0.1c-1.4,0-2.5,1.1-2.5,2.5v7.5c0,1.4,1.1,2.5,2.5,2.5h0.1
	c1.4,0,2.5-1.1,2.5-2.5V148z"/>
<path class="st4" d="M1689.1,104.4c0.7-1.5,2.8-1.5,3.6,0l12.3,24.7c0.7,1.3-0.3,2.9-1.8,2.9h-1.4l6.8,13.7c0.7,1.3-0.3,2.9-1.8,2.9
	H1676c-1.5,0-2.4-1.6-1.8-2.9l6.8-13.7h-2.5c-1.5,0-2.4-1.6-1.8-2.9L1689.1,104.4z"/>
<path class="st5" d="M232.7,137.2l-7.5-0.7l-6.8,10.1"/>
<path class="st6" d="M218.6,146.8l6.8-10l7.4,0.7l0-0.4l-7.6-0.7l-6.9,10.2L218.6,146.8z"/>
<path class="st5" d="M259.4,141c0,0.1,0,0.1,0,0.2c0.5,2.8,13.7,9.8,13.7,9.8c0,2.4,1.3,2.5,1.3,2.5c3,0.3,3-2,3-2L262,135.8
	C262,135.8,259.4,137.7,259.4,141z"/>
<path class="st7" d="M275.1,153.6c0.7,0,1.3-0.3,1.8-0.7c0.7-0.7,0.7-1.6,0.7-1.6l0-0.1L262,135.6l-0.2,0.1
	c-0.1,0.1-2.6,1.9-2.6,5.3c0,0.1,0,0.1,0,0.2c0.5,2.8,12.3,9.1,13.7,9.9c0,1,0.2,1.7,0.7,2.1c0.4,0.4,0.8,0.4,0.8,0.4
	C274.6,153.6,274.8,153.6,275.1,153.6L275.1,153.6z M277.1,151.4c0,0.2-0.1,0.8-0.6,1.2c-0.5,0.4-1.2,0.6-2.2,0.5
	c-0.1,0-1.1-0.1-1.1-2.2l0-0.1l-0.1-0.1c-3.6-1.9-13.2-7.4-13.5-9.6c0,0,0-0.1,0-0.1c0-2.7,1.8-4.4,2.3-4.9L277.1,151.4L277.1,151.4
	z"/>
<path class="st5" d="M232.7,137.3c-0.1,0.2-2.5,8.4-8,11.3l3.4,4.7c0,0,2.6-1,3.7,1.6c0,0,0.3,1.6-2.6,1.5l-2.4,0l-8.2-5.9
	c0,0-1.7-1.8-0.2-3.9"/>
<path class="st8" d="M232.7,137.3c-0.1,0.2-2.5,8.4-8,11.3l3.4,4.7c0,0,2.6-1,3.7,1.6c0,0,0.3,1.6-2.6,1.5l-2.4,0l-8.2-5.9
	c0,0-1.7-1.8-0.2-3.9"/>
<path class="st7" d="M229.9,156.5c0.8,0,1.4-0.3,1.8-0.7c0.4-0.5,0.4-1.1,0.4-1.1l0-0.1c-1-2.4-3.2-1.9-3.8-1.7l-3.2-4.3
	c5.5-3.1,7.9-11.3,7.9-11.4l-0.4-0.1c0,0.1-2.4,8.3-7.9,11.2l-0.2,0.1l3.7,5l0.2-0.1c0.1,0,2.4-0.9,3.4,1.4c0,0.1,0,0.4-0.3,0.7
	c-0.4,0.4-1.1,0.6-2.1,0.5l-2.4,0l-8.1-5.8c0,0-1.5-1.7-0.1-3.6l-0.4-0.3c-1.6,2.2,0.2,4.1,0.2,4.2l8.2,6l2.5,0
	C229.5,156.5,229.7,156.5,229.9,156.5L229.9,156.5z"/>
<path class="st5" d="M261.6,118.2c-0.7,0.1-1.4,0-2-0.1c-0.9-0.2-2.5-0.4-4.9-0.3l-32.1,1.5c0,0-4.8,0.1-6.8-2.3
	c0,0-11.3-21.4-14.6-22.2c0,0-3.9-1.4-2.7,1.9c0,0,3.3,2,6.4,8.1l7.8,14.2c0,0,1.1,4.4-0.2,6.7c0,0-1.7,4.3,0.6,8.6
	c0,0,1.4,7.6-5.5,10c0,0-3.3,6.6,0.5,12.5c0,0,0,1,2.9,0.1c0,0,1.3-0.9-0.6-1.9c0,0-0.7-5.1,1.4-7.3c0,0,12.1-0.7,15.1-7.6
	c0,0,0.6-3.1,3.9-3.1c0,0,12.1,0.7,19.6-0.3c0,0,1.1-0.1,1.9-0.3c0,0,1,8.2,2.6,11.4l2.3,8.1c0.1,0.5,0.6,0.8,1.1,0.8l4.1-0.2
	c0.5,0,0.9-0.4,1-0.9c0.2-1-0.1-2.7-3.5-3.1c0,0-2.7-11.6,2.3-16.4c0,0,3.6-1.4,4.5-4c0-0.1,0-0.2,0.1-0.5c0-0.5,0.7-0.8,1.1-0.5
	c0.8,0.7,2.3,1.4,4.8,1.3c0.4,0,0.8-0.1,1.2-0.2c0.9-0.3,2.9-0.8,4.6-0.6c2,0.3,3.6-1.5,3.3-3.1c0,0,2-1.3,0.4-2.5
	c0,0-1.6-0.5-2-1.4c-0.4-0.9,0-0.2,0-0.2s1.1-3.8-4-5.8c0-0.2,1-3.7,1-3.7c-0.1,0-3.2,0.5-7.3,2.2c0,0-2.5,1-6.4,1
	C263.4,118.1,262.6,118.1,261.6,118.2L261.6,118.2z"/>
<path class="st9" d="M266.1,126.1c11.1,2.8,13.7-1.4,13.7-3.8c-0.1-1.5-2.5-3.1-3.7-3.6l0.6-3.3c-0.9,0-4.5,1.1-6.1,1.7
	c-2.1,1.2-8.4,1.3-11.3,1.2c-3.7-0.8-22.8,0.4-31.9,1.1c-10.1,1.6-12.3-2.8-13.7-5.9c-4.4-10-10.2-16.6-12.6-18.7
	c-2.8-1.1-2.6,1-2.1,2.2c1.5,0.8,4.3,5,5.5,7l8.2,14.1l0.7,3.7l-0.6,3.3l-0.8,4.1c4.2,1.6,22.8,2.8,31.6,3.2
	C253.3,133.4,262.7,128.6,266.1,126.1z"/>
<path class="st7" d="M258.4,156.9l4.1-0.2c0.6,0,1.1-0.5,1.2-1c0.1-0.7,0-1.4-0.4-1.9c-0.6-0.8-1.6-1.2-3.2-1.4
	c-0.3-1.4-2.2-11.6,2.3-16c0.4-0.2,3.7-1.6,4.6-4.1c0-0.1,0-0.2,0.1-0.5c0-0.2,0.1-0.3,0.3-0.4c0.1-0.1,0.3,0,0.4,0.1
	c0.8,0.7,2.3,1.4,4.9,1.3c0.4,0,0.9-0.1,1.3-0.2c0.8-0.3,2.8-0.8,4.5-0.5c1,0.2,2-0.2,2.7-0.9c0.7-0.7,1-1.5,0.9-2.4
	c0.3-0.2,1-0.8,1-1.5c0-0.5-0.2-0.9-0.7-1.3l-0.1,0c0,0-1.5-0.5-1.9-1.3c0,0,0,0,0,0l0-0.1c0,0,1-3.9-4-6c0.2-0.8,1-3.5,0.9-3.7
	l0-0.1l-0.1,0c-0.2-0.1-3.5,0.6-7.4,2.2c0,0-2.5,0.9-6.4,1c0,0-0.9,0-1.8,0.1c-0.7,0.1-1.3,0-2-0.1c-0.9-0.2-2.6-0.4-5-0.3
	l-32.1,1.5c0,0-4.7,0.1-6.6-2.2c-0.4-0.8-11.3-21.5-14.7-22.3c-0.2-0.1-2.1-0.7-2.9,0.1c-0.4,0.4-0.4,1.1-0.1,2.1l0,0.1l0.1,0
	c0,0,3.3,2,6.3,8l7.8,14.2c0.1,0.4,1,4.4-0.2,6.6c0,0.1-1.7,4.5,0.6,8.8c0.1,0.6,1.2,7.5-5.3,9.7l-0.1,0l0,0.1
	c0,0.1-3.3,6.8,0.5,12.6c0,0.1,0.1,0.3,0.3,0.4c0.5,0.3,1.5,0.3,3-0.2l0.1,0c0,0,0.6-0.4,0.5-1c0-0.4-0.4-0.9-1.1-1.2
	c-0.1-0.7-0.5-5,1.3-6.9c1.2-0.1,12.3-1,15.2-7.7l0,0c0-0.1,0.6-2.9,3.6-2.9c0.1,0,12.2,0.7,19.6-0.3c0,0,0.9-0.1,1.6-0.3
	c0.2,1.4,1.1,8.3,2.6,11.2l2.3,8C257.3,156.6,257.8,157,258.4,156.9L258.4,156.9z M267.5,130.9c-0.1,0-0.2,0-0.3,0.1
	c-0.3,0.1-0.5,0.4-0.5,0.8c0,0.3,0,0.4,0,0.4c-0.8,2.5-4.3,3.8-4.4,3.8l-0.1,0c-2.6,2.6-3.1,6.9-3.1,10.2c0,3.5,0.7,6.4,0.7,6.4
	l0,0.2l0.2,0c1.5,0.2,2.5,0.6,3,1.3c0.3,0.4,0.4,1,0.3,1.6c-0.1,0.4-0.4,0.7-0.8,0.7l-4.1,0.2c-0.4,0-0.7-0.2-0.8-0.6l-2.3-8.1
	c-1.6-3.2-2.6-11.3-2.6-11.4l0-0.3l-0.2,0.1c-0.8,0.2-1.8,0.3-1.8,0.3c-7.4,1-19.4,0.3-19.5,0.3c-3.3,0-4,2.9-4.1,3.2
	c-1.5,3.5-5.5,5.3-8.6,6.2c-3.3,1-6.4,1.2-6.4,1.2l-0.1,0l-0.1,0.1c-2.2,2.2-1.5,7.2-1.5,7.5l0,0.1l0.1,0.1c0.6,0.3,0.9,0.6,1,0.9
	c0,0.3-0.3,0.5-0.3,0.6c-1.8,0.6-2.3,0.4-2.5,0.3c-0.1-0.1-0.1-0.1-0.1-0.1l0-0.1l0,0c-3.5-5.4-0.9-11.4-0.6-12.2
	c3.6-1.3,4.9-3.9,5.4-6c0.5-2.2,0.2-4.1,0.1-4.2l0-0.1c-2.3-4.2-0.6-8.4-0.6-8.4c1.3-2.4,0.3-6.7,0.2-6.9l0-0.1l-7.8-14.2
	c-2.9-5.7-5.9-7.8-6.4-8.1c-0.2-0.5-0.3-1.2,0-1.6c0.5-0.5,1.9-0.1,2.4,0c2.6,0.6,10.6,14.7,14.5,22.1c2,2.5,6.8,2.4,6.9,2.4
	l32.1-1.5c2.4-0.1,4,0.1,4.9,0.3c0.7,0.2,1.4,0.2,2.1,0.1c0.9-0.1,1.8-0.1,1.8-0.1c4,0,6.4-1,6.5-1c3.4-1.4,6.1-2,7-2.1
	c-0.2,0.8-0.9,3.2-0.9,3.4l-0.1,0.2l0.2,0.1c3.9,1.6,4.1,4.1,4,5.1c0,0-0.1,0-0.1,0c-0.2,0.1-0.1,0.3,0.1,0.8c0.4,1,1.8,1.5,2.1,1.6
	c0.3,0.3,0.5,0.6,0.5,0.9c0,0.7-0.9,1.3-0.9,1.3l-0.1,0.1l0,0.1c0.1,0.7-0.1,1.5-0.7,2.1c-0.6,0.6-1.5,0.9-2.3,0.8
	c-1.7-0.3-3.7,0.2-4.7,0.6c-0.4,0.1-0.8,0.2-1.2,0.2c-2.5,0.1-3.9-0.6-4.6-1.2C267.9,130.9,267.7,130.9,267.5,130.9L267.5,130.9z"/>
<path class="st6" d="M282.5,126.4c-0.2-0.2-2,1-1.8,1.1c0.1,0.1,1.1,0.6,1.5,0.9c0.1,0.1,0.3,0,0.3-0.1
	C282.7,127.8,283.1,126.8,282.5,126.4z"/>
<path class="st6" d="M279.6,128c-1.6-0.9-3.7-0.1-4.7,1.2C276.3,128.5,277.8,127.7,279.6,128z"/>
<path class="st6" d="M280.2,128.8c-2.7,0-5.3,2.1-5,4.9C275.5,131.1,277.6,129.5,280.2,128.8z"/>
<path class="st6" d="M282.9,128.5c0.8-0.2,1.4-0.2,2.2,0.1C284.6,128,283.4,127.9,282.9,128.5z"/>
<path class="st6" d="M282.8,129.4c1,0.1,1.9,0.4,2.5,1.2C285.1,129.6,283.7,129,282.8,129.4z"/>
<path class="st7" d="M270.5,122.4l1.1-3.3l-0.3,0c-0.2,0-4.8,0-7,2.8l0.3,0.3c1.8-2.2,5.3-2.5,6.4-2.6l-0.9,2.7L270.5,122.4
	L270.5,122.4z"/>
<path class="st6" d="M275.8,124.6c-0.5,0-0.9-0.3-0.9-0.8c0-0.5,0.3-0.9,0.8-0.9c0.5,0,0.9,0.3,0.9,0.8S276.3,124.5,275.8,124.6z"/>
<path class="st6" d="M261.6,156.6c0.1-1-0.3-2.9-2.1-3l0,0.4c1.7,0.1,1.7,2.5,1.6,2.6L261.6,156.6z"/>
<rect class="st10" width="1920" height="77"/>
</svg>
