<svg width="65" height="62" viewBox="0 0 65 62" fill="none" xmlns="http://www.w3.org/2000/svg">
<path d="M17.5977 50.1279C17.5977 48.7472 18.7169 47.6279 20.0977 47.6279H20.919C22.2997 47.6279 23.419 48.7472 23.419 50.1279V59.0991C23.419 60.4798 22.2997 61.5991 20.919 61.5991H20.0977C18.7169 61.5991 17.5977 60.4798 17.5977 59.0991V50.1279Z" fill="#A28977"/>
<path fill-rule="evenodd" clip-rule="evenodd" d="M22.2927 1.09818C21.553 -0.366062 19.4622 -0.366059 18.7225 1.09818L4.3286 29.5906C3.65658 30.9209 4.62336 32.4924 6.11374 32.4924H8.16216L0.217471 48.2188C-0.454556 49.5491 0.512225 51.1207 2.00261 51.1207H37.8483C39.3387 51.1207 40.3055 49.5491 39.6334 48.2188L31.6887 32.4924H34.9015C36.3918 32.4924 37.3586 30.9209 36.6866 29.5906L22.2927 1.09818Z" fill="#79AB03"/>
<rect x="42.4648" y="45.4355" width="5.82132" height="16.2997" rx="2.5" fill="#A28977"/>
<path d="M43.006 17.5493C43.7448 16.0815 45.8402 16.0815 46.579 17.5493L60.474 45.1555C61.1435 46.4856 60.1767 48.0547 58.6876 48.0547H30.8974C29.4083 48.0547 28.4415 46.4856 29.1109 45.1555L43.006 17.5493Z" fill="#317F46"/>
</svg>
