<?xml version="1.0" encoding="UTF-8"?>
<svg id="_圖層_1" data-name="圖層 1" xmlns="http://www.w3.org/2000/svg" viewBox="0 0 425.2 425.2">
  <defs>
    <style>
      .cls-1 {
        fill: #3d3d3d;
      }

      .cls-2 {
        fill: #ef7897;
      }

      .cls-3 {
        fill: #515151;
      }

      .cls-4 {
        fill: #fff8e9;
      }

      .cls-5 {
        fill: #a28977;
      }

      .cls-6 {
        fill: #6d5b50;
      }
    </style>
  </defs>
  <path class="cls-4" d="m114.61,176.42c.05,1.13-12.37,9.42-18.11,19.4-16.16,28.13-9.91,62.46,6.5,85.63,18.87,26.63,48.87,34.86,76.31,38.04.01,0,148.48,17.19,154-76.14,0,0,6.02-42.37-24.58-66.93,0,0-.84-55.42-24.41-66.06,0,0-30.26.36-45.31,42.73,0,0-31.1-7.98-52.67.61,0,0-29.28-33.25-54.31-39.12-2.76-.65-5.51,1.18-6.7,4.29-4.64,12.13-12.31,27.71-10.72,57.54Z"/>
  <path class="cls-5" d="m219.58,150.08s16.36,82.21,105.01,45.47c0,0-10.17-12.99-15.85-19.13,0,0-2.17-58.28-24.41-66.06,0,0-34.78,2-43.47,39.25l-1.84,3.48-19.43-3.01Z"/>
  <path class="cls-3" d="m207.57,322.68c-11.1,0-22.21-.79-33.29-2.38-22.08-3.17-53.72-10.62-73.57-38.65-23.85-33.67-19.89-80.24,9.02-106.03.81-.72,1.33-1.39,1.62-2.11h0c.46-1.16.42-2.64.37-4.69-.03-1.15-.07-2.41-.02-3.82.54-16.51,4.02-32.51,10.37-47.56,1.36-3.22,3.3-5.4,5.76-6.48,4.29-1.89,9.34.45,13.02,2.17l1.2.55c12.87,5.78,23.82,14.95,31.93,22.3,5.29,4.79,9.52,8.96,13.18,12.99,18.57-6.5,42.37-2.28,50.07-.61,9.76-25.6,23.78-32.62,33.15-37.31,1.51-.76,2.93-1.46,4.2-2.19,8.1-4.64,15.24-2.92,20.11,4.86,11.9,19.02,16.02,52.96,16.75,59.84,20.24,16.97,29.65,48.8,22.91,77.92-10.7,46.17-56.38,60.86-70.13,64.27-18.69,4.63-37.65,6.94-56.63,6.94Zm-76.22-206.8c-.47,0-.9.07-1.26.23-1.37.6-2.29,2.24-2.83,3.51-6.08,14.41-9.42,29.73-9.93,45.55-.04,1.29,0,2.44.01,3.49.07,2.53.13,4.71-.77,6.94h0c-.62,1.54-1.63,2.92-3.1,4.23-26.8,23.9-30.39,67.19-8.18,98.56,18.6,26.25,48.72,33.31,69.77,36.33,29.31,4.21,58.84,2.71,87.77-4.46,12.96-3.21,56.02-17.02,65.99-60.07,6.37-27.53-2.62-57.55-21.87-73.01l-.93-.74-.11-1.19c-.04-.39-3.74-38.91-16.04-58.55-3.27-5.23-7.01-6.11-12.52-2.96-1.36.78-2.86,1.53-4.48,2.34-9.37,4.69-22.21,11.12-31.23,36.52l-.87,2.42-2.49-.64c-.31-.08-30.47-7.64-50.93.51l-1.84.73-1.31-1.49c-3.81-4.32-8.27-8.77-14.04-14-7.8-7.06-18.3-15.87-30.44-21.33l-1.28-.58c-2.08-.98-5.04-2.35-7.12-2.35Z"/>
  <circle class="cls-3" cx="248.95" cy="227.89" r="10.16"/>
  <circle class="cls-3" cx="168.26" cy="227.89" r="10.11"/>
  <g>
    <line class="cls-6" x1="270.06" y1="252.06" x2="301.36" y2="242.83"/>
    <path class="cls-6" d="m270.06,253.94c-.81,0-1.56-.53-1.81-1.35-.29-.99.28-2.04,1.28-2.33l31.3-9.23c.99-.3,2.04.28,2.33,1.28.29.99-.28,2.04-1.28,2.33l-31.3,9.23c-.18.05-.35.07-.53.07Z"/>
  </g>
  <g>
    <line class="cls-6" x1="269.64" y1="261.32" x2="301.78" y2="266.91"/>
    <path class="cls-6" d="m301.78,268.8c-.1,0-.21,0-.32-.03l-32.14-5.59c-1.02-.18-1.7-1.15-1.53-2.17.17-1.02,1.1-1.76,2.17-1.53l32.14,5.59c1.02.18,1.7,1.15,1.53,2.17-.15.91-.95,1.56-1.85,1.56Z"/>
  </g>
  <g>
    <line class="cls-6" x1="154.73" y1="251.77" x2="120.23" y2="241.6"/>
    <path class="cls-6" d="m154.73,253.65c-.18,0-.35-.02-.53-.07l-34.49-10.18c-1-.29-1.57-1.34-1.28-2.33.29-1,1.34-1.58,2.33-1.28l34.49,10.18c1,.29,1.57,1.34,1.28,2.33-.24.82-.99,1.35-1.81,1.35Z"/>
  </g>
  <g>
    <line class="cls-6" x1="155.2" y1="261.98" x2="119.77" y2="268.14"/>
    <path class="cls-6" d="m119.77,270.02c-.9,0-1.7-.65-1.85-1.56-.18-1.02.51-2,1.53-2.17l35.43-6.16c1.04-.26,2,.51,2.17,1.53.18,1.02-.51,2-1.53,2.17l-35.43,6.16c-.11.02-.22.03-.32.03Z"/>
  </g>
  <path class="cls-1" d="m336.74,196.25h-4.25c-.07-.43-.16-.87-.3-1.3-.83-2.5-1.73-4.97-2.69-7.33-14.07-34.59-47.77-59.33-90.15-66.16-40.64-6.55-95.75-.75-128.52,35.2-11.58,12.71-19.12,27.55-21.29,41.85h-3.93c-19.69,0-35.64,15.96-35.64,35.64v2.46c0,19.69,15.96,35.64,35.64,35.64h4.68c1.59,4.72,6.33,16.25,17.7,27.6,12.53,12.52,35.91,27.36,76.63,28.34,3.15,3.68,7.82,6.03,13.05,6.03h27.9c9.48,0,17.17-7.69,17.17-17.17s-7.69-17.17-17.17-17.17h-27.9c-7.75,0-14.29,5.13-16.43,12.19-64.11-3.05-75.6-43.99-76.09-45.88-.06-.23-.13-.45-.2-.67v-36.07c0-4.73,0-9.47,0-14.2,0-4.69-.6-9.31.29-13.96.73-3.86,1.69-7.63,3.12-11.3,3.26-8.33,8.29-15.96,14.3-22.55,28.46-31.24,77.62-36.07,114.14-30.18,36.82,5.94,65.93,27.02,77.88,56.4,1.72,4.23,2.86,7.95,2.75,12.55-.13,5.41-.09,10.83-.09,16.24,0,10.85.07,21.69.07,32.54v8.31c0,3.7,3,6.7,6.7,6.7h12.63c19.69,0,35.64-15.96,35.64-35.64v-2.46c0-19.69-15.96-35.64-35.64-35.64Z"/>
  <path class="cls-2" d="m210.29,264.13c-1.54,5.6-8.01,5.38-8.01,5.38,0,0-1.01,13.09,9.21,13.09,0,0,10.92,1.36,11.65-11.4"/>
  <path class="cls-3" d="m231.68,255.62c-.74-1.09-2.22-1.38-3.31-.65-1.09.74-1.38,2.22-.65,3.31,1.93,2.87,2.27,3.5,1.32,6.31-.53,1.59-2.12,2.82-4.23,3.3-2.13.48-5.17.22-7.28-1.96-1.5-1.55-2.85-3.54-3.42-4.92,2.1-.86,3.71-2.76,4.06-5.17.54-3.63-1.97-7.01-5.6-7.55s-7.01,1.97-7.55,5.6c-.44,2.98,1.17,5.78,3.76,7-1.16,4.93-3.29,6.21-7.07,6.9-2.08.39-5.06.13-6.76-1.1-.72-.52-1.11-1.15-1.22-1.97-.52-3.75,1.63-4.96,2.34-5.35,1.15-.64,1.56-2.1.91-3.24-.64-1.15-2.09-1.56-3.24-.91-3.66,2.06-5.34,5.67-4.73,10.16.29,2.11,1.38,3.9,3.15,5.18,1.52,1.1,3.35,1.71,5.16,1.98.74,5.67,4.25,13.69,14.03,14.33.06,0,.42.04.99.04,2.01,0,6.66-.4,10.31-3.75,2.83-2.6,4.41-6.31,4.69-11.06,3.01-1.09,5.28-3.25,6.2-5.99,1.65-4.89.42-7.06-1.88-10.49Zm-19.91,26.26c-6.81-.45-8.79-6.09-9.36-9.38.06,0,.12-.01.18-.02,4.44-.81,7.37-2.66,9.21-6.03,1.06,1.48,2.08,2.55,2.31,2.79,2.11,2.18,5.05,3.43,8.16,3.59-.34,2.87-1.32,5.09-2.95,6.6-3.02,2.8-7.43,2.45-7.54,2.44Z"/>
</svg>