<svg width="45" height="40" viewBox="0 0 45 40" fill="none" xmlns="http://www.w3.org/2000/svg">
<path d="M40.7893 8.5H42.4245C43.7659 16.2876 44.4801 22.1238 44.4996 26.5022C44.5195 30.9672 43.8151 33.8308 42.4016 35.6982C41.001 37.5486 38.8309 38.5147 35.6738 39.0059C32.5074 39.4986 28.4478 39.5 23.3541 39.5C17.9696 39.5 13.571 39.4989 10.1009 39.005C6.63174 38.5112 4.1961 37.5376 2.6487 35.68C1.09932 33.82 0.354897 30.9706 0.523409 26.5189C0.689052 22.143 1.73304 16.3021 3.66664 8.5H5.62538H23.3541H40.7893Z" fill="#FFD4C0" stroke="#5F231B"/>
<path d="M8 0.5H38C40.4853 0.5 42.5 2.51472 42.5 5V8.5H3.5V5C3.5 2.51472 5.51472 0.5 8 0.5Z" fill="#FFD4C0" stroke="#5F231B"/>
<g clip-path="url(#clip0_2413_59451)">
<path d="M25.312 24.8042C25.2036 24.6581 25.1625 24.4443 25.0893 24.2803C24.7031 23.4167 23.9678 22.532 22.926 22.5577C22.926 22.5577 21.025 22.541 20.7682 24.2264C20.6977 24.6898 20.457 24.9675 20.0088 25.1192C19.785 25.1951 19.5534 25.2451 19.3314 25.3251C18.4669 25.6367 18.0936 26.5233 18.1062 27.3883C18.1179 28.212 18.6342 28.9373 19.4078 29.2225C20.3323 29.5634 21.2895 29.089 22.2174 28.9881C23.206 28.8803 24.2129 28.9298 25.1867 29.1311C25.7235 29.2423 26.2442 29.326 26.7667 29.0941C27.3364 28.8418 27.6324 28.2824 27.7422 27.6925C27.931 26.6799 27.3966 25.3155 26.2883 25.114C26.1772 25.0935 26.0638 25.0902 25.9521 25.0744C25.7849 25.0514 25.621 25.0037 25.4676 24.9334C25.4025 24.9038 25.3526 24.8581 25.3114 24.8036L25.312 24.8042Z" fill="#5F231B"/>
<path d="M16.5584 23.7065C16.5418 23.6913 16.5329 23.6825 16.5329 23.6825C15.87 23.0297 15.8625 21.9635 16.5161 21.3008C17.1697 20.6381 18.2369 20.6312 18.9004 21.284C19.3874 21.7075 19.7115 22.8776 19.8936 23.7538C20.0073 24.3014 19.5385 24.7954 18.9859 24.7049C17.9072 24.5285 17.2158 24.1701 16.8504 23.9274C16.7473 23.8656 16.6493 23.7914 16.5584 23.7053L16.5584 23.7065Z" fill="#5F231B"/>
<path d="M19.1352 20.5659C19.1238 20.5465 19.1179 20.5353 19.1179 20.5353C18.6823 19.7134 18.9969 18.6945 19.8197 18.2594C20.6425 17.8243 21.6625 18.1385 22.098 18.9605C22.4349 19.5113 22.3909 20.724 22.3009 21.6145C22.2446 22.171 21.6483 22.5007 21.1489 22.2489C20.1731 21.7563 19.622 21.2058 19.3469 20.8651C19.2671 20.7749 19.1962 20.6751 19.1352 20.5659Z" fill="#5F231B"/>
<path d="M29.2074 23.6172C29.2239 23.6018 29.2326 23.5929 29.2326 23.5929C29.8862 22.9308 29.8787 21.8646 29.2159 21.2112C28.553 20.5577 27.4858 20.5658 26.8316 21.228C26.3505 21.6583 26.043 22.8328 25.8732 23.7115C25.7673 24.2607 26.243 24.7479 26.7943 24.6497C27.8703 24.4581 28.5567 24.09 28.9186 23.8422C29.0208 23.779 29.1177 23.7034 29.2074 23.6161L29.2074 23.6172Z" fill="#5F231B"/>
<path d="M26.5862 20.5133C26.5973 20.4938 26.6031 20.4826 26.6031 20.4826C27.0271 19.6546 26.6982 18.6402 25.8693 18.2168C25.0405 17.7933 24.025 18.1218 23.6011 18.9498C23.272 19.5053 23.3331 20.7173 23.4356 21.6064C23.4997 22.1621 24.1006 22.4834 24.5964 22.2245C25.5652 21.7182 26.1085 21.1601 26.3788 20.8156C26.4573 20.7242 26.5268 20.6235 26.5862 20.5133Z" fill="#5F231B"/>
</g>
<path d="M11.042 1.22607L10.6635 7.50684" stroke="#5F231B" stroke-linecap="round"/>
<path d="M35.0811 1.22607L35.8441 7.50783" stroke="#5F231B" stroke-linecap="round"/>
<path d="M23.6348 1.22607L23.6347 7.50783" stroke="#5F231B" stroke-linecap="round"/>
<defs>
<clipPath id="clip0_2413_59451">
<rect width="13.6868" height="11.2767" fill="white" transform="matrix(-0.999975 0.00704073 0.00704073 0.999975 29.6865 18)"/>
</clipPath>
</defs>
</svg>
