<svg width="47" height="39" viewBox="0 0 47 39" fill="none" xmlns="http://www.w3.org/2000/svg">
<path fill-rule="evenodd" clip-rule="evenodd" d="M11.0294 12.968C11.5244 9.7806 12.7434 7.13298 14.5297 5.117C16.9501 2.3854 20.2361 1.02345 23.5304 1.00031C29.5556 0.957969 35.1698 5.30844 36.2734 12.7266C40.3453 13.3165 43.3008 14.2783 43.8455 15.6426C49.3991 37.7002 44.6683 37.7002 24.3542 37.7002H24.3541H24.3541C2.86972 37.7002 -3.70761 37.7002 4.27574 15.6426C4.69555 14.4827 7.31698 13.5823 11.0294 12.968ZM30.0192 12.1427C28.9342 8.54184 26.0776 6.98256 23.5726 7.00016C21.9205 7.01177 20.2725 7.68306 19.0205 9.09612C18.3465 9.85676 17.7357 10.8937 17.323 12.2609C21.3941 11.9734 25.895 11.9276 30.0192 12.1427Z" fill="#FFD4C0"/>
<path d="M11.0294 12.968L11.1111 13.4613L11.468 13.4022L11.5235 13.0447L11.0294 12.968ZM14.5297 5.117L14.1555 4.7854L14.1555 4.7854L14.5297 5.117ZM23.5304 1.00031L23.5339 1.50029L23.5339 1.50029L23.5304 1.00031ZM36.2734 12.7266L35.7789 12.8001L35.8336 13.1681L36.2018 13.2214L36.2734 12.7266ZM43.8455 15.6426L44.3303 15.5205L44.3222 15.4882L44.3098 15.4572L43.8455 15.6426ZM4.27574 15.6426L3.80559 15.4724L3.80559 15.4724L4.27574 15.6426ZM30.0192 12.1427L29.9932 12.642L30.703 12.6791L30.498 11.9985L30.0192 12.1427ZM23.5726 7.00016L23.5761 7.50015L23.5761 7.50015L23.5726 7.00016ZM19.0205 9.09612L19.3947 9.42771L19.3947 9.42771L19.0205 9.09612ZM17.323 12.2609L16.8443 12.1164L16.6347 12.8108L17.3582 12.7597L17.323 12.2609ZM11.5235 13.0447C12.0057 9.93992 13.1888 7.38422 14.904 5.44859L14.1555 4.7854C12.298 6.88174 11.0432 9.62127 10.5353 12.8912L11.5235 13.0447ZM14.904 5.44859C17.2269 2.82693 20.3764 1.52248 23.5339 1.50029L23.5269 0.500319C20.0958 0.524427 16.6733 1.94386 14.1555 4.7854L14.904 5.44859ZM23.5339 1.50029C29.3002 1.45978 34.7104 5.6185 35.7789 12.8001L36.768 12.653C35.6291 4.99839 29.811 0.456162 23.5269 0.500319L23.5339 1.50029ZM36.2018 13.2214C38.2222 13.5141 39.9403 13.8959 41.2094 14.3634C41.844 14.5972 42.349 14.8461 42.719 15.1044C43.0922 15.3648 43.2946 15.6112 43.3811 15.828L44.3098 15.4572C44.1241 14.9919 43.7527 14.6064 43.2913 14.2844C42.8268 13.9601 42.2363 13.676 41.555 13.425C40.1922 12.923 38.3966 12.529 36.3451 12.2317L36.2018 13.2214ZM43.3606 15.7647C44.7476 21.2736 45.4799 25.36 45.4996 28.3979C45.5192 31.4281 44.83 33.329 43.4636 34.5733C42.0732 35.8395 39.8883 36.5162 36.6974 36.8584C33.5167 37.1995 29.4432 37.2002 24.3542 37.2002V38.2002C29.4222 38.2002 33.5579 38.2009 36.804 37.8527C40.0399 37.5056 42.4996 36.8037 44.1369 35.3127C45.7983 33.7998 46.5201 31.5649 46.4996 28.3914C46.4791 25.2256 45.7201 21.0404 44.3303 15.5205L43.3606 15.7647ZM24.3542 37.2002H24.3541V38.2002H24.3542V37.2002ZM24.3541 37.2002H24.3541V38.2002H24.3541V37.2002ZM24.3541 37.2002C18.9737 37.2002 14.5625 37.1996 11.0793 36.8579C7.58157 36.5148 5.12642 35.8347 3.58328 34.5578C2.08123 33.3148 1.3579 31.4287 1.52302 28.4221C1.68914 25.397 2.75315 21.3186 4.74589 15.8128L3.80559 15.4724C1.80665 20.9954 0.699079 25.1886 0.52452 28.3672C0.348953 31.5642 1.11585 33.814 2.94576 35.3282C4.73457 36.8085 7.45312 37.507 10.9817 37.8532C14.5247 38.2007 18.9923 38.2002 24.3541 38.2002V37.2002ZM4.74589 15.8128C4.80221 15.6571 4.95431 15.4571 5.27516 15.2297C5.59123 15.0057 6.03209 14.7829 6.59599 14.5679C7.72303 14.1381 9.26934 13.766 11.1111 13.4613L10.9478 12.4747C9.07707 12.7843 7.45644 13.1695 6.2397 13.6335C5.63171 13.8654 5.10647 14.1236 4.69694 14.4138C4.29218 14.7006 3.95917 15.0481 3.80559 15.4724L4.74589 15.8128ZM30.498 11.9985C29.3463 8.17621 26.2865 6.48108 23.569 6.50017L23.5761 7.50015C25.8687 7.48404 28.5222 8.90746 29.5405 12.287L30.498 11.9985ZM23.5691 6.50017C21.7799 6.51274 19.9956 7.24171 18.6462 8.76452L19.3947 9.42771C20.5495 8.1244 22.061 7.51079 23.5761 7.50015L23.5691 6.50017ZM18.6462 8.76452C17.9213 9.58266 17.2766 10.6846 16.8443 12.1164L17.8017 12.4054C18.1948 11.1029 18.7716 10.1309 19.3947 9.42771L18.6462 8.76452ZM17.3582 12.7597C21.4091 12.4736 25.8896 12.428 29.9932 12.642L30.0453 11.6434C25.9004 11.4273 21.379 11.4732 17.2878 11.7622L17.3582 12.7597Z" fill="#5F231B"/>
<path d="M36.8673 15.8665C36.8831 14.3938 35.7021 13.1908 34.2294 13.1794C32.7566 13.1679 31.55 14.3525 31.5342 15.8252C31.5184 17.2979 32.6994 18.501 34.1721 18.5124C35.6449 18.5238 36.8515 17.3392 36.8673 15.8665ZM15.9652 15.8475C15.981 14.3748 14.7999 13.1718 13.3272 13.1603C11.8545 13.1489 10.6478 14.3335 10.632 15.8062C10.6162 17.2789 11.7973 18.482 13.27 18.4934C14.7427 18.5048 15.9494 17.3202 15.9652 15.8475ZM34.7007 15.8497C34.7819 8.28305 29.3139 3.96815 23.8193 3.71619C21.0733 3.59026 18.3052 4.47748 16.2245 6.48995C14.1395 8.5066 12.7895 11.6092 12.7986 15.8294L13.7986 15.8243C13.79 11.8254 15.0634 9.00207 16.9186 7.2077C18.7782 5.40915 21.2671 4.60031 23.7705 4.71511C28.7749 4.9446 33.7757 8.85829 33.7008 15.842L34.7007 15.8497Z" fill="white"/>
<rect x="18.7441" y="24.7007" width="11.4815" height="2" rx="1" fill="#5F231B"/>
<rect width="13" height="2.08754" rx="1" transform="matrix(-4.56247e-08 -1 -1 4.18783e-08 26.0508 32.7007)" fill="#5F231B"/>
</svg>
