<svg width="45" height="40" viewBox="0 0 45 40" fill="none" xmlns="http://www.w3.org/2000/svg">
<mask id="path-1-inside-1_2413_59450" fill="white">
<path fill-rule="evenodd" clip-rule="evenodd" d="M15.9217 7.70111C19.9702 7.50148 24.7911 7.49494 28.7371 7.66443C28.674 6.85349 28.5386 6.44908 28.3986 6.21871C28.2186 5.92244 27.4431 5 22.699 5C17.9199 5 16.7923 5.81165 16.4125 6.33252C16.2298 6.58303 16.0506 6.98351 15.9217 7.70111ZM33.7631 8.0446C34.4385 8.13051 35.0059 8.22712 35.4386 8.33416C39.9889 9.45982 45.0092 21.3961 42.3549 23.6474C39.7005 25.8988 3.72207 25.5236 1.8261 23.6474C-0.0698745 21.7713 4.62065 10.2377 8.03341 8.73676C8.58702 8.49329 9.56245 8.28859 10.8277 8.1213C10.8406 7.98033 10.855 7.84127 10.8708 7.70425C11.0409 6.23491 11.4128 4.70254 12.3726 3.38641C14.3661 0.652909 17.9851 0 22.699 0C27.4481 0 30.9488 0.786611 32.6718 3.62257C33.4693 4.93532 33.679 6.39335 33.7466 7.65168C33.7534 7.77945 33.7589 7.91064 33.7631 8.0446Z"/>
</mask>
<path fill-rule="evenodd" clip-rule="evenodd" d="M15.9217 7.70111C19.9702 7.50148 24.7911 7.49494 28.7371 7.66443C28.674 6.85349 28.5386 6.44908 28.3986 6.21871C28.2186 5.92244 27.4431 5 22.699 5C17.9199 5 16.7923 5.81165 16.4125 6.33252C16.2298 6.58303 16.0506 6.98351 15.9217 7.70111ZM33.7631 8.0446C34.4385 8.13051 35.0059 8.22712 35.4386 8.33416C39.9889 9.45982 45.0092 21.3961 42.3549 23.6474C39.7005 25.8988 3.72207 25.5236 1.8261 23.6474C-0.0698745 21.7713 4.62065 10.2377 8.03341 8.73676C8.58702 8.49329 9.56245 8.28859 10.8277 8.1213C10.8406 7.98033 10.855 7.84127 10.8708 7.70425C11.0409 6.23491 11.4128 4.70254 12.3726 3.38641C14.3661 0.652909 17.9851 0 22.699 0C27.4481 0 30.9488 0.786611 32.6718 3.62257C33.4693 4.93532 33.679 6.39335 33.7466 7.65168C33.7534 7.77945 33.7589 7.91064 33.7631 8.0446Z" fill="#FFD4C0"/>
<path d="M15.9217 7.70111L14.9375 7.52426L14.7151 8.76182L15.9709 8.6999L15.9217 7.70111ZM28.7371 7.66443L28.6942 8.66351L29.8216 8.71194L29.7341 7.58686L28.7371 7.66443ZM28.3986 6.21871L27.544 6.73793L27.544 6.73794L28.3986 6.21871ZM16.4125 6.33252L15.6045 5.74329V5.74329L16.4125 6.33252ZM33.7631 8.0446L32.7637 8.07648L32.7908 8.92898L33.637 9.0366L33.7631 8.0446ZM35.4386 8.33416L35.6787 7.36342L35.4386 8.33416ZM42.3549 23.6474L41.708 22.8848L42.3549 23.6474ZM1.8261 23.6474L2.52947 22.9366L1.8261 23.6474ZM8.03341 8.73676L7.63083 7.82138L8.03341 8.73676ZM10.8277 8.1213L10.9588 9.11267L11.7504 9.008L11.8235 8.21283L10.8277 8.1213ZM10.8708 7.70425L11.8642 7.81925V7.81924L10.8708 7.70425ZM12.3726 3.38641L11.5647 2.79718L11.5647 2.79719L12.3726 3.38641ZM32.6718 3.62257L33.5264 3.10334V3.10334L32.6718 3.62257ZM33.7466 7.65168L34.7451 7.5981L34.7451 7.5981L33.7466 7.65168ZM15.9709 8.6999C19.9878 8.50183 24.7779 8.4953 28.6942 8.66351L28.78 6.66535C24.8042 6.49459 19.9526 6.50113 15.8724 6.70233L15.9709 8.6999ZM29.7341 7.58686C29.6661 6.71362 29.5125 6.12619 29.2532 5.69947L27.544 6.73794C27.5646 6.77197 27.6818 6.99336 27.7401 7.74201L29.7341 7.58686ZM29.2532 5.69948C28.7657 4.89702 27.4483 4 22.699 4V6C27.4378 6 27.6715 6.94787 27.544 6.73793L29.2532 5.69948ZM22.699 4C20.2662 4 18.6837 4.20506 17.6282 4.5103C16.5498 4.82218 15.9583 5.25815 15.6045 5.74329L17.2205 6.92174C17.2465 6.88602 17.4087 6.65574 18.1838 6.43157C18.9819 6.20077 20.3527 6 22.699 6V4ZM15.6045 5.74329C15.3019 6.15825 15.0821 6.7192 14.9375 7.52426L16.9059 7.87797C17.0192 7.24783 17.1577 7.00781 17.2205 6.92174L15.6045 5.74329ZM33.637 9.0366C34.2948 9.12028 34.8192 9.21109 35.1984 9.30489L35.6787 7.36342C35.1925 7.24314 34.5823 7.14074 33.8893 7.05259L33.637 9.0366ZM35.1984 9.30489C36.0166 9.50728 37.0108 10.2571 38.0368 11.5167C39.0376 12.7453 39.9648 14.3315 40.6825 15.9699C41.4019 17.6121 41.8868 19.2519 42.0406 20.5784C42.1176 21.2427 42.1065 21.7864 42.0255 22.1948C41.9439 22.6064 41.8089 22.7992 41.708 22.8848L43.0017 24.4101C43.5644 23.9328 43.8532 23.2602 43.9873 22.5837C44.1221 21.904 44.1187 21.137 44.0272 20.3481C43.8441 18.7682 43.2872 16.9314 42.5145 15.1674C41.7401 13.3997 40.7249 11.65 39.5875 10.2536C38.4754 8.88824 37.1357 7.72386 35.6787 7.36342L35.1984 9.30489ZM41.708 22.8848C41.7123 22.8812 41.5909 22.9651 41.2011 23.0797C40.8469 23.1838 40.3685 23.2864 39.7688 23.3837C38.5721 23.578 36.977 23.7381 35.1024 23.8633C31.3584 24.1132 26.5786 24.2186 21.811 24.1952C17.0439 24.1719 12.3092 24.0199 8.6568 23.7581C6.82785 23.627 5.28893 23.4697 4.15952 23.2908C3.59266 23.201 3.15227 23.1093 2.83932 23.0198C2.68273 22.9751 2.57696 22.9362 2.51183 22.9069C2.4336 22.8717 2.46544 22.8733 2.52947 22.9366L1.12273 24.3583C1.30526 24.5389 1.52216 24.6548 1.69146 24.7309C1.87385 24.8129 2.07804 24.8824 2.28976 24.9429C2.71344 25.0639 3.24302 25.1705 3.84659 25.2661C5.05802 25.458 6.6617 25.6202 8.51383 25.753C12.2236 26.0188 17.0049 26.1717 21.8012 26.1952C26.597 26.2187 31.4279 26.1131 35.2357 25.8588C37.137 25.7319 38.803 25.5667 40.0893 25.3579C40.7311 25.2537 41.2997 25.1353 41.7651 24.9985C42.1949 24.8721 42.6657 24.6951 43.0017 24.4101L41.708 22.8848ZM2.52947 22.9366C2.53898 22.946 2.44219 22.8436 2.40415 22.4366C2.36858 22.056 2.39719 21.5387 2.5028 20.9005C2.7131 19.6294 3.2009 18.0404 3.86355 16.4324C4.52481 14.8278 5.3418 13.249 6.1866 11.9945C7.06357 10.6922 7.86237 9.90442 8.43599 9.65215L7.63083 7.82138C6.49807 8.31956 5.43077 9.53631 4.52768 10.8774C3.59241 12.2662 2.71538 13.9694 2.01441 15.6704C1.31483 17.368 0.772196 19.1079 0.529623 20.574C0.408784 21.3043 0.355346 22.0076 0.412831 22.6227C0.467851 23.2114 0.639227 23.8798 1.12273 24.3583L2.52947 22.9366ZM8.43599 9.65215C8.84576 9.47194 9.69274 9.28007 10.9588 9.11267L10.6966 7.12993C9.43215 7.29712 8.32829 7.51464 7.63083 7.82138L8.43599 9.65215ZM11.8235 8.21283C11.8358 8.0791 11.8493 7.94788 11.8642 7.81925L9.87748 7.58926C9.86064 7.73466 9.84551 7.88157 9.83188 8.02977L11.8235 8.21283ZM11.8642 7.81924C12.0256 6.42526 12.3673 5.09083 13.1806 3.97563L11.5647 2.79719C10.4583 4.31425 10.0563 6.04457 9.87748 7.58926L11.8642 7.81924ZM13.1806 3.97563C14.8514 1.68455 17.9723 1 22.699 1V-1C17.9978 -1 13.8807 -0.378733 11.5647 2.79718L13.1806 3.97563ZM22.699 1C27.4491 1 30.4033 1.81461 31.8171 4.14179L33.5264 3.10334C31.4943 -0.24139 27.4471 -1 22.699 -1V1ZM31.8171 4.14179C32.4862 5.243 32.6835 6.50255 32.748 7.70526L34.7451 7.5981C34.6746 6.28415 34.4525 4.62764 33.5264 3.10334L31.8171 4.14179ZM32.748 7.70525C32.7544 7.82487 32.7596 7.94877 32.7637 8.07648L34.7626 8.01272C34.7582 7.87252 34.7524 7.73403 34.7451 7.5981L32.748 7.70525Z" fill="#5F231B" mask="url(#path-1-inside-1_2413_59450)"/>
<path d="M8.7094 37.8003C9.07347 37.9387 9.69226 38.0727 10.5395 38.1927C11.3764 38.3113 12.4033 38.4121 13.5636 38.4949C15.8836 38.6605 18.7161 38.7529 21.5879 38.7756C24.4592 38.7984 27.3637 38.7516 29.8269 38.6397C32.3021 38.5272 34.2973 38.3503 35.3704 38.1208C36.3441 37.9127 37.4056 37.184 38.4278 36.0994C39.4406 35.0248 40.3693 33.649 41.085 32.237C41.8023 30.822 42.2907 29.4 42.4467 28.2379C42.6088 27.0292 42.3902 26.3037 41.979 26.0023C41.8998 25.9442 41.6913 25.8517 41.2945 25.7509C40.9163 25.6548 40.4214 25.5639 39.8203 25.4796C38.6192 25.3111 37.0315 25.1738 35.1812 25.0671C31.4827 24.8537 26.7694 24.7641 22.0744 24.784C17.3796 24.8039 12.7119 24.9332 9.10527 25.1566C7.30076 25.2684 5.77 25.4032 4.63717 25.5583C4.06975 25.636 3.61255 25.7174 3.27497 25.8007C3.10604 25.8425 2.97592 25.8825 2.88113 25.9194C2.79651 25.9523 2.76151 25.9745 2.75476 25.9788C2.75334 25.9797 2.75316 25.9798 2.75402 25.979C2.65875 26.0605 2.55481 26.2401 2.51563 26.6025C2.47721 26.9577 2.50921 27.4224 2.61551 27.9776C2.82752 29.085 3.31623 30.4572 3.97453 31.8377C4.63166 33.2157 5.44623 34.5778 6.295 35.6671C7.15771 36.7742 8.00456 37.5325 8.7094 37.8003Z" fill="#FFD4C0" stroke="#5F231B"/>
<rect x="0.5" y="21.2812" width="44" height="6" rx="1.5" fill="white" stroke="#5F231B"/>
<rect width="2.11285" height="5.04696" rx="1.05642" transform="matrix(0.997868 0.0652611 -0.0792227 0.996857 11.5205 13.8491)" fill="white"/>
<rect width="2.11285" height="5.04696" rx="1.05642" transform="matrix(-0.997868 0.0652611 0.0792227 0.996857 32.6904 13.8491)" fill="white"/>
<rect x="17" y="14.2812" width="3" height="5" rx="1.5" fill="white"/>
<rect x="24" y="14.2812" width="2" height="5" rx="1" fill="white"/>
<g clip-path="url(#clip0_2413_59450)">
<path d="M24.94 33.8913C24.8824 33.8137 24.8606 33.7003 24.8218 33.6133C24.6169 33.1551 24.2267 32.6857 23.674 32.6993C23.674 32.6993 22.6653 32.6905 22.5291 33.5847C22.4917 33.8306 22.364 33.9779 22.1262 34.0584C22.0075 34.0987 21.8846 34.1252 21.7668 34.1677C21.3081 34.333 21.11 34.8034 21.1167 35.2623C21.1229 35.6994 21.3969 36.0842 21.8073 36.2356C22.2979 36.4164 22.8057 36.1647 23.298 36.1112C23.8226 36.054 24.3568 36.0802 24.8735 36.1871C25.1583 36.2461 25.4345 36.2904 25.7118 36.1674C26.0141 36.0335 26.1711 35.7367 26.2294 35.4238C26.3296 34.8865 26.046 34.1626 25.458 34.0556C25.399 34.0448 25.3388 34.043 25.2796 34.0347C25.1909 34.0225 25.1039 33.9971 25.0225 33.9598C24.988 33.9441 24.9615 33.9199 24.9397 33.8909L24.94 33.8913Z" fill="#5F231B"/>
<path d="M20.2965 33.3091C20.2877 33.301 20.2829 33.2964 20.2829 33.2964C19.9313 32.95 19.9273 32.3843 20.2741 32.0327C20.6208 31.681 21.1871 31.6774 21.5391 32.0238C21.7975 32.2485 21.9695 32.8693 22.0661 33.3342C22.1264 33.6247 21.8777 33.8868 21.5845 33.8388C21.0122 33.7452 20.6453 33.5551 20.4514 33.4263C20.3967 33.3935 20.3447 33.3541 20.2965 33.3085L20.2965 33.3091Z" fill="#5F231B"/>
<path d="M21.6632 31.6428C21.6572 31.6325 21.654 31.6266 21.654 31.6266C21.4229 31.1905 21.5898 30.6499 22.0264 30.419C22.4629 30.1882 23.0041 30.3549 23.2352 30.791C23.4139 31.0832 23.3906 31.7267 23.3428 32.1992C23.313 32.4944 22.9966 32.6694 22.7316 32.5358C22.2139 32.2744 21.9215 31.9823 21.7755 31.8016C21.7332 31.7537 21.6955 31.7008 21.6632 31.6428Z" fill="#5F231B"/>
<path d="M27.0069 33.2619C27.0156 33.2537 27.0203 33.249 27.0203 33.249C27.3671 32.8977 27.3631 32.332 27.0114 31.9853C26.6597 31.6386 26.0934 31.6429 25.7464 31.9942C25.4911 32.2225 25.3279 32.8457 25.2379 33.3119C25.1817 33.6033 25.4341 33.8618 25.7266 33.8097C26.2975 33.7081 26.6616 33.5128 26.8537 33.3812C26.9079 33.3477 26.9593 33.3076 27.0069 33.2613L27.0069 33.2619Z" fill="#5F231B"/>
<path d="M25.6169 31.6149C25.6228 31.6045 25.6259 31.5986 25.6259 31.5986C25.8508 31.1593 25.6763 30.6211 25.2365 30.3964C24.7967 30.1717 24.258 30.346 24.033 30.7853C23.8584 31.08 23.8908 31.7231 23.9452 32.1949C23.9792 32.4897 24.2981 32.6602 24.5611 32.5228C25.0751 32.2542 25.3634 31.958 25.5068 31.7752C25.5485 31.7268 25.5854 31.6733 25.6169 31.6149Z" fill="#5F231B"/>
</g>
<defs>
<clipPath id="clip0_2413_59450">
<rect width="7.26194" height="5.98318" fill="white" transform="matrix(-0.999975 0.00704073 0.00704073 0.999975 27.2617 30.2812)"/>
</clipPath>
</defs>
</svg>
